const unsigned char _mid[] PROGMEM = {
  0x4d, 0x54, 0x68, 0x64, 0x00, 0x00, 0x00, 0x06, 0x00, 0x01, 0x00, 0x04,
  0x03, 0xc0, 0x4d, 0x54, 0x72, 0x6b, 0x00, 0x00, 0x00, 0x33, 0x00, 0xff,
  0x7f, 0x08, 0x05, 0x0f, 0x12, 0x00, 0x00, 0x7f, 0x7f, 0x00, 0x00, 0xff,
  0x7f, 0x0d, 0x05, 0x0f, 0x1c, 0x32, 0x30, 0x30, 0x35, 0x2e, 0x31, 0x32,
  0x2e, 0x30, 0x32, 0x00, 0xff, 0x03, 0x07, 0x54, 0x72, 0x61, 0x63, 0x6b,
  0x20, 0x30, 0x00, 0xff, 0x51, 0x03, 0x0d, 0x14, 0x37, 0x00, 0xff, 0x2f,
  0x00, 0x4d, 0x54, 0x72, 0x6b, 0x00, 0x00, 0x2a, 0x40, 0x00, 0xc0, 0x00,
  0x00, 0xff, 0x7f, 0x05, 0x05, 0x0f, 0x09, 0x40, 0x48, 0x00, 0xff, 0x02,
  0x14, 0x32, 0x30, 0x30, 0x36, 0x20, 0x62, 0x79, 0x20, 0x66, 0x6f, 0x72,
  0x65, 0x6c, 0x69, 0x73, 0x65, 0x2e, 0x63, 0x6f, 0x6d, 0x00, 0xff, 0x04,
  0x05, 0x50, 0x69, 0x61, 0x6e, 0x6f, 0x00, 0xff, 0x03, 0x09, 0x46, 0xfc,
  0x72, 0x20, 0x45, 0x6c, 0x69, 0x73, 0x65, 0x00, 0xff, 0x7f, 0x0f, 0x05,
  0x0f, 0x06, 0x47, 0x65, 0x6e, 0x65, 0x72, 0x61, 0x6c, 0x20, 0x4d, 0x49,
  0x44, 0x49, 0x00, 0xff, 0x58, 0x04, 0x03, 0x03, 0x0c, 0x08, 0x00, 0xff,
  0x20, 0x01, 0x00, 0x87, 0x40, 0x90, 0x4c, 0x47, 0x81, 0x70, 0x80, 0x4c,
  0x00, 0x00, 0x90, 0x4b, 0x26, 0x81, 0x70, 0x80, 0x4b, 0x00, 0x00, 0x90,
  0x4c, 0x39, 0x81, 0x70, 0x80, 0x4c, 0x00, 0x00, 0x90, 0x4b, 0x46, 0x81,
  0x70, 0x80, 0x4b, 0x00, 0x00, 0x90, 0x4c, 0x4c, 0x81, 0x70, 0x80, 0x4c,
  0x00, 0x00, 0x90, 0x47, 0x4c, 0x81, 0x70, 0x80, 0x47, 0x00, 0x00, 0x90,
  0x4a, 0x4c, 0x81, 0x70, 0x80, 0x4a, 0x00, 0x00, 0x90, 0x48, 0x53, 0x81,
  0x70, 0x80, 0x48, 0x00, 0x00, 0x90, 0x45, 0x59, 0x00, 0xff, 0x7f, 0x04,
  0x05, 0x0f, 0x0f, 0x02, 0x00, 0x90, 0x2d, 0x40, 0x81, 0x70, 0x80, 0x2d,
  0x00, 0x00, 0x90, 0x34, 0x40, 0x81, 0x70, 0x80, 0x34, 0x00, 0x00, 0x90,
  0x39, 0x46, 0x81, 0x70, 0x80, 0x45, 0x00, 0x00, 0x80, 0x39, 0x00, 0x00,
  0x90, 0x3c, 0x4c, 0x81, 0x70, 0x80, 0x3c, 0x00, 0x00, 0x90, 0x40, 0x4c,
  0x81, 0x70, 0x80, 0x40, 0x00, 0x00, 0x90, 0x45, 0x4c, 0x81, 0x70, 0x80,
  0x45, 0x00, 0x00, 0x90, 0x47, 0x53, 0x00, 0xff, 0x7f, 0x04, 0x05, 0x0f,
  0x0f, 0x02, 0x00, 0x90, 0x28, 0x40, 0x81, 0x70, 0x80, 0x28, 0x00, 0x00,
  0x90, 0x34, 0x40, 0x81, 0x70, 0x80, 0x34, 0x00, 0x00, 0x90, 0x38, 0x46,
  0x81, 0x70, 0x80, 0x47, 0x00, 0x00, 0x80, 0x38, 0x00, 0x00, 0x90, 0x40,
  0x4c, 0x81, 0x70, 0x80, 0x40, 0x00, 0x00, 0x90, 0x44, 0x4c, 0x81, 0x70,
  0x80, 0x44, 0x00, 0x00, 0x90, 0x47, 0x4c, 0x81, 0x70, 0x80, 0x47, 0x00,
  0x00, 0x90, 0x48, 0x53, 0x00, 0x90, 0x2d, 0x40, 0x81, 0x70, 0x80, 0x2d,
  0x00, 0x00, 0x90, 0x34, 0x46, 0x81, 0x70, 0x80, 0x34, 0x00, 0x00, 0x90,
  0x39, 0x4c, 0x81, 0x70, 0x80, 0x48, 0x00, 0x00, 0x80, 0x39, 0x00, 0x00,
  0x90, 0x40, 0x4c, 0x81, 0x70, 0x80, 0x40, 0x00, 0x00, 0x90, 0x4c, 0x4c,
  0x81, 0x70, 0x80, 0x4c, 0x00, 0x00, 0x90, 0x4b, 0x40, 0x81, 0x70, 0x80,
  0x4b, 0x00, 0x00, 0x90, 0x4c, 0x4c, 0x81, 0x70, 0x80, 0x4c, 0x00, 0x00,
  0x90, 0x4b, 0x46, 0x81, 0x70, 0x80, 0x4b, 0x00, 0x00, 0x90, 0x4c, 0x4c,
  0x81, 0x70, 0x80, 0x4c, 0x00, 0x00, 0x90, 0x47, 0x4c, 0x81, 0x70, 0x80,
  0x47, 0x00, 0x00, 0x90, 0x4a, 0x4c, 0x81, 0x70, 0x80, 0x4a, 0x00, 0x00,
  0x90, 0x48, 0x4c, 0x81, 0x70, 0x80, 0x48, 0x00, 0x00, 0x90, 0x45, 0x53,
  0x00, 0xff, 0x7f, 0x04, 0x05, 0x0f, 0x0f, 0x02, 0x00, 0x90, 0x2d, 0x39,
  0x81, 0x70, 0x80, 0x2d, 0x00, 0x00, 0x90, 0x34, 0x40, 0x81, 0x70, 0x80,
  0x34, 0x00, 0x00, 0x90, 0x39, 0x46, 0x81, 0x70, 0x80, 0x45, 0x00, 0x00,
  0x80, 0x39, 0x00, 0x00, 0x90, 0x3c, 0x4c, 0x81, 0x70, 0x80, 0x3c, 0x00,
  0x00, 0x90, 0x40, 0x4c, 0x81, 0x70, 0x80, 0x40, 0x00, 0x00, 0x90, 0x45,
  0x4c, 0x81, 0x70, 0x80, 0x45, 0x00, 0x00, 0x90, 0x47, 0x53, 0x00, 0xff,
  0x7f, 0x04, 0x05, 0x0f, 0x0f, 0x02, 0x00, 0x90, 0x28, 0x40, 0x81, 0x70,
  0x80, 0x28, 0x00, 0x00, 0x90, 0x34, 0x46, 0x81, 0x70, 0x80, 0x34, 0x00,
  0x00, 0x90, 0x38, 0x4c, 0x81, 0x70, 0x80, 0x47, 0x00, 0x00, 0x80, 0x38,
  0x00, 0x00, 0x90, 0x40, 0x4c, 0x81, 0x70, 0x80, 0x40, 0x00, 0x00, 0x90,
  0x48, 0x4c, 0x81, 0x70, 0x80, 0x48, 0x00, 0x00, 0x90, 0x47, 0x4c, 0x81,
  0x70, 0x80, 0x47, 0x00, 0x00, 0x90, 0x45, 0x53, 0x00, 0x90, 0x2d, 0x40,
  0x81, 0x70, 0x80, 0x2d, 0x00, 0x00, 0x90, 0x34, 0x46, 0x81, 0x70, 0x80,
  0x34, 0x00, 0x00, 0x90, 0x39, 0x46, 0x81, 0x70, 0x80, 0x45, 0x00, 0x00,
  0x80, 0x39, 0x00, 0x81, 0x70, 0x90, 0x4c, 0x40, 0x81, 0x70, 0x80, 0x4c,
  0x00, 0x00, 0x90, 0x4b, 0x46, 0x81, 0x70, 0x80, 0x4b, 0x00, 0x00, 0x90,
  0x4c, 0x46, 0x81, 0x70, 0x80, 0x4c, 0x00, 0x00, 0x90, 0x4b, 0x40, 0x81,
  0x70, 0x80, 0x4b, 0x00, 0x00, 0x90, 0x4c, 0x4c, 0x81, 0x70, 0x80, 0x4c,
  0x00, 0x00, 0x90, 0x47, 0x4c, 0x81, 0x70, 0x80, 0x47, 0x00, 0x00, 0x90,
  0x4a, 0x4c, 0x81, 0x70, 0x80, 0x4a, 0x00, 0x00, 0x90, 0x48, 0x4c, 0x81,
  0x70, 0x80, 0x48, 0x00, 0x00, 0x90, 0x45, 0x4c, 0x00, 0x90, 0x2d, 0x4c,
  0x81, 0x70, 0x80, 0x2d, 0x00, 0x00, 0x90, 0x34, 0x4c, 0x81, 0x70, 0x80,
  0x34, 0x00, 0x00, 0x90, 0x39, 0x4c, 0x81, 0x70, 0x80, 0x39, 0x00, 0x00,
  0x80, 0x45, 0x00, 0x00, 0x90, 0x3c, 0x4c, 0x81, 0x70, 0x80, 0x3c, 0x00,
  0x00, 0x90, 0x40, 0x4c, 0x81, 0x70, 0x80, 0x40, 0x00, 0x00, 0x90, 0x45,
  0x4c, 0x81, 0x70, 0x80, 0x45, 0x00, 0x00, 0x90, 0x47, 0x53, 0x00, 0x90,
  0x28, 0x40, 0x81, 0x70, 0x80, 0x28, 0x00, 0x00, 0x90, 0x34, 0x46, 0x81,
  0x70, 0x80, 0x34, 0x00, 0x00, 0x90, 0x38, 0x4c, 0x81, 0x70, 0x80, 0x47,
  0x00, 0x00, 0x80, 0x38, 0x00, 0x00, 0x90, 0x40, 0x4c, 0x81, 0x70, 0x80,
  0x40, 0x00, 0x00, 0x90, 0x44, 0x4c, 0x81, 0x70, 0x80, 0x44, 0x00, 0x00,
  0x90, 0x47, 0x4c, 0x81, 0x70, 0x80, 0x47, 0x00, 0x00, 0x90, 0x48, 0x4c,
  0x00, 0x90, 0x2d, 0x40, 0x81, 0x70, 0x80, 0x2d, 0x00, 0x00, 0x90, 0x34,
  0x4c, 0x81, 0x70, 0x80, 0x34, 0x00, 0x00, 0x80, 0x48, 0x00, 0x00, 0x90,
  0x39, 0x4c, 0x81, 0x70, 0x80, 0x39, 0x00, 0x00, 0x90, 0x40, 0x4c, 0x81,
  0x70, 0x80, 0x40, 0x00, 0x00, 0x90, 0x4c, 0x4c, 0x81, 0x70, 0x80, 0x4c,
  0x00, 0x00, 0x90, 0x4b, 0x46, 0x81, 0x70, 0x80, 0x4b, 0x00, 0x00, 0x90,
  0x4c, 0x4c, 0x81, 0x70, 0x80, 0x4c, 0x00, 0x00, 0x90, 0x4b, 0x46, 0x81,
  0x70, 0x80, 0x4b, 0x00, 0x00, 0x90, 0x4c, 0x4c, 0x81, 0x70, 0x80, 0x4c,
  0x00, 0x00, 0x90, 0x47, 0x4c, 0x81, 0x70, 0x80, 0x47, 0x00, 0x00, 0x90,
  0x4a, 0x4c, 0x81, 0x70, 0x80, 0x4a, 0x00, 0x00, 0x90, 0x48, 0x4c, 0x81,
  0x70, 0x80, 0x48, 0x00, 0x00, 0x90, 0x45, 0x4c, 0x00, 0x90, 0x2d, 0x46,
  0x81, 0x70, 0x80, 0x2d, 0x00, 0x00, 0x90, 0x34, 0x4c, 0x81, 0x70, 0x80,
  0x34, 0x00, 0x00, 0x80, 0x45, 0x00, 0x00, 0x90, 0x39, 0x4c, 0x81, 0x70,
  0x80, 0x39, 0x00, 0x00, 0x90, 0x3c, 0x4c, 0x81, 0x70, 0x80, 0x3c, 0x00,
  0x00, 0x90, 0x40, 0x4c, 0x81, 0x70, 0x80, 0x40, 0x00, 0x00, 0x90, 0x45,
  0x4c, 0x81, 0x70, 0x80, 0x45, 0x00, 0x00, 0x90, 0x47, 0x4c, 0x00, 0x90,
  0x28, 0x40, 0x81, 0x70, 0x80, 0x28, 0x00, 0x00, 0x90, 0x34, 0x4c, 0x81,
  0x70, 0x80, 0x34, 0x00, 0x00, 0x80, 0x47, 0x00, 0x00, 0x90, 0x38, 0x4c,
  0x81, 0x70, 0x80, 0x38, 0x00, 0x00, 0x90, 0x40, 0x4c, 0x81, 0x70, 0x80,
  0x40, 0x00, 0x00, 0x90, 0x48, 0x4c, 0x81, 0x70, 0x80, 0x48, 0x00, 0x00,
  0x90, 0x47, 0x4c, 0x81, 0x70, 0x80, 0x47, 0x00, 0x00, 0x90, 0x45, 0x53,
  0x00, 0x90, 0x2d, 0x4c, 0x81, 0x70, 0x80, 0x2d, 0x00, 0x00, 0x90, 0x34,
  0x4c, 0x81, 0x70, 0x80, 0x45, 0x00, 0x00, 0x80, 0x34, 0x00, 0x00, 0x90,
  0x39, 0x4c, 0x81, 0x70, 0x80, 0x39, 0x00, 0x00, 0x90, 0x47, 0x4c, 0x81,
  0x70, 0x80, 0x47, 0x00, 0x00, 0x90, 0x48, 0x4c, 0x81, 0x70, 0x80, 0x48,
  0x00, 0x00, 0x90, 0x4a, 0x4c, 0x81, 0x70, 0x80, 0x4a, 0x00, 0x00, 0x90,
  0x4c, 0x4c, 0x00, 0xff, 0x7f, 0x04, 0x05, 0x0f, 0x0f, 0x11, 0x00, 0x90,
  0x30, 0x46, 0x81, 0x70, 0x80, 0x30, 0x00, 0x00, 0x90, 0x37, 0x4c, 0x81,
  0x70, 0x80, 0x37, 0x00, 0x00, 0x90, 0x3c, 0x4c, 0x00, 0xff, 0x7f, 0x04,
  0x05, 0x0f, 0x0f, 0x08, 0x81, 0x70, 0x80, 0x4c, 0x00, 0x00, 0x80, 0x3c,
  0x00, 0x00, 0x90, 0x43, 0x4c, 0x81, 0x70, 0x80, 0x43, 0x00, 0x00, 0x90,
  0x4d, 0x4c, 0x81, 0x70, 0x80, 0x4d, 0x00, 0x00, 0x90, 0x4c, 0x4c, 0x81,
  0x70, 0x80, 0x4c, 0x00, 0x00, 0x90, 0x4a, 0x4c, 0x00, 0xff, 0x7f, 0x04,
  0x05, 0x0f, 0x0f, 0x01, 0x00, 0x90, 0x2b, 0x40, 0x81, 0x70, 0x80, 0x2b,
  0x00, 0x00, 0x90, 0x37, 0x4c, 0x81, 0x70, 0x80, 0x37, 0x00, 0x00, 0x90,
  0x3b, 0x4c, 0x81, 0x70, 0x80, 0x4a, 0x00, 0x00, 0x80, 0x3b, 0x00, 0x00,
  0x90, 0x41, 0x4c, 0x81, 0x70, 0x80, 0x41, 0x00, 0x00, 0x90, 0x4c, 0x4c,
  0x81, 0x70, 0x80, 0x4c, 0x00, 0x00, 0x90, 0x4a, 0x4c, 0x81, 0x70, 0x80,
  0x4a, 0x00, 0x00, 0x90, 0x48, 0x4c, 0x00, 0x90, 0x2d, 0x40, 0x81, 0x70,
  0x80, 0x2d, 0x00, 0x00, 0x90, 0x34, 0x4c, 0x81, 0x70, 0x80, 0x34, 0x00,
  0x00, 0x90, 0x39, 0x4c, 0x81, 0x70, 0x80, 0x39, 0x00, 0x00, 0x80, 0x48,
  0x00, 0x00, 0x90, 0x40, 0x4c, 0x81, 0x70, 0x80, 0x40, 0x00, 0x00, 0x90,
  0x4a, 0x4c, 0x81, 0x70, 0x80, 0x4a, 0x00, 0x00, 0x90, 0x48, 0x4c, 0x81,
  0x70, 0x80, 0x48, 0x00, 0x00, 0x90, 0x47, 0x4c, 0x00, 0x90, 0x28, 0x40,
  0x81, 0x70, 0x80, 0x28, 0x00, 0x00, 0x90, 0x34, 0x4c, 0x81, 0x70, 0x80,
  0x34, 0x00, 0x00, 0x80, 0x47, 0x00, 0x00, 0x90, 0x40, 0x4c, 0x00, 0xff,
  0x7f, 0x04, 0x05, 0x0f, 0x0f, 0x08, 0x81, 0x70, 0x80, 0x40, 0x00, 0x00,
  0x90, 0x40, 0x4c, 0x81, 0x70, 0x80, 0x40, 0x00, 0x00, 0x90, 0x4c, 0x4c,
  0x81, 0x70, 0x80, 0x4c, 0x00, 0x00, 0x90, 0x40, 0x4c, 0x81, 0x70, 0x80,
  0x40, 0x00, 0x00, 0x90, 0x4c, 0x4c, 0x81, 0x70, 0x80, 0x4c, 0x00, 0x00,
  0x90, 0x4c, 0x46, 0x81, 0x70, 0x80, 0x4c, 0x00, 0x00, 0x90, 0x58, 0x40,
  0x81, 0x70, 0x80, 0x58, 0x00, 0x00, 0x90, 0x4b, 0x46, 0x81, 0x70, 0x80,
  0x4b, 0x00, 0x00, 0x90, 0x4c, 0x4c, 0x81, 0x70, 0x80, 0x4c, 0x00, 0x00,
  0x90, 0x4b, 0x4c, 0x81, 0x70, 0x80, 0x4b, 0x00, 0x00, 0x90, 0x4c, 0x4c,
  0x81, 0x70, 0x80, 0x4c, 0x00, 0x00, 0x90, 0x4b, 0x4c, 0x81, 0x70, 0x80,
  0x4b, 0x00, 0x00, 0x90, 0x4c, 0x4c, 0x81, 0x70, 0x80, 0x4c, 0x00, 0x00,
  0x90, 0x47, 0x4c, 0x81, 0x70, 0x80, 0x47, 0x00, 0x00, 0x90, 0x4a, 0x46,
  0x81, 0x70, 0x80, 0x4a, 0x00, 0x00, 0x90, 0x48, 0x4c, 0x81, 0x70, 0x80,
  0x48, 0x00, 0x00, 0x90, 0x45, 0x4c, 0x00, 0x90, 0x2d, 0x40, 0x81, 0x70,
  0x80, 0x2d, 0x00, 0x00, 0x90, 0x34, 0x46, 0x81, 0x70, 0x80, 0x34, 0x00,
  0x00, 0x80, 0x45, 0x00, 0x00, 0x90, 0x39, 0x4c, 0x81, 0x70, 0x80, 0x39,
  0x00, 0x00, 0x90, 0x3c, 0x4c, 0x81, 0x70, 0x80, 0x3c, 0x00, 0x00, 0x90,
  0x40, 0x4c, 0x81, 0x70, 0x80, 0x40, 0x00, 0x00, 0x90, 0x45, 0x4c, 0x81,
  0x70, 0x80, 0x45, 0x00, 0x00, 0x90, 0x47, 0x4c, 0x00, 0x90, 0x28, 0x40,
  0x81, 0x70, 0x80, 0x28, 0x00, 0x00, 0x90, 0x34, 0x46, 0x81, 0x70, 0x80,
  0x34, 0x00, 0x00, 0x80, 0x47, 0x00, 0x00, 0x90, 0x38, 0x4c, 0x81, 0x70,
  0x80, 0x38, 0x00, 0x00, 0x90, 0x40, 0x4c, 0x81, 0x70, 0x80, 0x40, 0x00,
  0x00, 0x90, 0x44, 0x4c, 0x81, 0x70, 0x80, 0x44, 0x00, 0x00, 0x90, 0x47,
  0x4c, 0x81, 0x70, 0x80, 0x47, 0x00, 0x00, 0x90, 0x48, 0x4c, 0x00, 0x90,
  0x2d, 0x46, 0x81, 0x70, 0x80, 0x2d, 0x00, 0x00, 0x90, 0x34, 0x4c, 0x81,
  0x70, 0x80, 0x34, 0x00, 0x00, 0x80, 0x48, 0x00, 0x00, 0x90, 0x39, 0x4c,
  0x81, 0x70, 0x80, 0x39, 0x00, 0x00, 0x90, 0x40, 0x4c, 0x81, 0x70, 0x80,
  0x40, 0x00, 0x00, 0x90, 0x4c, 0x4c, 0x81, 0x70, 0x80, 0x4c, 0x00, 0x00,
  0x90, 0x4b, 0x4c, 0x81, 0x70, 0x80, 0x4b, 0x00, 0x00, 0x90, 0x4c, 0x4c,
  0x81, 0x70, 0x80, 0x4c, 0x00, 0x00, 0x90, 0x4b, 0x46, 0x81, 0x70, 0x80,
  0x4b, 0x00, 0x00, 0x90, 0x4c, 0x4c, 0x81, 0x70, 0x80, 0x4c, 0x00, 0x00,
  0x90, 0x47, 0x46, 0x81, 0x70, 0x80, 0x47, 0x00, 0x00, 0x90, 0x4a, 0x4c,
  0x81, 0x70, 0x80, 0x4a, 0x00, 0x00, 0x90, 0x48, 0x4c, 0x81, 0x70, 0x80,
  0x48, 0x00, 0x00, 0x90, 0x45, 0x53, 0x00, 0x90, 0x2d, 0x40, 0x81, 0x70,
  0x80, 0x2d, 0x00, 0x00, 0x90, 0x34, 0x4c, 0x81, 0x70, 0x80, 0x34, 0x00,
  0x00, 0x80, 0x45, 0x00, 0x00, 0x90, 0x39, 0x4c, 0x81, 0x70, 0x80, 0x39,
  0x00, 0x00, 0x90, 0x3c, 0x4c, 0x81, 0x70, 0x80, 0x3c, 0x00, 0x00, 0x90,
  0x40, 0x4c, 0x81, 0x70, 0x80, 0x40, 0x00, 0x00, 0x90, 0x45, 0x4c, 0x81,
  0x70, 0x80, 0x45, 0x00, 0x00, 0x90, 0x47, 0x4c, 0x00, 0x90, 0x28, 0x40,
  0x81, 0x70, 0x80, 0x28, 0x00, 0x00, 0x90, 0x34, 0x46, 0x81, 0x70, 0x80,
  0x34, 0x00, 0x00, 0x80, 0x47, 0x00, 0x00, 0x90, 0x38, 0x4c, 0x81, 0x70,
  0x80, 0x38, 0x00, 0x00, 0x90, 0x40, 0x4c, 0x81, 0x70, 0x80, 0x40, 0x00,
  0x00, 0x90, 0x48, 0x4c, 0x81, 0x70, 0x80, 0x48, 0x00, 0x00, 0x90, 0x47,
  0x4c, 0x81, 0x70, 0x80, 0x47, 0x00, 0x00, 0x90, 0x45, 0x4c, 0x00, 0x90,
  0x2d, 0x46, 0x81, 0x70, 0x80, 0x2d, 0x00, 0x00, 0x90, 0x34, 0x4c, 0x81,
  0x70, 0x80, 0x34, 0x00, 0x00, 0x80, 0x45, 0x00, 0x00, 0x90, 0x39, 0x4c,
  0x81, 0x70, 0x80, 0x39, 0x00, 0x00, 0x90, 0x47, 0x4c, 0x81, 0x70, 0x80,
  0x47, 0x00, 0x00, 0x90, 0x48, 0x4c, 0x81, 0x70, 0x80, 0x48, 0x00, 0x00,
  0x90, 0x4a, 0x4c, 0x81, 0x70, 0x80, 0x4a, 0x00, 0x00, 0x90, 0x4c, 0x4c,
  0x00, 0xff, 0x7f, 0x04, 0x05, 0x0f, 0x0f, 0x11, 0x00, 0x90, 0x30, 0x40,
  0x81, 0x70, 0x80, 0x30, 0x00, 0x00, 0x90, 0x37, 0x46, 0x81, 0x70, 0x80,
  0x37, 0x00, 0x00, 0x90, 0x3c, 0x4c, 0x00, 0xff, 0x7f, 0x04, 0x05, 0x0f,
  0x0f, 0x08, 0x81, 0x70, 0x80, 0x4c, 0x00, 0x00, 0x80, 0x3c, 0x00, 0x00,
  0x90, 0x43, 0x4c, 0x81, 0x70, 0x80, 0x43, 0x00, 0x00, 0x90, 0x4d, 0x4c,
  0x81, 0x70, 0x80, 0x4d, 0x00, 0x00, 0x90, 0x4c, 0x4c, 0x81, 0x70, 0x80,
  0x4c, 0x00, 0x00, 0x90, 0x4a, 0x4c, 0x00, 0xff, 0x7f, 0x04, 0x05, 0x0f,
  0x0f, 0x01, 0x00, 0x90, 0x2b, 0x40, 0x81, 0x70, 0x80, 0x2b, 0x00, 0x00,
  0x90, 0x37, 0x46, 0x81, 0x70, 0x80, 0x37, 0x00, 0x00, 0x90, 0x3b, 0x4c,
  0x81, 0x70, 0x80, 0x4a, 0x00, 0x00, 0x80, 0x3b, 0x00, 0x00, 0x90, 0x41,
  0x4c, 0x81, 0x70, 0x80, 0x41, 0x00, 0x00, 0x90, 0x4c, 0x4c, 0x81, 0x70,
  0x80, 0x4c, 0x00, 0x00, 0x90, 0x4a, 0x4c, 0x81, 0x70, 0x80, 0x4a, 0x00,
  0x00, 0x90, 0x48, 0x53, 0x00, 0x90, 0x2d, 0x46, 0x81, 0x70, 0x80, 0x2d,
  0x00, 0x00, 0x90, 0x34, 0x46, 0x81, 0x70, 0x80, 0x34, 0x00, 0x00, 0x90,
  0x39, 0x4c, 0x81, 0x70, 0x80, 0x48, 0x00, 0x00, 0x80, 0x39, 0x00, 0x00,
  0x90, 0x40, 0x4c, 0x81, 0x70, 0x80, 0x40, 0x00, 0x00, 0x90, 0x4a, 0x4c,
  0x81, 0x70, 0x80, 0x4a, 0x00, 0x00, 0x90, 0x48, 0x4c, 0x81, 0x70, 0x80,
  0x48, 0x00, 0x00, 0x90, 0x47, 0x53, 0x00, 0x90, 0x28, 0x40, 0x81, 0x70,
  0x80, 0x28, 0x00, 0x00, 0x90, 0x34, 0x46, 0x81, 0x70, 0x80, 0x34, 0x00,
  0x00, 0x80, 0x47, 0x00, 0x00, 0x90, 0x40, 0x4c, 0x00, 0xff, 0x7f, 0x04,
  0x05, 0x0f, 0x0f, 0x08, 0x81, 0x70, 0x80, 0x40, 0x00, 0x00, 0x90, 0x40,
  0x4c, 0x81, 0x70, 0x80, 0x40, 0x00, 0x00, 0x90, 0x4c, 0x53, 0x81, 0x70,
  0x80, 0x4c, 0x00, 0x00, 0x90, 0x40, 0x4c, 0x81, 0x70, 0x80, 0x40, 0x00,
  0x00, 0x90, 0x4c, 0x4c, 0x81, 0x70, 0x80, 0x4c, 0x00, 0x00, 0x90, 0x4c,
  0x46, 0x81, 0x70, 0x80, 0x4c, 0x00, 0x00, 0x90, 0x58, 0x40, 0x81, 0x70,
  0x80, 0x58, 0x00, 0x00, 0x90, 0x4b, 0x4c, 0x81, 0x70, 0x80, 0x4b, 0x00,
  0x00, 0x90, 0x4c, 0x46, 0x81, 0x70, 0x80, 0x4c, 0x00, 0x00, 0x90, 0x4b,
  0x4c, 0x81, 0x70, 0x80, 0x4b, 0x00, 0x00, 0x90, 0x4c, 0x4c, 0x81, 0x70,
  0x80, 0x4c, 0x00, 0x00, 0x90, 0x4b, 0x4c, 0x81, 0x70, 0x80, 0x4b, 0x00,
  0x00, 0x90, 0x4c, 0x4c, 0x81, 0x70, 0x80, 0x4c, 0x00, 0x00, 0x90, 0x47,
  0x4c, 0x81, 0x70, 0x80, 0x47, 0x00, 0x00, 0x90, 0x4a, 0x4c, 0x81, 0x70,
  0x80, 0x4a, 0x00, 0x00, 0x90, 0x48, 0x4c, 0x81, 0x70, 0x80, 0x48, 0x00,
  0x00, 0x90, 0x45, 0x53, 0x00, 0x90, 0x2d, 0x40, 0x81, 0x70, 0x80, 0x2d,
  0x00, 0x00, 0x90, 0x34, 0x46, 0x81, 0x70, 0x80, 0x34, 0x00, 0x00, 0x80,
  0x45, 0x00, 0x00, 0x90, 0x39, 0x4c, 0x81, 0x70, 0x80, 0x39, 0x00, 0x00,
  0x90, 0x3c, 0x46, 0x81, 0x70, 0x80, 0x3c, 0x00, 0x00, 0x90, 0x40, 0x4c,
  0x81, 0x70, 0x80, 0x40, 0x00, 0x00, 0x90, 0x45, 0x4c, 0x81, 0x70, 0x80,
  0x45, 0x00, 0x00, 0x90, 0x47, 0x4c, 0x00, 0x90, 0x28, 0x40, 0x81, 0x70,
  0x80, 0x28, 0x00, 0x00, 0x90, 0x34, 0x4c, 0x81, 0x70, 0x80, 0x34, 0x00,
  0x00, 0x80, 0x47, 0x00, 0x00, 0x90, 0x38, 0x4c, 0x81, 0x70, 0x80, 0x38,
  0x00, 0x00, 0x90, 0x40, 0x4c, 0x81, 0x70, 0x80, 0x40, 0x00, 0x00, 0x90,
  0x44, 0x4c, 0x81, 0x70, 0x80, 0x44, 0x00, 0x00, 0x90, 0x47, 0x4c, 0x81,
  0x70, 0x80, 0x47, 0x00, 0x00, 0x90, 0x48, 0x4c, 0x00, 0x90, 0x2d, 0x4c,
  0x81, 0x70, 0x80, 0x2d, 0x00, 0x00, 0x90, 0x34, 0x4c, 0x81, 0x70, 0x80,
  0x34, 0x00, 0x00, 0x80, 0x48, 0x00, 0x00, 0x90, 0x39, 0x4c, 0x81, 0x70,
  0x80, 0x39, 0x00, 0x00, 0x90, 0x40, 0x4c, 0x81, 0x70, 0x80, 0x40, 0x00,
  0x00, 0x90, 0x4c, 0x4c, 0x81, 0x70, 0x80, 0x4c, 0x00, 0x00, 0x90, 0x4b,
  0x4c, 0x81, 0x70, 0x80, 0x4b, 0x00, 0x00, 0x90, 0x4c, 0x4c, 0x81, 0x70,
  0x80, 0x4c, 0x00, 0x00, 0x90, 0x4b, 0x46, 0x81, 0x70, 0x80, 0x4b, 0x00,
  0x00, 0x90, 0x4c, 0x4c, 0x81, 0x70, 0x80, 0x4c, 0x00, 0x00, 0x90, 0x47,
  0x4c, 0x81, 0x70, 0x80, 0x47, 0x00, 0x00, 0x90, 0x4a, 0x4c, 0x81, 0x70,
  0x80, 0x4a, 0x00, 0x00, 0x90, 0x48, 0x46, 0x81, 0x70, 0x80, 0x48, 0x00,
  0x00, 0x90, 0x45, 0x4c, 0x00, 0x90, 0x2d, 0x40, 0x81, 0x70, 0x80, 0x2d,
  0x00, 0x00, 0x90, 0x34, 0x46, 0x81, 0x70, 0x80, 0x34, 0x00, 0x00, 0x80,
  0x45, 0x00, 0x00, 0x90, 0x39, 0x4c, 0x81, 0x70, 0x80, 0x39, 0x00, 0x00,
  0x90, 0x3c, 0x4c, 0x81, 0x70, 0x80, 0x3c, 0x00, 0x00, 0x90, 0x40, 0x4c,
  0x81, 0x70, 0x80, 0x40, 0x00, 0x00, 0x90, 0x45, 0x4c, 0x81, 0x70, 0x80,
  0x45, 0x00, 0x00, 0x90, 0x47, 0x4c, 0x00, 0x90, 0x28, 0x40, 0x81, 0x70,
  0x80, 0x28, 0x00, 0x00, 0x90, 0x34, 0x40, 0x81, 0x70, 0x80, 0x34, 0x00,
  0x00, 0x80, 0x47, 0x00, 0x00, 0x90, 0x38, 0x46, 0x81, 0x70, 0x80, 0x38,
  0x00, 0x00, 0x90, 0x40, 0x4c, 0x81, 0x70, 0x80, 0x40, 0x00, 0x00, 0x90,
  0x48, 0x4c, 0x81, 0x70, 0x80, 0x48, 0x00, 0x00, 0x90, 0x47, 0x4c, 0x81,
  0x70, 0x80, 0x47, 0x00, 0x00, 0x90, 0x45, 0x59, 0x00, 0x90, 0x2d, 0x46,
  0x81, 0x70, 0x80, 0x2d, 0x00, 0x00, 0x90, 0x34, 0x4c, 0x81, 0x70, 0x80,
  0x34, 0x00, 0x00, 0x80, 0x45, 0x00, 0x00, 0x90, 0x39, 0x53, 0x81, 0x70,
  0x80, 0x39, 0x00, 0x00, 0x90, 0x3a, 0x33, 0x00, 0xff, 0x7f, 0x03, 0x05,
  0x0f, 0x0e, 0x00, 0x90, 0x3c, 0x33, 0x00, 0xff, 0x7f, 0x03, 0x05, 0x0f,
  0x0e, 0x00, 0x90, 0x40, 0x33, 0x00, 0xff, 0x7f, 0x03, 0x05, 0x0f, 0x0e,
  0x00, 0x90, 0x48, 0x33, 0x00, 0xff, 0x7f, 0x03, 0x05, 0x0f, 0x0e, 0x78,
  0x80, 0x48, 0x00, 0x00, 0x80, 0x40, 0x00, 0x00, 0x80, 0x3a, 0x00, 0x00,
  0x80, 0x3c, 0x00, 0x78, 0x90, 0x3c, 0x40, 0x00, 0xff, 0x7f, 0x03, 0x05,
  0x0f, 0x0e, 0x00, 0x90, 0x39, 0x40, 0x00, 0xff, 0x7f, 0x03, 0x05, 0x0f,
  0x0e, 0x00, 0x90, 0x41, 0x40, 0x00, 0xff, 0x7f, 0x03, 0x05, 0x0f, 0x0e,
  0x00, 0x90, 0x48, 0x40, 0x00, 0xff, 0x7f, 0x03, 0x05, 0x0f, 0x0e, 0x78,
  0x80, 0x48, 0x00, 0x00, 0x80, 0x41, 0x00, 0x00, 0x80, 0x39, 0x00, 0x00,
  0x80, 0x3c, 0x00, 0x78, 0x90, 0x3a, 0x4e, 0x00, 0xff, 0x7f, 0x03, 0x05,
  0x0f, 0x0e, 0x00, 0x90, 0x3c, 0x4e, 0x00, 0xff, 0x7f, 0x03, 0x05, 0x0f,
  0x0e, 0x00, 0x90, 0x37, 0x4e, 0x00, 0xff, 0x7f, 0x03, 0x05, 0x0f, 0x0e,
  0x00, 0x90, 0x40, 0x46, 0x00, 0xff, 0x7f, 0x03, 0x05, 0x0f, 0x0e, 0x00,
  0x90, 0x48, 0x53, 0x00, 0xff, 0x7f, 0x03, 0x05, 0x0f, 0x0e, 0x00, 0x90,
  0x43, 0x46, 0x00, 0xff, 0x7f, 0x03, 0x05, 0x0f, 0x0e, 0x78, 0x80, 0x43,
  0x00, 0x00, 0x80, 0x48, 0x00, 0x00, 0x80, 0x40, 0x00, 0x00, 0x80, 0x37,
  0x00, 0x00, 0x80, 0x3a, 0x00, 0x00, 0x80, 0x3c, 0x00, 0x78, 0x90, 0x48,
  0x5f, 0x00, 0x90, 0x35, 0x4c, 0x81, 0x70, 0x80, 0x35, 0x00, 0x00, 0x90,
  0x39, 0x4c, 0x81, 0x70, 0x80, 0x39, 0x00, 0x00, 0x90, 0x3c, 0x4c, 0x00,
  0xff, 0x7f, 0x04, 0x05, 0x0f, 0x0f, 0x08, 0x81, 0x70, 0x80, 0x3c, 0x00,
  0x00, 0x90, 0x39, 0x4c, 0x81, 0x70, 0x80, 0x39, 0x00, 0x00, 0x80, 0x48,
  0x00, 0x00, 0x90, 0x3c, 0x4c, 0x00, 0xff, 0x7f, 0x04, 0x05, 0x0f, 0x0f,
  0x08, 0x00, 0x90, 0x4d, 0x4c, 0x81, 0x70, 0x80, 0x3c, 0x00, 0x00, 0x90,
  0x39, 0x4c, 0x78, 0x80, 0x4d, 0x00, 0x00, 0x90, 0x4c, 0x4c, 0x78, 0x80,
  0x4c, 0x00, 0x00, 0x80, 0x39, 0x00, 0x00, 0x90, 0x4c, 0x4c, 0x00, 0x90,
  0x35, 0x4c, 0x81, 0x70, 0x80, 0x35, 0x00, 0x00, 0x90, 0x3a, 0x4c, 0x81,
  0x70, 0x80, 0x3a, 0x00, 0x00, 0x80, 0x4c, 0x00, 0x00, 0x90, 0x4a, 0x4c,
  0x00, 0x90, 0x3e, 0x4c, 0x00, 0xff, 0x7f, 0x04, 0x05, 0x0f, 0x0f, 0x08,
  0x81, 0x70, 0x80, 0x3e, 0x00, 0x00, 0x90, 0x3a, 0x4c, 0x81, 0x70, 0x80,
  0x3a, 0x00, 0x00, 0x80, 0x4a, 0x00, 0x00, 0x90, 0x3e, 0x4c, 0x00, 0xff,
  0x7f, 0x04, 0x05, 0x0f, 0x0f, 0x08, 0x00, 0x90, 0x52, 0x4c, 0x81, 0x70,
  0x80, 0x3e, 0x00, 0x00, 0x90, 0x3a, 0x4c, 0x78, 0x80, 0x52, 0x00, 0x00,
  0x90, 0x51, 0x4c, 0x78, 0x80, 0x51, 0x00, 0x00, 0x80, 0x3a, 0x00, 0x00,
  0x90, 0x51, 0x4c, 0x00, 0x90, 0x35, 0x4c, 0x81, 0x70, 0x80, 0x35, 0x00,
  0x00, 0x80, 0x51, 0x00, 0x00, 0x90, 0x4f, 0x4c, 0x00, 0x90, 0x40, 0x4c,
  0x00, 0xff, 0x7f, 0x04, 0x05, 0x0f, 0x0f, 0x08, 0x81, 0x70, 0x80, 0x40,
  0x00, 0x00, 0x80, 0x4f, 0x00, 0x00, 0x90, 0x4d, 0x4c, 0x00, 0x90, 0x3a,
  0x40, 0x00, 0x90, 0x37, 0x46, 0x00, 0x90, 0x35, 0x4c, 0x81, 0x70, 0x80,
  0x35, 0x00, 0x00, 0x80, 0x37, 0x00, 0x00, 0x80, 0x3a, 0x00, 0x00, 0x80,
  0x4d, 0x00, 0x00, 0x90, 0x4c, 0x4c, 0x00, 0x90, 0x40, 0x4c, 0x00, 0xff,
  0x7f, 0x04, 0x05, 0x0f, 0x0f, 0x08, 0x81, 0x70, 0x80, 0x40, 0x00, 0x00,
  0x80, 0x4c, 0x00, 0x00, 0x90, 0x4a, 0x4c, 0x00, 0x90, 0x3a, 0x40, 0x00,
  0x90, 0x37, 0x46, 0x00, 0x90, 0x35, 0x4c, 0x81, 0x70, 0x80, 0x35, 0x00,
  0x00, 0x80, 0x37, 0x00, 0x00, 0x80, 0x3a, 0x00, 0x00, 0x80, 0x4a, 0x00,
  0x00, 0x90, 0x48, 0x4c, 0x00, 0x90, 0x40, 0x4c, 0x00, 0xff, 0x7f, 0x04,
  0x05, 0x0f, 0x0f, 0x08, 0x81, 0x70, 0x80, 0x40, 0x00, 0x00, 0x80, 0x48,
  0x00, 0x00, 0x90, 0x46, 0x4c, 0x00, 0x90, 0x35, 0x4e, 0x81, 0x70, 0x80,
  0x35, 0x00, 0x00, 0x90, 0x39, 0x4e, 0x81, 0x70, 0x80, 0x39, 0x00, 0x00,
  0x80, 0x46, 0x00, 0x00, 0x90, 0x45, 0x4c, 0x00, 0x90, 0x3c, 0x4e, 0x00,
  0xff, 0x7f, 0x04, 0x05, 0x0f, 0x0f, 0x08, 0x81, 0x70, 0x80, 0x3c, 0x00,
  0x00, 0x90, 0x39, 0x4e, 0x81, 0x70, 0x80, 0x39, 0x00, 0x00, 0x80, 0x45,
  0x00, 0x00, 0x90, 0x45, 0x53, 0x00, 0x90, 0x3c, 0x4e, 0x00, 0xff, 0x7f,
  0x04, 0x05, 0x0f, 0x0f, 0x08, 0x78, 0x80, 0x45, 0x00, 0x00, 0x90, 0x43,
  0x4c, 0x78, 0x80, 0x3c, 0x00, 0x00, 0x80, 0x43, 0x00, 0x00, 0x90, 0x45,
  0x53, 0x00, 0x90, 0x39, 0x4e, 0x78, 0x80, 0x45, 0x00, 0x00, 0x90, 0x46,
  0x59, 0x78, 0x80, 0x39, 0x00, 0x00, 0x80, 0x46, 0x00, 0x00, 0x90, 0x48,
  0x5f, 0x00, 0x90, 0x35, 0x4c, 0x81, 0x70, 0x80, 0x35, 0x00, 0x00, 0x90,
  0x39, 0x4c, 0x81, 0x70, 0x80, 0x39, 0x00, 0x00, 0x90, 0x3c, 0x4c, 0x00,
  0xff, 0x7f, 0x04, 0x05, 0x0f, 0x0f, 0x08, 0x81, 0x70, 0x80, 0x3c, 0x00,
  0x00, 0x90, 0x39, 0x4c, 0x81, 0x70, 0x80, 0x39, 0x00, 0x00, 0x80, 0x48,
  0x00, 0x00, 0x90, 0x4a, 0x5a, 0x00, 0x90, 0x3c, 0x4c, 0x81, 0x70, 0x80,
  0x3c, 0x00, 0x00, 0x80, 0x4a, 0x00, 0x00, 0x90, 0x4b, 0x5a, 0x00, 0x90,
  0x39, 0x4c, 0x81, 0x70, 0x80, 0x39, 0x00, 0x00, 0x80, 0x4b, 0x00, 0x00,
  0x90, 0x4c, 0x4e, 0x00, 0x90, 0x34, 0x4c, 0x81, 0x70, 0x80, 0x34, 0x00,
  0x00, 0x90, 0x39, 0x4c, 0x81, 0x70, 0x80, 0x39, 0x00, 0x00, 0x90, 0x3c,
  0x4c, 0x00, 0xff, 0x7f, 0x04, 0x05, 0x0f, 0x0f, 0x08, 0x81, 0x70, 0x80,
  0x3c, 0x00, 0x00, 0x80, 0x4c, 0x00, 0x00, 0x90, 0x4c, 0x5a, 0x00, 0x90,
  0x39, 0x4c, 0x81, 0x70, 0x80, 0x39, 0x00, 0x00, 0x80, 0x4c, 0x00, 0x00,
  0x90, 0x4d, 0x5a, 0x00, 0x90, 0x3e, 0x4c, 0x00, 0xff, 0x7f, 0x04, 0x05,
  0x0f, 0x0f, 0x08, 0x00, 0x90, 0x32, 0x4c, 0x81, 0x70, 0x80, 0x32, 0x00,
  0x00, 0x80, 0x3e, 0x00, 0x00, 0x80, 0x4d, 0x00, 0x00, 0x90, 0x45, 0x5a,
  0x00, 0x90, 0x35, 0x4c, 0x81, 0x70, 0x80, 0x35, 0x00, 0x00, 0x80, 0x45,
  0x00, 0x00, 0x90, 0x48, 0x5a, 0x00, 0x90, 0x37, 0x4c, 0x81, 0x70, 0x80,
  0x37, 0x00, 0x00, 0x90, 0x40, 0x4c, 0x00, 0xff, 0x7f, 0x04, 0x05, 0x0f,
  0x0f, 0x08, 0x81, 0x70, 0x80, 0x40, 0x00, 0x00, 0x90, 0x37, 0x4c, 0x81,
  0x70, 0x80, 0x37, 0x00, 0x00, 0x90, 0x40, 0x4c, 0x00, 0xff, 0x7f, 0x04,
  0x05, 0x0f, 0x0f, 0x08, 0x81, 0x70, 0x80, 0x40, 0x00, 0x00, 0x80, 0x48,
  0x00, 0x00, 0x90, 0x4a, 0x5a, 0x00, 0x90, 0x37, 0x4c, 0x81, 0x70, 0x80,
  0x37, 0x00, 0x00, 0x90, 0x41, 0x4c, 0x00, 0xff, 0x7f, 0x04, 0x05, 0x0f,
  0x0f, 0x08, 0x78, 0x80, 0x4a, 0x00, 0x00, 0x90, 0x47, 0x5a, 0x78, 0x80,
  0x41, 0x00, 0x00, 0x80, 0x47, 0x00, 0x00, 0x90, 0x48, 0x5a, 0x00, 0x90,
  0x3c, 0x4c, 0x00, 0x90, 0x40, 0x4c, 0x00, 0xff, 0x7f, 0x04, 0x05, 0x0f,
  0x0f, 0x08, 0x78, 0x80, 0x48, 0x00, 0x00, 0x90, 0x4f, 0x5a, 0x78, 0x80,
  0x4f, 0x00, 0x00, 0x90, 0x43, 0x5a, 0x78, 0x80, 0x43, 0x00, 0x00, 0x90,
  0x4f, 0x5a, 0x78, 0x80, 0x40, 0x00, 0x00, 0x80, 0x3c, 0x00, 0x00, 0x80,
  0x4f, 0x00, 0x00, 0x90, 0x45, 0x5a, 0x78, 0x80, 0x45, 0x00, 0x00, 0x90,
  0x4f, 0x5a, 0x78, 0x80, 0x4f, 0x00, 0x00, 0x90, 0x47, 0x5a, 0x00, 0x90,
  0x43, 0x4c, 0x00, 0xff, 0x7f, 0x04, 0x05, 0x0f, 0x0f, 0x0c, 0x00, 0x90,
  0x41, 0x4c, 0x00, 0xff, 0x7f, 0x04, 0x05, 0x0f, 0x0f, 0x0c, 0x78, 0x80,
  0x41, 0x00, 0x00, 0x80, 0x43, 0x00, 0x00, 0x80, 0x47, 0x00, 0x00, 0x90,
  0x4f, 0x5a, 0x78, 0x80, 0x4f, 0x00, 0x00, 0x90, 0x48, 0x5a, 0x00, 0x90,
  0x43, 0x4c, 0x00, 0xff, 0x7f, 0x04, 0x05, 0x0f, 0x0f, 0x0c, 0x00, 0x90,
  0x40, 0x4c, 0x00, 0xff, 0x7f, 0x04, 0x05, 0x0f, 0x0f, 0x0c, 0x78, 0x80,
  0x40, 0x00, 0x00, 0x80, 0x43, 0x00, 0x00, 0x80, 0x48, 0x00, 0x00, 0x90,
  0x4f, 0x5a, 0x78, 0x80, 0x4f, 0x00, 0x00, 0x90, 0x4a, 0x5a, 0x00, 0x90,
  0x43, 0x4c, 0x00, 0xff, 0x7f, 0x04, 0x05, 0x0f, 0x0f, 0x0c, 0x00, 0x90,
  0x41, 0x4c, 0x00, 0xff, 0x7f, 0x04, 0x05, 0x0f, 0x0f, 0x0c, 0x00, 0x90,
  0x3e, 0x4c, 0x00, 0xff, 0x7f, 0x04, 0x05, 0x0f, 0x0f, 0x0c, 0x78, 0x80,
  0x3e, 0x00, 0x00, 0x80, 0x41, 0x00, 0x00, 0x80, 0x43, 0x00, 0x00, 0x80,
  0x4a, 0x00, 0x00, 0x90, 0x4f, 0x5a, 0x78, 0x80, 0x4f, 0x00, 0x00, 0x90,
  0x4c, 0x5a, 0x00, 0x90, 0x3c, 0x4c, 0x00, 0xff, 0x7f, 0x03, 0x05, 0x0f,
  0x0e, 0x00, 0x90, 0x40, 0x4c, 0x00, 0xff, 0x7f, 0x04, 0x05, 0x0f, 0x0f,
  0x0c, 0x00, 0x90, 0x43, 0x4c, 0x00, 0xff, 0x7f, 0x04, 0x05, 0x0f, 0x0f,
  0x0c, 0x78, 0x80, 0x4c, 0x00, 0x00, 0x90, 0x4f, 0x5a, 0x78, 0x80, 0x43,
  0x00, 0x00, 0x80, 0x40, 0x00, 0x00, 0x80, 0x3c, 0x00, 0x00, 0x80, 0x4f,
  0x00, 0x00, 0x90, 0x54, 0x5a, 0x78, 0x80, 0x54, 0x00, 0x00, 0x90, 0x53,
  0x5a, 0x78, 0x80, 0x53, 0x00, 0x00, 0x90, 0x51, 0x5a, 0x00, 0x90, 0x35,
  0x4c, 0x00, 0xff, 0x7f, 0x03, 0x05, 0x0f, 0x0e, 0x00, 0x90, 0x39, 0x4c,
  0x00, 0xff, 0x7f, 0x03, 0x05, 0x0f, 0x0e, 0x78, 0x80, 0x51, 0x00, 0x00,
  0x90, 0x4f, 0x5a, 0x78, 0x80, 0x39, 0x00, 0x00, 0x80, 0x35, 0x00, 0x00,
  0x80, 0x4f, 0x00, 0x00, 0x90, 0x4d, 0x5a, 0x78, 0x80, 0x4d, 0x00, 0x00,
  0x90, 0x4a, 0x5a, 0x78, 0x80, 0x4a, 0x00, 0x00, 0x90, 0x48, 0x5a, 0x00,
  0x90, 0x37, 0x4c, 0x00, 0xff, 0x7f, 0x03, 0x05, 0x0f, 0x0e, 0x00, 0x90,
  0x3b, 0x4c, 0x00, 0xff, 0x7f, 0x03, 0x05, 0x0f, 0x0e, 0x78, 0x80, 0x48,
  0x00, 0x00, 0x90, 0x4f, 0x5a, 0x78, 0x80, 0x3b, 0x00, 0x00, 0x80, 0x37,
  0x00, 0x00, 0x80, 0x4f, 0x00, 0x00, 0x90, 0x4d, 0x5a, 0x78, 0x80, 0x4d,
  0x00, 0x00, 0x90, 0x4a, 0x5a, 0x78, 0x80, 0x4a, 0x00, 0x00, 0x90, 0x48,
  0x5a, 0x00, 0x90, 0x3c, 0x4c, 0x00, 0xff, 0x7f, 0x04, 0x05, 0x0f, 0x0f,
  0x0c, 0x78, 0x80, 0x48, 0x00, 0x00, 0x90, 0x4f, 0x5a, 0x78, 0x80, 0x3c,
  0x00, 0x00, 0x80, 0x4f, 0x00, 0x00, 0x90, 0x43, 0x5a, 0x78, 0x80, 0x43,
  0x00, 0x00, 0x90, 0x4f, 0x5a, 0x78, 0x80, 0x4f, 0x00, 0x00, 0x90, 0x45,
  0x5a, 0x78, 0x80, 0x45, 0x00, 0x00, 0x90, 0x4f, 0x5a, 0x78, 0x80, 0x4f,
  0x00, 0x00, 0x90, 0x47, 0x5a, 0x00, 0x90, 0x43, 0x4c, 0x00, 0xff, 0x7f,
  0x04, 0x05, 0x0f, 0x0f, 0x0c, 0x00, 0x90, 0x41, 0x4c, 0x00, 0xff, 0x7f,
  0x04, 0x05, 0x0f, 0x0f, 0x0c, 0x78, 0x80, 0x41, 0x00, 0x00, 0x80, 0x43,
  0x00, 0x00, 0x80, 0x47, 0x00, 0x00, 0x90, 0x4f, 0x5a, 0x78, 0x80, 0x4f,
  0x00, 0x00, 0x90, 0x48, 0x5a, 0x00, 0x90, 0x43, 0x4c, 0x00, 0xff, 0x7f,
  0x04, 0x05, 0x0f, 0x0f, 0x0c, 0x00, 0x90, 0x40, 0x4c, 0x00, 0xff, 0x7f,
  0x04, 0x05, 0x0f, 0x0f, 0x0c, 0x78, 0x80, 0x40, 0x00, 0x00, 0x80, 0x43,
  0x00, 0x00, 0x80, 0x48, 0x00, 0x00, 0x90, 0x4f, 0x5a, 0x78, 0x80, 0x4f,
  0x00, 0x00, 0x90, 0x4a, 0x5a, 0x00, 0x90, 0x43, 0x4c, 0x00, 0xff, 0x7f,
  0x04, 0x05, 0x0f, 0x0f, 0x0c, 0x00, 0x90, 0x41, 0x4c, 0x00, 0xff, 0x7f,
  0x04, 0x05, 0x0f, 0x0f, 0x0c, 0x00, 0x90, 0x3e, 0x4c, 0x00, 0xff, 0x7f,
  0x04, 0x05, 0x0f, 0x0f, 0x0c, 0x78, 0x80, 0x3e, 0x00, 0x00, 0x80, 0x41,
  0x00, 0x00, 0x80, 0x43, 0x00, 0x00, 0x80, 0x4a, 0x00, 0x00, 0x90, 0x4f,
  0x5a, 0x78, 0x80, 0x4f, 0x00, 0x00, 0x90, 0x4c, 0x5a, 0x00, 0x90, 0x3c,
  0x4c, 0x00, 0xff, 0x7f, 0x03, 0x05, 0x0f, 0x0e, 0x00, 0x90, 0x40, 0x4c,
  0x00, 0xff, 0x7f, 0x04, 0x05, 0x0f, 0x0f, 0x0c, 0x00, 0x90, 0x43, 0x4c,
  0x00, 0xff, 0x7f, 0x04, 0x05, 0x0f, 0x0f, 0x0c, 0x78, 0x80, 0x4c, 0x00,
  0x00, 0x90, 0x4f, 0x5a, 0x78, 0x80, 0x43, 0x00, 0x00, 0x80, 0x40, 0x00,
  0x00, 0x80, 0x3c, 0x00, 0x00, 0x80, 0x4f, 0x00, 0x00, 0x90, 0x54, 0x5a,
  0x78, 0x80, 0x54, 0x00, 0x00, 0x90, 0x53, 0x5a, 0x78, 0x80, 0x53, 0x00,
  0x00, 0x90, 0x51, 0x5a, 0x00, 0x90, 0x35, 0x4c, 0x00, 0xff, 0x7f, 0x03,
  0x05, 0x0f, 0x0e, 0x00, 0x90, 0x39, 0x4c, 0x00, 0xff, 0x7f, 0x03, 0x05,
  0x0f, 0x0e, 0x78, 0x80, 0x51, 0x00, 0x00, 0x90, 0x4f, 0x5a, 0x78, 0x80,
  0x39, 0x00, 0x00, 0x80, 0x35, 0x00, 0x00, 0x80, 0x4f, 0x00, 0x00, 0x90,
  0x4d, 0x5a, 0x78, 0x80, 0x4d, 0x00, 0x00, 0x90, 0x4c, 0x5a, 0x78, 0x80,
  0x4c, 0x00, 0x00, 0x90, 0x4a, 0x5a, 0x00, 0x90, 0x37, 0x4c, 0x00, 0xff,
  0x7f, 0x03, 0x05, 0x0f, 0x0e, 0x00, 0x90, 0x3b, 0x4c, 0x00, 0xff, 0x7f,
  0x03, 0x05, 0x0f, 0x0e, 0x78, 0x80, 0x4a, 0x00, 0x00, 0x90, 0x4f, 0x5a,
  0x78, 0x80, 0x3b, 0x00, 0x00, 0x80, 0x37, 0x00, 0x00, 0x80, 0x4f, 0x00,
  0x00, 0x90, 0x4d, 0x5a, 0x78, 0x80, 0x4d, 0x00, 0x00, 0x90, 0x4a, 0x5a,
  0x78, 0x80, 0x4a, 0x00, 0x00, 0x90, 0x4c, 0x5a, 0x00, 0x90, 0x38, 0x4c,
  0x00, 0xff, 0x7f, 0x03, 0x05, 0x0f, 0x0e, 0x00, 0x90, 0x3b, 0x4c, 0x00,
  0xff, 0x7f, 0x03, 0x05, 0x0f, 0x0e, 0x78, 0x80, 0x4c, 0x00, 0x00, 0x90,
  0x4d, 0x5a, 0x78, 0x80, 0x3b, 0x00, 0x00, 0x80, 0x38, 0x00, 0x00, 0x80,
  0x4d, 0x00, 0x00, 0x90, 0x4c, 0x5a, 0x78, 0x80, 0x4c, 0x00, 0x00, 0x90,
  0x4b, 0x5a, 0x78, 0x80, 0x4b, 0x00, 0x00, 0x90, 0x4c, 0x5a, 0x78, 0x80,
  0x4c, 0x00, 0x00, 0x90, 0x47, 0x5a, 0x78, 0x80, 0x47, 0x00, 0x00, 0x90,
  0x4c, 0x5a, 0x78, 0x80, 0x4c, 0x00, 0x00, 0x90, 0x4b, 0x5a, 0x78, 0x80,
  0x4b, 0x00, 0x00, 0x90, 0x4c, 0x5a, 0x78, 0x80, 0x4c, 0x00, 0x00, 0x90,
  0x47, 0x5a, 0x78, 0x80, 0x47, 0x00, 0x00, 0x90, 0x4c, 0x5a, 0x78, 0x80,
  0x4c, 0x00, 0x00, 0x90, 0x4b, 0x5a, 0x78, 0x80, 0x4b, 0x00, 0x00, 0x90,
  0x4c, 0x53, 0x85, 0x50, 0x80, 0x4c, 0x00, 0x00, 0x90, 0x47, 0x53, 0x81,
  0x70, 0x80, 0x47, 0x00, 0x00, 0x90, 0x4c, 0x53, 0x81, 0x70, 0x80, 0x4c,
  0x00, 0x00, 0x90, 0x4b, 0x53, 0x81, 0x70, 0x80, 0x4b, 0x00, 0x00, 0x90,
  0x4c, 0x46, 0x85, 0x50, 0x80, 0x4c, 0x00, 0x00, 0x90, 0x47, 0x46, 0x81,
  0x70, 0x80, 0x47, 0x00, 0x00, 0x90, 0x4c, 0x40, 0x81, 0x70, 0x80, 0x4c,
  0x00, 0x00, 0x90, 0x4b, 0x46, 0x81, 0x70, 0x80, 0x4b, 0x00, 0x00, 0x90,
  0x4c, 0x4c, 0x81, 0x70, 0x80, 0x4c, 0x00, 0x00, 0x90, 0x4b, 0x46, 0x81,
  0x70, 0x80, 0x4b, 0x00, 0x00, 0x90, 0x4c, 0x4c, 0x81, 0x70, 0x80, 0x4c,
  0x00, 0x00, 0x90, 0x4b, 0x46, 0x81, 0x70, 0x80, 0x4b, 0x00, 0x00, 0x90,
  0x4c, 0x4c, 0x81, 0x70, 0x80, 0x4c, 0x00, 0x00, 0x90, 0x4b, 0x4c, 0x81,
  0x70, 0x80, 0x4b, 0x00, 0x00, 0x90, 0x4c, 0x39, 0x81, 0x70, 0x80, 0x4c,
  0x00, 0x00, 0x90, 0x4b, 0x40, 0x81, 0x70, 0x80, 0x4b, 0x00, 0x00, 0x90,
  0x4c, 0x4c, 0x81, 0x70, 0x80, 0x4c, 0x00, 0x00, 0x90, 0x47, 0x4c, 0x81,
  0x70, 0x80, 0x47, 0x00, 0x00, 0x90, 0x4a, 0x4c, 0x81, 0x70, 0x80, 0x4a,
  0x00, 0x00, 0x90, 0x48, 0x4c, 0x81, 0x70, 0x80, 0x48, 0x00, 0x00, 0x90,
  0x45, 0x4c, 0x00, 0xff, 0x7f, 0x04, 0x05, 0x0f, 0x0f, 0x02, 0x00, 0x90,
  0x2d, 0x40, 0x81, 0x70, 0x80, 0x2d, 0x00, 0x00, 0x90, 0x34, 0x46, 0x81,
  0x70, 0x80, 0x34, 0x00, 0x00, 0x90, 0x39, 0x4c, 0x81, 0x70, 0x80, 0x45,
  0x00, 0x00, 0x80, 0x39, 0x00, 0x00, 0x90, 0x3c, 0x4c, 0x81, 0x70, 0x80,
  0x3c, 0x00, 0x00, 0x90, 0x40, 0x4c, 0x81, 0x70, 0x80, 0x40, 0x00, 0x00,
  0x90, 0x45, 0x4c, 0x81, 0x70, 0x80, 0x45, 0x00, 0x00, 0x90, 0x47, 0x4c,
  0x00, 0xff, 0x7f, 0x04, 0x05, 0x0f, 0x0f, 0x02, 0x00, 0x90, 0x28, 0x40,
  0x81, 0x70, 0x80, 0x28, 0x00, 0x00, 0x90, 0x34, 0x46, 0x81, 0x70, 0x80,
  0x34, 0x00, 0x00, 0x90, 0x38, 0x4c, 0x81, 0x70, 0x80, 0x47, 0x00, 0x00,
  0x80, 0x38, 0x00, 0x00, 0x90, 0x40, 0x4c, 0x81, 0x70, 0x80, 0x40, 0x00,
  0x00, 0x90, 0x44, 0x4c, 0x81, 0x70, 0x80, 0x44, 0x00, 0x00, 0x90, 0x47,
  0x4c, 0x81, 0x70, 0x80, 0x47, 0x00, 0x00, 0x90, 0x48, 0x4c, 0x00, 0x90,
  0x2d, 0x46, 0x81, 0x70, 0x80, 0x2d, 0x00, 0x00, 0x90, 0x34, 0x46, 0x81,
  0x70, 0x80, 0x34, 0x00, 0x00, 0x90, 0x39, 0x4c, 0x81, 0x70, 0x80, 0x48,
  0x00, 0x00, 0x80, 0x39, 0x00, 0x00, 0x90, 0x40, 0x4c, 0x81, 0x70, 0x80,
  0x40, 0x00, 0x00, 0x90, 0x4c, 0x4c, 0x81, 0x70, 0x80, 0x4c, 0x00, 0x00,
  0x90, 0x4b, 0x46, 0x81, 0x70, 0x80, 0x4b, 0x00, 0x00, 0x90, 0x4c, 0x4c,
  0x81, 0x70, 0x80, 0x4c, 0x00, 0x00, 0x90, 0x4b, 0x46, 0x81, 0x70, 0x80,
  0x4b, 0x00, 0x00, 0x90, 0x4c, 0x4c, 0x81, 0x70, 0x80, 0x4c, 0x00, 0x00,
  0x90, 0x47, 0x4c, 0x81, 0x70, 0x80, 0x47, 0x00, 0x00, 0x90, 0x4a, 0x4c,
  0x81, 0x70, 0x80, 0x4a, 0x00, 0x00, 0x90, 0x48, 0x4c, 0x81, 0x70, 0x80,
  0x48, 0x00, 0x00, 0x90, 0x45, 0x4c, 0x00, 0xff, 0x7f, 0x04, 0x05, 0x0f,
  0x0f, 0x02, 0x00, 0x90, 0x2d, 0x46, 0x81, 0x70, 0x80, 0x2d, 0x00, 0x00,
  0x90, 0x34, 0x4c, 0x81, 0x70, 0x80, 0x34, 0x00, 0x00, 0x90, 0x39, 0x4c,
  0x81, 0x70, 0x80, 0x45, 0x00, 0x00, 0x80, 0x39, 0x00, 0x00, 0x90, 0x3c,
  0x4c, 0x81, 0x70, 0x80, 0x3c, 0x00, 0x00, 0x90, 0x40, 0x4c, 0x81, 0x70,
  0x80, 0x40, 0x00, 0x00, 0x90, 0x45, 0x4c, 0x81, 0x70, 0x80, 0x45, 0x00,
  0x00, 0x90, 0x47, 0x4c, 0x00, 0xff, 0x7f, 0x04, 0x05, 0x0f, 0x0f, 0x02,
  0x00, 0x90, 0x28, 0x46, 0x81, 0x70, 0x80, 0x28, 0x00, 0x00, 0x90, 0x34,
  0x46, 0x81, 0x70, 0x80, 0x34, 0x00, 0x00, 0x90, 0x38, 0x4c, 0x81, 0x70,
  0x80, 0x47, 0x00, 0x00, 0x80, 0x38, 0x00, 0x00, 0x90, 0x40, 0x4c, 0x81,
  0x70, 0x80, 0x40, 0x00, 0x00, 0x90, 0x48, 0x4c, 0x81, 0x70, 0x80, 0x48,
  0x00, 0x00, 0x90, 0x47, 0x4c, 0x81, 0x70, 0x80, 0x47, 0x00, 0x00, 0x90,
  0x45, 0x4c, 0x00, 0x90, 0x2d, 0x40, 0x81, 0x70, 0x80, 0x2d, 0x00, 0x00,
  0x90, 0x34, 0x46, 0x81, 0x70, 0x80, 0x34, 0x00, 0x00, 0x90, 0x39, 0x4c,
  0x81, 0x70, 0x80, 0x45, 0x00, 0x00, 0x80, 0x39, 0x00, 0x81, 0x70, 0x90,
  0x4c, 0x40, 0x81, 0x70, 0x80, 0x4c, 0x00, 0x00, 0x90, 0x4b, 0x46, 0x81,
  0x70, 0x80, 0x4b, 0x00, 0x00, 0x90, 0x4c, 0x4c, 0x81, 0x70, 0x80, 0x4c,
  0x00, 0x00, 0x90, 0x4b, 0x40, 0x81, 0x70, 0x80, 0x4b, 0x00, 0x00, 0x90,
  0x4c, 0x4c, 0x81, 0x70, 0x80, 0x4c, 0x00, 0x00, 0x90, 0x47, 0x4c, 0x81,
  0x70, 0x80, 0x47, 0x00, 0x00, 0x90, 0x4a, 0x4c, 0x81, 0x70, 0x80, 0x4a,
  0x00, 0x00, 0x90, 0x48, 0x4c, 0x81, 0x70, 0x80, 0x48, 0x00, 0x00, 0x90,
  0x45, 0x4c, 0x00, 0x90, 0x2d, 0x40, 0x81, 0x70, 0x80, 0x2d, 0x00, 0x00,
  0x90, 0x34, 0x46, 0x81, 0x70, 0x80, 0x34, 0x00, 0x00, 0x90, 0x39, 0x46,
  0x81, 0x70, 0x80, 0x39, 0x00, 0x00, 0x80, 0x45, 0x00, 0x00, 0x90, 0x3c,
  0x4c, 0x81, 0x70, 0x80, 0x3c, 0x00, 0x00, 0x90, 0x40, 0x4c, 0x81, 0x70,
  0x80, 0x40, 0x00, 0x00, 0x90, 0x45, 0x4c, 0x81, 0x70, 0x80, 0x45, 0x00,
  0x00, 0x90, 0x47, 0x4c, 0x00, 0x90, 0x28, 0x40, 0x81, 0x70, 0x80, 0x28,
  0x00, 0x00, 0x90, 0x34, 0x46, 0x81, 0x70, 0x80, 0x34, 0x00, 0x00, 0x90,
  0x38, 0x46, 0x81, 0x70, 0x80, 0x38, 0x00, 0x00, 0x80, 0x47, 0x00, 0x00,
  0x90, 0x40, 0x46, 0x81, 0x70, 0x80, 0x40, 0x00, 0x00, 0x90, 0x44, 0x4c,
  0x81, 0x70, 0x80, 0x44, 0x00, 0x00, 0x90, 0x47, 0x4c, 0x81, 0x70, 0x80,
  0x47, 0x00, 0x00, 0x90, 0x48, 0x53, 0x00, 0x90, 0x2d, 0x46, 0x81, 0x70,
  0x80, 0x2d, 0x00, 0x00, 0x90, 0x34, 0x46, 0x81, 0x70, 0x80, 0x34, 0x00,
  0x00, 0x80, 0x48, 0x00, 0x00, 0x90, 0x39, 0x4c, 0x81, 0x70, 0x80, 0x39,
  0x00, 0x00, 0x90, 0x40, 0x4c, 0x81, 0x70, 0x80, 0x40, 0x00, 0x00, 0x90,
  0x4c, 0x4c, 0x81, 0x70, 0x80, 0x4c, 0x00, 0x00, 0x90, 0x4b, 0x4c, 0x81,
  0x70, 0x80, 0x4b, 0x00, 0x00, 0x90, 0x4c, 0x4c, 0x81, 0x70, 0x80, 0x4c,
  0x00, 0x00, 0x90, 0x4b, 0x4c, 0x81, 0x70, 0x80, 0x4b, 0x00, 0x00, 0x90,
  0x4c, 0x4c, 0x81, 0x70, 0x80, 0x4c, 0x00, 0x00, 0x90, 0x47, 0x4c, 0x81,
  0x70, 0x80, 0x47, 0x00, 0x00, 0x90, 0x4a, 0x4c, 0x81, 0x70, 0x80, 0x4a,
  0x00, 0x00, 0x90, 0x48, 0x4c, 0x81, 0x70, 0x80, 0x48, 0x00, 0x00, 0x90,
  0x45, 0x4c, 0x00, 0x90, 0x2d, 0x46, 0x81, 0x70, 0x80, 0x2d, 0x00, 0x00,
  0x90, 0x34, 0x46, 0x81, 0x70, 0x80, 0x34, 0x00, 0x00, 0x80, 0x45, 0x00,
  0x00, 0x90, 0x39, 0x46, 0x81, 0x70, 0x80, 0x39, 0x00, 0x00, 0x90, 0x3c,
  0x4c, 0x81, 0x70, 0x80, 0x3c, 0x00, 0x00, 0x90, 0x40, 0x53, 0x81, 0x70,
  0x80, 0x40, 0x00, 0x00, 0x90, 0x45, 0x53, 0x81, 0x70, 0x80, 0x45, 0x00,
  0x00, 0x90, 0x47, 0x53, 0x00, 0x90, 0x28, 0x46, 0x81, 0x70, 0x80, 0x28,
  0x00, 0x00, 0x90, 0x34, 0x46, 0x81, 0x70, 0x80, 0x34, 0x00, 0x00, 0x80,
  0x47, 0x00, 0x00, 0x90, 0x38, 0x46, 0x81, 0x70, 0x80, 0x38, 0x00, 0x00,
  0x90, 0x40, 0x4c, 0x81, 0x70, 0x80, 0x40, 0x00, 0x00, 0x90, 0x48, 0x4c,
  0x81, 0x70, 0x80, 0x48, 0x00, 0x00, 0x90, 0x47, 0x4c, 0x81, 0x70, 0x80,
  0x47, 0x00, 0x00, 0x90, 0x45, 0x53, 0x00, 0x90, 0x2d, 0x40, 0x81, 0x70,
  0x80, 0x2d, 0x00, 0x00, 0x90, 0x34, 0x46, 0x81, 0x70, 0x80, 0x45, 0x00,
  0x00, 0x80, 0x34, 0x00, 0x00, 0x90, 0x39, 0x4c, 0x81, 0x70, 0x80, 0x39,
  0x00, 0x00, 0x90, 0x47, 0x53, 0x81, 0x70, 0x80, 0x47, 0x00, 0x00, 0x90,
  0x48, 0x4c, 0x81, 0x70, 0x80, 0x48, 0x00, 0x00, 0x90, 0x4a, 0x4c, 0x81,
  0x70, 0x80, 0x4a, 0x00, 0x00, 0x90, 0x4c, 0x53, 0x00, 0xff, 0x7f, 0x04,
  0x05, 0x0f, 0x0f, 0x11, 0x00, 0x90, 0x30, 0x40, 0x81, 0x70, 0x80, 0x30,
  0x00, 0x00, 0x90, 0x37, 0x46, 0x81, 0x70, 0x80, 0x37, 0x00, 0x00, 0x90,
  0x3c, 0x4c, 0x00, 0xff, 0x7f, 0x04, 0x05, 0x0f, 0x0f, 0x08, 0x81, 0x70,
  0x80, 0x4c, 0x00, 0x00, 0x80, 0x3c, 0x00, 0x00, 0x90, 0x43, 0x4c, 0x81,
  0x70, 0x80, 0x43, 0x00, 0x00, 0x90, 0x4d, 0x4c, 0x81, 0x70, 0x80, 0x4d,
  0x00, 0x00, 0x90, 0x4c, 0x4c, 0x81, 0x70, 0x80, 0x4c, 0x00, 0x00, 0x90,
  0x4a, 0x4c, 0x00, 0xff, 0x7f, 0x04, 0x05, 0x0f, 0x0f, 0x01, 0x00, 0x90,
  0x2b, 0x46, 0x81, 0x70, 0x80, 0x2b, 0x00, 0x00, 0x90, 0x37, 0x4c, 0x81,
  0x70, 0x80, 0x37, 0x00, 0x00, 0x90, 0x3b, 0x4c, 0x81, 0x70, 0x80, 0x4a,
  0x00, 0x00, 0x80, 0x3b, 0x00, 0x00, 0x90, 0x41, 0x4c, 0x81, 0x70, 0x80,
  0x41, 0x00, 0x00, 0x90, 0x4c, 0x4c, 0x81, 0x70, 0x80, 0x4c, 0x00, 0x00,
  0x90, 0x4a, 0x4c, 0x81, 0x70, 0x80, 0x4a, 0x00, 0x00, 0x90, 0x48, 0x4c,
  0x00, 0x90, 0x2d, 0x46, 0x81, 0x70, 0x80, 0x2d, 0x00, 0x00, 0x90, 0x34,
  0x4c, 0x81, 0x70, 0x80, 0x34, 0x00, 0x00, 0x90, 0x39, 0x4c, 0x81, 0x70,
  0x80, 0x39, 0x00, 0x00, 0x80, 0x48, 0x00, 0x00, 0x90, 0x40, 0x4c, 0x81,
  0x70, 0x80, 0x40, 0x00, 0x00, 0x90, 0x4a, 0x4c, 0x81, 0x70, 0x80, 0x4a,
  0x00, 0x00, 0x90, 0x48, 0x4c, 0x81, 0x70, 0x80, 0x48, 0x00, 0x00, 0x90,
  0x47, 0x4c, 0x00, 0x90, 0x28, 0x4c, 0x81, 0x70, 0x80, 0x28, 0x00, 0x00,
  0x90, 0x34, 0x4c, 0x81, 0x70, 0x80, 0x34, 0x00, 0x00, 0x80, 0x47, 0x00,
  0x00, 0x90, 0x40, 0x4c, 0x00, 0xff, 0x7f, 0x04, 0x05, 0x0f, 0x0f, 0x08,
  0x81, 0x70, 0x80, 0x40, 0x00, 0x00, 0x90, 0x40, 0x4c, 0x81, 0x70, 0x80,
  0x40, 0x00, 0x00, 0x90, 0x4c, 0x4c, 0x81, 0x70, 0x80, 0x4c, 0x00, 0x00,
  0x90, 0x40, 0x4c, 0x81, 0x70, 0x80, 0x40, 0x00, 0x00, 0x90, 0x4c, 0x4c,
  0x81, 0x70, 0x80, 0x4c, 0x00, 0x00, 0x90, 0x4c, 0x4c, 0x81, 0x70, 0x80,
  0x4c, 0x00, 0x00, 0x90, 0x58, 0x4c, 0x81, 0x70, 0x80, 0x58, 0x00, 0x00,
  0x90, 0x4b, 0x4c, 0x81, 0x70, 0x80, 0x4b, 0x00, 0x00, 0x90, 0x4c, 0x4c,
  0x81, 0x70, 0x80, 0x4c, 0x00, 0x00, 0x90, 0x4b, 0x4c, 0x81, 0x70, 0x80,
  0x4b, 0x00, 0x00, 0x90, 0x4c, 0x4c, 0x81, 0x70, 0x80, 0x4c, 0x00, 0x00,
  0x90, 0x4b, 0x4c, 0x81, 0x70, 0x80, 0x4b, 0x00, 0x00, 0x90, 0x4c, 0x4c,
  0x81, 0x70, 0x80, 0x4c, 0x00, 0x00, 0x90, 0x47, 0x4c, 0x81, 0x70, 0x80,
  0x47, 0x00, 0x00, 0x90, 0x4a, 0x4c, 0x81, 0x70, 0x80, 0x4a, 0x00, 0x00,
  0x90, 0x48, 0x4c, 0x81, 0x70, 0x80, 0x48, 0x00, 0x00, 0x90, 0x45, 0x4c,
  0x00, 0x90, 0x2d, 0x4c, 0x81, 0x70, 0x80, 0x2d, 0x00, 0x00, 0x90, 0x34,
  0x4c, 0x81, 0x70, 0x80, 0x34, 0x00, 0x00, 0x80, 0x45, 0x00, 0x00, 0x90,
  0x39, 0x4c, 0x81, 0x70, 0x80, 0x39, 0x00, 0x00, 0x90, 0x3c, 0x4c, 0x81,
  0x70, 0x80, 0x3c, 0x00, 0x00, 0x90, 0x40, 0x4c, 0x81, 0x70, 0x80, 0x40,
  0x00, 0x00, 0x90, 0x45, 0x4c, 0x81, 0x70, 0x80, 0x45, 0x00, 0x00, 0x90,
  0x47, 0x4c, 0x00, 0x90, 0x28, 0x4c, 0x81, 0x70, 0x80, 0x28, 0x00, 0x00,
  0x90, 0x34, 0x4c, 0x81, 0x70, 0x80, 0x34, 0x00, 0x00, 0x80, 0x47, 0x00,
  0x00, 0x90, 0x38, 0x4c, 0x81, 0x70, 0x80, 0x38, 0x00, 0x00, 0x90, 0x40,
  0x4c, 0x81, 0x70, 0x80, 0x40, 0x00, 0x00, 0x90, 0x44, 0x4c, 0x81, 0x70,
  0x80, 0x44, 0x00, 0x00, 0x90, 0x47, 0x4c, 0x81, 0x70, 0x80, 0x47, 0x00,
  0x00, 0x90, 0x48, 0x4c, 0x00, 0x90, 0x2d, 0x4c, 0x81, 0x70, 0x80, 0x2d,
  0x00, 0x00, 0x90, 0x34, 0x4c, 0x81, 0x70, 0x80, 0x34, 0x00, 0x00, 0x80,
  0x48, 0x00, 0x00, 0x90, 0x39, 0x4c, 0x81, 0x70, 0x80, 0x39, 0x00, 0x00,
  0x90, 0x40, 0x4c, 0x81, 0x70, 0x80, 0x40, 0x00, 0x00, 0x90, 0x4c, 0x4c,
  0x81, 0x70, 0x80, 0x4c, 0x00, 0x00, 0x90, 0x4b, 0x4c, 0x81, 0x70, 0x80,
  0x4b, 0x00, 0x00, 0x90, 0x4c, 0x4c, 0x81, 0x70, 0x80, 0x4c, 0x00, 0x00,
  0x90, 0x4b, 0x4c, 0x81, 0x70, 0x80, 0x4b, 0x00, 0x00, 0x90, 0x4c, 0x4c,
  0x81, 0x70, 0x80, 0x4c, 0x00, 0x00, 0x90, 0x47, 0x4c, 0x81, 0x70, 0x80,
  0x47, 0x00, 0x00, 0x90, 0x4a, 0x4c, 0x81, 0x70, 0x80, 0x4a, 0x00, 0x00,
  0x90, 0x48, 0x4c, 0x81, 0x70, 0x80, 0x48, 0x00, 0x00, 0x90, 0x45, 0x53,
  0x00, 0x90, 0x2d, 0x46, 0x81, 0x70, 0x80, 0x2d, 0x00, 0x00, 0x90, 0x34,
  0x46, 0x81, 0x70, 0x80, 0x34, 0x00, 0x00, 0x80, 0x45, 0x00, 0x00, 0x90,
  0x39, 0x4c, 0x81, 0x70, 0x80, 0x39, 0x00, 0x00, 0x90, 0x3c, 0x53, 0x81,
  0x70, 0x80, 0x3c, 0x00, 0x00, 0x90, 0x40, 0x53, 0x81, 0x70, 0x80, 0x40,
  0x00, 0x00, 0x90, 0x45, 0x53, 0x81, 0x70, 0x80, 0x45, 0x00, 0x00, 0x90,
  0x47, 0x59, 0x00, 0x90, 0x28, 0x40, 0x81, 0x70, 0x80, 0x28, 0x00, 0x00,
  0x90, 0x34, 0x46, 0x81, 0x70, 0x80, 0x34, 0x00, 0x00, 0x80, 0x47, 0x00,
  0x00, 0x90, 0x38, 0x4c, 0x81, 0x70, 0x80, 0x38, 0x00, 0x00, 0x90, 0x40,
  0x4c, 0x81, 0x70, 0x80, 0x40, 0x00, 0x00, 0x90, 0x48, 0x4c, 0x81, 0x70,
  0x80, 0x48, 0x00, 0x00, 0x90, 0x47, 0x53, 0x81, 0x70, 0x80, 0x47, 0x00,
  0x00, 0x90, 0x2d, 0x59, 0x00, 0xff, 0x7f, 0x03, 0x05, 0x0f, 0x0e, 0x00,
  0x90, 0x45, 0x59, 0x78, 0x80, 0x2d, 0x00, 0x78, 0x90, 0x2d, 0x4c, 0x00,
  0xff, 0x7f, 0x03, 0x05, 0x0f, 0x0e, 0x78, 0x80, 0x2d, 0x00, 0x78, 0x80,
  0x45, 0x00, 0x00, 0x90, 0x2d, 0x53, 0x00, 0xff, 0x7f, 0x03, 0x05, 0x0f,
  0x0e, 0x78, 0x80, 0x2d, 0x00, 0x78, 0x90, 0x2d, 0x59, 0x00, 0xff, 0x7f,
  0x03, 0x05, 0x0f, 0x0e, 0x78, 0x80, 0x2d, 0x00, 0x78, 0x90, 0x2d, 0x4c,
  0x00, 0xff, 0x7f, 0x03, 0x05, 0x0f, 0x0e, 0x78, 0x80, 0x2d, 0x00, 0x78,
  0x90, 0x2d, 0x53, 0x00, 0xff, 0x7f, 0x03, 0x05, 0x0f, 0x0e, 0x78, 0x80,
  0x2d, 0x00, 0x78, 0x90, 0x2d, 0x59, 0x00, 0xff, 0x7f, 0x03, 0x05, 0x0f,
  0x0e, 0x00, 0x90, 0x40, 0x4e, 0x00, 0x90, 0x43, 0x4e, 0x00, 0x90, 0x46,
  0x4e, 0x00, 0x90, 0x49, 0x4e, 0x78, 0x80, 0x2d, 0x00, 0x78, 0x90, 0x2d,
  0x4c, 0x00, 0xff, 0x7f, 0x03, 0x05, 0x0f, 0x0e, 0x78, 0x80, 0x2d, 0x00,
  0x78, 0x90, 0x2d, 0x53, 0x00, 0xff, 0x7f, 0x03, 0x05, 0x0f, 0x0e, 0x78,
  0x80, 0x2d, 0x00, 0x78, 0x90, 0x2d, 0x59, 0x00, 0xff, 0x7f, 0x03, 0x05,
  0x0f, 0x0e, 0x78, 0x80, 0x2d, 0x00, 0x78, 0x90, 0x2d, 0x4c, 0x00, 0xff,
  0x7f, 0x03, 0x05, 0x0f, 0x0e, 0x78, 0x80, 0x2d, 0x00, 0x78, 0x90, 0x2d,
  0x53, 0x00, 0xff, 0x7f, 0x03, 0x05, 0x0f, 0x0e, 0x78, 0x80, 0x2d, 0x00,
  0x78, 0x80, 0x40, 0x00, 0x00, 0x80, 0x43, 0x00, 0x00, 0x80, 0x46, 0x00,
  0x00, 0x80, 0x49, 0x00, 0x00, 0x90, 0x2d, 0x4e, 0x00, 0xff, 0x7f, 0x03,
  0x05, 0x0f, 0x0e, 0x00, 0x90, 0x4a, 0x4e, 0x00, 0x90, 0x41, 0x4e, 0x00,
  0x90, 0x45, 0x4e, 0x78, 0x80, 0x2d, 0x00, 0x78, 0x90, 0x2d, 0x4e, 0x00,
  0xff, 0x7f, 0x03, 0x05, 0x0f, 0x0e, 0x78, 0x80, 0x2d, 0x00, 0x78, 0x90,
  0x2d, 0x4e, 0x00, 0xff, 0x7f, 0x03, 0x05, 0x0f, 0x0e, 0x78, 0x80, 0x2d,
  0x00, 0x78, 0x90, 0x2d, 0x4e, 0x00, 0xff, 0x7f, 0x03, 0x05, 0x0f, 0x0e,
  0x78, 0x80, 0x2d, 0x00, 0x78, 0x80, 0x45, 0x00, 0x00, 0x80, 0x41, 0x00,
  0x00, 0x80, 0x4a, 0x00, 0x00, 0x90, 0x2d, 0x4e, 0x00, 0xff, 0x7f, 0x03,
  0x05, 0x0f, 0x0e, 0x00, 0x90, 0x49, 0x4e, 0x00, 0x90, 0x4c, 0x4e, 0x78,
  0x80, 0x2d, 0x00, 0x78, 0x80, 0x4c, 0x00, 0x00, 0x80, 0x49, 0x00, 0x00,
  0x90, 0x2d, 0x4e, 0x00, 0xff, 0x7f, 0x03, 0x05, 0x0f, 0x0e, 0x00, 0x90,
  0x4a, 0x4e, 0x00, 0x90, 0x4d, 0x4e, 0x78, 0x80, 0x2d, 0x00, 0x78, 0x80,
  0x4d, 0x00, 0x00, 0x80, 0x4a, 0x00, 0x00, 0x90, 0x2d, 0x4e, 0x00, 0xff,
  0x7f, 0x03, 0x05, 0x0f, 0x0e, 0x00, 0x90, 0x4d, 0x4e, 0x00, 0x90, 0x4a,
  0x4e, 0x00, 0x90, 0x44, 0x4e, 0x78, 0x80, 0x2d, 0x00, 0x78, 0x90, 0x2d,
  0x4e, 0x00, 0xff, 0x7f, 0x03, 0x05, 0x0f, 0x0e, 0x78, 0x80, 0x2d, 0x00,
  0x78, 0x90, 0x2d, 0x4e, 0x00, 0xff, 0x7f, 0x03, 0x05, 0x0f, 0x0e, 0x78,
  0x80, 0x2d, 0x00, 0x78, 0x90, 0x2d, 0x4e, 0x00, 0xff, 0x7f, 0x03, 0x05,
  0x0f, 0x0e, 0x78, 0x80, 0x2d, 0x00, 0x78, 0x80, 0x44, 0x00, 0x00, 0x80,
  0x4a, 0x00, 0x00, 0x80, 0x4d, 0x00, 0x00, 0x90, 0x2d, 0x4e, 0x00, 0xff,
  0x7f, 0x03, 0x05, 0x0f, 0x0e, 0x00, 0x90, 0x4d, 0x4e, 0x00, 0x90, 0x4a,
  0x4e, 0x00, 0x90, 0x44, 0x4e, 0x78, 0x80, 0x2d, 0x00, 0x78, 0x90, 0x2d,
  0x4e, 0x00, 0xff, 0x7f, 0x03, 0x05, 0x0f, 0x0e, 0x78, 0x80, 0x2d, 0x00,
  0x78, 0x80, 0x44, 0x00, 0x00, 0x80, 0x4a, 0x00, 0x00, 0x80, 0x4d, 0x00,
  0x00, 0x90, 0x2d, 0x4e, 0x00, 0xff, 0x7f, 0x03, 0x05, 0x0f, 0x0e, 0x00,
  0x90, 0x45, 0x4e, 0x00, 0x90, 0x48, 0x4e, 0x00, 0x90, 0x4c, 0x4e, 0x78,
  0x80, 0x2d, 0x00, 0x78, 0x90, 0x2d, 0x4c, 0x00, 0xff, 0x7f, 0x03, 0x05,
  0x0f, 0x0e, 0x78, 0x80, 0x2d, 0x00, 0x78, 0x90, 0x2d, 0x53, 0x00, 0xff,
  0x7f, 0x03, 0x05, 0x0f, 0x0e, 0x78, 0x80, 0x2d, 0x00, 0x78, 0x90, 0x2d,
  0x59, 0x00, 0xff, 0x7f, 0x03, 0x05, 0x0f, 0x0e, 0x78, 0x80, 0x2d, 0x00,
  0x78, 0x90, 0x2d, 0x53, 0x00, 0xff, 0x7f, 0x03, 0x05, 0x0f, 0x0e, 0x78,
  0x80, 0x2d, 0x00, 0x78, 0x90, 0x2d, 0x4c, 0x00, 0xff, 0x7f, 0x03, 0x05,
  0x0f, 0x0e, 0x78, 0x80, 0x2d, 0x00, 0x78, 0x80, 0x4c, 0x00, 0x00, 0x80,
  0x48, 0x00, 0x00, 0x80, 0x45, 0x00, 0x00, 0x90, 0x2d, 0x53, 0x00, 0xff,
  0x7f, 0x03, 0x05, 0x0f, 0x0e, 0x00, 0x90, 0x26, 0x59, 0x00, 0xff, 0x7f,
  0x03, 0x05, 0x0f, 0x0e, 0x00, 0x90, 0x4a, 0x53, 0x00, 0x90, 0x41, 0x59,
  0x78, 0x80, 0x26, 0x00, 0x00, 0x80, 0x2d, 0x00, 0x78, 0x90, 0x2d, 0x53,
  0x00, 0xff, 0x7f, 0x03, 0x05, 0x0f, 0x0e, 0x00, 0x90, 0x26, 0x53, 0x00,
  0xff, 0x7f, 0x03, 0x05, 0x0f, 0x0e, 0x78, 0x80, 0x26, 0x00, 0x00, 0x80,
  0x2d, 0x00, 0x78, 0x90, 0x2d, 0x4c, 0x00, 0xff, 0x7f, 0x03, 0x05, 0x0f,
  0x0e, 0x00, 0x90, 0x26, 0x53, 0x00, 0xff, 0x7f, 0x03, 0x05, 0x0f, 0x0e,
  0x78, 0x80, 0x26, 0x00, 0x00, 0x80, 0x2d, 0x00, 0x78, 0x90, 0x2d, 0x59,
  0x00, 0xff, 0x7f, 0x03, 0x05, 0x0f, 0x0e, 0x00, 0x90, 0x26, 0x53, 0x00,
  0xff, 0x7f, 0x03, 0x05, 0x0f, 0x0e, 0x78, 0x80, 0x26, 0x00, 0x00, 0x80,
  0x2d, 0x00, 0x78, 0x80, 0x41, 0x00, 0x00, 0x80, 0x4a, 0x00, 0x00, 0x90,
  0x2d, 0x4e, 0x00, 0xff, 0x7f, 0x03, 0x05, 0x0f, 0x0e, 0x00, 0x90, 0x26,
  0x4e, 0x00, 0xff, 0x7f, 0x03, 0x05, 0x0f, 0x0e, 0x00, 0x90, 0x48, 0x53,
  0x00, 0x90, 0x40, 0x53, 0x78, 0x80, 0x26, 0x00, 0x00, 0x80, 0x2d, 0x00,
  0x78, 0x80, 0x40, 0x00, 0x00, 0x80, 0x48, 0x00, 0x00, 0x90, 0x2d, 0x4e,
  0x00, 0xff, 0x7f, 0x03, 0x05, 0x0f, 0x0e, 0x00, 0x90, 0x26, 0x4e, 0x00,
  0xff, 0x7f, 0x03, 0x05, 0x0f, 0x0e, 0x00, 0x90, 0x47, 0x4e, 0x00, 0x90,
  0x3e, 0x4e, 0x78, 0x80, 0x26, 0x00, 0x00, 0x80, 0x2d, 0x00, 0x78, 0x80,
  0x3e, 0x00, 0x00, 0x80, 0x47, 0x00, 0x00, 0x90, 0x27, 0x4c, 0x00, 0xff,
  0x7f, 0x03, 0x05, 0x0f, 0x0e, 0x00, 0x90, 0x2d, 0x53, 0x00, 0xff, 0x7f,
  0x03, 0x05, 0x0f, 0x0e, 0x00, 0x90, 0x3c, 0x53, 0x00, 0x90, 0x42, 0x4e,
  0x00, 0x90, 0x45, 0x53, 0x78, 0x80, 0x2d, 0x00, 0x00, 0x80, 0x27, 0x00,
  0x78, 0x90, 0x2d, 0x4c, 0x00, 0xff, 0x7f, 0x03, 0x05, 0x0f, 0x0e, 0x00,
  0x90, 0x27, 0x4e, 0x00, 0xff, 0x7f, 0x03, 0x05, 0x0f, 0x0e, 0x3c, 0x80,
  0x27, 0x00, 0x3c, 0x80, 0x2d, 0x00, 0x78, 0x90, 0x2d, 0x4e, 0x00, 0xff,
  0x7f, 0x03, 0x05, 0x0f, 0x0e, 0x00, 0x90, 0x27, 0x4e, 0x00, 0xff, 0x7f,
  0x03, 0x05, 0x0f, 0x0e, 0x3c, 0x80, 0x27, 0x00, 0x3c, 0x80, 0x2d, 0x00,
  0x78, 0x90, 0x2d, 0x4e, 0x00, 0xff, 0x7f, 0x03, 0x05, 0x0f, 0x0e, 0x00,
  0x90, 0x27, 0x4e, 0x00, 0xff, 0x7f, 0x03, 0x05, 0x0f, 0x0e, 0x0f, 0x80,
  0x27, 0x00, 0x69, 0x80, 0x2d, 0x00, 0x78, 0x80, 0x45, 0x00, 0x00, 0x80,
  0x42, 0x00, 0x00, 0x80, 0x3c, 0x00, 0x00, 0x90, 0x2d, 0x4e, 0x00, 0xff,
  0x7f, 0x03, 0x05, 0x0f, 0x0e, 0x00, 0x90, 0x3c, 0x4e, 0x00, 0x90, 0x45,
  0x4e, 0x00, 0x90, 0x27, 0x4e, 0x00, 0xff, 0x7f, 0x03, 0x05, 0x0f, 0x0e,
  0x3c, 0x80, 0x27, 0x00, 0x3c, 0x80, 0x2d, 0x00, 0x78, 0x90, 0x2d, 0x4e,
  0x00, 0xff, 0x7f, 0x03, 0x05, 0x0f, 0x0e, 0x00, 0x90, 0x27, 0x4e, 0x00,
  0xff, 0x7f, 0x03, 0x05, 0x0f, 0x0e, 0x3c, 0x80, 0x27, 0x00, 0x3c, 0x80,
  0x2d, 0x00, 0x78, 0x80, 0x45, 0x00, 0x00, 0x80, 0x3c, 0x00, 0x00, 0x90,
  0x2d, 0x4e, 0x00, 0xff, 0x7f, 0x03, 0x05, 0x0f, 0x0e, 0x00, 0x90, 0x28,
  0x4e, 0x00, 0xff, 0x7f, 0x03, 0x05, 0x0f, 0x0e, 0x00, 0x90, 0x45, 0x4e,
  0x00, 0x90, 0x3c, 0x4e, 0x78, 0x80, 0x28, 0x00, 0x00, 0x80, 0x2d, 0x00,
  0x78, 0x90, 0x2d, 0x4e, 0x00, 0xff, 0x7f, 0x03, 0x05, 0x0f, 0x0e, 0x00,
  0x90, 0x28, 0x4e, 0x00, 0xff, 0x7f, 0x03, 0x05, 0x0f, 0x0e, 0x78, 0x80,
  0x28, 0x00, 0x00, 0x80, 0x2d, 0x00, 0x78, 0x80, 0x3c, 0x00, 0x00, 0x80,
  0x45, 0x00, 0x00, 0x90, 0x2d, 0x4e, 0x00, 0xff, 0x7f, 0x03, 0x05, 0x0f,
  0x0e, 0x00, 0x90, 0x28, 0x4e, 0x00, 0xff, 0x7f, 0x03, 0x05, 0x0f, 0x0e,
  0x00, 0x90, 0x48, 0x4e, 0x00, 0x90, 0x40, 0x4e, 0x78, 0x80, 0x28, 0x00,
  0x00, 0x80, 0x2d, 0x00, 0x78, 0x90, 0x2d, 0x4e, 0x00, 0xff, 0x7f, 0x03,
  0x05, 0x0f, 0x0e, 0x00, 0x90, 0x28, 0x4e, 0x00, 0xff, 0x7f, 0x03, 0x05,
  0x0f, 0x0e, 0x78, 0x80, 0x28, 0x00, 0x00, 0x80, 0x2d, 0x00, 0x78, 0x80,
  0x40, 0x00, 0x00, 0x80, 0x48, 0x00, 0x00, 0x90, 0x2c, 0x4e, 0x00, 0xff,
  0x7f, 0x03, 0x05, 0x0f, 0x0e, 0x00, 0x90, 0x28, 0x4e, 0x00, 0xff, 0x7f,
  0x03, 0x05, 0x0f, 0x0e, 0x00, 0x90, 0x47, 0x4e, 0x00, 0x90, 0x3e, 0x4e,
  0x78, 0x80, 0x28, 0x00, 0x00, 0x80, 0x2c, 0x00, 0x78, 0x90, 0x2c, 0x4e,
  0x00, 0xff, 0x7f, 0x03, 0x05, 0x0f, 0x0e, 0x00, 0x90, 0x28, 0x4e, 0x00,
  0xff, 0x7f, 0x03, 0x05, 0x0f, 0x0e, 0x78, 0x80, 0x28, 0x00, 0x00, 0x80,
  0x2c, 0x00, 0x78, 0x80, 0x3e, 0x00, 0x00, 0x80, 0x47, 0x00, 0x00, 0x90,
  0x2d, 0x4e, 0x00, 0xff, 0x7f, 0x03, 0x05, 0x0f, 0x0e, 0x00, 0x90, 0x21,
  0x4e, 0x00, 0xff, 0x7f, 0x03, 0x05, 0x0f, 0x0e, 0x00, 0x90, 0x45, 0x4e,
  0x00, 0x90, 0x3c, 0x4e, 0x78, 0x80, 0x21, 0x00, 0x00, 0x80, 0x2d, 0x00,
  0x78, 0x90, 0x2d, 0x4c, 0x00, 0xff, 0x7f, 0x03, 0x05, 0x0f, 0x0e, 0x78,
  0x80, 0x2d, 0x00, 0x78, 0x90, 0x2d, 0x53, 0x00, 0xff, 0x7f, 0x03, 0x05,
  0x0f, 0x0e, 0x78, 0x80, 0x2d, 0x00, 0x78, 0x90, 0x2d, 0x59, 0x00, 0xff,
  0x7f, 0x03, 0x05, 0x0f, 0x0e, 0x78, 0x80, 0x2d, 0x00, 0x78, 0x90, 0x2d,
  0x4c, 0x00, 0xff, 0x7f, 0x03, 0x05, 0x0f, 0x0e, 0x78, 0x80, 0x2d, 0x00,
  0x78, 0x90, 0x2d, 0x53, 0x00, 0xff, 0x7f, 0x03, 0x05, 0x0f, 0x0e, 0x78,
  0x80, 0x2d, 0x00, 0x78, 0x80, 0x3c, 0x00, 0x00, 0x80, 0x45, 0x00, 0x00,
  0x90, 0x2d, 0x4c, 0x00, 0xff, 0x7f, 0x03, 0x05, 0x0f, 0x0e, 0x00, 0x90,
  0x40, 0x53, 0x00, 0x90, 0x43, 0x4e, 0x00, 0x90, 0x46, 0x4e, 0x00, 0x90,
  0x49, 0x4e, 0x78, 0x80, 0x2d, 0x00, 0x78, 0x90, 0x2d, 0x59, 0x00, 0xff,
  0x7f, 0x03, 0x05, 0x0f, 0x0e, 0x78, 0x80, 0x2d, 0x00, 0x78, 0x90, 0x2d,
  0x53, 0x00, 0xff, 0x7f, 0x03, 0x05, 0x0f, 0x0e, 0x78, 0x80, 0x2d, 0x00,
  0x78, 0x90, 0x2d, 0x59, 0x00, 0xff, 0x7f, 0x03, 0x05, 0x0f, 0x0e, 0x78,
  0x80, 0x2d, 0x00, 0x78, 0x90, 0x2d, 0x4c, 0x00, 0xff, 0x7f, 0x03, 0x05,
  0x0f, 0x0e, 0x78, 0x80, 0x2d, 0x00, 0x78, 0x90, 0x2d, 0x53, 0x00, 0xff,
  0x7f, 0x03, 0x05, 0x0f, 0x0e, 0x78, 0x80, 0x2d, 0x00, 0x78, 0x80, 0x40,
  0x00, 0x00, 0x80, 0x49, 0x00, 0x00, 0x80, 0x46, 0x00, 0x00, 0x80, 0x43,
  0x00, 0x00, 0x90, 0x2d, 0x4e, 0x00, 0xff, 0x7f, 0x03, 0x05, 0x0f, 0x0e,
  0x00, 0x90, 0x4a, 0x4e, 0x00, 0x90, 0x45, 0x4e, 0x00, 0x90, 0x41, 0x4e,
  0x78, 0x80, 0x2d, 0x00, 0x78, 0x90, 0x2d, 0x4e, 0x00, 0xff, 0x7f, 0x03,
  0x05, 0x0f, 0x0e, 0x78, 0x80, 0x2d, 0x00, 0x78, 0x90, 0x2d, 0x4e, 0x00,
  0xff, 0x7f, 0x03, 0x05, 0x0f, 0x0e, 0x78, 0x80, 0x2d, 0x00, 0x78, 0x90,
  0x2d, 0x4e, 0x00, 0xff, 0x7f, 0x03, 0x05, 0x0f, 0x0e, 0x78, 0x80, 0x2d,
  0x00, 0x78, 0x80, 0x41, 0x00, 0x00, 0x80, 0x45, 0x00, 0x00, 0x80, 0x4a,
  0x00, 0x00, 0x90, 0x2d, 0x4e, 0x00, 0xff, 0x7f, 0x03, 0x05, 0x0f, 0x0e,
  0x00, 0x90, 0x49, 0x4e, 0x00, 0x90, 0x4c, 0x4e, 0x78, 0x80, 0x2d, 0x00,
  0x78, 0x80, 0x4c, 0x00, 0x00, 0x80, 0x49, 0x00, 0x00, 0x90, 0x2d, 0x4e,
  0x00, 0xff, 0x7f, 0x03, 0x05, 0x0f, 0x0e, 0x00, 0x90, 0x4a, 0x4e, 0x00,
  0x90, 0x4d, 0x4e, 0x78, 0x80, 0x2d, 0x00, 0x78, 0x80, 0x4d, 0x00, 0x00,
  0x80, 0x4a, 0x00, 0x00, 0x90, 0x2d, 0x4e, 0x00, 0xff, 0x7f, 0x03, 0x05,
  0x0f, 0x0e, 0x00, 0x90, 0x4a, 0x4e, 0x00, 0x90, 0x4d, 0x4e, 0x78, 0x80,
  0x2d, 0x00, 0x78, 0x90, 0x2d, 0x4e, 0x00, 0xff, 0x7f, 0x03, 0x05, 0x0f,
  0x0e, 0x78, 0x80, 0x2d, 0x00, 0x78, 0x90, 0x2d, 0x4e, 0x00, 0xff, 0x7f,
  0x03, 0x05, 0x0f, 0x0e, 0x78, 0x80, 0x2d, 0x00, 0x78, 0x90, 0x2d, 0x4e,
  0x00, 0xff, 0x7f, 0x03, 0x05, 0x0f, 0x0e, 0x78, 0x80, 0x2d, 0x00, 0x78,
  0x80, 0x4d, 0x00, 0x00, 0x80, 0x4a, 0x00, 0x00, 0x90, 0x2d, 0x4e, 0x00,
  0xff, 0x7f, 0x03, 0x05, 0x0f, 0x0e, 0x00, 0x90, 0x4a, 0x4e, 0x00, 0x90,
  0x4d, 0x53, 0x78, 0x80, 0x2d, 0x00, 0x78, 0x90, 0x2d, 0x4e, 0x00, 0xff,
  0x7f, 0x03, 0x05, 0x0f, 0x0e, 0x78, 0x80, 0x2d, 0x00, 0x78, 0x80, 0x4d,
  0x00, 0x00, 0x80, 0x4a, 0x00, 0x00, 0x90, 0x2e, 0x4c, 0x00, 0xff, 0x7f,
  0x03, 0x05, 0x0f, 0x0e, 0x00, 0x90, 0x4d, 0x59, 0x00, 0x90, 0x4a, 0x4e,
  0x78, 0x80, 0x2e, 0x00, 0x78, 0x90, 0x2e, 0x53, 0x00, 0xff, 0x7f, 0x03,
  0x05, 0x0f, 0x0e, 0x78, 0x80, 0x2e, 0x00, 0x78, 0x90, 0x2e, 0x59, 0x00,
  0xff, 0x7f, 0x03, 0x05, 0x0f, 0x0e, 0x78, 0x80, 0x2e, 0x00, 0x78, 0x90,
  0x2e, 0x53, 0x00, 0xff, 0x7f, 0x03, 0x05, 0x0f, 0x0e, 0x78, 0x80, 0x2e,
  0x00, 0x78, 0x90, 0x2e, 0x59, 0x00, 0xff, 0x7f, 0x03, 0x05, 0x0f, 0x0e,
  0x78, 0x80, 0x2e, 0x00, 0x78, 0x90, 0x2e, 0x4c, 0x00, 0xff, 0x7f, 0x03,
  0x05, 0x0f, 0x0e, 0x78, 0x80, 0x2e, 0x00, 0x78, 0x80, 0x4d, 0x00, 0x00,
  0x80, 0x4a, 0x00, 0x00, 0x90, 0x2e, 0x53, 0x00, 0xff, 0x7f, 0x03, 0x05,
  0x0f, 0x0e, 0x00, 0x90, 0x4b, 0x4c, 0x00, 0x90, 0x43, 0x4e, 0x78, 0x80,
  0x2e, 0x00, 0x78, 0x90, 0x2e, 0x4e, 0x00, 0xff, 0x7f, 0x03, 0x05, 0x0f,
  0x0e, 0x78, 0x80, 0x2e, 0x00, 0x78, 0x90, 0x2e, 0x4e, 0x00, 0xff, 0x7f,
  0x03, 0x05, 0x0f, 0x0e, 0x78, 0x80, 0x2e, 0x00, 0x78, 0x90, 0x2e, 0x4e,
  0x00, 0xff, 0x7f, 0x03, 0x05, 0x0f, 0x0e, 0x78, 0x80, 0x2e, 0x00, 0x78,
  0x80, 0x43, 0x00, 0x00, 0x80, 0x4b, 0x00, 0x00, 0x90, 0x2e, 0x4e, 0x00,
  0xff, 0x7f, 0x03, 0x05, 0x0f, 0x0e, 0x00, 0x90, 0x4a, 0x4c, 0x00, 0x90,
  0x41, 0x4e, 0x78, 0x80, 0x2e, 0x00, 0x78, 0x80, 0x41, 0x00, 0x00, 0x80,
  0x4a, 0x00, 0x00, 0x90, 0x2e, 0x4e, 0x00, 0xff, 0x7f, 0x03, 0x05, 0x0f,
  0x0e, 0x00, 0x90, 0x48, 0x53, 0x00, 0x90, 0x3f, 0x4e, 0x78, 0x80, 0x2e,
  0x00, 0x78, 0x80, 0x3f, 0x00, 0x00, 0x80, 0x48, 0x00, 0x00, 0x90, 0x2e,
  0x4e, 0x00, 0xff, 0x7f, 0x03, 0x05, 0x0f, 0x0e, 0x00, 0x90, 0x46, 0x53,
  0x00, 0x90, 0x41, 0x4e, 0x00, 0x90, 0x3e, 0x4e, 0x78, 0x80, 0x2e, 0x00,
  0x78, 0x90, 0x2e, 0x4e, 0x00, 0xff, 0x7f, 0x03, 0x05, 0x0f, 0x0e, 0x78,
  0x80, 0x2e, 0x00, 0x78, 0x90, 0x2e, 0x53, 0x00, 0xff, 0x7f, 0x03, 0x05,
  0x0f, 0x0e, 0x78, 0x80, 0x2e, 0x00, 0x78, 0x90, 0x2e, 0x4c, 0x00, 0xff,
  0x7f, 0x03, 0x05, 0x0f, 0x0e, 0x78, 0x80, 0x2e, 0x00, 0x78, 0x80, 0x3e,
  0x00, 0x00, 0x80, 0x41, 0x00, 0x00, 0x80, 0x46, 0x00, 0x00, 0x90, 0x2e,
  0x4e, 0x00, 0xff, 0x7f, 0x03, 0x05, 0x0f, 0x0e, 0x00, 0x90, 0x3e, 0x53,
  0x00, 0x90, 0x41, 0x4e, 0x00, 0x90, 0x45, 0x4e, 0x78, 0x80, 0x2e, 0x00,
  0x78, 0x90, 0x2e, 0x59, 0x00, 0xff, 0x7f, 0x03, 0x05, 0x0f, 0x0e, 0x78,
  0x80, 0x2e, 0x00, 0x78, 0x80, 0x45, 0x00, 0x00, 0x80, 0x41, 0x00, 0x00,
  0x80, 0x3e, 0x00, 0x00, 0x90, 0x2f, 0x4e, 0x00, 0x90, 0x3e, 0x4e, 0x00,
  0x90, 0x41, 0x4e, 0x00, 0x90, 0x44, 0x4e, 0x81, 0x70, 0x80, 0x2f, 0x00,
  0x00, 0x90, 0x2f, 0x4e, 0x81, 0x70, 0x80, 0x2f, 0x00, 0x00, 0x90, 0x2f,
  0x4e, 0x81, 0x70, 0x80, 0x2f, 0x00, 0x00, 0x90, 0x2f, 0x4e, 0x81, 0x70,
  0x80, 0x44, 0x00, 0x00, 0x80, 0x41, 0x00, 0x00, 0x80, 0x3e, 0x00, 0x00,
  0x80, 0x2f, 0x00, 0x00, 0x90, 0x2f, 0x4e, 0x00, 0x90, 0x3e, 0x4e, 0x00,
  0x90, 0x41, 0x4e, 0x00, 0x90, 0x44, 0x4e, 0x81, 0x70, 0x80, 0x2f, 0x00,
  0x00, 0x90, 0x2f, 0x4e, 0x81, 0x70, 0x80, 0x44, 0x00, 0x00, 0x80, 0x41,
  0x00, 0x00, 0x80, 0x3e, 0x00, 0x00, 0x80, 0x2f, 0x00, 0x00, 0x90, 0x3c,
  0x4e, 0x00, 0x90, 0x40, 0x4e, 0x00, 0x90, 0x45, 0x4e, 0x00, 0x90, 0x30,
  0x4e, 0x87, 0x40, 0x80, 0x30, 0x00, 0x00, 0x80, 0x45, 0x00, 0x00, 0x80,
  0x40, 0x00, 0x00, 0x80, 0x3c, 0x00, 0x83, 0x60, 0x90, 0x47, 0x4e, 0x00,
  0xff, 0x7f, 0x03, 0x05, 0x0f, 0x0e, 0x00, 0x90, 0x40, 0x4e, 0x00, 0xff,
  0x7f, 0x03, 0x05, 0x0f, 0x0e, 0x00, 0x90, 0x41, 0x4e, 0x00, 0xff, 0x7f,
  0x03, 0x05, 0x0f, 0x0e, 0x00, 0x90, 0x34, 0x4e, 0x00, 0xff, 0x7f, 0x03,
  0x05, 0x0f, 0x0e, 0x00, 0x90, 0x38, 0x4e, 0x00, 0xff, 0x7f, 0x03, 0x05,
  0x0f, 0x0e, 0x81, 0x70, 0x80, 0x38, 0x00, 0x00, 0x80, 0x34, 0x00, 0x00,
  0x80, 0x41, 0x00, 0x00, 0x80, 0x40, 0x00, 0x00, 0x80, 0x47, 0x00, 0x89,
  0x30, 0x90, 0x3c, 0x4e, 0x81, 0x20, 0x80, 0x3c, 0x00, 0x00, 0x90, 0x3c,
  0x4e, 0x81, 0x20, 0x80, 0x3c, 0x00, 0x00, 0x90, 0x40, 0x4e, 0x81, 0x20,
  0x80, 0x40, 0x00, 0x00, 0x90, 0x45, 0x4e, 0x81, 0x20, 0x80, 0x45, 0x00,
  0x00, 0x90, 0x48, 0x4e, 0x81, 0x20, 0x80, 0x48, 0x00, 0x00, 0x90, 0x4c,
  0x4e, 0x81, 0x20, 0x80, 0x4c, 0x00, 0x00, 0x90, 0x4a, 0x4e, 0x00, 0x90,
  0x39, 0x4e, 0x00, 0x90, 0x3c, 0x4e, 0x00, 0x90, 0x40, 0x4e, 0x00, 0xff,
  0x7f, 0x04, 0x05, 0x0f, 0x0f, 0x08, 0x81, 0x20, 0x80, 0x4a, 0x00, 0x00,
  0x90, 0x48, 0x4e, 0x81, 0x20, 0x80, 0x48, 0x00, 0x00, 0x90, 0x47, 0x4e,
  0x81, 0x20, 0x80, 0x40, 0x00, 0x00, 0x80, 0x3c, 0x00, 0x00, 0x80, 0x39,
  0x00, 0x00, 0x80, 0x47, 0x00, 0x00, 0x90, 0x45, 0x4e, 0x00, 0x90, 0x40,
  0x4e, 0x00, 0xff, 0x7f, 0x04, 0x05, 0x0f, 0x0f, 0x08, 0x00, 0x90, 0x3c,
  0x4e, 0x00, 0x90, 0x39, 0x4e, 0x81, 0x20, 0x80, 0x45, 0x00, 0x00, 0x90,
  0x48, 0x4e, 0x81, 0x20, 0x80, 0x48, 0x00, 0x00, 0x90, 0x4c, 0x4e, 0x81,
  0x20, 0x80, 0x39, 0x00, 0x00, 0x80, 0x3c, 0x00, 0x00, 0x80, 0x40, 0x00,
  0x00, 0x80, 0x4c, 0x00, 0x00, 0x90, 0x51, 0x4e, 0x81, 0x20, 0x80, 0x51,
  0x00, 0x00, 0x90, 0x54, 0x4e, 0x81, 0x20, 0x80, 0x54, 0x00, 0x00, 0x90,
  0x58, 0x4e, 0x81, 0x20, 0x80, 0x58, 0x00, 0x00, 0x90, 0x56, 0x4e, 0x00,
  0x90, 0x40, 0x4e, 0x00, 0xff, 0x7f, 0x04, 0x05, 0x0f, 0x0f, 0x08, 0x00,
  0x90, 0x3c, 0x4e, 0x00, 0x90, 0x39, 0x4e, 0x81, 0x20, 0x80, 0x56, 0x00,
  0x00, 0x90, 0x54, 0x4e, 0x81, 0x20, 0x80, 0x54, 0x00, 0x00, 0x90, 0x53,
  0x4e, 0x81, 0x20, 0x80, 0x39, 0x00, 0x00, 0x80, 0x3c, 0x00, 0x00, 0x80,
  0x40, 0x00, 0x00, 0x80, 0x53, 0x00, 0x00, 0x90, 0x51, 0x4e, 0x00, 0x90,
  0x40, 0x4e, 0x00, 0xff, 0x7f, 0x04, 0x05, 0x0f, 0x0f, 0x08, 0x00, 0x90,
  0x3c, 0x4e, 0x00, 0x90, 0x39, 0x4e, 0x81, 0x20, 0x80, 0x51, 0x00, 0x00,
  0x90, 0x54, 0x4e, 0x81, 0x20, 0x80, 0x54, 0x00, 0x00, 0x90, 0x58, 0x4e,
  0x81, 0x20, 0x80, 0x39, 0x00, 0x00, 0x80, 0x3c, 0x00, 0x00, 0x80, 0x40,
  0x00, 0x00, 0x80, 0x58, 0x00, 0x00, 0x90, 0x5d, 0x4e, 0x81, 0x20, 0x80,
  0x5d, 0x00, 0x00, 0x90, 0x60, 0x4e, 0x81, 0x20, 0x80, 0x60, 0x00, 0x00,
  0x90, 0x64, 0x4e, 0x81, 0x20, 0x80, 0x64, 0x00, 0x00, 0x90, 0x62, 0x4e,
  0x00, 0x90, 0x39, 0x4e, 0x00, 0x90, 0x3c, 0x4e, 0x00, 0x90, 0x40, 0x4e,
  0x00, 0xff, 0x7f, 0x04, 0x05, 0x0f, 0x0f, 0x08, 0x81, 0x20, 0x80, 0x62,
  0x00, 0x00, 0x90, 0x60, 0x4e, 0x81, 0x20, 0x80, 0x60, 0x00, 0x00, 0x90,
  0x5f, 0x4e, 0x81, 0x20, 0x80, 0x40, 0x00, 0x00, 0x80, 0x3c, 0x00, 0x00,
  0x80, 0x39, 0x00, 0x00, 0x80, 0x5f, 0x00, 0x00, 0x90, 0x5e, 0x4e, 0x00,
  0x90, 0x40, 0x4e, 0x00, 0xff, 0x7f, 0x04, 0x05, 0x0f, 0x0f, 0x08, 0x00,
  0x90, 0x3c, 0x4e, 0x00, 0x90, 0x39, 0x4e, 0x81, 0x20, 0x80, 0x5e, 0x00,
  0x00, 0x90, 0x5d, 0x4e, 0x81, 0x20, 0x80, 0x5d, 0x00, 0x00, 0x90, 0x5c,
  0x4e, 0x81, 0x20, 0x80, 0x39, 0x00, 0x00, 0x80, 0x3c, 0x00, 0x00, 0x80,
  0x40, 0x00, 0x00, 0x80, 0x5c, 0x00, 0x00, 0x90, 0x5b, 0x4e, 0x81, 0x20,
  0x80, 0x5b, 0x00, 0x00, 0x90, 0x5a, 0x4e, 0x81, 0x20, 0x80, 0x5a, 0x00,
  0x00, 0x90, 0x59, 0x4e, 0x81, 0x20, 0x80, 0x59, 0x00, 0x00, 0x90, 0x58,
  0x4e, 0x81, 0x20, 0x80, 0x58, 0x00, 0x00, 0x90, 0x57, 0x4e, 0x81, 0x20,
  0x80, 0x57, 0x00, 0x00, 0x90, 0x56, 0x4e, 0x81, 0x20, 0x80, 0x56, 0x00,
  0x00, 0x90, 0x55, 0x4e, 0x81, 0x20, 0x80, 0x55, 0x00, 0x00, 0x90, 0x54,
  0x4e, 0x81, 0x20, 0x80, 0x54, 0x00, 0x00, 0x90, 0x53, 0x4e, 0x81, 0x20,
  0x80, 0x53, 0x00, 0x00, 0x90, 0x52, 0x4e, 0x81, 0x20, 0x80, 0x52, 0x00,
  0x00, 0x90, 0x51, 0x4e, 0x81, 0x20, 0x80, 0x51, 0x00, 0x00, 0x90, 0x50,
  0x4e, 0x81, 0x20, 0x80, 0x50, 0x00, 0x00, 0x90, 0x4f, 0x4e, 0x81, 0x20,
  0x80, 0x4f, 0x00, 0x00, 0x90, 0x4e, 0x4e, 0x81, 0x20, 0x80, 0x4e, 0x00,
  0x00, 0x90, 0x4d, 0x4e, 0x81, 0x20, 0x80, 0x4d, 0x00, 0x00, 0x90, 0x4c,
  0x4e, 0x81, 0x70, 0x80, 0x4c, 0x00, 0x00, 0x90, 0x4b, 0x4e, 0x81, 0x70,
  0x80, 0x4b, 0x00, 0x00, 0x90, 0x4c, 0x53, 0x81, 0x70, 0x80, 0x4c, 0x00,
  0x00, 0x90, 0x47, 0x4e, 0x81, 0x70, 0x80, 0x47, 0x00, 0x00, 0x90, 0x4a,
  0x4e, 0x81, 0x70, 0x80, 0x4a, 0x00, 0x00, 0x90, 0x48, 0x4e, 0x81, 0x70,
  0x80, 0x48, 0x00, 0x00, 0x90, 0x45, 0x53, 0x00, 0x90, 0x2d, 0x46, 0x81,
  0x70, 0x80, 0x2d, 0x00, 0x00, 0x90, 0x34, 0x4c, 0x81, 0x70, 0x80, 0x34,
  0x00, 0x00, 0x80, 0x45, 0x00, 0x00, 0x90, 0x39, 0x4e, 0x81, 0x70, 0x80,
  0x39, 0x00, 0x00, 0x90, 0x3c, 0x46, 0x81, 0x70, 0x80, 0x3c, 0x00, 0x00,
  0x90, 0x40, 0x4c, 0x81, 0x70, 0x80, 0x40, 0x00, 0x00, 0x90, 0x45, 0x53,
  0x81, 0x70, 0x80, 0x45, 0x00, 0x00, 0x90, 0x47, 0x59, 0x00, 0x90, 0x28,
  0x4c, 0x81, 0x70, 0x80, 0x28, 0x00, 0x00, 0x90, 0x34, 0x4e, 0x81, 0x70,
  0x80, 0x34, 0x00, 0x00, 0x80, 0x47, 0x00, 0x00, 0x90, 0x38, 0x4e, 0x81,
  0x70, 0x80, 0x38, 0x00, 0x00, 0x90, 0x40, 0x4e, 0x81, 0x70, 0x80, 0x40,
  0x00, 0x00, 0x90, 0x44, 0x46, 0x81, 0x70, 0x80, 0x44, 0x00, 0x00, 0x90,
  0x47, 0x46, 0x81, 0x70, 0x80, 0x47, 0x00, 0x00, 0x90, 0x48, 0x4e, 0x00,
  0x90, 0x2d, 0x53, 0x81, 0x70, 0x80, 0x2d, 0x00, 0x00, 0x90, 0x34, 0x4e,
  0x81, 0x70, 0x80, 0x34, 0x00, 0x00, 0x80, 0x48, 0x00, 0x00, 0x90, 0x39,
  0x4e, 0x81, 0x70, 0x80, 0x39, 0x00, 0x00, 0x90, 0x40, 0x4e, 0x00, 0xff,
  0x7f, 0x04, 0x05, 0x0f, 0x0f, 0x10, 0x81, 0x70, 0x80, 0x40, 0x00, 0x00,
  0x90, 0x4c, 0x4e, 0x81, 0x70, 0x80, 0x4c, 0x00, 0x00, 0x90, 0x4b, 0x4e,
  0x81, 0x70, 0x80, 0x4b, 0x00, 0x00, 0x90, 0x4c, 0x53, 0x81, 0x70, 0x80,
  0x4c, 0x00, 0x00, 0x90, 0x4b, 0x4e, 0x81, 0x70, 0x80, 0x4b, 0x00, 0x00,
  0x90, 0x4c, 0x53, 0x81, 0x70, 0x80, 0x4c, 0x00, 0x00, 0x90, 0x47, 0x4e,
  0x81, 0x70, 0x80, 0x47, 0x00, 0x00, 0x90, 0x4a, 0x46, 0x81, 0x70, 0x80,
  0x4a, 0x00, 0x00, 0x90, 0x48, 0x4e, 0x81, 0x70, 0x80, 0x48, 0x00, 0x00,
  0x90, 0x45, 0x4e, 0x00, 0x90, 0x2d, 0x46, 0x81, 0x70, 0x80, 0x2d, 0x00,
  0x00, 0x90, 0x34, 0x4c, 0x81, 0x70, 0x80, 0x34, 0x00, 0x00, 0x80, 0x45,
  0x00, 0x00, 0x90, 0x39, 0x4c, 0x81, 0x70, 0x80, 0x39, 0x00, 0x00, 0x90,
  0x3c, 0x53, 0x81, 0x70, 0x80, 0x3c, 0x00, 0x00, 0x90, 0x40, 0x53, 0x81,
  0x70, 0x80, 0x40, 0x00, 0x00, 0x90, 0x45, 0x4c, 0x81, 0x70, 0x80, 0x45,
  0x00, 0x00, 0x90, 0x47, 0x53, 0x00, 0x90, 0x28, 0x40, 0x81, 0x70, 0x80,
  0x28, 0x00, 0x00, 0x90, 0x34, 0x46, 0x81, 0x70, 0x80, 0x34, 0x00, 0x00,
  0x80, 0x47, 0x00, 0x00, 0x90, 0x38, 0x4c, 0x81, 0x70, 0x80, 0x38, 0x00,
  0x00, 0x90, 0x40, 0x53, 0x81, 0x70, 0x80, 0x40, 0x00, 0x00, 0x90, 0x48,
  0x4e, 0x81, 0x70, 0x80, 0x48, 0x00, 0x00, 0x90, 0x47, 0x4e, 0x81, 0x70,
  0x80, 0x47, 0x00, 0x00, 0x90, 0x45, 0x4e, 0x00, 0x90, 0x2d, 0x4e, 0x81,
  0x70, 0x80, 0x2d, 0x00, 0x00, 0x90, 0x34, 0x4e, 0x81, 0x70, 0x80, 0x34,
  0x00, 0x00, 0x80, 0x45, 0x00, 0x00, 0x90, 0x39, 0x4e, 0x81, 0x70, 0x80,
  0x39, 0x00, 0x00, 0x90, 0x47, 0x4e, 0x81, 0x70, 0x80, 0x47, 0x00, 0x00,
  0x90, 0x48, 0x4e, 0x81, 0x70, 0x80, 0x48, 0x00, 0x00, 0x90, 0x4a, 0x4e,
  0x81, 0x70, 0x80, 0x4a, 0x00, 0x00, 0x90, 0x4c, 0x4e, 0x00, 0xff, 0x7f,
  0x04, 0x05, 0x0f, 0x0f, 0x10, 0x00, 0x90, 0x30, 0x46, 0x81, 0x70, 0x80,
  0x30, 0x00, 0x00, 0x90, 0x37, 0x4e, 0x81, 0x70, 0x80, 0x37, 0x00, 0x00,
  0x90, 0x3c, 0x4e, 0x00, 0xff, 0x7f, 0x04, 0x05, 0x0f, 0x0f, 0x08, 0x81,
  0x70, 0x80, 0x4c, 0x00, 0x00, 0x80, 0x3c, 0x00, 0x00, 0x90, 0x43, 0x4e,
  0x81, 0x70, 0x80, 0x43, 0x00, 0x00, 0x90, 0x4d, 0x4e, 0x81, 0x70, 0x80,
  0x4d, 0x00, 0x00, 0x90, 0x4c, 0x4e, 0x81, 0x70, 0x80, 0x4c, 0x00, 0x00,
  0x90, 0x4a, 0x4e, 0x00, 0xff, 0x7f, 0x04, 0x05, 0x0f, 0x0f, 0x10, 0x00,
  0x90, 0x2b, 0x40, 0x81, 0x70, 0x80, 0x2b, 0x00, 0x00, 0x90, 0x37, 0x4e,
  0x81, 0x70, 0x80, 0x37, 0x00, 0x00, 0x90, 0x3b, 0x4e, 0x81, 0x70, 0x80,
  0x4a, 0x00, 0x00, 0x80, 0x3b, 0x00, 0x00, 0x90, 0x41, 0x4e, 0x81, 0x70,
  0x80, 0x41, 0x00, 0x00, 0x90, 0x4c, 0x4e, 0x81, 0x70, 0x80, 0x4c, 0x00,
  0x00, 0x90, 0x4a, 0x4e, 0x81, 0x70, 0x80, 0x4a, 0x00, 0x00, 0x90, 0x48,
  0x4e, 0x00, 0x90, 0x2d, 0x46, 0x81, 0x70, 0x80, 0x2d, 0x00, 0x00, 0x90,
  0x34, 0x4e, 0x81, 0x70, 0x80, 0x34, 0x00, 0x00, 0x90, 0x39, 0x4e, 0x81,
  0x70, 0x80, 0x48, 0x00, 0x00, 0x80, 0x39, 0x00, 0x00, 0x90, 0x40, 0x4e,
  0x81, 0x70, 0x80, 0x40, 0x00, 0x00, 0x90, 0x4a, 0x4e, 0x81, 0x70, 0x80,
  0x4a, 0x00, 0x00, 0x90, 0x48, 0x4e, 0x81, 0x70, 0x80, 0x48, 0x00, 0x00,
  0x90, 0x47, 0x4c, 0x00, 0x90, 0x28, 0x40, 0x81, 0x70, 0x80, 0x28, 0x00,
  0x00, 0x90, 0x34, 0x4c, 0x81, 0x70, 0x80, 0x34, 0x00, 0x00, 0x80, 0x47,
  0x00, 0x00, 0x90, 0x40, 0x40, 0x00, 0xff, 0x7f, 0x04, 0x05, 0x0f, 0x0f,
  0x08, 0x81, 0x70, 0x80, 0x40, 0x00, 0x00, 0x90, 0x40, 0x46, 0x81, 0x70,
  0x80, 0x40, 0x00, 0x00, 0x90, 0x4c, 0x53, 0x81, 0x70, 0x80, 0x4c, 0x00,
  0x00, 0x90, 0x40, 0x4c, 0x81, 0x70, 0x80, 0x40, 0x00, 0x00, 0x90, 0x4c,
  0x4c, 0x81, 0x70, 0x80, 0x4c, 0x00, 0x00, 0x90, 0x4c, 0x46, 0x81, 0x70,
  0x80, 0x4c, 0x00, 0x00, 0x90, 0x58, 0x4c, 0x81, 0x70, 0x80, 0x58, 0x00,
  0x00, 0x90, 0x4b, 0x4c, 0x81, 0x70, 0x80, 0x4b, 0x00, 0x00, 0x90, 0x4c,
  0x46, 0x81, 0x70, 0x80, 0x4c, 0x00, 0x00, 0x90, 0x4b, 0x4c, 0x81, 0x70,
  0x80, 0x4b, 0x00, 0x00, 0x90, 0x4c, 0x4c, 0x81, 0x70, 0x80, 0x4c, 0x00,
  0x00, 0x90, 0x4b, 0x46, 0x81, 0x70, 0x80, 0x4b, 0x00, 0x00, 0x90, 0x4c,
  0x4c, 0x81, 0x70, 0x80, 0x4c, 0x00, 0x00, 0x90, 0x47, 0x4c, 0x81, 0x70,
  0x80, 0x47, 0x00, 0x00, 0x90, 0x4a, 0x4c, 0x81, 0x70, 0x80, 0x4a, 0x00,
  0x00, 0x90, 0x48, 0x4c, 0x81, 0x70, 0x80, 0x48, 0x00, 0x00, 0x90, 0x45,
  0x4c, 0x00, 0x90, 0x2d, 0x40, 0x81, 0x70, 0x80, 0x2d, 0x00, 0x00, 0x90,
  0x34, 0x46, 0x81, 0x70, 0x80, 0x34, 0x00, 0x00, 0x80, 0x45, 0x00, 0x00,
  0x90, 0x39, 0x4c, 0x81, 0x70, 0x80, 0x39, 0x00, 0x00, 0x90, 0x3c, 0x4c,
  0x81, 0x70, 0x80, 0x3c, 0x00, 0x00, 0x90, 0x40, 0x4c, 0x81, 0x70, 0x80,
  0x40, 0x00, 0x00, 0x90, 0x45, 0x4c, 0x81, 0x70, 0x80, 0x45, 0x00, 0x00,
  0x90, 0x47, 0x4c, 0x00, 0x90, 0x28, 0x40, 0x81, 0x70, 0x80, 0x28, 0x00,
  0x00, 0x90, 0x34, 0x46, 0x81, 0x70, 0x80, 0x34, 0x00, 0x00, 0x80, 0x47,
  0x00, 0x00, 0x90, 0x38, 0x46, 0x81, 0x70, 0x80, 0x38, 0x00, 0x00, 0x90,
  0x40, 0x46, 0x81, 0x70, 0x80, 0x40, 0x00, 0x00, 0x90, 0x44, 0x4c, 0x81,
  0x70, 0x80, 0x44, 0x00, 0x00, 0x90, 0x47, 0x4c, 0x81, 0x70, 0x80, 0x47,
  0x00, 0x00, 0x90, 0x48, 0x4c, 0x00, 0x90, 0x2d, 0x4c, 0x81, 0x70, 0x80,
  0x2d, 0x00, 0x00, 0x90, 0x34, 0x4c, 0x81, 0x70, 0x80, 0x34, 0x00, 0x00,
  0x80, 0x48, 0x00, 0x00, 0x90, 0x39, 0x4c, 0x81, 0x70, 0x80, 0x39, 0x00,
  0x00, 0x90, 0x40, 0x4c, 0x81, 0x70, 0x80, 0x40, 0x00, 0x00, 0x90, 0x4c,
  0x4c, 0x81, 0x70, 0x80, 0x4c, 0x00, 0x00, 0x90, 0x4b, 0x4c, 0x81, 0x70,
  0x80, 0x4b, 0x00, 0x00, 0x90, 0x4c, 0x4c, 0x81, 0x70, 0x80, 0x4c, 0x00,
  0x00, 0x90, 0x4b, 0x4c, 0x81, 0x70, 0x80, 0x4b, 0x00, 0x00, 0x90, 0x4c,
  0x4c, 0x81, 0x70, 0x80, 0x4c, 0x00, 0x00, 0x90, 0x47, 0x4c, 0x81, 0x70,
  0x80, 0x47, 0x00, 0x00, 0x90, 0x4a, 0x4c, 0x81, 0x70, 0x80, 0x4a, 0x00,
  0x00, 0x90, 0x48, 0x4c, 0x81, 0x70, 0x80, 0x48, 0x00, 0x00, 0x90, 0x45,
  0x4c, 0x00, 0x90, 0x2d, 0x4c, 0x81, 0x70, 0x80, 0x2d, 0x00, 0x00, 0x90,
  0x34, 0x4c, 0x81, 0x70, 0x80, 0x34, 0x00, 0x00, 0x80, 0x45, 0x00, 0x00,
  0x90, 0x39, 0x4c, 0x81, 0x70, 0x80, 0x39, 0x00, 0x00, 0x90, 0x3c, 0x4c,
  0x81, 0x70, 0x80, 0x3c, 0x00, 0x00, 0x90, 0x40, 0x4c, 0x81, 0x70, 0x80,
  0x40, 0x00, 0x00, 0x90, 0x45, 0x46, 0x81, 0x70, 0x80, 0x45, 0x00, 0x00,
  0x90, 0x47, 0x40, 0x00, 0x90, 0x28, 0x40, 0x81, 0x70, 0x80, 0x28, 0x00,
  0x00, 0x90, 0x34, 0x40, 0x81, 0x70, 0x80, 0x34, 0x00, 0x00, 0x80, 0x47,
  0x00, 0x00, 0x90, 0x38, 0x39, 0x81, 0x70, 0x80, 0x38, 0x00, 0x00, 0x90,
  0x40, 0x33, 0x81, 0x70, 0x80, 0x40, 0x00, 0x00, 0x90, 0x48, 0x33, 0x81,
  0x70, 0x80, 0x48, 0x00, 0x00, 0x90, 0x47, 0x33, 0x81, 0x55, 0xb0, 0x40,
  0x7f, 0x1b, 0x80, 0x47, 0x00, 0x00, 0xff, 0x7f, 0x03, 0x05, 0x0f, 0x0e,
  0x00, 0x90, 0x3c, 0x2d, 0x00, 0x90, 0x45, 0x2d, 0x00, 0x90, 0x2d, 0x2d,
  0x00, 0x90, 0x21, 0x2d, 0x8b, 0x20, 0x80, 0x2d, 0x00, 0x00, 0x80, 0x21,
  0x00, 0x00, 0x80, 0x3c, 0x00, 0x00, 0x80, 0x45, 0x00, 0x96, 0x20, 0xb0,
  0x40, 0x00, 0x20, 0xff, 0x7f, 0x03, 0x05, 0x0f, 0x0a, 0x00, 0xff, 0x2f,
  0x00, 0x4d, 0x54, 0x72, 0x6b, 0x00, 0x00, 0x00, 0x4c, 0x00, 0xff, 0x7f,
  0x05, 0x05, 0x0f, 0x09, 0x00, 0x40, 0x00, 0xff, 0x7f, 0x0f, 0x05, 0x0f,
  0x06, 0x47, 0x65, 0x6e, 0x65, 0x72, 0x61, 0x6c, 0x20, 0x4d, 0x49, 0x44,
  0x49, 0x00, 0xff, 0x03, 0x18, 0x68, 0x74, 0x74, 0x70, 0x3a, 0x2f, 0x2f,
  0x77, 0x77, 0x77, 0x2e, 0x66, 0x6f, 0x72, 0x65, 0x6c, 0x69, 0x73, 0x65,
  0x2e, 0x63, 0x6f, 0x6d, 0x2f, 0x00, 0xff, 0x58, 0x04, 0x03, 0x03, 0x0c,
  0x08, 0x00, 0xc1, 0x00, 0x00, 0xff, 0x20, 0x01, 0x01, 0x00, 0xff, 0x2f,
  0x00, 0x4d, 0x54, 0x72, 0x6b, 0x00, 0x00, 0x00, 0x54, 0x00, 0xff, 0x7f,
  0x05, 0x05, 0x0f, 0x09, 0x00, 0x40, 0x00, 0xff, 0x7f, 0x0f, 0x05, 0x0f,
  0x06, 0x47, 0x65, 0x6e, 0x65, 0x72, 0x61, 0x6c, 0x20, 0x4d, 0x49, 0x44,
  0x49, 0x00, 0xff, 0x03, 0x20, 0x43, 0x6f, 0x6d, 0x70, 0x6f, 0x73, 0x65,
  0x64, 0x20, 0x62, 0x79, 0x20, 0x4c, 0x75, 0x64, 0x77, 0x69, 0x67, 0x20,
  0x76, 0x61, 0x6e, 0x20, 0x42, 0x65, 0x65, 0x74, 0x68, 0x6f, 0x76, 0x65,
  0x6e, 0x00, 0xff, 0x58, 0x04, 0x03, 0x03, 0x0c, 0x08, 0x00, 0xc2, 0x00,
  0x00, 0xff, 0x20, 0x01, 0x02, 0x00, 0xff, 0x2f, 0x00
};
