const unsigned char _mid[] PROGMEM = {
  0x4d, 0x54, 0x68, 0x64, 0x00, 0x00, 0x00, 0x06, 0x00, 0x01, 0x00, 0x0d,
  0x01, 0xe0, 0x4d, 0x54, 0x72, 0x6b, 0x00, 0x00, 0x00, 0x19, 0x00, 0xff,
  0x58, 0x04, 0x04, 0x02, 0x18, 0x08, 0x00, 0xff, 0x59, 0x02, 0x00, 0x00,
  0x00, 0xff, 0x51, 0x03, 0x06, 0x1a, 0x80, 0x00, 0xff, 0x2f, 0x00, 0x4d,
  0x54, 0x72, 0x6b, 0x00, 0x00, 0x08, 0x01, 0x00, 0xff, 0x21, 0x01, 0x00,
  0x00, 0xff, 0x03, 0x07, 0x54, 0x72, 0x61, 0x63, 0x6b, 0x20, 0x31, 0x00,
  0xc0, 0x38, 0x00, 0xb0, 0x07, 0x64, 0x00, 0xb0, 0x0a, 0x32, 0x02, 0xb0,
  0x5b, 0x7f, 0x26, 0x90, 0x56, 0x50, 0x00, 0x4d, 0x50, 0x87, 0x18, 0x51,
  0x50, 0x00, 0x4d, 0x50, 0x28, 0x4d, 0x00, 0x00, 0x56, 0x00, 0x87, 0x18,
  0x51, 0x00, 0x00, 0x4d, 0x00, 0x00, 0x58, 0x50, 0x00, 0x4f, 0x50, 0x8f,
  0x00, 0x4f, 0x00, 0x00, 0x58, 0x00, 0x00, 0x58, 0x50, 0x00, 0x4f, 0x50,
  0x87, 0x40, 0x4f, 0x00, 0x00, 0x58, 0x00, 0x00, 0x51, 0x50, 0x00, 0x4f,
  0x50, 0x87, 0x40, 0x4f, 0x00, 0x00, 0x51, 0x00, 0x00, 0x56, 0x50, 0x00,
  0x4a, 0x50, 0x8b, 0x20, 0x4a, 0x00, 0x00, 0x56, 0x00, 0x00, 0x56, 0x50,
  0x00, 0x4d, 0x50, 0x83, 0x60, 0x4d, 0x00, 0x00, 0x56, 0x00, 0x00, 0x51,
  0x50, 0x00, 0x4c, 0x50, 0x83, 0x60, 0x4c, 0x00, 0x00, 0x51, 0x00, 0x00,
  0x51, 0x50, 0x00, 0x4c, 0x50, 0x83, 0x60, 0x4c, 0x00, 0x00, 0x51, 0x00,
  0x83, 0x60, 0x51, 0x50, 0x00, 0x48, 0x50, 0x83, 0x60, 0x48, 0x00, 0x00,
  0x51, 0x00, 0x00, 0x51, 0x50, 0x00, 0x45, 0x50, 0x83, 0x60, 0x45, 0x00,
  0x00, 0x51, 0x00, 0x00, 0x51, 0x50, 0x00, 0x45, 0x50, 0x83, 0x60, 0x45,
  0x00, 0x00, 0x51, 0x00, 0x00, 0x51, 0x50, 0x83, 0x60, 0x4d, 0x50, 0x83,
  0x60, 0x4d, 0x00, 0x00, 0x51, 0x00, 0x00, 0x4a, 0x50, 0x83, 0x60, 0x4a,
  0x00, 0x00, 0x59, 0x50, 0x00, 0x51, 0x50, 0x83, 0x60, 0x51, 0x00, 0x00,
  0x59, 0x00, 0x00, 0x58, 0x50, 0x00, 0x4f, 0x50, 0x83, 0x60, 0x4f, 0x00,
  0x00, 0x58, 0x00, 0x00, 0x56, 0x50, 0x00, 0x51, 0x50, 0x83, 0x60, 0x51,
  0x00, 0x00, 0x56, 0x00, 0x00, 0x56, 0x50, 0x00, 0x51, 0x50, 0x83, 0x60,
  0x51, 0x00, 0x00, 0x56, 0x00, 0x00, 0x55, 0x50, 0x00, 0x51, 0x50, 0x83,
  0x60, 0x51, 0x00, 0x00, 0x55, 0x00, 0x8f, 0x00, 0x54, 0x50, 0x00, 0x48,
  0x50, 0x81, 0x70, 0x48, 0x00, 0x00, 0x54, 0x00, 0x00, 0x55, 0x50, 0x00,
  0x4d, 0x50, 0x81, 0x70, 0x55, 0x00, 0x00, 0x56, 0x50, 0x81, 0x70, 0x56,
  0x00, 0x00, 0x4d, 0x00, 0x00, 0x58, 0x50, 0x00, 0x52, 0x50, 0x81, 0x70,
  0x52, 0x00, 0x00, 0x58, 0x00, 0x00, 0x51, 0x50, 0x00, 0x59, 0x50, 0x8b,
  0x20, 0x59, 0x00, 0x00, 0x54, 0x50, 0x83, 0x60, 0x54, 0x00, 0x00, 0x51,
  0x00, 0x00, 0x4d, 0x50, 0x00, 0x51, 0x50, 0x83, 0x60, 0x51, 0x00, 0x00,
  0x4d, 0x00, 0x00, 0x48, 0x50, 0x00, 0x4d, 0x50, 0x83, 0x60, 0x4d, 0x00,
  0x00, 0x48, 0x00, 0x00, 0x4d, 0x50, 0x00, 0x51, 0x50, 0x83, 0x60, 0x51,
  0x00, 0x00, 0x4d, 0x00, 0x00, 0x51, 0x50, 0x00, 0x54, 0x50, 0x83, 0x60,
  0x54, 0x00, 0x00, 0x51, 0x00, 0x00, 0x57, 0x50, 0x00, 0x54, 0x50, 0x87,
  0x40, 0x54, 0x00, 0x00, 0x57, 0x00, 0x00, 0x56, 0x50, 0x00, 0x51, 0x50,
  0x87, 0x40, 0x51, 0x00, 0x00, 0x56, 0x00, 0x00, 0x4f, 0x50, 0x00, 0x4f,
  0x50, 0x8b, 0x20, 0x56, 0x50, 0x83, 0x60, 0x56, 0x00, 0x00, 0x4f, 0x00,
  0x00, 0x53, 0x50, 0x83, 0x60, 0x53, 0x00, 0x00, 0x4f, 0x00, 0x00, 0x4f,
  0x50, 0x00, 0x4a, 0x50, 0x83, 0x60, 0x4a, 0x00, 0x00, 0x4f, 0x00, 0x00,
  0x53, 0x50, 0x00, 0x4f, 0x50, 0x83, 0x60, 0x4f, 0x00, 0x00, 0x53, 0x00,
  0x00, 0x56, 0x50, 0x00, 0x53, 0x50, 0x83, 0x60, 0x53, 0x00, 0x00, 0x56,
  0x00, 0x00, 0x59, 0x50, 0x00, 0x56, 0x50, 0x87, 0x40, 0x56, 0x00, 0x00,
  0x59, 0x00, 0x00, 0x58, 0x50, 0x00, 0x53, 0x50, 0x87, 0x40, 0x53, 0x00,
  0x00, 0x58, 0x00, 0x00, 0x51, 0x50, 0x00, 0x58, 0x50, 0x87, 0x40, 0x51,
  0x00, 0x00, 0x50, 0x50, 0x87, 0x40, 0x50, 0x00, 0x00, 0x51, 0x50, 0x83,
  0x60, 0x51, 0x00, 0x00, 0x54, 0x50, 0x83, 0x60, 0x58, 0x00, 0x00, 0x56,
  0x50, 0x83, 0x60, 0x54, 0x00, 0x00, 0x53, 0x50, 0x81, 0x70, 0x53, 0x00,
  0x00, 0x51, 0x50, 0x81, 0x70, 0x51, 0x00, 0x00, 0x56, 0x00, 0x00, 0x50,
  0x50, 0x83, 0x60, 0x50, 0x00, 0x00, 0x54, 0x50, 0x00, 0x51, 0x50, 0x83,
  0x60, 0x54, 0x00, 0x00, 0x53, 0x50, 0x83, 0x60, 0x51, 0x00, 0x00, 0x50,
  0x50, 0x83, 0x60, 0x50, 0x00, 0x00, 0x53, 0x00, 0x00, 0x51, 0x50, 0x83,
  0x60, 0x51, 0x00, 0xa9, 0x20, 0x54, 0x50, 0x00, 0x51, 0x50, 0x87, 0x40,
  0x51, 0x00, 0x00, 0x54, 0x00, 0x00, 0x54, 0x50, 0x00, 0x51, 0x50, 0x87,
  0x40, 0x51, 0x00, 0x00, 0x54, 0x00, 0x00, 0x56, 0x50, 0x00, 0x53, 0x50,
  0x8f, 0x00, 0x53, 0x00, 0x00, 0x56, 0x00, 0x00, 0x51, 0x50, 0x00, 0x4e,
  0x50, 0x87, 0x40, 0x4e, 0x00, 0x00, 0x51, 0x00, 0x00, 0x51, 0x50, 0x00,
  0x4e, 0x50, 0x87, 0x40, 0x4e, 0x00, 0x00, 0x51, 0x00, 0x00, 0x54, 0x50,
  0x00, 0x51, 0x50, 0x8f, 0x00, 0x51, 0x00, 0x00, 0x54, 0x00, 0x00, 0x59,
  0x50, 0x00, 0x51, 0x50, 0x83, 0x60, 0x51, 0x00, 0x00, 0x59, 0x00, 0x00,
  0x58, 0x50, 0x00, 0x54, 0x50, 0x83, 0x60, 0x54, 0x00, 0x00, 0x58, 0x00,
  0x83, 0x60, 0x58, 0x50, 0x00, 0x54, 0x50, 0x83, 0x60, 0x54, 0x00, 0x00,
  0x58, 0x00, 0x00, 0x56, 0x50, 0x00, 0x50, 0x50, 0x83, 0x60, 0x50, 0x00,
  0x00, 0x56, 0x00, 0x00, 0x54, 0x50, 0x00, 0x51, 0x50, 0x83, 0x60, 0x51,
  0x00, 0x00, 0x54, 0x00, 0x83, 0x60, 0x53, 0x50, 0x00, 0x4f, 0x50, 0x81,
  0x70, 0x4f, 0x00, 0x00, 0x4e, 0x50, 0x81, 0x70, 0x4e, 0x00, 0x00, 0x53,
  0x00, 0x00, 0x56, 0x50, 0x00, 0x51, 0x50, 0x83, 0x60, 0x51, 0x00, 0x00,
  0x56, 0x00, 0x00, 0x54, 0x50, 0x00, 0x4f, 0x50, 0x83, 0x60, 0x4f, 0x00,
  0x00, 0x54, 0x00, 0x00, 0x52, 0x50, 0x00, 0x4d, 0x50, 0x83, 0x60, 0x4d,
  0x00, 0x00, 0x52, 0x00, 0x00, 0x51, 0x50, 0x00, 0x4c, 0x50, 0x83, 0x60,
  0x4c, 0x00, 0x00, 0x51, 0x00, 0x00, 0x51, 0x50, 0x00, 0x4c, 0x50, 0x83,
  0x60, 0x4c, 0x00, 0x00, 0x51, 0x00, 0x00, 0x50, 0x50, 0x00, 0x4c, 0x50,
  0x83, 0x60, 0x4c, 0x00, 0x00, 0x50, 0x00, 0x00, 0x53, 0x50, 0x00, 0x4f,
  0x50, 0x87, 0x40, 0x4f, 0x00, 0x00, 0x50, 0x50, 0x87, 0x40, 0x50, 0x00,
  0x00, 0x4f, 0x50, 0x83, 0x60, 0x4f, 0x00, 0x00, 0x4d, 0x50, 0x83, 0x60,
  0x4d, 0x00, 0x00, 0x53, 0x00, 0x00, 0x54, 0x50, 0x00, 0x4b, 0x50, 0x87,
  0x40, 0x4b, 0x00, 0x00, 0x54, 0x00, 0x00, 0x54, 0x50, 0x00, 0x4b, 0x50,
  0x87, 0x40, 0x4b, 0x00, 0x00, 0x54, 0x00, 0x00, 0x57, 0x50, 0x00, 0x4f,
  0x50, 0x83, 0x60, 0x4f, 0x00, 0x00, 0x57, 0x00, 0x00, 0x54, 0x50, 0x00,
  0x4f, 0x50, 0x83, 0x60, 0x4f, 0x00, 0x00, 0x54, 0x00, 0x00, 0x4f, 0x50,
  0x83, 0x60, 0x4f, 0x00, 0x00, 0x54, 0x50, 0x00, 0x4f, 0x50, 0x83, 0x60,
  0x4f, 0x00, 0x00, 0x54, 0x00, 0x00, 0x54, 0x50, 0x00, 0x4f, 0x50, 0x83,
  0x60, 0x54, 0x00, 0x00, 0x55, 0x50, 0x83, 0x60, 0x55, 0x00, 0x00, 0x4f,
  0x00, 0x00, 0x55, 0x50, 0x00, 0x4f, 0x50, 0x87, 0x40, 0x4f, 0x00, 0x00,
  0x55, 0x00, 0x00, 0x55, 0x50, 0x00, 0x4f, 0x50, 0x87, 0x40, 0x4f, 0x00,
  0x00, 0x55, 0x00, 0x00, 0x55, 0x50, 0x00, 0x4c, 0x50, 0x87, 0x40, 0x4c,
  0x00, 0x00, 0x55, 0x00, 0x00, 0x58, 0x50, 0x00, 0x4f, 0x50, 0x83, 0x60,
  0x4f, 0x00, 0x00, 0x58, 0x00, 0x00, 0x55, 0x50, 0x00, 0x4f, 0x50, 0x83,
  0x60, 0x4f, 0x00, 0x00, 0x55, 0x00, 0x00, 0x51, 0x50, 0x00, 0x4c, 0x50,
  0x83, 0x60, 0x4c, 0x00, 0x00, 0x51, 0x00, 0x00, 0x55, 0x50, 0x00, 0x51,
  0x50, 0x83, 0x60, 0x51, 0x00, 0x00, 0x55, 0x00, 0x00, 0x51, 0x50, 0x00,
  0x55, 0x50, 0x83, 0x60, 0x55, 0x00, 0x00, 0x56, 0x50, 0x83, 0x60, 0x56,
  0x00, 0x00, 0x51, 0x00, 0x00, 0x51, 0x50, 0x00, 0x56, 0x50, 0x87, 0x40,
  0x56, 0x00, 0x00, 0x51, 0x00, 0x00, 0x57, 0x50, 0x00, 0x52, 0x50, 0x87,
  0x40, 0x52, 0x00, 0x00, 0x57, 0x00, 0x00, 0x54, 0x50, 0x00, 0x51, 0x50,
  0x87, 0x40, 0x51, 0x00, 0x00, 0x54, 0x00, 0x00, 0x52, 0x50, 0x00, 0x4f,
  0x50, 0x87, 0x40, 0x4f, 0x00, 0x00, 0x52, 0x00, 0x00, 0x59, 0x50, 0x00,
  0x51, 0x50, 0x87, 0x40, 0x51, 0x00, 0x00, 0x59, 0x00, 0x00, 0x57, 0x50,
  0x00, 0x52, 0x50, 0x87, 0x40, 0x52, 0x00, 0x00, 0x57, 0x00, 0x00, 0x56,
  0x50, 0x00, 0x53, 0x50, 0x87, 0x40, 0x53, 0x00, 0x00, 0x56, 0x00, 0x00,
  0x51, 0x50, 0x00, 0x56, 0x50, 0x83, 0x60, 0x56, 0x00, 0x00, 0x55, 0x50,
  0x83, 0x60, 0x55, 0x00, 0x00, 0x51, 0x00, 0x9e, 0x00, 0x51, 0x50, 0x00,
  0x4c, 0x50, 0x87, 0x40, 0x4c, 0x00, 0x00, 0x51, 0x00, 0x00, 0x50, 0x50,
  0x00, 0x4d, 0x50, 0x83, 0x60, 0x4d, 0x00, 0x00, 0x50, 0x00, 0x00, 0x51,
  0x50, 0x00, 0x4c, 0x50, 0x83, 0x60, 0x4c, 0x00, 0x00, 0x51, 0x00, 0x00,
  0x51, 0x50, 0x00, 0x4c, 0x50, 0x87, 0x40, 0x4c, 0x00, 0x00, 0x51, 0x00,
  0x00, 0x50, 0x50, 0x00, 0x4d, 0x50, 0x83, 0x60, 0x4d, 0x00, 0x00, 0x50,
  0x00, 0x00, 0x51, 0x50, 0x00, 0x4c, 0x50, 0x83, 0x60, 0x4c, 0x00, 0x00,
  0x51, 0x00, 0x9e, 0x00, 0x58, 0x50, 0x00, 0x51, 0x50, 0x87, 0x40, 0x51,
  0x00, 0x00, 0x58, 0x00, 0x00, 0x59, 0x50, 0x00, 0x50, 0x50, 0x83, 0x60,
  0x50, 0x00, 0x00, 0x59, 0x00, 0x00, 0x58, 0x50, 0x00, 0x51, 0x50, 0x83,
  0x60, 0x51, 0x00, 0x00, 0x58, 0x00, 0x00, 0x58, 0x50, 0x00, 0x51, 0x50,
  0x87, 0x40, 0x51, 0x00, 0x00, 0x58, 0x00, 0x00, 0x59, 0x50, 0x00, 0x50,
  0x50, 0x83, 0x60, 0x50, 0x00, 0x00, 0x59, 0x00, 0x00, 0x58, 0x50, 0x00,
  0x51, 0x50, 0x83, 0x60, 0x51, 0x00, 0x00, 0x58, 0x00, 0x9e, 0x00, 0x56,
  0x50, 0x00, 0x4f, 0x50, 0x87, 0x40, 0x4f, 0x00, 0x00, 0x56, 0x00, 0x00,
  0x54, 0x50, 0x00, 0x51, 0x50, 0x81, 0x70, 0x51, 0x00, 0x00, 0x54, 0x00,
  0x00, 0x56, 0x50, 0x00, 0x52, 0x50, 0x81, 0x70, 0x52, 0x00, 0x00, 0x56,
  0x00, 0x00, 0x54, 0x50, 0x00, 0x51, 0x50, 0x81, 0x70, 0x51, 0x00, 0x00,
  0x54, 0x00, 0x00, 0x56, 0x50, 0x00, 0x52, 0x50, 0x81, 0x70, 0x52, 0x00,
  0x00, 0x56, 0x00, 0x00, 0x54, 0x50, 0x00, 0x51, 0x50, 0x81, 0x70, 0x51,
  0x00, 0x00, 0x54, 0x00, 0x00, 0x56, 0x50, 0x00, 0x52, 0x50, 0x81, 0x70,
  0x52, 0x00, 0x00, 0x56, 0x00, 0x00, 0x54, 0x50, 0x00, 0x51, 0x50, 0x81,
  0x70, 0x51, 0x00, 0x00, 0x54, 0x00, 0x00, 0x56, 0x50, 0x00, 0x52, 0x50,
  0x81, 0x70, 0x52, 0x00, 0x00, 0x56, 0x00, 0x00, 0x58, 0x50, 0x00, 0x51,
  0x50, 0x83, 0x60, 0x51, 0x00, 0x00, 0x58, 0x00, 0x00, 0x55, 0x50, 0x00,
  0x51, 0x50, 0x83, 0x60, 0x51, 0x00, 0x00, 0x55, 0x00, 0x83, 0x60, 0x55,
  0x50, 0x00, 0x4c, 0x50, 0x83, 0x60, 0x4c, 0x00, 0x00, 0x55, 0x00, 0x00,
  0x56, 0x50, 0x00, 0x4d, 0x50, 0x83, 0x60, 0x4d, 0x00, 0x00, 0x56, 0x00,
  0x00, 0x55, 0x50, 0x00, 0x4c, 0x50, 0x83, 0x60, 0x4c, 0x00, 0x00, 0x55,
  0x00, 0x00, 0x56, 0x50, 0x00, 0x4d, 0x50, 0x83, 0x60, 0x4d, 0x00, 0x00,
  0x56, 0x00, 0x00, 0x55, 0x50, 0x00, 0x4c, 0x50, 0x83, 0x60, 0x4c, 0x00,
  0x00, 0x55, 0x00, 0x00, 0x56, 0x50, 0x00, 0x4d, 0x50, 0x83, 0x60, 0x4d,
  0x00, 0x00, 0x56, 0x00, 0x00, 0x55, 0x50, 0x00, 0x4c, 0x50, 0x83, 0x60,
  0x4c, 0x00, 0x00, 0x55, 0x00, 0x83, 0x60, 0x56, 0x50, 0x00, 0x4d, 0x50,
  0x83, 0x60, 0x4d, 0x00, 0x00, 0x56, 0x00, 0x00, 0x58, 0x50, 0x00, 0x4f,
  0x50, 0x83, 0x60, 0x4f, 0x00, 0x00, 0x58, 0x00, 0x00, 0x56, 0x50, 0x00,
  0x4d, 0x50, 0x83, 0x60, 0x4d, 0x00, 0x00, 0x56, 0x00, 0x00, 0x58, 0x50,
  0x00, 0x4f, 0x50, 0x83, 0x60, 0x4f, 0x00, 0x00, 0x58, 0x00, 0x00, 0x56,
  0x50, 0x00, 0x4d, 0x50, 0x83, 0x60, 0x4d, 0x00, 0x00, 0x56, 0x00, 0x00,
  0x58, 0x50, 0x00, 0x4f, 0x50, 0x83, 0x60, 0x4f, 0x00, 0x00, 0x58, 0x00,
  0x00, 0x56, 0x50, 0x00, 0x4d, 0x50, 0x83, 0x60, 0x4d, 0x00, 0x00, 0x56,
  0x00, 0x8b, 0x20, 0x56, 0x50, 0x00, 0x4d, 0x50, 0x87, 0x40, 0x4d, 0x00,
  0x00, 0x56, 0x00, 0x00, 0x56, 0x50, 0x00, 0x4d, 0x50, 0x83, 0x60, 0x4d,
  0x00, 0x00, 0x56, 0x00, 0x00, 0x59, 0x50, 0x00, 0x51, 0x50, 0x83, 0x60,
  0x51, 0x00, 0x00, 0x59, 0x00, 0x00, 0x56, 0x50, 0x00, 0x4d, 0x50, 0x83,
  0x60, 0x4d, 0x00, 0x00, 0x56, 0x00, 0x8f, 0x00, 0x56, 0x50, 0x00, 0x4f,
  0x50, 0x85, 0x50, 0x4f, 0x00, 0x00, 0x56, 0x00, 0x00, 0x56, 0x50, 0x00,
  0x4f, 0x50, 0x81, 0x70, 0x4f, 0x00, 0x00, 0x56, 0x00, 0x00, 0x55, 0x50,
  0x00, 0x4f, 0x50, 0x83, 0x60, 0x4f, 0x00, 0x00, 0x55, 0x00, 0x00, 0x4d,
  0x50, 0x00, 0x56, 0x50, 0x83, 0x60, 0x4d, 0x00, 0x00, 0x4c, 0x50, 0x83,
  0x60, 0x56, 0x00, 0x00, 0x55, 0x50, 0x83, 0x60, 0x55, 0x00, 0x00, 0x4c,
  0x00, 0x00, 0x56, 0x50, 0x00, 0x4a, 0x50, 0x83, 0x60, 0x4a, 0x00, 0x00,
  0x56, 0x00, 0x00, 0x56, 0x50, 0x00, 0x4d, 0x50, 0x87, 0x40, 0x4d, 0x00,
  0x00, 0x56, 0x00, 0x00, 0x56, 0x50, 0x00, 0x4d, 0x50, 0x83, 0x60, 0x4d,
  0x00, 0x00, 0x56, 0x00, 0x00, 0x59, 0x50, 0x00, 0x56, 0x50, 0x83, 0x60,
  0x56, 0x00, 0x00, 0x59, 0x00, 0x00, 0x56, 0x50, 0x00, 0x52, 0x50, 0x83,
  0x60, 0x52, 0x00, 0x00, 0x56, 0x00, 0x8f, 0x00, 0x57, 0x50, 0x00, 0x4f,
  0x50, 0x85, 0x50, 0x4f, 0x00, 0x00, 0x57, 0x00, 0x00, 0x56, 0x50, 0x00,
  0x4f, 0x50, 0x81, 0x70, 0x4f, 0x00, 0x00, 0x56, 0x00, 0x00, 0x55, 0x50,
  0x00, 0x4f, 0x50, 0x83, 0x60, 0x4f, 0x00, 0x00, 0x55, 0x00, 0x00, 0x4d,
  0x50, 0x00, 0x56, 0x50, 0x83, 0x60, 0x4d, 0x00, 0x00, 0x4c, 0x50, 0x83,
  0x60, 0x56, 0x00, 0x00, 0x55, 0x50, 0x83, 0x60, 0x55, 0x00, 0x00, 0x4c,
  0x00, 0x00, 0x56, 0x50, 0x00, 0x4a, 0x50, 0x83, 0x60, 0x4a, 0x00, 0x00,
  0x56, 0x00, 0x96, 0x40, 0x51, 0x50, 0x81, 0x70, 0x51, 0x00, 0x00, 0x55,
  0x50, 0x00, 0x4f, 0x50, 0x81, 0x70, 0x4f, 0x00, 0x00, 0x55, 0x00, 0x00,
  0x4d, 0x50, 0x00, 0x56, 0x50, 0x81, 0x70, 0x4d, 0x00, 0x00, 0x51, 0x50,
  0x81, 0x70, 0x51, 0x00, 0x00, 0x56, 0x00, 0x00, 0x52, 0x50, 0x00, 0x56,
  0x50, 0x81, 0x70, 0x52, 0x00, 0x00, 0x4f, 0x50, 0x81, 0x70, 0x4f, 0x00,
  0x00, 0x4d, 0x50, 0x83, 0x60, 0x4d, 0x00, 0x00, 0x56, 0x00, 0x00, 0x4c,
  0x50, 0x00, 0x55, 0x50, 0x83, 0x60, 0x55, 0x00, 0x00, 0x4c, 0x00, 0x00,
  0x56, 0x50, 0x00, 0x4a, 0x50, 0x83, 0x60, 0x4a, 0x00, 0x00, 0x56, 0x00,
  0x00, 0xff, 0x2f, 0x00, 0x4d, 0x54, 0x72, 0x6b, 0x00, 0x00, 0x0b, 0x4c,
  0x00, 0xff, 0x21, 0x01, 0x00, 0x00, 0xff, 0x03, 0x07, 0x54, 0x72, 0x61,
  0x63, 0x6b, 0x20, 0x32, 0x00, 0xc1, 0x46, 0x00, 0xb1, 0x07, 0x6c, 0x00,
  0xb1, 0x0a, 0x4b, 0x08, 0xb1, 0x5b, 0x46, 0x20, 0x91, 0x41, 0x50, 0x00,
  0x3e, 0x50, 0x87, 0x18, 0x41, 0x50, 0x00, 0x3e, 0x50, 0x28, 0x3e, 0x00,
  0x00, 0x41, 0x00, 0x87, 0x18, 0x3e, 0x00, 0x00, 0x41, 0x00, 0x00, 0x43,
  0x50, 0x00, 0x40, 0x50, 0x8f, 0x00, 0x40, 0x00, 0x00, 0x43, 0x00, 0x00,
  0x40, 0x50, 0x00, 0x3d, 0x50, 0x87, 0x40, 0x3d, 0x00, 0x00, 0x40, 0x00,
  0x00, 0x40, 0x50, 0x00, 0x3d, 0x50, 0x87, 0x40, 0x3d, 0x00, 0x00, 0x40,
  0x00, 0x00, 0x41, 0x50, 0x00, 0x3e, 0x50, 0x8b, 0x20, 0x3e, 0x00, 0x00,
  0x41, 0x00, 0x00, 0x41, 0x50, 0x00, 0x32, 0x50, 0x83, 0x60, 0x32, 0x00,
  0x00, 0x41, 0x00, 0x00, 0x40, 0x50, 0x00, 0x34, 0x50, 0x83, 0x60, 0x34,
  0x00, 0x00, 0x40, 0x00, 0x00, 0x3e, 0x50, 0x00, 0x35, 0x50, 0x83, 0x60,
  0x35, 0x00, 0x00, 0x3e, 0x00, 0x83, 0x60, 0x39, 0x50, 0x00, 0x35, 0x50,
  0x83, 0x60, 0x35, 0x00, 0x00, 0x39, 0x00, 0x00, 0x40, 0x50, 0x00, 0x31,
  0x50, 0x83, 0x60, 0x31, 0x00, 0x00, 0x40, 0x00, 0x00, 0x3e, 0x50, 0x00,
  0x32, 0x50, 0x83, 0x60, 0x32, 0x00, 0x00, 0x3e, 0x00, 0x83, 0x60, 0x41,
  0x50, 0x00, 0x3e, 0x50, 0x81, 0x70, 0x3e, 0x00, 0x00, 0x3c, 0x50, 0x81,
  0x70, 0x3c, 0x00, 0x00, 0x41, 0x00, 0x00, 0x43, 0x50, 0x00, 0x3a, 0x50,
  0x83, 0x60, 0x3a, 0x00, 0x00, 0x43, 0x00, 0x00, 0x41, 0x50, 0x00, 0x39,
  0x50, 0x83, 0x60, 0x39, 0x00, 0x00, 0x41, 0x00, 0x00, 0x3d, 0x50, 0x00,
  0x37, 0x50, 0x83, 0x60, 0x37, 0x00, 0x00, 0x3d, 0x00, 0x00, 0x3e, 0x50,
  0x00, 0x35, 0x50, 0x83, 0x60, 0x35, 0x00, 0x00, 0x3e, 0x00, 0x00, 0x41,
  0x50, 0x00, 0x39, 0x50, 0x83, 0x60, 0x39, 0x00, 0x00, 0x41, 0x00, 0x00,
  0x40, 0x50, 0x00, 0x2d, 0x50, 0x83, 0x60, 0x2d, 0x00, 0x00, 0x40, 0x00,
  0x96, 0x40, 0x41, 0x50, 0x00, 0x35, 0x50, 0x8b, 0x20, 0x35, 0x00, 0x00,
  0x35, 0x50, 0x83, 0x60, 0x35, 0x00, 0x00, 0x35, 0x50, 0x83, 0x60, 0x35,
  0x00, 0x00, 0x35, 0x50, 0x83, 0x60, 0x35, 0x00, 0x00, 0x35, 0x50, 0x83,
  0x60, 0x35, 0x00, 0x00, 0x41, 0x00, 0x00, 0x3c, 0x50, 0x00, 0x35, 0x50,
  0x83, 0x60, 0x35, 0x00, 0x00, 0x3c, 0x00, 0x00, 0x36, 0x50, 0x00, 0x39,
  0x50, 0x83, 0x60, 0x39, 0x00, 0x00, 0x36, 0x50, 0x83, 0x60, 0x36, 0x00,
  0x00, 0x36, 0x00, 0x00, 0x36, 0x50, 0x00, 0x39, 0x50, 0x83, 0x60, 0x39,
  0x00, 0x00, 0x3c, 0x50, 0x83, 0x60, 0x3c, 0x00, 0x00, 0x36, 0x00, 0x00,
  0x3c, 0x50, 0x00, 0x37, 0x50, 0x87, 0x40, 0x3c, 0x00, 0x00, 0x3b, 0x50,
  0x83, 0x60, 0x37, 0x00, 0x00, 0x37, 0x50, 0x83, 0x60, 0x37, 0x00, 0x00,
  0x3b, 0x00, 0x00, 0x43, 0x50, 0x00, 0x37, 0x50, 0x83, 0x60, 0x37, 0x00,
  0x00, 0x37, 0x50, 0x83, 0x60, 0x37, 0x00, 0x00, 0x37, 0x50, 0x83, 0x60,
  0x37, 0x00, 0x00, 0x43, 0x00, 0x00, 0x3e, 0x50, 0x00, 0x37, 0x50, 0x83,
  0x60, 0x37, 0x00, 0x00, 0x3e, 0x00, 0x00, 0x3b, 0x50, 0x00, 0x38, 0x50,
  0x83, 0x60, 0x3b, 0x00, 0x00, 0x38, 0x50, 0x83, 0x60, 0x38, 0x00, 0x00,
  0x38, 0x00, 0x00, 0x3b, 0x50, 0x00, 0x38, 0x50, 0x83, 0x60, 0x3b, 0x00,
  0x00, 0x3e, 0x50, 0x83, 0x60, 0x3e, 0x00, 0x00, 0x38, 0x00, 0x00, 0x39,
  0x50, 0x00, 0x3c, 0x50, 0x85, 0x50, 0x3c, 0x00, 0x00, 0x39, 0x50, 0x81,
  0x70, 0x39, 0x00, 0x00, 0x39, 0x00, 0x00, 0x3b, 0x50, 0x00, 0x3e, 0x50,
  0x85, 0x50, 0x3e, 0x00, 0x00, 0x3b, 0x50, 0x81, 0x70, 0x3b, 0x00, 0x00,
  0x3b, 0x00, 0x00, 0x3c, 0x50, 0x00, 0x40, 0x50, 0x83, 0x60, 0x40, 0x00,
  0x00, 0x39, 0x50, 0x83, 0x60, 0x39, 0x00, 0x00, 0x3c, 0x00, 0x00, 0x3e,
  0x50, 0x83, 0x60, 0x41, 0x50, 0x83, 0x60, 0x41, 0x00, 0x00, 0x3e, 0x00,
  0x00, 0x40, 0x50, 0x83, 0x60, 0x40, 0x00, 0x00, 0x40, 0x50, 0x00, 0x39,
  0x50, 0x83, 0x60, 0x39, 0x00, 0x00, 0x40, 0x00, 0x00, 0x40, 0x50, 0x00,
  0x34, 0x50, 0x87, 0x40, 0x34, 0x00, 0x00, 0x40, 0x00, 0x00, 0x40, 0x50,
  0x00, 0x39, 0x50, 0x83, 0x60, 0x39, 0x00, 0x00, 0x40, 0x00, 0x85, 0x50,
  0x3c, 0x50, 0x81, 0x70, 0x3c, 0x00, 0x00, 0x3b, 0x50, 0x81, 0x70, 0x3b,
  0x00, 0x00, 0x39, 0x50, 0x81, 0x70, 0x39, 0x00, 0x00, 0x38, 0x50, 0x81,
  0x70, 0x38, 0x00, 0x00, 0x41, 0x50, 0x81, 0x70, 0x41, 0x00, 0x00, 0x3e,
  0x50, 0x81, 0x70, 0x3e, 0x00, 0x00, 0x3c, 0x50, 0x81, 0x70, 0x3c, 0x00,
  0x00, 0x3b, 0x50, 0x81, 0x70, 0x3b, 0x00, 0x00, 0x38, 0x50, 0x81, 0x70,
  0x38, 0x00, 0x00, 0x38, 0x50, 0x81, 0x70, 0x38, 0x00, 0x00, 0x3b, 0x50,
  0x81, 0x70, 0x3b, 0x00, 0x00, 0x39, 0x50, 0x81, 0x70, 0x39, 0x00, 0x00,
  0x30, 0x50, 0x81, 0x70, 0x30, 0x00, 0x00, 0x32, 0x50, 0x81, 0x70, 0x32,
  0x00, 0x00, 0x35, 0x50, 0x81, 0x70, 0x35, 0x00, 0x00, 0x34, 0x50, 0x81,
  0x70, 0x34, 0x00, 0x00, 0x32, 0x50, 0x81, 0x70, 0x32, 0x00, 0x00, 0x34,
  0x50, 0x81, 0x70, 0x34, 0x00, 0x00, 0x28, 0x50, 0x81, 0x70, 0x28, 0x00,
  0x00, 0x2d, 0x50, 0x81, 0x70, 0x2d, 0x00, 0x00, 0x30, 0x50, 0x81, 0x70,
  0x30, 0x00, 0x00, 0x34, 0x50, 0x81, 0x70, 0x34, 0x00, 0x00, 0x39, 0x50,
  0x81, 0x70, 0x39, 0x00, 0x00, 0x2d, 0x50, 0x81, 0x70, 0x2d, 0x00, 0x00,
  0x30, 0x50, 0x81, 0x70, 0x30, 0x00, 0x00, 0x34, 0x50, 0x81, 0x70, 0x34,
  0x00, 0x00, 0x39, 0x50, 0x81, 0x70, 0x39, 0x00, 0x00, 0x2d, 0x50, 0x83,
  0x60, 0x2d, 0x00, 0x00, 0x3e, 0x50, 0x00, 0x3b, 0x50, 0x87, 0x40, 0x3b,
  0x00, 0x00, 0x3e, 0x00, 0x00, 0x3e, 0x50, 0x00, 0x3b, 0x50, 0x83, 0x60,
  0x3b, 0x00, 0x00, 0x3e, 0x00, 0x00, 0x2c, 0x50, 0x81, 0x70, 0x2c, 0x00,
  0x00, 0x2f, 0x50, 0x81, 0x70, 0x2f, 0x00, 0x00, 0x34, 0x50, 0x81, 0x70,
  0x34, 0x00, 0x00, 0x38, 0x50, 0x81, 0x70, 0x38, 0x00, 0x00, 0x2c, 0x50,
  0x81, 0x70, 0x2c, 0x00, 0x00, 0x2f, 0x50, 0x81, 0x70, 0x2f, 0x00, 0x00,
  0x34, 0x50, 0x81, 0x70, 0x34, 0x00, 0x00, 0x38, 0x50, 0x81, 0x70, 0x38,
  0x00, 0x00, 0x2d, 0x50, 0x83, 0x60, 0x2d, 0x00, 0x00, 0x40, 0x50, 0x00,
  0x3c, 0x50, 0x87, 0x40, 0x3c, 0x00, 0x00, 0x40, 0x00, 0x00, 0x40, 0x50,
  0x00, 0x3c, 0x50, 0x83, 0x60, 0x3c, 0x00, 0x00, 0x40, 0x00, 0x00, 0x3e,
  0x50, 0x83, 0x60, 0x3e, 0x00, 0x00, 0x3c, 0x50, 0x83, 0x60, 0x3c, 0x00,
  0x83, 0x60, 0x40, 0x50, 0x00, 0x3c, 0x50, 0x83, 0x60, 0x3c, 0x00, 0x00,
  0x40, 0x00, 0x00, 0x40, 0x50, 0x00, 0x3b, 0x50, 0x83, 0x60, 0x3b, 0x00,
  0x00, 0x40, 0x00, 0x00, 0x40, 0x50, 0x00, 0x39, 0x50, 0x83, 0x60, 0x39,
  0x00, 0x00, 0x40, 0x00, 0x81, 0x70, 0x2d, 0x50, 0x81, 0x70, 0x2d, 0x00,
  0x00, 0x39, 0x50, 0x81, 0x70, 0x39, 0x00, 0x00, 0x37, 0x50, 0x81, 0x70,
  0x37, 0x00, 0x00, 0x35, 0x50, 0x81, 0x70, 0x35, 0x00, 0x00, 0x41, 0x50,
  0x81, 0x70, 0x41, 0x00, 0x00, 0x40, 0x50, 0x81, 0x70, 0x40, 0x00, 0x00,
  0x34, 0x50, 0x81, 0x70, 0x34, 0x00, 0x00, 0x32, 0x50, 0x81, 0x70, 0x32,
  0x00, 0x00, 0x3e, 0x50, 0x81, 0x70, 0x3e, 0x00, 0x00, 0x39, 0x50, 0x81,
  0x70, 0x39, 0x00, 0x00, 0x2d, 0x50, 0x81, 0x70, 0x2d, 0x00, 0x00, 0x34,
  0x50, 0x81, 0x70, 0x34, 0x00, 0x00, 0x40, 0x50, 0x81, 0x70, 0x40, 0x00,
  0x00, 0x34, 0x50, 0x81, 0x70, 0x34, 0x00, 0x00, 0x34, 0x50, 0x81, 0x70,
  0x34, 0x00, 0x00, 0x37, 0x50, 0x00, 0x34, 0x50, 0x87, 0x40, 0x34, 0x00,
  0x00, 0x37, 0x00, 0x00, 0x38, 0x50, 0x00, 0x35, 0x50, 0x87, 0x40, 0x35,
  0x00, 0x00, 0x38, 0x00, 0x00, 0x37, 0x50, 0x87, 0x40, 0x37, 0x00, 0x00,
  0x30, 0x50, 0x81, 0x70, 0x30, 0x00, 0x00, 0x33, 0x50, 0x81, 0x70, 0x33,
  0x00, 0x00, 0x37, 0x50, 0x81, 0x70, 0x37, 0x00, 0x00, 0x3c, 0x50, 0x81,
  0x70, 0x3c, 0x00, 0x00, 0x30, 0x50, 0x81, 0x70, 0x30, 0x00, 0x00, 0x33,
  0x50, 0x81, 0x70, 0x33, 0x00, 0x00, 0x37, 0x50, 0x81, 0x70, 0x37, 0x00,
  0x00, 0x3c, 0x50, 0x81, 0x70, 0x3c, 0x00, 0x00, 0x30, 0x50, 0x83, 0x60,
  0x30, 0x00, 0x00, 0x3f, 0x50, 0x00, 0x3c, 0x50, 0x83, 0x60, 0x3c, 0x00,
  0x00, 0x3f, 0x00, 0x00, 0x3f, 0x50, 0x00, 0x3c, 0x50, 0x83, 0x60, 0x3c,
  0x00, 0x00, 0x3f, 0x00, 0x00, 0x3f, 0x50, 0x00, 0x3c, 0x50, 0x83, 0x60,
  0x3c, 0x00, 0x00, 0x3f, 0x00, 0x00, 0x3f, 0x50, 0x00, 0x3c, 0x50, 0x83,
  0x60, 0x3c, 0x00, 0x00, 0x3f, 0x00, 0x00, 0x40, 0x50, 0x00, 0x3a, 0x50,
  0x83, 0x60, 0x3a, 0x00, 0x00, 0x40, 0x00, 0x00, 0x40, 0x50, 0x00, 0x3a,
  0x50, 0x87, 0x40, 0x3a, 0x00, 0x00, 0x40, 0x00, 0x00, 0x40, 0x50, 0x00,
  0x3a, 0x50, 0x8b, 0x20, 0x3a, 0x00, 0x00, 0x40, 0x00, 0x00, 0x3d, 0x50,
  0x00, 0x3a, 0x50, 0x83, 0x60, 0x3a, 0x00, 0x00, 0x3d, 0x00, 0x00, 0x3d,
  0x50, 0x00, 0x3a, 0x50, 0x83, 0x60, 0x3a, 0x00, 0x00, 0x3d, 0x00, 0x00,
  0x40, 0x50, 0x00, 0x39, 0x50, 0x83, 0x60, 0x39, 0x00, 0x00, 0x40, 0x00,
  0x00, 0x3d, 0x50, 0x00, 0x39, 0x50, 0x83, 0x60, 0x39, 0x00, 0x00, 0x3d,
  0x00, 0x00, 0x40, 0x50, 0x00, 0x37, 0x50, 0x83, 0x60, 0x37, 0x00, 0x00,
  0x40, 0x00, 0x00, 0x37, 0x50, 0x00, 0x40, 0x50, 0x83, 0x60, 0x40, 0x00,
  0x00, 0x37, 0x00, 0x00, 0x35, 0x50, 0x00, 0x41, 0x50, 0x83, 0x60, 0x41,
  0x00, 0x00, 0x35, 0x00, 0x00, 0x35, 0x50, 0x00, 0x41, 0x50, 0x81, 0x70,
  0x35, 0x00, 0x00, 0x32, 0x50, 0x81, 0x70, 0x32, 0x00, 0x00, 0x2d, 0x50,
  0x81, 0x70, 0x2d, 0x00, 0x00, 0x29, 0x50, 0x81, 0x70, 0x29, 0x00, 0x00,
  0x41, 0x00, 0x00, 0x2b, 0x50, 0x00, 0x3f, 0x50, 0x81, 0x70, 0x2b, 0x00,
  0x00, 0x2e, 0x50, 0x81, 0x70, 0x2e, 0x00, 0x00, 0x33, 0x50, 0x81, 0x70,
  0x33, 0x00, 0x00, 0x37, 0x50, 0x81, 0x70, 0x37, 0x00, 0x00, 0x3f, 0x00,
  0x00, 0x2d, 0x50, 0x00, 0x3f, 0x50, 0x81, 0x70, 0x2d, 0x00, 0x00, 0x30,
  0x50, 0x81, 0x70, 0x30, 0x00, 0x00, 0x36, 0x50, 0x81, 0x70, 0x36, 0x00,
  0x00, 0x39, 0x50, 0x81, 0x70, 0x39, 0x00, 0x00, 0x3f, 0x00, 0x00, 0x2e,
  0x50, 0x00, 0x3e, 0x50, 0x81, 0x70, 0x2e, 0x00, 0x00, 0x32, 0x50, 0x81,
  0x70, 0x32, 0x00, 0x00, 0x37, 0x50, 0x81, 0x70, 0x37, 0x00, 0x00, 0x3a,
  0x50, 0x81, 0x70, 0x3a, 0x00, 0x00, 0x3e, 0x00, 0x00, 0x2d, 0x50, 0x00,
  0x3c, 0x50, 0x81, 0x70, 0x2d, 0x00, 0x00, 0x30, 0x50, 0x81, 0x70, 0x30,
  0x00, 0x00, 0x35, 0x50, 0x81, 0x70, 0x35, 0x00, 0x00, 0x39, 0x50, 0x81,
  0x70, 0x39, 0x00, 0x00, 0x3c, 0x00, 0x00, 0x2b, 0x50, 0x00, 0x3a, 0x50,
  0x81, 0x70, 0x2b, 0x00, 0x00, 0x2e, 0x50, 0x81, 0x70, 0x2e, 0x00, 0x00,
  0x33, 0x50, 0x81, 0x70, 0x33, 0x00, 0x00, 0x37, 0x50, 0x81, 0x70, 0x37,
  0x00, 0x00, 0x3a, 0x00, 0x00, 0x2c, 0x50, 0x00, 0x41, 0x50, 0x81, 0x70,
  0x2c, 0x00, 0x00, 0x2f, 0x50, 0x81, 0x70, 0x2f, 0x00, 0x00, 0x32, 0x50,
  0x81, 0x70, 0x32, 0x00, 0x00, 0x38, 0x50, 0x81, 0x70, 0x38, 0x00, 0x00,
  0x41, 0x00, 0x00, 0x41, 0x50, 0x00, 0x39, 0x50, 0x83, 0x60, 0x39, 0x00,
  0x00, 0x41, 0x00, 0x00, 0x40, 0x50, 0x00, 0x2d, 0x50, 0x83, 0x60, 0x2d,
  0x00, 0x00, 0x40, 0x00, 0x00, 0x39, 0x50, 0x85, 0x50, 0x39, 0x00, 0x00,
  0x39, 0x50, 0x81, 0x70, 0x39, 0x00, 0x00, 0x38, 0x50, 0x81, 0x70, 0x38,
  0x00, 0x00, 0x39, 0x50, 0x81, 0x70, 0x39, 0x00, 0x00, 0x38, 0x50, 0x81,
  0x70, 0x38, 0x00, 0x00, 0x39, 0x50, 0x81, 0x70, 0x39, 0x00, 0x00, 0x38,
  0x50, 0x81, 0x70, 0x38, 0x00, 0x00, 0x39, 0x50, 0x81, 0x70, 0x39, 0x00,
  0x00, 0x38, 0x50, 0x81, 0x70, 0x38, 0x00, 0x00, 0x39, 0x50, 0x81, 0x70,
  0x39, 0x00, 0x00, 0x3a, 0x50, 0x83, 0x60, 0x3a, 0x00, 0x00, 0x39, 0x50,
  0x83, 0x60, 0x39, 0x00, 0x00, 0x40, 0x50, 0x87, 0x40, 0x40, 0x00, 0x00,
  0x41, 0x50, 0x83, 0x60, 0x41, 0x00, 0x00, 0x40, 0x50, 0x83, 0x60, 0x40,
  0x00, 0x00, 0x40, 0x50, 0x87, 0x40, 0x40, 0x00, 0x00, 0x41, 0x50, 0x83,
  0x60, 0x41, 0x00, 0x00, 0x40, 0x50, 0x83, 0x60, 0x40, 0x00, 0x00, 0x39,
  0x50, 0x85, 0x50, 0x39, 0x00, 0x00, 0x39, 0x50, 0x81, 0x70, 0x39, 0x00,
  0x00, 0x38, 0x50, 0x81, 0x70, 0x38, 0x00, 0x00, 0x39, 0x50, 0x81, 0x70,
  0x39, 0x00, 0x00, 0x38, 0x50, 0x81, 0x70, 0x38, 0x00, 0x00, 0x39, 0x50,
  0x81, 0x70, 0x39, 0x00, 0x00, 0x38, 0x50, 0x81, 0x70, 0x38, 0x00, 0x00,
  0x39, 0x50, 0x81, 0x70, 0x39, 0x00, 0x00, 0x38, 0x50, 0x81, 0x70, 0x38,
  0x00, 0x00, 0x39, 0x50, 0x81, 0x70, 0x39, 0x00, 0x00, 0x3a, 0x50, 0x83,
  0x60, 0x3a, 0x00, 0x00, 0x39, 0x50, 0x83, 0x60, 0x39, 0x00, 0x00, 0x40,
  0x50, 0x87, 0x40, 0x40, 0x00, 0x00, 0x41, 0x50, 0x83, 0x60, 0x41, 0x00,
  0x00, 0x40, 0x50, 0x83, 0x60, 0x40, 0x00, 0x00, 0x40, 0x50, 0x87, 0x40,
  0x40, 0x00, 0x00, 0x41, 0x50, 0x83, 0x60, 0x41, 0x00, 0x00, 0x40, 0x50,
  0x83, 0x60, 0x40, 0x00, 0x00, 0x39, 0x50, 0x85, 0x50, 0x39, 0x00, 0x00,
  0x39, 0x50, 0x81, 0x70, 0x39, 0x00, 0x00, 0x38, 0x50, 0x81, 0x70, 0x38,
  0x00, 0x00, 0x39, 0x50, 0x81, 0x70, 0x39, 0x00, 0x00, 0x38, 0x50, 0x81,
  0x70, 0x38, 0x00, 0x00, 0x39, 0x50, 0x81, 0x70, 0x39, 0x00, 0x00, 0x38,
  0x50, 0x81, 0x70, 0x38, 0x00, 0x00, 0x39, 0x50, 0x81, 0x70, 0x39, 0x00,
  0x00, 0x38, 0x50, 0x81, 0x70, 0x38, 0x00, 0x00, 0x39, 0x50, 0x81, 0x70,
  0x39, 0x00, 0x00, 0x3a, 0x50, 0x81, 0x70, 0x3a, 0x00, 0x00, 0x2e, 0x50,
  0x81, 0x70, 0x2e, 0x00, 0x00, 0x3a, 0x50, 0x81, 0x70, 0x3a, 0x00, 0x00,
  0x3a, 0x50, 0x81, 0x70, 0x3a, 0x00, 0x00, 0x3e, 0x50, 0x00, 0x3a, 0x50,
  0x87, 0x40, 0x3a, 0x00, 0x00, 0x3e, 0x00, 0x00, 0x3f, 0x50, 0x00, 0x3c,
  0x50, 0x81, 0x70, 0x3c, 0x00, 0x00, 0x3f, 0x00, 0x00, 0x3e, 0x50, 0x00,
  0x3a, 0x50, 0x81, 0x70, 0x3a, 0x00, 0x00, 0x3e, 0x00, 0x00, 0x3f, 0x50,
  0x00, 0x3c, 0x50, 0x81, 0x70, 0x3c, 0x00, 0x00, 0x3f, 0x00, 0x00, 0x3e,
  0x50, 0x00, 0x3a, 0x50, 0x81, 0x70, 0x3a, 0x00, 0x00, 0x3e, 0x00, 0x00,
  0x3f, 0x50, 0x00, 0x3c, 0x50, 0x81, 0x70, 0x3c, 0x00, 0x00, 0x3f, 0x00,
  0x00, 0x3e, 0x50, 0x00, 0x3a, 0x50, 0x81, 0x70, 0x3a, 0x00, 0x00, 0x3e,
  0x00, 0x00, 0x3f, 0x50, 0x00, 0x3c, 0x50, 0x81, 0x70, 0x3c, 0x00, 0x00,
  0x3f, 0x00, 0x00, 0x3e, 0x50, 0x00, 0x3a, 0x50, 0x81, 0x70, 0x3a, 0x00,
  0x00, 0x3e, 0x00, 0x00, 0x3d, 0x50, 0x00, 0x39, 0x50, 0x83, 0x60, 0x39,
  0x00, 0x00, 0x3d, 0x00, 0x00, 0x40, 0x50, 0x00, 0x2d, 0x50, 0x83, 0x60,
  0x2d, 0x00, 0x00, 0x40, 0x00, 0x83, 0x60, 0x39, 0x50, 0x81, 0x70, 0x39,
  0x00, 0x00, 0x39, 0x50, 0x81, 0x70, 0x39, 0x00, 0x00, 0x3e, 0x50, 0x81,
  0x70, 0x3e, 0x00, 0x00, 0x32, 0x50, 0x81, 0x70, 0x32, 0x00, 0x00, 0x2d,
  0x50, 0x81, 0x70, 0x2d, 0x00, 0x00, 0x39, 0x50, 0x81, 0x70, 0x39, 0x00,
  0x00, 0x3e, 0x50, 0x81, 0x70, 0x3e, 0x00, 0x00, 0x32, 0x50, 0x81, 0x70,
  0x32, 0x00, 0x00, 0x2d, 0x50, 0x81, 0x70, 0x2d, 0x00, 0x00, 0x39, 0x50,
  0x81, 0x70, 0x39, 0x00, 0x00, 0x3e, 0x50, 0x81, 0x70, 0x3e, 0x00, 0x00,
  0x32, 0x50, 0x81, 0x70, 0x32, 0x00, 0x00, 0x39, 0x50, 0x83, 0x60, 0x39,
  0x00, 0x83, 0x60, 0x3e, 0x50, 0x81, 0x70, 0x3e, 0x00, 0x00, 0x32, 0x50,
  0x81, 0x70, 0x32, 0x00, 0x00, 0x31, 0x50, 0x81, 0x70, 0x31, 0x00, 0x00,
  0x3d, 0x50, 0x81, 0x70, 0x3d, 0x00, 0x00, 0x3e, 0x50, 0x81, 0x70, 0x3e,
  0x00, 0x00, 0x32, 0x50, 0x81, 0x70, 0x32, 0x00, 0x00, 0x31, 0x50, 0x81,
  0x70, 0x31, 0x00, 0x00, 0x3d, 0x50, 0x81, 0x70, 0x3d, 0x00, 0x00, 0x3e,
  0x50, 0x81, 0x70, 0x3e, 0x00, 0x00, 0x32, 0x50, 0x81, 0x70, 0x32, 0x00,
  0x00, 0x31, 0x50, 0x81, 0x70, 0x31, 0x00, 0x00, 0x3d, 0x50, 0x81, 0x70,
  0x3d, 0x00, 0x00, 0x3e, 0x50, 0x81, 0x70, 0x3e, 0x00, 0x00, 0x39, 0x50,
  0x81, 0x70, 0x39, 0x00, 0x00, 0x35, 0x50, 0x81, 0x70, 0x35, 0x00, 0x00,
  0x32, 0x50, 0x81, 0x70, 0x32, 0x00, 0x00, 0x35, 0x50, 0x81, 0x70, 0x35,
  0x00, 0x00, 0x39, 0x50, 0x81, 0x70, 0x39, 0x00, 0x00, 0x32, 0x50, 0x81,
  0x70, 0x32, 0x00, 0x00, 0x35, 0x50, 0x81, 0x70, 0x35, 0x00, 0x00, 0x39,
  0x50, 0x81, 0x70, 0x39, 0x00, 0x00, 0x3e, 0x50, 0x81, 0x70, 0x3e, 0x00,
  0x00, 0x32, 0x50, 0x81, 0x70, 0x32, 0x00, 0x00, 0x35, 0x50, 0x81, 0x70,
  0x35, 0x00, 0x00, 0x39, 0x50, 0x81, 0x70, 0x39, 0x00, 0x00, 0x3e, 0x50,
  0x81, 0x70, 0x3e, 0x00, 0x00, 0x35, 0x50, 0x83, 0x60, 0x35, 0x00, 0x00,
  0x3e, 0x50, 0x00, 0x35, 0x50, 0x87, 0x40, 0x35, 0x00, 0x00, 0x3e, 0x00,
  0x00, 0x3e, 0x50, 0x00, 0x35, 0x50, 0x83, 0x60, 0x35, 0x00, 0x00, 0x3e,
  0x00, 0x00, 0x41, 0x50, 0x00, 0x3e, 0x50, 0x83, 0x60, 0x3e, 0x00, 0x00,
  0x41, 0x00, 0x00, 0x3e, 0x50, 0x00, 0x3a, 0x50, 0x83, 0x60, 0x3a, 0x00,
  0x00, 0x3e, 0x00, 0x00, 0x37, 0x50, 0x00, 0x3a, 0x50, 0x83, 0x60, 0x37,
  0x00, 0x00, 0x34, 0x50, 0x83, 0x60, 0x34, 0x00, 0x00, 0x3a, 0x00, 0x00,
  0x2d, 0x50, 0x81, 0x70, 0x2d, 0x00, 0x00, 0x39, 0x50, 0x81, 0x70, 0x39,
  0x00, 0x00, 0x32, 0x50, 0x81, 0x70, 0x32, 0x00, 0x00, 0x35, 0x50, 0x81,
  0x70, 0x35, 0x00, 0x00, 0x39, 0x50, 0x81, 0x70, 0x39, 0x00, 0x00, 0x37,
  0x50, 0x81, 0x70, 0x37, 0x00, 0x00, 0x39, 0x50, 0x81, 0x70, 0x39, 0x00,
  0x00, 0x2d, 0x50, 0x81, 0x70, 0x2d, 0x00, 0x00, 0x32, 0x50, 0x81, 0x70,
  0x32, 0x00, 0x00, 0x35, 0x50, 0x81, 0x70, 0x35, 0x00, 0x00, 0x39, 0x50,
  0x81, 0x70, 0x39, 0x00, 0x00, 0x3e, 0x50, 0x81, 0x70, 0x3e, 0x00, 0x00,
  0x32, 0x50, 0x81, 0x70, 0x32, 0x00, 0x00, 0x35, 0x50, 0x81, 0x70, 0x35,
  0x00, 0x00, 0x39, 0x50, 0x81, 0x70, 0x39, 0x00, 0x00, 0x3e, 0x50, 0x81,
  0x70, 0x3e, 0x00, 0x00, 0x2e, 0x50, 0x83, 0x60, 0x2e, 0x00, 0x00, 0x3e,
  0x50, 0x00, 0x3a, 0x50, 0x87, 0x40, 0x3a, 0x00, 0x00, 0x3e, 0x00, 0x00,
  0x3e, 0x50, 0x00, 0x3a, 0x50, 0x83, 0x60, 0x3a, 0x00, 0x00, 0x3e, 0x00,
  0x00, 0x43, 0x50, 0x00, 0x3a, 0x50, 0x83, 0x60, 0x3a, 0x00, 0x00, 0x43,
  0x00, 0x00, 0x3f, 0x50, 0x00, 0x37, 0x50, 0x83, 0x60, 0x37, 0x00, 0x00,
  0x3f, 0x00, 0x00, 0x2b, 0x50, 0x81, 0x70, 0x2b, 0x00, 0x00, 0x2e, 0x50,
  0x81, 0x70, 0x2e, 0x00, 0x00, 0x33, 0x50, 0x81, 0x70, 0x33, 0x00, 0x00,
  0x37, 0x50, 0x81, 0x70, 0x37, 0x00, 0x00, 0x2d, 0x50, 0x81, 0x70, 0x2d,
  0x00, 0x00, 0x39, 0x50, 0x81, 0x70, 0x39, 0x00, 0x00, 0x32, 0x50, 0x81,
  0x70, 0x32, 0x00, 0x00, 0x35, 0x50, 0x81, 0x70, 0x35, 0x00, 0x00, 0x39,
  0x50, 0x81, 0x70, 0x39, 0x00, 0x00, 0x37, 0x50, 0x81, 0x70, 0x37, 0x00,
  0x00, 0x39, 0x50, 0x81, 0x70, 0x39, 0x00, 0x00, 0x2d, 0x50, 0x81, 0x70,
  0x2d, 0x00, 0x00, 0x32, 0x50, 0x83, 0x60, 0x32, 0x00, 0x81, 0x70, 0x39,
  0x50, 0x81, 0x70, 0x39, 0x00, 0x00, 0x3e, 0x50, 0x81, 0x70, 0x3e, 0x00,
  0x00, 0x41, 0x50, 0x81, 0x70, 0x41, 0x00, 0x00, 0x40, 0x50, 0x81, 0x70,
  0x40, 0x00, 0x00, 0x3e, 0x50, 0x81, 0x70, 0x3e, 0x00, 0x00, 0x3d, 0x50,
  0x81, 0x70, 0x3d, 0x00, 0x00, 0x3a, 0x50, 0x81, 0x70, 0x3a, 0x00, 0x00,
  0x37, 0x50, 0x81, 0x70, 0x37, 0x00, 0x00, 0x35, 0x50, 0x81, 0x70, 0x35,
  0x00, 0x00, 0x34, 0x50, 0x81, 0x70, 0x34, 0x00, 0x00, 0x32, 0x50, 0x81,
  0x70, 0x32, 0x00, 0x00, 0x31, 0x50, 0x81, 0x70, 0x31, 0x00, 0x00, 0x34,
  0x50, 0x81, 0x70, 0x34, 0x00, 0x00, 0x32, 0x50, 0x81, 0x70, 0x32, 0x00,
  0x00, 0x35, 0x50, 0x81, 0x70, 0x35, 0x00, 0x00, 0x37, 0x50, 0x81, 0x70,
  0x37, 0x00, 0x00, 0x3a, 0x50, 0x81, 0x70, 0x3a, 0x00, 0x00, 0x39, 0x50,
  0x81, 0x70, 0x39, 0x00, 0x00, 0x37, 0x50, 0x81, 0x70, 0x37, 0x00, 0x00,
  0x39, 0x50, 0x81, 0x70, 0x39, 0x00, 0x00, 0x2d, 0x50, 0x81, 0x70, 0x2d,
  0x00, 0x00, 0x32, 0x50, 0x83, 0x60, 0x32, 0x00, 0x00, 0xff, 0x2f, 0x00,
  0x4d, 0x54, 0x72, 0x6b, 0x00, 0x00, 0x06, 0x8b, 0x00, 0xff, 0x21, 0x01,
  0x00, 0x00, 0xff, 0x03, 0x07, 0x54, 0x72, 0x61, 0x63, 0x6b, 0x20, 0x33,
  0x00, 0xc2, 0x39, 0x00, 0xb2, 0x07, 0x6a, 0x00, 0xb2, 0x0a, 0x2d, 0x0b,
  0xb2, 0x5b, 0x50, 0x1d, 0x92, 0x4a, 0x50, 0x00, 0x3e, 0x50, 0x83, 0x60,
  0x3e, 0x00, 0x00, 0x4a, 0x00, 0x83, 0x38, 0x4a, 0x50, 0x00, 0x3e, 0x50,
  0x83, 0x60, 0x3e, 0x00, 0x00, 0x4a, 0x00, 0x87, 0x40, 0x3e, 0x50, 0x00,
  0x45, 0x50, 0x81, 0x70, 0x45, 0x00, 0x00, 0x3e, 0x00, 0x00, 0x3e, 0x50,
  0x00, 0x45, 0x50, 0x81, 0x70, 0x45, 0x00, 0x00, 0x3e, 0x00, 0x00, 0x3e,
  0x50, 0x00, 0x45, 0x50, 0x81, 0x70, 0x45, 0x00, 0x00, 0x3e, 0x00, 0x00,
  0x3e, 0x50, 0x00, 0x45, 0x50, 0x81, 0x70, 0x45, 0x00, 0x00, 0x3e, 0x00,
  0x00, 0x3e, 0x50, 0x00, 0x45, 0x50, 0x81, 0x70, 0x45, 0x00, 0x00, 0x3e,
  0x00, 0x00, 0x3e, 0x50, 0x00, 0x45, 0x50, 0x81, 0x70, 0x45, 0x00, 0x00,
  0x3e, 0x00, 0x00, 0x39, 0x50, 0x00, 0x45, 0x50, 0x83, 0x60, 0x45, 0x00,
  0x00, 0x39, 0x00, 0x83, 0x60, 0x39, 0x50, 0x00, 0x45, 0x50, 0x83, 0x60,
  0x45, 0x00, 0x00, 0x39, 0x00, 0x87, 0x40, 0x3e, 0x50, 0x00, 0x45, 0x50,
  0x81, 0x70, 0x45, 0x00, 0x00, 0x3e, 0x00, 0x00, 0x3e, 0x50, 0x00, 0x45,
  0x50, 0x81, 0x70, 0x45, 0x00, 0x00, 0x3e, 0x00, 0x00, 0x3e, 0x50, 0x00,
  0x45, 0x50, 0x81, 0x70, 0x45, 0x00, 0x00, 0x3e, 0x00, 0x00, 0x3e, 0x50,
  0x00, 0x45, 0x50, 0x81, 0x70, 0x45, 0x00, 0x00, 0x3e, 0x00, 0x00, 0x3e,
  0x50, 0x00, 0x45, 0x50, 0x81, 0x70, 0x45, 0x00, 0x00, 0x3e, 0x00, 0x00,
  0x3e, 0x50, 0x00, 0x45, 0x50, 0x81, 0x70, 0x45, 0x00, 0x00, 0x3e, 0x00,
  0x83, 0x60, 0x3e, 0x50, 0x00, 0x45, 0x50, 0x81, 0x70, 0x45, 0x00, 0x00,
  0x3e, 0x00, 0x00, 0x3e, 0x50, 0x00, 0x45, 0x50, 0x81, 0x70, 0x45, 0x00,
  0x00, 0x3e, 0x00, 0x00, 0x3e, 0x50, 0x00, 0x45, 0x50, 0x83, 0x60, 0x45,
  0x00, 0x00, 0x3e, 0x00, 0x87, 0x40, 0x3e, 0x50, 0x00, 0x45, 0x50, 0x81,
  0x70, 0x45, 0x00, 0x00, 0x3e, 0x00, 0x00, 0x3e, 0x50, 0x00, 0x45, 0x50,
  0x81, 0x70, 0x45, 0x00, 0x00, 0x3e, 0x00, 0x00, 0x3e, 0x50, 0x00, 0x45,
  0x50, 0x83, 0x60, 0x45, 0x00, 0x00, 0x3e, 0x00, 0x83, 0x60, 0x4a, 0x50,
  0x00, 0x3e, 0x50, 0x87, 0x40, 0x3e, 0x00, 0x00, 0x4a, 0x00, 0x00, 0x4a,
  0x50, 0x00, 0x43, 0x50, 0x83, 0x60, 0x43, 0x00, 0x00, 0x4a, 0x00, 0x00,
  0x4a, 0x50, 0x00, 0x3e, 0x50, 0x83, 0x60, 0x3e, 0x00, 0x00, 0x4a, 0x00,
  0x00, 0x39, 0x50, 0x00, 0x45, 0x50, 0x83, 0x60, 0x45, 0x00, 0x00, 0x39,
  0x00, 0x00, 0x39, 0x50, 0x00, 0x45, 0x50, 0x81, 0x70, 0x45, 0x00, 0x00,
  0x39, 0x00, 0x00, 0x39, 0x50, 0x00, 0x45, 0x50, 0x81, 0x70, 0x45, 0x00,
  0x00, 0x39, 0x00, 0x00, 0x45, 0x50, 0x81, 0x70, 0x45, 0x00, 0x00, 0x45,
  0x50, 0x81, 0x70, 0x45, 0x00, 0x00, 0x45, 0x50, 0x81, 0x70, 0x45, 0x00,
  0x00, 0x45, 0x50, 0x81, 0x70, 0x45, 0x00, 0x00, 0x39, 0x50, 0x00, 0x45,
  0x50, 0x83, 0x60, 0x45, 0x00, 0x00, 0x39, 0x00, 0xb0, 0x60, 0x3e, 0x50,
  0x00, 0x4a, 0x50, 0x81, 0x70, 0x4a, 0x00, 0x00, 0x3e, 0x00, 0x00, 0x3e,
  0x50, 0x00, 0x4a, 0x50, 0x81, 0x70, 0x4a, 0x00, 0x00, 0x3e, 0x00, 0x00,
  0x3e, 0x50, 0x00, 0x4a, 0x50, 0x81, 0x70, 0x4a, 0x00, 0x00, 0x3e, 0x00,
  0x00, 0x3e, 0x50, 0x00, 0x4a, 0x50, 0x81, 0x70, 0x4a, 0x00, 0x00, 0x3e,
  0x00, 0x00, 0x4a, 0x50, 0x00, 0x3e, 0x50, 0x83, 0x60, 0x3e, 0x00, 0x00,
  0x4a, 0x00, 0xa1, 0x60, 0x4a, 0x50, 0x81, 0x70, 0x4a, 0x00, 0x00, 0x4a,
  0x50, 0x81, 0x70, 0x4a, 0x00, 0x00, 0x4a, 0x50, 0x81, 0x70, 0x4a, 0x00,
  0x00, 0x4a, 0x50, 0x81, 0x70, 0x4a, 0x00, 0x00, 0x4c, 0x50, 0x00, 0x45,
  0x50, 0x83, 0x60, 0x45, 0x00, 0x00, 0x4c, 0x00, 0x83, 0x60, 0x4c, 0x50,
  0x00, 0x3e, 0x50, 0x83, 0x60, 0x3e, 0x00, 0x00, 0x4c, 0x00, 0x83, 0x60,
  0x4c, 0x50, 0x00, 0x45, 0x50, 0x83, 0x60, 0x45, 0x00, 0x00, 0x4c, 0x00,
  0x83, 0x60, 0x4a, 0x50, 0x00, 0x3e, 0x50, 0x83, 0x60, 0x3e, 0x00, 0x00,
  0x4a, 0x00, 0x83, 0x60, 0x4a, 0x50, 0x83, 0x60, 0x4a, 0x00, 0x00, 0x4a,
  0x50, 0x83, 0x60, 0x4a, 0x00, 0x00, 0x4a, 0x50, 0x81, 0x70, 0x4a, 0x00,
  0x00, 0x4a, 0x50, 0x81, 0x70, 0x4a, 0x00, 0x00, 0x4a, 0x50, 0x81, 0x70,
  0x4a, 0x00, 0x00, 0x4a, 0x50, 0x81, 0x70, 0x4a, 0x00, 0x00, 0x4c, 0x50,
  0x00, 0x45, 0x50, 0x83, 0x60, 0x45, 0x00, 0x00, 0x4c, 0x00, 0xa9, 0x20,
  0x4c, 0x50, 0x00, 0x45, 0x50, 0x83, 0x60, 0x45, 0x00, 0x00, 0x4c, 0x00,
  0x83, 0x60, 0x4c, 0x50, 0x00, 0x45, 0x50, 0x83, 0x60, 0x45, 0x00, 0x00,
  0x4c, 0x00, 0x83, 0x60, 0x4c, 0x50, 0x8f, 0x00, 0x4c, 0x00, 0x00, 0x4c,
  0x50, 0x83, 0x60, 0x4c, 0x00, 0x83, 0x60, 0x4c, 0x50, 0x83, 0x60, 0x4c,
  0x00, 0x83, 0x60, 0x45, 0x50, 0x81, 0x70, 0x45, 0x00, 0x00, 0x45, 0x50,
  0x78, 0x45, 0x00, 0x00, 0x45, 0x50, 0x78, 0x45, 0x00, 0x00, 0x45, 0x50,
  0x81, 0x70, 0x45, 0x00, 0x00, 0x45, 0x50, 0x81, 0x70, 0x45, 0x00, 0x00,
  0x45, 0x50, 0x81, 0x70, 0x45, 0x00, 0x00, 0x45, 0x50, 0x81, 0x70, 0x45,
  0x00, 0x00, 0x45, 0x50, 0x81, 0x70, 0x45, 0x00, 0x00, 0x45, 0x50, 0x81,
  0x70, 0x45, 0x00, 0x00, 0x3e, 0x50, 0x00, 0x45, 0x50, 0x83, 0x60, 0x45,
  0x00, 0x00, 0x3e, 0x00, 0x00, 0x39, 0x50, 0x00, 0x45, 0x50, 0x81, 0x70,
  0x45, 0x00, 0x00, 0x39, 0x00, 0x00, 0x39, 0x50, 0x00, 0x45, 0x50, 0x81,
  0x70, 0x45, 0x00, 0x00, 0x39, 0x00, 0x00, 0x39, 0x50, 0x00, 0x45, 0x50,
  0x83, 0x60, 0x45, 0x00, 0x00, 0x39, 0x00, 0x87, 0x40, 0x39, 0x50, 0x00,
  0x45, 0x50, 0x81, 0x70, 0x45, 0x00, 0x00, 0x39, 0x00, 0x00, 0x39, 0x50,
  0x00, 0x45, 0x50, 0x81, 0x70, 0x45, 0x00, 0x00, 0x39, 0x00, 0x00, 0x39,
  0x50, 0x00, 0x45, 0x50, 0x83, 0x60, 0x45, 0x00, 0x00, 0x39, 0x00, 0x81,
  0xb7, 0x60, 0x39, 0x50, 0x00, 0x45, 0x50, 0x81, 0x70, 0x45, 0x00, 0x00,
  0x39, 0x00, 0x00, 0x39, 0x50, 0x00, 0x45, 0x50, 0x78, 0x45, 0x00, 0x00,
  0x39, 0x00, 0x00, 0x39, 0x50, 0x00, 0x45, 0x50, 0x78, 0x45, 0x00, 0x00,
  0x39, 0x00, 0x00, 0x39, 0x50, 0x00, 0x45, 0x50, 0x81, 0x70, 0x45, 0x00,
  0x00, 0x39, 0x00, 0x00, 0x39, 0x50, 0x00, 0x45, 0x50, 0x81, 0x70, 0x45,
  0x00, 0x00, 0x39, 0x00, 0x00, 0x39, 0x50, 0x00, 0x45, 0x50, 0x83, 0x60,
  0x45, 0x00, 0x00, 0x39, 0x00, 0xb8, 0x20, 0x39, 0x50, 0x00, 0x45, 0x50,
  0x83, 0x60, 0x45, 0x00, 0x00, 0x39, 0x00, 0xb8, 0x20, 0x39, 0x50, 0x00,
  0x45, 0x50, 0x83, 0x60, 0x45, 0x00, 0x00, 0x39, 0x00, 0x9a, 0x20, 0x4a,
  0x50, 0x00, 0x3e, 0x50, 0x87, 0x40, 0x3e, 0x00, 0x00, 0x4a, 0x00, 0x8f,
  0x00, 0x39, 0x50, 0x00, 0x45, 0x50, 0x81, 0x70, 0x45, 0x00, 0x00, 0x39,
  0x00, 0x00, 0x39, 0x50, 0x00, 0x45, 0x50, 0x78, 0x45, 0x00, 0x00, 0x39,
  0x00, 0x00, 0x39, 0x50, 0x00, 0x45, 0x50, 0x78, 0x45, 0x00, 0x00, 0x39,
  0x00, 0x00, 0x39, 0x50, 0x00, 0x45, 0x50, 0x81, 0x70, 0x45, 0x00, 0x00,
  0x39, 0x00, 0x00, 0x39, 0x50, 0x00, 0x45, 0x50, 0x81, 0x70, 0x45, 0x00,
  0x00, 0x39, 0x00, 0x00, 0x39, 0x50, 0x00, 0x45, 0x50, 0x81, 0x70, 0x45,
  0x00, 0x00, 0x39, 0x00, 0x00, 0x39, 0x50, 0x00, 0x45, 0x50, 0x81, 0x70,
  0x45, 0x00, 0x00, 0x39, 0x00, 0x00, 0x39, 0x50, 0x00, 0x45, 0x50, 0x81,
  0x70, 0x45, 0x00, 0x00, 0x39, 0x00, 0x00, 0x39, 0x50, 0x00, 0x45, 0x50,
  0x81, 0x70, 0x45, 0x00, 0x00, 0x39, 0x00, 0x00, 0x3e, 0x50, 0x00, 0x45,
  0x50, 0x81, 0x70, 0x45, 0x00, 0x00, 0x3e, 0x00, 0x00, 0x3e, 0x50, 0x00,
  0x45, 0x50, 0x81, 0x70, 0x45, 0x00, 0x00, 0x3e, 0x00, 0x00, 0x39, 0x50,
  0x00, 0x45, 0x50, 0x81, 0x70, 0x45, 0x00, 0x00, 0x39, 0x00, 0x00, 0x39,
  0x50, 0x00, 0x45, 0x50, 0x81, 0x70, 0x45, 0x00, 0x00, 0x39, 0x00, 0x00,
  0x3e, 0x50, 0x00, 0x45, 0x50, 0x81, 0x70, 0x45, 0x00, 0x00, 0x3e, 0x00,
  0x00, 0x3e, 0x50, 0x00, 0x45, 0x50, 0x81, 0x70, 0x45, 0x00, 0x00, 0x3e,
  0x00, 0x00, 0x39, 0x50, 0x00, 0x45, 0x50, 0x81, 0x70, 0x45, 0x00, 0x00,
  0x39, 0x00, 0x00, 0x39, 0x50, 0x00, 0x45, 0x50, 0x81, 0x70, 0x45, 0x00,
  0x00, 0x39, 0x00, 0x00, 0x3e, 0x50, 0x00, 0x45, 0x50, 0x83, 0x60, 0x45,
  0x00, 0x00, 0x3e, 0x00, 0x00, 0x39, 0x50, 0x00, 0x45, 0x50, 0x81, 0x70,
  0x45, 0x00, 0x00, 0x39, 0x00, 0x00, 0x39, 0x50, 0x00, 0x45, 0x50, 0x81,
  0x70, 0x45, 0x00, 0x00, 0x39, 0x00, 0x00, 0x39, 0x50, 0x00, 0x45, 0x50,
  0x83, 0x60, 0x45, 0x00, 0x00, 0x39, 0x00, 0x00, 0x3e, 0x50, 0x00, 0x45,
  0x50, 0x81, 0x70, 0x45, 0x00, 0x00, 0x3e, 0x00, 0x00, 0x3e, 0x50, 0x00,
  0x45, 0x50, 0x81, 0x70, 0x45, 0x00, 0x00, 0x3e, 0x00, 0x00, 0x39, 0x50,
  0x00, 0x45, 0x50, 0x81, 0x70, 0x45, 0x00, 0x00, 0x39, 0x00, 0x00, 0x39,
  0x50, 0x00, 0x45, 0x50, 0x81, 0x70, 0x45, 0x00, 0x00, 0x39, 0x00, 0x00,
  0x3e, 0x50, 0x00, 0x45, 0x50, 0x81, 0x70, 0x45, 0x00, 0x00, 0x3e, 0x00,
  0x00, 0x3e, 0x50, 0x00, 0x45, 0x50, 0x81, 0x70, 0x45, 0x00, 0x00, 0x3e,
  0x00, 0x00, 0x39, 0x50, 0x00, 0x45, 0x50, 0x81, 0x70, 0x45, 0x00, 0x00,
  0x39, 0x00, 0x00, 0x39, 0x50, 0x00, 0x45, 0x50, 0x81, 0x70, 0x45, 0x00,
  0x00, 0x39, 0x00, 0x00, 0x3e, 0x50, 0x00, 0x45, 0x50, 0x81, 0x70, 0x45,
  0x00, 0x00, 0x3e, 0x00, 0x00, 0x3e, 0x50, 0x00, 0x45, 0x50, 0x81, 0x70,
  0x45, 0x00, 0x00, 0x3e, 0x00, 0x00, 0x39, 0x50, 0x00, 0x45, 0x50, 0x83,
  0x60, 0x45, 0x00, 0x00, 0x39, 0x00, 0x00, 0x3e, 0x50, 0x00, 0x45, 0x50,
  0x83, 0x60, 0x45, 0x00, 0x00, 0x3e, 0x00, 0x87, 0x40, 0x4a, 0x50, 0x00,
  0x3e, 0x50, 0x83, 0x60, 0x3e, 0x00, 0x00, 0x4a, 0x00, 0x8b, 0x20, 0x4a,
  0x50, 0x00, 0x3e, 0x50, 0x83, 0x60, 0x3e, 0x00, 0x00, 0x4a, 0x00, 0x8b,
  0x20, 0x4a, 0x50, 0x00, 0x3e, 0x50, 0x83, 0x60, 0x3e, 0x00, 0x00, 0x4a,
  0x00, 0x8b, 0x20, 0x4c, 0x50, 0x00, 0x45, 0x50, 0x83, 0x60, 0x45, 0x00,
  0x00, 0x4c, 0x00, 0x00, 0x4a, 0x50, 0x00, 0x3e, 0x50, 0x83, 0x60, 0x3e,
  0x00, 0x00, 0x4a, 0x00, 0x00, 0x39, 0x50, 0x00, 0x45, 0x50, 0x87, 0x40,
  0x45, 0x00, 0x00, 0x39, 0x00, 0x00, 0x4a, 0x50, 0x00, 0x3e, 0x50, 0x83,
  0x60, 0x3e, 0x00, 0x00, 0x4a, 0x00, 0x8b, 0x20, 0x4a, 0x50, 0x00, 0x3e,
  0x50, 0x83, 0x60, 0x3e, 0x00, 0x00, 0x4a, 0x00, 0x9a, 0x20, 0x39, 0x50,
  0x00, 0x45, 0x50, 0x83, 0x60, 0x45, 0x00, 0x00, 0x39, 0x00, 0x00, 0x3e,
  0x50, 0x00, 0x45, 0x50, 0x81, 0x70, 0x45, 0x00, 0x00, 0x3e, 0x00, 0x00,
  0x3e, 0x50, 0x00, 0x45, 0x50, 0x81, 0x70, 0x45, 0x00, 0x00, 0x3e, 0x00,
  0x00, 0x39, 0x50, 0x00, 0x45, 0x50, 0x83, 0x60, 0x45, 0x00, 0x00, 0x39,
  0x00, 0x00, 0x39, 0x50, 0x00, 0x45, 0x50, 0x81, 0x70, 0x45, 0x00, 0x00,
  0x39, 0x00, 0x00, 0x39, 0x50, 0x00, 0x45, 0x50, 0x81, 0x70, 0x45, 0x00,
  0x00, 0x39, 0x00, 0x00, 0x3e, 0x50, 0x00, 0x45, 0x50, 0x83, 0x60, 0x45,
  0x00, 0x00, 0x3e, 0x00, 0x9a, 0x20, 0x4a, 0x50, 0x00, 0x3e, 0x50, 0x83,
  0x60, 0x3e, 0x00, 0x00, 0x4a, 0x00, 0x83, 0x60, 0x39, 0x50, 0x00, 0x45,
  0x50, 0x83, 0x60, 0x45, 0x00, 0x00, 0x39, 0x00, 0x00, 0x39, 0x50, 0x00,
  0x45, 0x50, 0x81, 0x70, 0x45, 0x00, 0x00, 0x39, 0x00, 0x00, 0x39, 0x50,
  0x00, 0x45, 0x50, 0x81, 0x70, 0x45, 0x00, 0x00, 0x39, 0x00, 0x00, 0x3e,
  0x50, 0x00, 0x45, 0x50, 0x83, 0x60, 0x45, 0x00, 0x00, 0x3e, 0x00, 0x00,
  0xff, 0x2f, 0x00, 0x4d, 0x54, 0x72, 0x6b, 0x00, 0x00, 0x03, 0xf0, 0x00,
  0xff, 0x21, 0x01, 0x00, 0x00, 0xff, 0x03, 0x07, 0x54, 0x72, 0x61, 0x63,
  0x6b, 0x20, 0x34, 0x00, 0xc3, 0x2f, 0x00, 0xb3, 0x07, 0x71, 0x00, 0xb3,
  0x0a, 0x40, 0x0e, 0xb3, 0x5b, 0x5a, 0x1a, 0x93, 0x32, 0x50, 0x83, 0x60,
  0x32, 0x00, 0x83, 0x38, 0x32, 0x50, 0x83, 0x60, 0x32, 0x00, 0x87, 0x40,
  0x32, 0x50, 0x81, 0x70, 0x32, 0x00, 0x00, 0x32, 0x50, 0x81, 0x70, 0x32,
  0x00, 0x00, 0x32, 0x50, 0x81, 0x70, 0x32, 0x00, 0x00, 0x32, 0x50, 0x81,
  0x70, 0x32, 0x00, 0x00, 0x32, 0x50, 0x81, 0x70, 0x32, 0x00, 0x00, 0x32,
  0x50, 0x81, 0x70, 0x32, 0x00, 0x00, 0x2d, 0x50, 0x83, 0x60, 0x2d, 0x00,
  0x83, 0x60, 0x2d, 0x50, 0x83, 0x60, 0x2d, 0x00, 0x87, 0x40, 0x32, 0x50,
  0x81, 0x70, 0x32, 0x00, 0x00, 0x32, 0x50, 0x81, 0x70, 0x32, 0x00, 0x00,
  0x32, 0x50, 0x81, 0x70, 0x32, 0x00, 0x00, 0x32, 0x50, 0x81, 0x70, 0x32,
  0x00, 0x00, 0x32, 0x50, 0x81, 0x70, 0x32, 0x00, 0x00, 0x32, 0x50, 0x81,
  0x70, 0x32, 0x00, 0x83, 0x60, 0x32, 0x50, 0x81, 0x70, 0x32, 0x00, 0x00,
  0x32, 0x50, 0x81, 0x70, 0x32, 0x00, 0x00, 0x32, 0x50, 0x83, 0x60, 0x32,
  0x00, 0x87, 0x40, 0x32, 0x50, 0x81, 0x70, 0x32, 0x00, 0x00, 0x32, 0x50,
  0x81, 0x70, 0x32, 0x00, 0x00, 0x32, 0x50, 0x83, 0x60, 0x32, 0x00, 0x83,
  0x60, 0x32, 0x50, 0x81, 0x70, 0x32, 0x00, 0x00, 0x32, 0x50, 0x81, 0x70,
  0x32, 0x00, 0x00, 0x32, 0x50, 0x81, 0x70, 0x32, 0x00, 0x00, 0x32, 0x50,
  0x81, 0x70, 0x32, 0x00, 0x00, 0x2d, 0x50, 0x83, 0x60, 0x2d, 0x00, 0x00,
  0x32, 0x50, 0x83, 0x60, 0x32, 0x00, 0x00, 0x2d, 0x50, 0x81, 0x70, 0x2d,
  0x00, 0x00, 0x2d, 0x50, 0x78, 0x2d, 0x00, 0x00, 0x2d, 0x50, 0x78, 0x2d,
  0x00, 0x00, 0x2d, 0x50, 0x81, 0x70, 0x2d, 0x00, 0x00, 0x2d, 0x50, 0x81,
  0x70, 0x2d, 0x00, 0x00, 0x2d, 0x50, 0x81, 0x70, 0x2d, 0x00, 0x00, 0x2d,
  0x50, 0x81, 0x70, 0x2d, 0x00, 0x00, 0x2d, 0x50, 0x81, 0x70, 0x2d, 0x00,
  0x00, 0x2d, 0x50, 0x81, 0x70, 0x2d, 0x00, 0x00, 0x2d, 0x50, 0x83, 0x60,
  0x2d, 0x00, 0xb0, 0x60, 0x32, 0x50, 0x81, 0x70, 0x32, 0x00, 0x00, 0x32,
  0x50, 0x81, 0x70, 0x32, 0x00, 0x00, 0x32, 0x50, 0x81, 0x70, 0x32, 0x00,
  0x00, 0x32, 0x50, 0x81, 0x70, 0x32, 0x00, 0x00, 0x32, 0x50, 0x83, 0x60,
  0x32, 0x00, 0xa9, 0x20, 0x2d, 0x50, 0x83, 0x60, 0x2d, 0x00, 0x83, 0x60,
  0x32, 0x50, 0x83, 0x60, 0x32, 0x00, 0x83, 0x60, 0x2d, 0x50, 0x83, 0x60,
  0x2d, 0x00, 0x83, 0x60, 0x32, 0x50, 0x83, 0x60, 0x32, 0x00, 0x92, 0x60,
  0x2d, 0x50, 0x83, 0x60, 0x2d, 0x00, 0xa9, 0x20, 0x2d, 0x50, 0x83, 0x60,
  0x2d, 0x00, 0x83, 0x60, 0x2d, 0x50, 0x83, 0x60, 0x2d, 0x00, 0x83, 0x60,
  0x2d, 0x50, 0x81, 0x70, 0x2d, 0x00, 0x00, 0x2d, 0x50, 0x78, 0x2d, 0x00,
  0x00, 0x2d, 0x50, 0x78, 0x2d, 0x00, 0x00, 0x2d, 0x50, 0x81, 0x70, 0x2d,
  0x00, 0x00, 0x2d, 0x50, 0x81, 0x70, 0x2d, 0x00, 0x00, 0x2d, 0x50, 0x81,
  0x70, 0x2d, 0x00, 0x00, 0x2d, 0x50, 0x81, 0x70, 0x2d, 0x00, 0x00, 0x2d,
  0x50, 0x81, 0x70, 0x2d, 0x00, 0x00, 0x2d, 0x50, 0x81, 0x70, 0x2d, 0x00,
  0x00, 0x2d, 0x50, 0x83, 0x60, 0x2d, 0x00, 0x8b, 0x20, 0x2d, 0x50, 0x81,
  0x70, 0x2d, 0x00, 0x00, 0x2d, 0x50, 0x78, 0x2d, 0x00, 0x00, 0x2d, 0x50,
  0x78, 0x2d, 0x00, 0x00, 0x2d, 0x50, 0x81, 0x70, 0x2d, 0x00, 0x00, 0x2d,
  0x50, 0x81, 0x70, 0x2d, 0x00, 0x00, 0x2d, 0x50, 0x81, 0x70, 0x2d, 0x00,
  0x00, 0x2d, 0x50, 0x81, 0x70, 0x2d, 0x00, 0x00, 0x2d, 0x50, 0x81, 0x70,
  0x2d, 0x00, 0x00, 0x2d, 0x50, 0x81, 0x70, 0x2d, 0x00, 0x00, 0x32, 0x50,
  0x83, 0x60, 0x32, 0x00, 0x00, 0x2d, 0x50, 0x81, 0x70, 0x2d, 0x00, 0x00,
  0x2d, 0x50, 0x81, 0x70, 0x2d, 0x00, 0x00, 0x2d, 0x50, 0x81, 0x70, 0x2d,
  0x00, 0x89, 0x30, 0x2d, 0x50, 0x81, 0x70, 0x2d, 0x00, 0x00, 0x2d, 0x50,
  0x81, 0x70, 0x2d, 0x00, 0x00, 0x2d, 0x50, 0x83, 0x60, 0x2d, 0x00, 0x81,
  0xb7, 0x60, 0x2d, 0x50, 0x81, 0x70, 0x2d, 0x00, 0x00, 0x2d, 0x50, 0x78,
  0x2d, 0x00, 0x00, 0x2d, 0x50, 0x78, 0x2d, 0x00, 0x00, 0x2d, 0x50, 0x81,
  0x70, 0x2d, 0x00, 0x00, 0x2d, 0x50, 0x81, 0x70, 0x2d, 0x00, 0x00, 0x2d,
  0x50, 0x83, 0x60, 0x2d, 0x00, 0xb8, 0x20, 0x2d, 0x50, 0x83, 0x60, 0x2d,
  0x00, 0xb8, 0x20, 0x2d, 0x50, 0x83, 0x60, 0x2d, 0x00, 0x9a, 0x20, 0x32,
  0x50, 0x81, 0x70, 0x32, 0x00, 0x00, 0x32, 0x50, 0x78, 0x32, 0x00, 0x00,
  0x32, 0x50, 0x78, 0x32, 0x00, 0x00, 0x32, 0x50, 0x81, 0x70, 0x32, 0x00,
  0x00, 0x32, 0x50, 0x81, 0x70, 0x32, 0x00, 0x8f, 0x00, 0x2d, 0x50, 0x81,
  0x70, 0x2d, 0x00, 0x00, 0x2d, 0x50, 0x78, 0x2d, 0x00, 0x00, 0x2d, 0x50,
  0x78, 0x2d, 0x00, 0x00, 0x2d, 0x50, 0x81, 0x70, 0x2d, 0x00, 0x00, 0x2d,
  0x50, 0x81, 0x70, 0x2d, 0x00, 0x00, 0x2d, 0x50, 0x81, 0x70, 0x2d, 0x00,
  0x00, 0x2d, 0x50, 0x81, 0x70, 0x2d, 0x00, 0x00, 0x2d, 0x50, 0x81, 0x70,
  0x2d, 0x00, 0x00, 0x2d, 0x50, 0x81, 0x70, 0x2d, 0x00, 0x00, 0x2d, 0x50,
  0x83, 0x60, 0x2d, 0x00, 0x00, 0x32, 0x50, 0x83, 0x60, 0x32, 0x00, 0x00,
  0x2d, 0x50, 0x83, 0x60, 0x2d, 0x00, 0x00, 0x32, 0x50, 0x83, 0x60, 0x32,
  0x00, 0x00, 0x32, 0x50, 0x83, 0x60, 0x32, 0x00, 0x00, 0x2d, 0x50, 0x81,
  0x70, 0x2d, 0x00, 0x00, 0x2d, 0x50, 0x81, 0x70, 0x2d, 0x00, 0x00, 0x2d,
  0x50, 0x83, 0x60, 0x2d, 0x00, 0x00, 0x32, 0x50, 0x83, 0x60, 0x32, 0x00,
  0x00, 0x2d, 0x50, 0x83, 0x60, 0x2d, 0x00, 0x00, 0x32, 0x50, 0x83, 0x60,
  0x32, 0x00, 0x00, 0x2d, 0x50, 0x83, 0x60, 0x2d, 0x00, 0x00, 0x32, 0x50,
  0x83, 0x60, 0x32, 0x00, 0x00, 0x2d, 0x50, 0x83, 0x60, 0x2d, 0x00, 0x00,
  0x32, 0x50, 0x83, 0x60, 0x32, 0x00, 0x87, 0x40, 0x32, 0x50, 0x83, 0x60,
  0x32, 0x00, 0x8b, 0x20, 0x32, 0x50, 0x83, 0x60, 0x32, 0x00, 0x8b, 0x20,
  0x32, 0x50, 0x83, 0x60, 0x32, 0x00, 0x8b, 0x20, 0x2d, 0x50, 0x83, 0x60,
  0x2d, 0x00, 0x00, 0x32, 0x50, 0x81, 0x70, 0x32, 0x00, 0x00, 0x32, 0x50,
  0x81, 0x70, 0x32, 0x00, 0x00, 0x2d, 0x50, 0x83, 0x60, 0x2d, 0x00, 0x00,
  0x2d, 0x50, 0x81, 0x70, 0x2d, 0x00, 0x00, 0x2d, 0x50, 0x81, 0x70, 0x2d,
  0x00, 0x00, 0x32, 0x50, 0x83, 0x60, 0x32, 0x00, 0x8b, 0x20, 0x32, 0x50,
  0x83, 0x60, 0x32, 0x00, 0x9a, 0x20, 0x2d, 0x50, 0x83, 0x60, 0x2d, 0x00,
  0x00, 0x32, 0x50, 0x81, 0x70, 0x32, 0x00, 0x00, 0x32, 0x50, 0x81, 0x70,
  0x32, 0x00, 0x00, 0x2d, 0x50, 0x83, 0x60, 0x2d, 0x00, 0x00, 0x2d, 0x50,
  0x81, 0x70, 0x2d, 0x00, 0x00, 0x2d, 0x50, 0x81, 0x70, 0x2d, 0x00, 0x00,
  0x32, 0x50, 0x83, 0x60, 0x32, 0x00, 0x9a, 0x20, 0x32, 0x50, 0x83, 0x60,
  0x32, 0x00, 0x83, 0x60, 0x2d, 0x50, 0x83, 0x60, 0x2d, 0x00, 0x00, 0x2d,
  0x50, 0x81, 0x70, 0x2d, 0x00, 0x00, 0x2d, 0x50, 0x81, 0x70, 0x2d, 0x00,
  0x00, 0x32, 0x50, 0x83, 0x60, 0x32, 0x00, 0x00, 0xff, 0x2f, 0x00, 0x4d,
  0x54, 0x72, 0x6b, 0x00, 0x00, 0x15, 0x2d, 0x00, 0xff, 0x21, 0x01, 0x00,
  0x00, 0xff, 0x03, 0x07, 0x54, 0x72, 0x61, 0x63, 0x6b, 0x20, 0x35, 0x00,
  0xc4, 0x30, 0x00, 0xb4, 0x07, 0x72, 0x00, 0xb4, 0x0a, 0x1e, 0x11, 0xb4,
  0x5b, 0x50, 0x17, 0x94, 0x4a, 0x5a, 0x50, 0x45, 0x5a, 0x28, 0x4a, 0x00,
  0x50, 0x45, 0x00, 0x00, 0x45, 0x5a, 0x78, 0x45, 0x00, 0x00, 0x45, 0x5a,
  0x78, 0x45, 0x00, 0x00, 0x45, 0x5a, 0x78, 0x45, 0x00, 0x00, 0x45, 0x5a,
  0x78, 0x45, 0x00, 0x00, 0x45, 0x5a, 0x78, 0x45, 0x00, 0x00, 0x45, 0x5a,
  0x78, 0x45, 0x00, 0x00, 0x4a, 0x5a, 0x78, 0x4a, 0x00, 0x00, 0x45, 0x5a,
  0x78, 0x45, 0x00, 0x00, 0x45, 0x5a, 0x78, 0x45, 0x00, 0x00, 0x45, 0x5a,
  0x78, 0x45, 0x00, 0x00, 0x45, 0x5a, 0x78, 0x45, 0x00, 0x00, 0x45, 0x5a,
  0x78, 0x45, 0x00, 0x00, 0x45, 0x5a, 0x78, 0x45, 0x00, 0x00, 0x45, 0x5a,
  0x78, 0x45, 0x00, 0x00, 0x4c, 0x5a, 0x81, 0x70, 0x4c, 0x00, 0x00, 0x45,
  0x5a, 0x83, 0x60, 0x45, 0x00, 0x00, 0x45, 0x5a, 0x83, 0x60, 0x45, 0x00,
  0x00, 0x45, 0x5a, 0x83, 0x60, 0x45, 0x00, 0x00, 0x45, 0x5a, 0x81, 0x70,
  0x45, 0x00, 0x00, 0x43, 0x5a, 0x78, 0x43, 0x00, 0x00, 0x43, 0x5a, 0x78,
  0x43, 0x00, 0x00, 0x43, 0x5a, 0x78, 0x43, 0x00, 0x00, 0x43, 0x5a, 0x78,
  0x43, 0x00, 0x00, 0x43, 0x5a, 0x78, 0x43, 0x00, 0x00, 0x43, 0x5a, 0x78,
  0x43, 0x00, 0x00, 0x43, 0x5a, 0x78, 0x43, 0x00, 0x00, 0x43, 0x5a, 0x78,
  0x43, 0x00, 0x00, 0x43, 0x5a, 0x78, 0x43, 0x00, 0x00, 0x43, 0x5a, 0x78,
  0x43, 0x00, 0x00, 0x43, 0x5a, 0x78, 0x43, 0x00, 0x00, 0x43, 0x5a, 0x78,
  0x43, 0x00, 0x00, 0x43, 0x5a, 0x78, 0x43, 0x00, 0x00, 0x43, 0x5a, 0x78,
  0x43, 0x00, 0x00, 0x43, 0x5a, 0x78, 0x43, 0x00, 0x00, 0x43, 0x5a, 0x78,
  0x43, 0x00, 0x00, 0x4d, 0x5a, 0x81, 0x70, 0x4d, 0x00, 0x00, 0x45, 0x5a,
  0x83, 0x60, 0x45, 0x00, 0x00, 0x45, 0x5a, 0x83, 0x60, 0x45, 0x00, 0x00,
  0x45, 0x5a, 0x81, 0x70, 0x45, 0x00, 0x00, 0x4a, 0x5a, 0x81, 0x70, 0x4a,
  0x00, 0x00, 0x4a, 0x5a, 0x81, 0x70, 0x4a, 0x00, 0x00, 0x49, 0x5a, 0x83,
  0x60, 0x49, 0x00, 0x00, 0x4a, 0x5a, 0x78, 0x4a, 0x00, 0x00, 0x45, 0x5a,
  0x78, 0x45, 0x00, 0x00, 0x4a, 0x5a, 0x78, 0x4a, 0x00, 0x00, 0x4d, 0x5a,
  0x78, 0x4d, 0x00, 0x00, 0x51, 0x5a, 0x81, 0x70, 0x51, 0x00, 0x00, 0x51,
  0x5a, 0x83, 0x60, 0x51, 0x00, 0x00, 0x51, 0x5a, 0x85, 0x50, 0x51, 0x00,
  0x00, 0x4d, 0x5a, 0x78, 0x4d, 0x00, 0x00, 0x4a, 0x5a, 0x78, 0x4a, 0x00,
  0x00, 0x4d, 0x5a, 0x78, 0x4d, 0x00, 0x00, 0x51, 0x5a, 0x78, 0x51, 0x00,
  0x00, 0x56, 0x5a, 0x81, 0x70, 0x56, 0x00, 0x00, 0x56, 0x5a, 0x83, 0x60,
  0x56, 0x00, 0x00, 0x56, 0x5a, 0x81, 0x70, 0x56, 0x00, 0x00, 0x56, 0x5a,
  0x81, 0x70, 0x56, 0x00, 0x00, 0x4f, 0x5a, 0x78, 0x4f, 0x00, 0x00, 0x4f,
  0x5a, 0x78, 0x4f, 0x00, 0x00, 0x4d, 0x5a, 0x78, 0x4d, 0x00, 0x00, 0x4d,
  0x5a, 0x78, 0x4d, 0x00, 0x00, 0x56, 0x5a, 0x78, 0x56, 0x00, 0x00, 0x56,
  0x5a, 0x78, 0x56, 0x00, 0x00, 0x4c, 0x5a, 0x78, 0x4c, 0x00, 0x00, 0x4c,
  0x5a, 0x78, 0x4c, 0x00, 0x00, 0x55, 0x5a, 0x78, 0x55, 0x00, 0x00, 0x55,
  0x5a, 0x78, 0x55, 0x00, 0x00, 0x56, 0x5a, 0x78, 0x56, 0x00, 0x00, 0x56,
  0x5a, 0x78, 0x56, 0x00, 0x00, 0x4d, 0x5a, 0x78, 0x4d, 0x00, 0x00, 0x4d,
  0x5a, 0x78, 0x4d, 0x00, 0x00, 0x4d, 0x5a, 0x82, 0x68, 0x4d, 0x00, 0x00,
  0x4c, 0x5a, 0x3c, 0x4c, 0x00, 0x00, 0x4d, 0x5a, 0x3c, 0x4d, 0x00, 0x00,
  0x4c, 0x5a, 0x81, 0x70, 0x4c, 0x00, 0x00, 0x51, 0x5a, 0x81, 0x70, 0x51,
  0x00, 0x00, 0x45, 0x5a, 0x81, 0x70, 0x45, 0x00, 0x00, 0x45, 0x5a, 0x83,
  0x60, 0x45, 0x00, 0x00, 0x45, 0x5a, 0x83, 0x60, 0x45, 0x00, 0x00, 0x45,
  0x5a, 0x78, 0x45, 0x00, 0x00, 0x45, 0x5a, 0x78, 0x45, 0x00, 0x00, 0x46,
  0x5a, 0x78, 0x46, 0x00, 0x00, 0x46, 0x5a, 0x78, 0x46, 0x00, 0x00, 0x47,
  0x5a, 0x78, 0x47, 0x00, 0x00, 0x47, 0x5a, 0x78, 0x47, 0x00, 0x00, 0x48,
  0x5a, 0x78, 0x48, 0x00, 0x00, 0x48, 0x5a, 0x78, 0x48, 0x00, 0x00, 0x49,
  0x5a, 0x78, 0x49, 0x00, 0x00, 0x49, 0x5a, 0x78, 0x49, 0x00, 0x00, 0x4a,
  0x5a, 0x78, 0x4a, 0x00, 0x00, 0x4a, 0x5a, 0x78, 0x4a, 0x00, 0x00, 0x4c,
  0x5a, 0x78, 0x4c, 0x00, 0x00, 0x4c, 0x5a, 0x78, 0x4c, 0x00, 0x00, 0x4d,
  0x5a, 0x78, 0x4d, 0x00, 0x00, 0x48, 0x5a, 0x78, 0x48, 0x00, 0x00, 0x48,
  0x5a, 0x78, 0x48, 0x00, 0x00, 0x48, 0x5a, 0x78, 0x48, 0x00, 0x00, 0x48,
  0x5a, 0x78, 0x48, 0x00, 0x00, 0x48, 0x5a, 0x78, 0x48, 0x00, 0x00, 0x48,
  0x5a, 0x78, 0x48, 0x00, 0x00, 0x48, 0x5a, 0x78, 0x48, 0x00, 0x00, 0x4d,
  0x5a, 0x78, 0x4d, 0x00, 0x00, 0x48, 0x5a, 0x78, 0x48, 0x00, 0x00, 0x48,
  0x5a, 0x78, 0x48, 0x00, 0x00, 0x48, 0x5a, 0x78, 0x48, 0x00, 0x00, 0x48,
  0x5a, 0x78, 0x48, 0x00, 0x00, 0x48, 0x5a, 0x78, 0x48, 0x00, 0x00, 0x48,
  0x5a, 0x78, 0x48, 0x00, 0x00, 0x48, 0x5a, 0x78, 0x48, 0x00, 0x00, 0x4d,
  0x5a, 0x78, 0x4d, 0x00, 0x00, 0x4d, 0x5a, 0x78, 0x4d, 0x00, 0x00, 0x4d,
  0x5a, 0x78, 0x4d, 0x00, 0x00, 0x4d, 0x5a, 0x78, 0x4d, 0x00, 0x00, 0x41,
  0x5a, 0x78, 0x41, 0x00, 0x00, 0x41, 0x5a, 0x78, 0x41, 0x00, 0x00, 0x41,
  0x5a, 0x78, 0x41, 0x00, 0x00, 0x41, 0x5a, 0x78, 0x41, 0x00, 0x00, 0x45,
  0x5a, 0x78, 0x45, 0x00, 0x00, 0x45, 0x5a, 0x78, 0x45, 0x00, 0x00, 0x45,
  0x5a, 0x78, 0x45, 0x00, 0x00, 0x45, 0x5a, 0x78, 0x45, 0x00, 0x00, 0x48,
  0x5a, 0x78, 0x48, 0x00, 0x00, 0x48, 0x5a, 0x78, 0x48, 0x00, 0x00, 0x48,
  0x5a, 0x78, 0x48, 0x00, 0x00, 0x48, 0x5a, 0x78, 0x48, 0x00, 0x00, 0x4b,
  0x5a, 0x78, 0x4b, 0x00, 0x00, 0x48, 0x5a, 0x78, 0x48, 0x00, 0x00, 0x48,
  0x5a, 0x78, 0x48, 0x00, 0x00, 0x48, 0x5a, 0x78, 0x48, 0x00, 0x00, 0x48,
  0x5a, 0x78, 0x48, 0x00, 0x00, 0x48, 0x5a, 0x78, 0x48, 0x00, 0x00, 0x48,
  0x5a, 0x78, 0x48, 0x00, 0x00, 0x48, 0x5a, 0x78, 0x48, 0x00, 0x00, 0x4a,
  0x5a, 0x78, 0x4a, 0x00, 0x00, 0x48, 0x5a, 0x78, 0x48, 0x00, 0x00, 0x48,
  0x5a, 0x78, 0x48, 0x00, 0x00, 0x48, 0x5a, 0x78, 0x48, 0x00, 0x00, 0x48,
  0x5a, 0x78, 0x48, 0x00, 0x00, 0x48, 0x5a, 0x78, 0x48, 0x00, 0x00, 0x48,
  0x5a, 0x78, 0x48, 0x00, 0x00, 0x48, 0x5a, 0x78, 0x48, 0x00, 0x00, 0x4f,
  0x5a, 0x78, 0x4f, 0x00, 0x00, 0x4a, 0x5a, 0x78, 0x4a, 0x00, 0x00, 0x4a,
  0x5a, 0x78, 0x4a, 0x00, 0x00, 0x4a, 0x5a, 0x78, 0x4a, 0x00, 0x00, 0x4a,
  0x5a, 0x78, 0x4a, 0x00, 0x00, 0x4a, 0x5a, 0x78, 0x4a, 0x00, 0x00, 0x4a,
  0x5a, 0x78, 0x4a, 0x00, 0x00, 0x4a, 0x5a, 0x78, 0x4a, 0x00, 0x00, 0x4f,
  0x5a, 0x78, 0x4f, 0x00, 0x00, 0x4a, 0x5a, 0x78, 0x4a, 0x00, 0x00, 0x4a,
  0x5a, 0x78, 0x4a, 0x00, 0x00, 0x4a, 0x5a, 0x78, 0x4a, 0x00, 0x00, 0x4a,
  0x5a, 0x78, 0x4a, 0x00, 0x00, 0x4a, 0x5a, 0x78, 0x4a, 0x00, 0x00, 0x4a,
  0x5a, 0x78, 0x4a, 0x00, 0x00, 0x4a, 0x5a, 0x78, 0x4a, 0x00, 0x00, 0x47,
  0x5a, 0x78, 0x47, 0x00, 0x00, 0x47, 0x5a, 0x78, 0x47, 0x00, 0x00, 0x47,
  0x5a, 0x78, 0x47, 0x00, 0x00, 0x47, 0x5a, 0x78, 0x47, 0x00, 0x00, 0x43,
  0x5a, 0x78, 0x43, 0x00, 0x00, 0x43, 0x5a, 0x78, 0x43, 0x00, 0x00, 0x43,
  0x5a, 0x78, 0x43, 0x00, 0x00, 0x43, 0x5a, 0x78, 0x43, 0x00, 0x00, 0x47,
  0x5a, 0x78, 0x47, 0x00, 0x00, 0x47, 0x5a, 0x78, 0x47, 0x00, 0x00, 0x47,
  0x5a, 0x78, 0x47, 0x00, 0x00, 0x47, 0x5a, 0x78, 0x47, 0x00, 0x00, 0x4a,
  0x5a, 0x78, 0x4a, 0x00, 0x00, 0x4a, 0x5a, 0x78, 0x4a, 0x00, 0x00, 0x4a,
  0x5a, 0x78, 0x4a, 0x00, 0x00, 0x4a, 0x5a, 0x78, 0x4a, 0x00, 0x00, 0x4d,
  0x5a, 0x78, 0x4d, 0x00, 0x00, 0x4a, 0x5a, 0x78, 0x4a, 0x00, 0x00, 0x4a,
  0x5a, 0x78, 0x4a, 0x00, 0x00, 0x4a, 0x5a, 0x78, 0x4a, 0x00, 0x00, 0x4a,
  0x5a, 0x78, 0x4a, 0x00, 0x00, 0x4a, 0x5a, 0x78, 0x4a, 0x00, 0x00, 0x4a,
  0x5a, 0x78, 0x4a, 0x00, 0x00, 0x4a, 0x5a, 0x78, 0x4a, 0x00, 0x00, 0x4c,
  0x5a, 0x78, 0x4c, 0x00, 0x00, 0x4a, 0x5a, 0x78, 0x4a, 0x00, 0x00, 0x4a,
  0x5a, 0x78, 0x4a, 0x00, 0x00, 0x4a, 0x5a, 0x78, 0x4a, 0x00, 0x00, 0x4a,
  0x5a, 0x78, 0x4a, 0x00, 0x00, 0x4a, 0x5a, 0x78, 0x4a, 0x00, 0x00, 0x4a,
  0x5a, 0x78, 0x4a, 0x00, 0x00, 0x4a, 0x5a, 0x78, 0x4a, 0x00, 0x00, 0x51,
  0x5a, 0x78, 0x51, 0x00, 0x00, 0x4c, 0x5a, 0x78, 0x4c, 0x00, 0x00, 0x4c,
  0x5a, 0x78, 0x4c, 0x00, 0x00, 0x4c, 0x5a, 0x78, 0x4c, 0x00, 0x00, 0x4c,
  0x5a, 0x78, 0x4c, 0x00, 0x00, 0x4c, 0x5a, 0x78, 0x4c, 0x00, 0x00, 0x4c,
  0x5a, 0x78, 0x4c, 0x00, 0x00, 0x4c, 0x5a, 0x78, 0x4c, 0x00, 0x00, 0x50,
  0x5a, 0x78, 0x50, 0x00, 0x00, 0x4c, 0x5a, 0x78, 0x4c, 0x00, 0x00, 0x4c,
  0x5a, 0x78, 0x4c, 0x00, 0x00, 0x4c, 0x5a, 0x78, 0x4c, 0x00, 0x00, 0x4c,
  0x5a, 0x78, 0x4c, 0x00, 0x00, 0x4c, 0x5a, 0x78, 0x4c, 0x00, 0x00, 0x4c,
  0x5a, 0x78, 0x4c, 0x00, 0x00, 0x4c, 0x5a, 0x78, 0x4c, 0x00, 0x00, 0x51,
  0x5a, 0x78, 0x51, 0x00, 0x00, 0x4c, 0x5a, 0x78, 0x4c, 0x00, 0x00, 0x4c,
  0x5a, 0x78, 0x4c, 0x00, 0x00, 0x4c, 0x5a, 0x78, 0x4c, 0x00, 0x00, 0x4c,
  0x5a, 0x78, 0x4c, 0x00, 0x00, 0x4c, 0x5a, 0x78, 0x4c, 0x00, 0x00, 0x4c,
  0x5a, 0x78, 0x4c, 0x00, 0x00, 0x4c, 0x5a, 0x78, 0x4c, 0x00, 0x00, 0x4d,
  0x5a, 0x78, 0x4d, 0x00, 0x00, 0x4a, 0x5a, 0x78, 0x4a, 0x00, 0x00, 0x4a,
  0x5a, 0x78, 0x4a, 0x00, 0x00, 0x4a, 0x5a, 0x78, 0x4a, 0x00, 0x00, 0x4a,
  0x5a, 0x78, 0x4a, 0x00, 0x00, 0x4a, 0x5a, 0x78, 0x4a, 0x00, 0x00, 0x4a,
  0x5a, 0x78, 0x4a, 0x00, 0x00, 0x4a, 0x5a, 0x78, 0x4a, 0x00, 0x00, 0x4a,
  0x5a, 0x78, 0x4a, 0x00, 0x00, 0x4a, 0x5a, 0x78, 0x4a, 0x00, 0x00, 0x47,
  0x5a, 0x78, 0x47, 0x00, 0x00, 0x47, 0x5a, 0x78, 0x47, 0x00, 0x00, 0x48,
  0x5a, 0x78, 0x48, 0x00, 0x00, 0x48, 0x5a, 0x78, 0x48, 0x00, 0x00, 0x51,
  0x5a, 0x78, 0x51, 0x00, 0x00, 0x51, 0x5a, 0x78, 0x51, 0x00, 0x00, 0x47,
  0x5a, 0x78, 0x47, 0x00, 0x00, 0x47, 0x5a, 0x78, 0x47, 0x00, 0x00, 0x51,
  0x5a, 0x78, 0x51, 0x00, 0x00, 0x51, 0x5a, 0x78, 0x51, 0x00, 0x00, 0x47,
  0x5a, 0x78, 0x47, 0x00, 0x00, 0x47, 0x5a, 0x78, 0x47, 0x00, 0x00, 0x50,
  0x5a, 0x78, 0x50, 0x00, 0x00, 0x50, 0x5a, 0x78, 0x50, 0x00, 0x00, 0x45,
  0x5a, 0x78, 0x45, 0x00, 0x00, 0x45, 0x5a, 0x78, 0x45, 0x00, 0x00, 0x54,
  0x5a, 0x78, 0x54, 0x00, 0x00, 0x54, 0x5a, 0x78, 0x54, 0x00, 0x00, 0x51,
  0x5a, 0x78, 0x51, 0x00, 0x00, 0x51, 0x5a, 0x78, 0x51, 0x00, 0x00, 0x4f,
  0x5a, 0x78, 0x4f, 0x00, 0x00, 0x4f, 0x5a, 0x78, 0x4f, 0x00, 0x00, 0x4d,
  0x5a, 0x78, 0x4d, 0x00, 0x00, 0x4d, 0x5a, 0x78, 0x4d, 0x00, 0x00, 0x4c,
  0x5a, 0x78, 0x4c, 0x00, 0x00, 0x4c, 0x5a, 0x78, 0x4c, 0x00, 0x00, 0x4b,
  0x5a, 0x78, 0x4b, 0x00, 0x00, 0x4b, 0x5a, 0x78, 0x4b, 0x00, 0x00, 0x4e,
  0x5a, 0x78, 0x4e, 0x00, 0x00, 0x4e, 0x5a, 0x78, 0x4e, 0x00, 0x00, 0x4c,
  0x5a, 0x78, 0x4c, 0x00, 0x00, 0x4c, 0x5a, 0x78, 0x4c, 0x00, 0x00, 0x4a,
  0x5a, 0x78, 0x4a, 0x00, 0x00, 0x4a, 0x5a, 0x78, 0x4a, 0x00, 0x00, 0x53,
  0x5a, 0x78, 0x53, 0x00, 0x00, 0x53, 0x5a, 0x78, 0x53, 0x00, 0x00, 0x51,
  0x5a, 0x78, 0x51, 0x00, 0x00, 0x51, 0x5a, 0x78, 0x51, 0x00, 0x00, 0x50,
  0x5a, 0x78, 0x50, 0x00, 0x00, 0x50, 0x5a, 0x78, 0x50, 0x00, 0x00, 0x4d,
  0x5a, 0x78, 0x4d, 0x00, 0x00, 0x4d, 0x5a, 0x78, 0x4d, 0x00, 0x00, 0x4c,
  0x5a, 0x78, 0x4c, 0x00, 0x00, 0x4c, 0x5a, 0x78, 0x4c, 0x00, 0x00, 0x4a,
  0x5a, 0x78, 0x4a, 0x00, 0x00, 0x4a, 0x5a, 0x78, 0x4a, 0x00, 0x00, 0x48,
  0x5a, 0x78, 0x48, 0x00, 0x00, 0x48, 0x5a, 0x78, 0x48, 0x00, 0x00, 0x51,
  0x5a, 0x78, 0x51, 0x00, 0x00, 0x51, 0x5a, 0x78, 0x51, 0x00, 0x00, 0x4d,
  0x5a, 0x78, 0x4d, 0x00, 0x00, 0x4d, 0x5a, 0x78, 0x4d, 0x00, 0x00, 0x4a,
  0x5a, 0x78, 0x4a, 0x00, 0x00, 0x4a, 0x5a, 0x78, 0x4a, 0x00, 0x00, 0x48,
  0x5a, 0x78, 0x48, 0x00, 0x00, 0x48, 0x5a, 0x78, 0x48, 0x00, 0x00, 0x51,
  0x5a, 0x78, 0x51, 0x00, 0x00, 0x51, 0x5a, 0x78, 0x51, 0x00, 0x00, 0x47,
  0x5a, 0x78, 0x47, 0x00, 0x00, 0x47, 0x5a, 0x78, 0x47, 0x00, 0x00, 0x50,
  0x5a, 0x78, 0x50, 0x00, 0x00, 0x50, 0x5a, 0x78, 0x50, 0x00, 0x00, 0x51,
  0x5a, 0x78, 0x51, 0x00, 0x00, 0x48, 0x5a, 0x78, 0x48, 0x00, 0x00, 0x48,
  0x5a, 0x78, 0x48, 0x00, 0x00, 0x48, 0x5a, 0x78, 0x48, 0x00, 0x00, 0x48,
  0x5a, 0x78, 0x48, 0x00, 0x00, 0x48, 0x5a, 0x78, 0x48, 0x00, 0x00, 0x48,
  0x5a, 0x78, 0x48, 0x00, 0x00, 0x48, 0x5a, 0x78, 0x48, 0x00, 0x00, 0x51,
  0x5a, 0x78, 0x51, 0x00, 0x00, 0x48, 0x5a, 0x78, 0x48, 0x00, 0x00, 0x48,
  0x5a, 0x78, 0x48, 0x00, 0x00, 0x48, 0x5a, 0x78, 0x48, 0x00, 0x00, 0x48,
  0x5a, 0x78, 0x48, 0x00, 0x00, 0x48, 0x5a, 0x78, 0x48, 0x00, 0x00, 0x48,
  0x5a, 0x78, 0x48, 0x00, 0x00, 0x48, 0x5a, 0x78, 0x48, 0x00, 0x00, 0x53,
  0x5a, 0x81, 0x70, 0x53, 0x00, 0x00, 0x47, 0x5a, 0x83, 0x60, 0x47, 0x00,
  0x00, 0x47, 0x5a, 0x83, 0x60, 0x47, 0x00, 0x00, 0x47, 0x5a, 0x83, 0x60,
  0x47, 0x00, 0x00, 0x47, 0x5a, 0x81, 0x70, 0x47, 0x00, 0x00, 0x53, 0x5a,
  0x78, 0x53, 0x00, 0x00, 0x47, 0x5a, 0x78, 0x47, 0x00, 0x00, 0x47, 0x5a,
  0x78, 0x47, 0x00, 0x00, 0x47, 0x5a, 0x78, 0x47, 0x00, 0x00, 0x47, 0x5a,
  0x78, 0x47, 0x00, 0x00, 0x47, 0x5a, 0x78, 0x47, 0x00, 0x00, 0x47, 0x5a,
  0x78, 0x47, 0x00, 0x00, 0x47, 0x5a, 0x78, 0x47, 0x00, 0x00, 0x53, 0x5a,
  0x78, 0x53, 0x00, 0x00, 0x47, 0x5a, 0x78, 0x47, 0x00, 0x00, 0x47, 0x5a,
  0x78, 0x47, 0x00, 0x00, 0x47, 0x5a, 0x78, 0x47, 0x00, 0x00, 0x47, 0x5a,
  0x78, 0x47, 0x00, 0x00, 0x47, 0x5a, 0x78, 0x47, 0x00, 0x00, 0x47, 0x5a,
  0x78, 0x47, 0x00, 0x00, 0x47, 0x5a, 0x78, 0x47, 0x00, 0x00, 0x54, 0x5a,
  0x81, 0x70, 0x54, 0x00, 0x00, 0x48, 0x5a, 0x83, 0x60, 0x48, 0x00, 0x00,
  0x48, 0x5a, 0x83, 0x60, 0x48, 0x00, 0x00, 0x45, 0x5a, 0x81, 0x70, 0x45,
  0x00, 0x00, 0x45, 0x5a, 0x81, 0x70, 0x45, 0x00, 0x00, 0x45, 0x5a, 0x81,
  0x70, 0x45, 0x00, 0x00, 0x3e, 0x5a, 0x00, 0x45, 0x5a, 0x00, 0x4d, 0x5a,
  0x83, 0x60, 0x4d, 0x00, 0x00, 0x45, 0x00, 0x00, 0x3e, 0x00, 0x00, 0x4c,
  0x5a, 0x78, 0x4c, 0x00, 0x00, 0x45, 0x5a, 0x78, 0x45, 0x00, 0x00, 0x48,
  0x5a, 0x78, 0x48, 0x00, 0x00, 0x4c, 0x5a, 0x78, 0x4c, 0x00, 0x00, 0x51,
  0x5a, 0x81, 0x70, 0x51, 0x00, 0x00, 0x4c, 0x5a, 0x83, 0x60, 0x4c, 0x00,
  0x00, 0x4c, 0x5a, 0x85, 0x50, 0x4c, 0x00, 0x00, 0x51, 0x5a, 0x78, 0x51,
  0x00, 0x00, 0x4c, 0x5a, 0x78, 0x4c, 0x00, 0x00, 0x51, 0x5a, 0x78, 0x51,
  0x00, 0x00, 0x54, 0x5a, 0x78, 0x54, 0x00, 0x00, 0x58, 0x5a, 0x81, 0x70,
  0x58, 0x00, 0x00, 0x58, 0x5a, 0x83, 0x60, 0x58, 0x00, 0x00, 0x58, 0x5a,
  0x81, 0x70, 0x58, 0x00, 0x00, 0x56, 0x5a, 0x78, 0x56, 0x00, 0x00, 0x56,
  0x5a, 0x78, 0x56, 0x00, 0x00, 0x4a, 0x5a, 0x78, 0x4a, 0x00, 0x00, 0x4a,
  0x5a, 0x78, 0x4a, 0x00, 0x00, 0x48, 0x5a, 0x78, 0x48, 0x00, 0x00, 0x48,
  0x5a, 0x78, 0x48, 0x00, 0x00, 0x54, 0x5a, 0x78, 0x54, 0x00, 0x00, 0x54,
  0x5a, 0x78, 0x54, 0x00, 0x00, 0x52, 0x5a, 0x78, 0x52, 0x00, 0x00, 0x52,
  0x5a, 0x78, 0x52, 0x00, 0x00, 0x46, 0x5a, 0x78, 0x46, 0x00, 0x00, 0x46,
  0x5a, 0x78, 0x46, 0x00, 0x00, 0x45, 0x5a, 0x78, 0x45, 0x00, 0x00, 0x45,
  0x5a, 0x78, 0x45, 0x00, 0x00, 0x51, 0x5a, 0x78, 0x51, 0x00, 0x00, 0x51,
  0x5a, 0x78, 0x51, 0x00, 0x00, 0x51, 0x5a, 0x82, 0x68, 0x51, 0x00, 0x00,
  0x50, 0x5a, 0x3c, 0x50, 0x00, 0x00, 0x51, 0x5a, 0x3c, 0x51, 0x00, 0x00,
  0x50, 0x5a, 0x81, 0x70, 0x50, 0x00, 0x00, 0x4c, 0x5a, 0x83, 0x60, 0x4c,
  0x00, 0x00, 0x40, 0x5a, 0x83, 0x60, 0x40, 0x00, 0x00, 0x4c, 0x5a, 0x81,
  0x70, 0x4c, 0x00, 0x00, 0x4d, 0x5a, 0x78, 0x4d, 0x00, 0x00, 0x4d, 0x5a,
  0x78, 0x4d, 0x00, 0x00, 0x50, 0x5a, 0x78, 0x50, 0x00, 0x00, 0x50, 0x5a,
  0x78, 0x50, 0x00, 0x00, 0x4d, 0x5a, 0x78, 0x4d, 0x00, 0x00, 0x4d, 0x5a,
  0x78, 0x4d, 0x00, 0x00, 0x4a, 0x5a, 0x78, 0x4a, 0x00, 0x00, 0x4a, 0x5a,
  0x78, 0x4a, 0x00, 0x00, 0x47, 0x5a, 0x78, 0x47, 0x00, 0x00, 0x47, 0x5a,
  0x78, 0x47, 0x00, 0x00, 0x43, 0x5a, 0x78, 0x43, 0x00, 0x00, 0x43, 0x5a,
  0x78, 0x43, 0x00, 0x00, 0x41, 0x5a, 0x78, 0x41, 0x00, 0x00, 0x41, 0x5a,
  0x78, 0x41, 0x00, 0x00, 0x3e, 0x5a, 0x78, 0x3e, 0x00, 0x00, 0x3e, 0x5a,
  0x78, 0x3e, 0x00, 0x00, 0x37, 0x5a, 0x00, 0x3f, 0x5a, 0x00, 0x48, 0x5a,
  0x78, 0x48, 0x00, 0x00, 0x3f, 0x00, 0x00, 0x37, 0x00, 0x00, 0x43, 0x5a,
  0x78, 0x43, 0x00, 0x00, 0x43, 0x5a, 0x78, 0x43, 0x00, 0x00, 0x43, 0x5a,
  0x78, 0x43, 0x00, 0x00, 0x43, 0x5a, 0x78, 0x43, 0x00, 0x00, 0x43, 0x5a,
  0x78, 0x43, 0x00, 0x00, 0x43, 0x5a, 0x78, 0x43, 0x00, 0x00, 0x43, 0x5a,
  0x78, 0x43, 0x00, 0x00, 0x48, 0x5a, 0x78, 0x48, 0x00, 0x00, 0x43, 0x5a,
  0x78, 0x43, 0x00, 0x00, 0x43, 0x5a, 0x78, 0x43, 0x00, 0x00, 0x43, 0x5a,
  0x78, 0x43, 0x00, 0x00, 0x43, 0x5a, 0x78, 0x43, 0x00, 0x00, 0x43, 0x5a,
  0x78, 0x43, 0x00, 0x00, 0x43, 0x5a, 0x78, 0x43, 0x00, 0x00, 0x43, 0x5a,
  0x78, 0x43, 0x00, 0x00, 0x4b, 0x5a, 0x78, 0x4b, 0x00, 0x00, 0x48, 0x5a,
  0x78, 0x48, 0x00, 0x00, 0x48, 0x5a, 0x78, 0x48, 0x00, 0x00, 0x48, 0x5a,
  0x78, 0x48, 0x00, 0x00, 0x48, 0x5a, 0x78, 0x48, 0x00, 0x00, 0x48, 0x5a,
  0x78, 0x48, 0x00, 0x00, 0x48, 0x5a, 0x78, 0x48, 0x00, 0x00, 0x48, 0x5a,
  0x78, 0x48, 0x00, 0x00, 0x43, 0x5a, 0x78, 0x43, 0x00, 0x00, 0x48, 0x5a,
  0x78, 0x48, 0x00, 0x00, 0x48, 0x5a, 0x78, 0x48, 0x00, 0x00, 0x48, 0x5a,
  0x78, 0x48, 0x00, 0x00, 0x48, 0x5a, 0x78, 0x48, 0x00, 0x00, 0x48, 0x5a,
  0x78, 0x48, 0x00, 0x00, 0x48, 0x5a, 0x78, 0x48, 0x00, 0x00, 0x48, 0x5a,
  0x78, 0x48, 0x00, 0x00, 0x48, 0x5a, 0x81, 0x70, 0x48, 0x00, 0x00, 0x48,
  0x5a, 0x81, 0x70, 0x48, 0x00, 0x00, 0x49, 0x5a, 0x81, 0x70, 0x49, 0x00,
  0x00, 0x49, 0x5a, 0x83, 0x60, 0x49, 0x00, 0x00, 0x49, 0x5a, 0x83, 0x60,
  0x49, 0x00, 0x00, 0x49, 0x5a, 0x81, 0x70, 0x49, 0x00, 0x00, 0x49, 0x5a,
  0x78, 0x49, 0x00, 0x00, 0x43, 0x5a, 0x78, 0x43, 0x00, 0x00, 0x43, 0x5a,
  0x78, 0x43, 0x00, 0x00, 0x43, 0x5a, 0x78, 0x43, 0x00, 0x00, 0x43, 0x5a,
  0x78, 0x43, 0x00, 0x00, 0x43, 0x5a, 0x78, 0x43, 0x00, 0x00, 0x43, 0x5a,
  0x78, 0x43, 0x00, 0x00, 0x43, 0x5a, 0x78, 0x43, 0x00, 0x00, 0x49, 0x5a,
  0x78, 0x49, 0x00, 0x00, 0x43, 0x5a, 0x78, 0x43, 0x00, 0x00, 0x43, 0x5a,
  0x78, 0x43, 0x00, 0x00, 0x43, 0x5a, 0x78, 0x43, 0x00, 0x00, 0x43, 0x5a,
  0x78, 0x43, 0x00, 0x00, 0x43, 0x5a, 0x78, 0x43, 0x00, 0x00, 0x43, 0x5a,
  0x78, 0x43, 0x00, 0x00, 0x43, 0x5a, 0x78, 0x43, 0x00, 0x00, 0x4c, 0x5a,
  0x78, 0x4c, 0x00, 0x00, 0x49, 0x5a, 0x78, 0x49, 0x00, 0x00, 0x49, 0x5a,
  0x78, 0x49, 0x00, 0x00, 0x49, 0x5a, 0x78, 0x49, 0x00, 0x00, 0x49, 0x5a,
  0x78, 0x49, 0x00, 0x00, 0x49, 0x5a, 0x78, 0x49, 0x00, 0x00, 0x49, 0x5a,
  0x78, 0x49, 0x00, 0x00, 0x49, 0x5a, 0x78, 0x49, 0x00, 0x00, 0x4c, 0x5a,
  0x78, 0x4c, 0x00, 0x00, 0x49, 0x5a, 0x78, 0x49, 0x00, 0x00, 0x49, 0x5a,
  0x78, 0x49, 0x00, 0x00, 0x49, 0x5a, 0x78, 0x49, 0x00, 0x00, 0x49, 0x5a,
  0x78, 0x49, 0x00, 0x00, 0x49, 0x5a, 0x78, 0x49, 0x00, 0x00, 0x49, 0x5a,
  0x78, 0x49, 0x00, 0x00, 0x49, 0x5a, 0x78, 0x49, 0x00, 0x00, 0x49, 0x5a,
  0x81, 0x70, 0x49, 0x00, 0x00, 0x49, 0x5a, 0x81, 0x70, 0x49, 0x00, 0x00,
  0x4a, 0x5a, 0x81, 0x70, 0x4a, 0x00, 0x00, 0x4a, 0x5a, 0x83, 0x60, 0x4a,
  0x00, 0x00, 0x4a, 0x5a, 0x83, 0x60, 0x4a, 0x00, 0x00, 0x4a, 0x5a, 0x81,
  0x70, 0x4a, 0x00, 0x00, 0x4b, 0x5a, 0x78, 0x4b, 0x00, 0x00, 0x46, 0x5a,
  0x78, 0x46, 0x00, 0x00, 0x46, 0x5a, 0x78, 0x46, 0x00, 0x00, 0x46, 0x5a,
  0x78, 0x46, 0x00, 0x00, 0x46, 0x5a, 0x78, 0x46, 0x00, 0x00, 0x46, 0x5a,
  0x78, 0x46, 0x00, 0x00, 0x46, 0x5a, 0x78, 0x46, 0x00, 0x00, 0x46, 0x5a,
  0x78, 0x46, 0x00, 0x00, 0x4e, 0x5a, 0x78, 0x4e, 0x00, 0x00, 0x48, 0x5a,
  0x78, 0x48, 0x00, 0x00, 0x48, 0x5a, 0x78, 0x48, 0x00, 0x00, 0x48, 0x5a,
  0x78, 0x48, 0x00, 0x00, 0x48, 0x5a, 0x78, 0x48, 0x00, 0x00, 0x48, 0x5a,
  0x78, 0x48, 0x00, 0x00, 0x48, 0x5a, 0x78, 0x48, 0x00, 0x00, 0x48, 0x5a,
  0x78, 0x48, 0x00, 0x00, 0x4f, 0x5a, 0x78, 0x4f, 0x00, 0x00, 0x4a, 0x5a,
  0x78, 0x4a, 0x00, 0x00, 0x4a, 0x5a, 0x78, 0x4a, 0x00, 0x00, 0x4a, 0x5a,
  0x78, 0x4a, 0x00, 0x00, 0x4a, 0x5a, 0x78, 0x4a, 0x00, 0x00, 0x4a, 0x5a,
  0x78, 0x4a, 0x00, 0x00, 0x4a, 0x5a, 0x78, 0x4a, 0x00, 0x00, 0x4a, 0x5a,
  0x78, 0x4a, 0x00, 0x00, 0x4d, 0x5a, 0x78, 0x4d, 0x00, 0x00, 0x48, 0x5a,
  0x78, 0x48, 0x00, 0x00, 0x48, 0x5a, 0x78, 0x48, 0x00, 0x00, 0x48, 0x5a,
  0x78, 0x48, 0x00, 0x00, 0x48, 0x5a, 0x78, 0x48, 0x00, 0x00, 0x48, 0x5a,
  0x78, 0x48, 0x00, 0x00, 0x48, 0x5a, 0x78, 0x48, 0x00, 0x00, 0x48, 0x5a,
  0x78, 0x48, 0x00, 0x00, 0x4b, 0x5a, 0x78, 0x4b, 0x00, 0x00, 0x46, 0x5a,
  0x78, 0x46, 0x00, 0x00, 0x46, 0x5a, 0x78, 0x46, 0x00, 0x00, 0x46, 0x5a,
  0x78, 0x46, 0x00, 0x00, 0x46, 0x5a, 0x78, 0x46, 0x00, 0x00, 0x46, 0x5a,
  0x78, 0x46, 0x00, 0x00, 0x46, 0x5a, 0x78, 0x46, 0x00, 0x00, 0x46, 0x5a,
  0x78, 0x46, 0x00, 0x00, 0x4a, 0x5a, 0x78, 0x4a, 0x00, 0x00, 0x47, 0x5a,
  0x78, 0x47, 0x00, 0x00, 0x47, 0x5a, 0x78, 0x47, 0x00, 0x00, 0x47, 0x5a,
  0x78, 0x47, 0x00, 0x00, 0x47, 0x5a, 0x78, 0x47, 0x00, 0x00, 0x47, 0x5a,
  0x78, 0x47, 0x00, 0x00, 0x47, 0x5a, 0x78, 0x47, 0x00, 0x00, 0x47, 0x5a,
  0x78, 0x47, 0x00, 0x00, 0x4a, 0x5a, 0x78, 0x4a, 0x00, 0x00, 0x45, 0x5a,
  0x78, 0x45, 0x00, 0x00, 0x45, 0x5a, 0x78, 0x45, 0x00, 0x00, 0x45, 0x5a,
  0x78, 0x45, 0x00, 0x00, 0x49, 0x5a, 0x78, 0x49, 0x00, 0x00, 0x45, 0x5a,
  0x78, 0x45, 0x00, 0x00, 0x45, 0x5a, 0x78, 0x45, 0x00, 0x00, 0x45, 0x5a,
  0x78, 0x45, 0x00, 0x00, 0x39, 0x5a, 0x85, 0x50, 0x39, 0x00, 0x00, 0x39,
  0x5a, 0x81, 0x70, 0x39, 0x00, 0x00, 0x38, 0x5a, 0x78, 0x38, 0x00, 0x00,
  0x38, 0x5a, 0x78, 0x38, 0x00, 0x00, 0x39, 0x5a, 0x78, 0x39, 0x00, 0x00,
  0x39, 0x5a, 0x78, 0x39, 0x00, 0x00, 0x38, 0x5a, 0x78, 0x38, 0x00, 0x00,
  0x38, 0x5a, 0x78, 0x38, 0x00, 0x00, 0x39, 0x5a, 0x78, 0x39, 0x00, 0x00,
  0x39, 0x5a, 0x78, 0x39, 0x00, 0x00, 0x38, 0x5a, 0x78, 0x38, 0x00, 0x00,
  0x38, 0x5a, 0x78, 0x38, 0x00, 0x00, 0x39, 0x5a, 0x78, 0x39, 0x00, 0x00,
  0x39, 0x5a, 0x78, 0x39, 0x00, 0x00, 0x38, 0x5a, 0x78, 0x38, 0x00, 0x00,
  0x38, 0x5a, 0x78, 0x38, 0x00, 0x00, 0x39, 0x5a, 0x78, 0x39, 0x00, 0x00,
  0x39, 0x5a, 0x78, 0x39, 0x00, 0x00, 0x3a, 0x5a, 0x83, 0x60, 0x3a, 0x00,
  0x00, 0x39, 0x5a, 0x83, 0x60, 0x39, 0x00, 0x00, 0x40, 0x5a, 0x78, 0x40,
  0x00, 0x00, 0x40, 0x5a, 0x78, 0x40, 0x00, 0x00, 0x45, 0x5a, 0x78, 0x45,
  0x00, 0x00, 0x45, 0x5a, 0x78, 0x45, 0x00, 0x00, 0x49, 0x5a, 0x78, 0x49,
  0x00, 0x00, 0x49, 0x5a, 0x78, 0x49, 0x00, 0x00, 0x4c, 0x5a, 0x78, 0x4c,
  0x00, 0x00, 0x4c, 0x5a, 0x78, 0x4c, 0x00, 0x00, 0x4d, 0x5a, 0x78, 0x4d,
  0x00, 0x00, 0x4d, 0x5a, 0x78, 0x4d, 0x00, 0x00, 0x44, 0x5a, 0x78, 0x44,
  0x00, 0x00, 0x44, 0x5a, 0x78, 0x44, 0x00, 0x00, 0x49, 0x5a, 0x78, 0x49,
  0x00, 0x00, 0x49, 0x5a, 0x78, 0x49, 0x00, 0x00, 0x4c, 0x5a, 0x78, 0x4c,
  0x00, 0x00, 0x4c, 0x5a, 0x78, 0x4c, 0x00, 0x00, 0x40, 0x5a, 0x78, 0x40,
  0x00, 0x00, 0x40, 0x5a, 0x78, 0x40, 0x00, 0x00, 0x44, 0x5a, 0x78, 0x44,
  0x00, 0x00, 0x44, 0x5a, 0x78, 0x44, 0x00, 0x00, 0x49, 0x5a, 0x78, 0x49,
  0x00, 0x00, 0x49, 0x5a, 0x78, 0x49, 0x00, 0x00, 0x4c, 0x5a, 0x78, 0x4c,
  0x00, 0x00, 0x4c, 0x5a, 0x78, 0x4c, 0x00, 0x00, 0x4d, 0x5a, 0x78, 0x4d,
  0x00, 0x00, 0x4d, 0x5a, 0x78, 0x4d, 0x00, 0x00, 0x44, 0x5a, 0x78, 0x44,
  0x00, 0x00, 0x44, 0x5a, 0x78, 0x44, 0x00, 0x00, 0x45, 0x5a, 0x78, 0x45,
  0x00, 0x00, 0x45, 0x5a, 0x78, 0x45, 0x00, 0x00, 0x4c, 0x5a, 0x78, 0x4c,
  0x00, 0x00, 0x4c, 0x5a, 0x78, 0x4c, 0x00, 0x00, 0x39, 0x5a, 0x85, 0x50,
  0x39, 0x00, 0x00, 0x39, 0x5a, 0x81, 0x70, 0x39, 0x00, 0x00, 0x38, 0x5a,
  0x78, 0x38, 0x00, 0x00, 0x38, 0x5a, 0x78, 0x38, 0x00, 0x00, 0x39, 0x5a,
  0x78, 0x39, 0x00, 0x00, 0x39, 0x5a, 0x78, 0x39, 0x00, 0x00, 0x38, 0x5a,
  0x78, 0x38, 0x00, 0x00, 0x38, 0x5a, 0x78, 0x38, 0x00, 0x00, 0x39, 0x5a,
  0x78, 0x39, 0x00, 0x00, 0x39, 0x5a, 0x78, 0x39, 0x00, 0x00, 0x38, 0x5a,
  0x78, 0x38, 0x00, 0x00, 0x38, 0x5a, 0x78, 0x38, 0x00, 0x00, 0x39, 0x5a,
  0x78, 0x39, 0x00, 0x00, 0x39, 0x5a, 0x78, 0x39, 0x00, 0x00, 0x38, 0x5a,
  0x78, 0x38, 0x00, 0x00, 0x38, 0x5a, 0x78, 0x38, 0x00, 0x00, 0x39, 0x5a,
  0x78, 0x39, 0x00, 0x00, 0x39, 0x5a, 0x78, 0x39, 0x00, 0x00, 0x3a, 0x5a,
  0x83, 0x60, 0x3a, 0x00, 0x00, 0x39, 0x5a, 0x83, 0x60, 0x39, 0x00, 0x00,
  0x45, 0x5a, 0x78, 0x45, 0x00, 0x00, 0x45, 0x5a, 0x78, 0x45, 0x00, 0x00,
  0x49, 0x5a, 0x78, 0x49, 0x00, 0x00, 0x49, 0x5a, 0x78, 0x49, 0x00, 0x00,
  0x4c, 0x5a, 0x78, 0x4c, 0x00, 0x00, 0x4c, 0x5a, 0x78, 0x4c, 0x00, 0x00,
  0x51, 0x5a, 0x78, 0x51, 0x00, 0x00, 0x51, 0x5a, 0x78, 0x51, 0x00, 0x00,
  0x50, 0x5a, 0x78, 0x50, 0x00, 0x00, 0x50, 0x5a, 0x78, 0x50, 0x00, 0x00,
  0x47, 0x5a, 0x78, 0x47, 0x00, 0x00, 0x47, 0x5a, 0x78, 0x47, 0x00, 0x00,
  0x45, 0x5a, 0x78, 0x45, 0x00, 0x00, 0x45, 0x5a, 0x78, 0x45, 0x00, 0x00,
  0x51, 0x5a, 0x78, 0x51, 0x00, 0x00, 0x51, 0x5a, 0x78, 0x51, 0x00, 0x00,
  0x45, 0x5a, 0x78, 0x45, 0x00, 0x00, 0x45, 0x5a, 0x78, 0x45, 0x00, 0x00,
  0x49, 0x5a, 0x78, 0x49, 0x00, 0x00, 0x49, 0x5a, 0x78, 0x49, 0x00, 0x00,
  0x4c, 0x5a, 0x78, 0x4c, 0x00, 0x00, 0x4c, 0x5a, 0x78, 0x4c, 0x00, 0x00,
  0x51, 0x5a, 0x78, 0x51, 0x00, 0x00, 0x51, 0x5a, 0x78, 0x51, 0x00, 0x00,
  0x50, 0x5a, 0x78, 0x50, 0x00, 0x00, 0x50, 0x5a, 0x78, 0x50, 0x00, 0x00,
  0x47, 0x5a, 0x78, 0x47, 0x00, 0x00, 0x47, 0x5a, 0x78, 0x47, 0x00, 0x00,
  0x45, 0x5a, 0x78, 0x45, 0x00, 0x00, 0x45, 0x5a, 0x78, 0x45, 0x00, 0x00,
  0x51, 0x5a, 0x78, 0x51, 0x00, 0x00, 0x51, 0x5a, 0x78, 0x51, 0x00, 0x00,
  0x39, 0x5a, 0x85, 0x50, 0x39, 0x00, 0x00, 0x39, 0x5a, 0x81, 0x70, 0x39,
  0x00, 0x00, 0x38, 0x5a, 0x78, 0x38, 0x00, 0x00, 0x38, 0x5a, 0x78, 0x38,
  0x00, 0x00, 0x39, 0x5a, 0x78, 0x39, 0x00, 0x00, 0x39, 0x5a, 0x78, 0x39,
  0x00, 0x00, 0x38, 0x5a, 0x78, 0x38, 0x00, 0x00, 0x38, 0x5a, 0x78, 0x38,
  0x00, 0x00, 0x39, 0x5a, 0x78, 0x39, 0x00, 0x00, 0x39, 0x5a, 0x78, 0x39,
  0x00, 0x00, 0x38, 0x5a, 0x78, 0x38, 0x00, 0x00, 0x38, 0x5a, 0x78, 0x38,
  0x00, 0x00, 0x39, 0x5a, 0x78, 0x39, 0x00, 0x00, 0x39, 0x5a, 0x78, 0x39,
  0x00, 0x00, 0x38, 0x5a, 0x78, 0x38, 0x00, 0x00, 0x38, 0x5a, 0x78, 0x38,
  0x00, 0x00, 0x39, 0x5a, 0x78, 0x39, 0x00, 0x00, 0x39, 0x5a, 0x78, 0x39,
  0x00, 0x00, 0x3a, 0x5a, 0x81, 0x70, 0x3a, 0x00, 0x00, 0x43, 0x5a, 0x78,
  0x43, 0x00, 0x00, 0x43, 0x5a, 0x78, 0x43, 0x00, 0x00, 0x46, 0x5a, 0x78,
  0x46, 0x00, 0x00, 0x46, 0x5a, 0x78, 0x46, 0x00, 0x00, 0x4a, 0x5a, 0x78,
  0x4a, 0x00, 0x00, 0x4a, 0x5a, 0x78, 0x4a, 0x00, 0x00, 0x4f, 0x5a, 0x81,
  0x70, 0x4f, 0x00, 0x00, 0x4f, 0x5a, 0x83, 0x60, 0x4f, 0x00, 0x00, 0x4f,
  0x5a, 0x81, 0x70, 0x4f, 0x00, 0x00, 0x4e, 0x5a, 0x78, 0x4e, 0x00, 0x00,
  0x4e, 0x5a, 0x78, 0x4e, 0x00, 0x00, 0x4f, 0x5a, 0x78, 0x4f, 0x00, 0x00,
  0x4f, 0x5a, 0x78, 0x4f, 0x00, 0x00, 0x4e, 0x5a, 0x78, 0x4e, 0x00, 0x00,
  0x4e, 0x5a, 0x78, 0x4e, 0x00, 0x00, 0x4f, 0x5a, 0x78, 0x4f, 0x00, 0x00,
  0x4f, 0x5a, 0x78, 0x4f, 0x00, 0x00, 0x4e, 0x5a, 0x78, 0x4e, 0x00, 0x00,
  0x4e, 0x5a, 0x78, 0x4e, 0x00, 0x00, 0x4f, 0x5a, 0x78, 0x4f, 0x00, 0x00,
  0x4f, 0x5a, 0x78, 0x4f, 0x00, 0x00, 0x4e, 0x5a, 0x78, 0x4e, 0x00, 0x00,
  0x4e, 0x5a, 0x78, 0x4e, 0x00, 0x00, 0x4f, 0x5a, 0x78, 0x4f, 0x00, 0x00,
  0x4f, 0x5a, 0x78, 0x4f, 0x00, 0x00, 0x4f, 0x5a, 0x78, 0x4f, 0x00, 0x00,
  0x4c, 0x5a, 0x78, 0x4c, 0x00, 0x00, 0x4f, 0x5a, 0x78, 0x4f, 0x00, 0x00,
  0x4c, 0x5a, 0x78, 0x4c, 0x00, 0x00, 0x49, 0x5a, 0x78, 0x49, 0x00, 0x00,
  0x45, 0x5a, 0x78, 0x45, 0x00, 0x00, 0x49, 0x5a, 0x78, 0x49, 0x00, 0x00,
  0x4c, 0x5a, 0x78, 0x4c, 0x00, 0x00, 0x51, 0x5a, 0x81, 0x70, 0x51, 0x00,
  0x00, 0x51, 0x5a, 0x83, 0x60, 0x51, 0x00, 0x00, 0x51, 0x5a, 0x83, 0x60,
  0x51, 0x00, 0x00, 0x51, 0x5a, 0x83, 0x60, 0x51, 0x00, 0x00, 0x51, 0x5a,
  0x83, 0x60, 0x51, 0x00, 0x00, 0x51, 0x5a, 0x83, 0x60, 0x51, 0x00, 0x00,
  0x51, 0x5a, 0x85, 0x50, 0x51, 0x00, 0x00, 0x49, 0x5a, 0x78, 0x49, 0x00,
  0x00, 0x45, 0x5a, 0x78, 0x45, 0x00, 0x00, 0x49, 0x5a, 0x78, 0x49, 0x00,
  0x00, 0x4c, 0x5a, 0x78, 0x4c, 0x00, 0x00, 0x51, 0x5a, 0x81, 0x70, 0x51,
  0x00, 0x00, 0x51, 0x5a, 0x83, 0x60, 0x51, 0x00, 0x00, 0x51, 0x5a, 0x81,
  0x70, 0x51, 0x00, 0x81, 0x70, 0x51, 0x5a, 0x83, 0x60, 0x51, 0x00, 0x00,
  0x51, 0x5a, 0x83, 0x60, 0x51, 0x00, 0x00, 0x51, 0x5a, 0x83, 0x60, 0x51,
  0x00, 0x00, 0x51, 0x5a, 0x83, 0x60, 0x51, 0x00, 0x00, 0x51, 0x5a, 0x83,
  0x60, 0x51, 0x00, 0x00, 0x51, 0x5a, 0x78, 0x51, 0x00, 0x00, 0x51, 0x5a,
  0x78, 0x51, 0x00, 0x00, 0x4d, 0x5a, 0x78, 0x4d, 0x00, 0x00, 0x4d, 0x5a,
  0x78, 0x4d, 0x00, 0x00, 0x4a, 0x5a, 0x78, 0x4a, 0x00, 0x00, 0x4a, 0x5a,
  0x78, 0x4a, 0x00, 0x00, 0x4d, 0x5a, 0x78, 0x4d, 0x00, 0x00, 0x4d, 0x5a,
  0x78, 0x4d, 0x00, 0x00, 0x51, 0x5a, 0x78, 0x51, 0x00, 0x00, 0x51, 0x5a,
  0x78, 0x51, 0x00, 0x00, 0x56, 0x5a, 0x78, 0x56, 0x00, 0x00, 0x56, 0x5a,
  0x78, 0x56, 0x00, 0x00, 0x51, 0x5a, 0x78, 0x51, 0x00, 0x00, 0x51, 0x5a,
  0x78, 0x51, 0x00, 0x00, 0x4d, 0x5a, 0x78, 0x4d, 0x00, 0x00, 0x4d, 0x5a,
  0x78, 0x4d, 0x00, 0x00, 0x4a, 0x5a, 0x78, 0x4a, 0x00, 0x00, 0x4a, 0x5a,
  0x78, 0x4a, 0x00, 0x00, 0x56, 0x5a, 0x78, 0x56, 0x00, 0x00, 0x56, 0x5a,
  0x78, 0x56, 0x00, 0x00, 0x51, 0x5a, 0x78, 0x51, 0x00, 0x00, 0x51, 0x5a,
  0x78, 0x51, 0x00, 0x00, 0x4d, 0x5a, 0x78, 0x4d, 0x00, 0x00, 0x4d, 0x5a,
  0x78, 0x4d, 0x00, 0x00, 0x4a, 0x5a, 0x78, 0x4a, 0x00, 0x00, 0x4a, 0x5a,
  0x78, 0x4a, 0x00, 0x00, 0x56, 0x5a, 0x78, 0x56, 0x00, 0x00, 0x56, 0x5a,
  0x78, 0x56, 0x00, 0x00, 0x51, 0x5a, 0x78, 0x51, 0x00, 0x00, 0x51, 0x5a,
  0x78, 0x51, 0x00, 0x00, 0x4d, 0x5a, 0x78, 0x4d, 0x00, 0x00, 0x4d, 0x5a,
  0x78, 0x4d, 0x00, 0x00, 0x4a, 0x5a, 0x78, 0x4a, 0x00, 0x00, 0x4a, 0x5a,
  0x78, 0x4a, 0x00, 0x00, 0x56, 0x5a, 0x78, 0x56, 0x00, 0x00, 0x56, 0x5a,
  0x78, 0x56, 0x00, 0x00, 0x51, 0x5a, 0x78, 0x51, 0x00, 0x00, 0x51, 0x5a,
  0x78, 0x51, 0x00, 0x00, 0x4d, 0x5a, 0x78, 0x4d, 0x00, 0x00, 0x4d, 0x5a,
  0x78, 0x4d, 0x00, 0x00, 0x4a, 0x5a, 0x78, 0x4a, 0x00, 0x00, 0x4a, 0x5a,
  0x78, 0x4a, 0x00, 0x00, 0x56, 0x5a, 0x78, 0x56, 0x00, 0x00, 0x56, 0x5a,
  0x78, 0x56, 0x00, 0x00, 0x51, 0x5a, 0x78, 0x51, 0x00, 0x00, 0x51, 0x5a,
  0x78, 0x51, 0x00, 0x00, 0x4d, 0x5a, 0x78, 0x4d, 0x00, 0x00, 0x4d, 0x5a,
  0x78, 0x4d, 0x00, 0x00, 0x4a, 0x5a, 0x78, 0x4a, 0x00, 0x00, 0x4a, 0x5a,
  0x78, 0x4a, 0x00, 0x00, 0x56, 0x5a, 0x78, 0x56, 0x00, 0x00, 0x56, 0x5a,
  0x78, 0x56, 0x00, 0x00, 0x51, 0x5a, 0x78, 0x51, 0x00, 0x00, 0x51, 0x5a,
  0x78, 0x51, 0x00, 0x00, 0x4d, 0x5a, 0x78, 0x4d, 0x00, 0x00, 0x4d, 0x5a,
  0x78, 0x4d, 0x00, 0x00, 0x4a, 0x5a, 0x78, 0x4a, 0x00, 0x00, 0x4a, 0x5a,
  0x78, 0x4a, 0x00, 0x00, 0x55, 0x5a, 0x78, 0x55, 0x00, 0x00, 0x55, 0x5a,
  0x78, 0x55, 0x00, 0x00, 0x4f, 0x5a, 0x78, 0x4f, 0x00, 0x00, 0x4f, 0x5a,
  0x78, 0x4f, 0x00, 0x00, 0x4d, 0x5a, 0x78, 0x4d, 0x00, 0x00, 0x4d, 0x5a,
  0x78, 0x4d, 0x00, 0x00, 0x56, 0x5a, 0x78, 0x56, 0x00, 0x00, 0x56, 0x5a,
  0x78, 0x56, 0x00, 0x00, 0x4c, 0x5a, 0x78, 0x4c, 0x00, 0x00, 0x4c, 0x5a,
  0x78, 0x4c, 0x00, 0x00, 0x56, 0x5a, 0x78, 0x56, 0x00, 0x00, 0x56, 0x5a,
  0x78, 0x56, 0x00, 0x00, 0x4c, 0x5a, 0x78, 0x4c, 0x00, 0x00, 0x4c, 0x5a,
  0x78, 0x4c, 0x00, 0x00, 0x55, 0x5a, 0x78, 0x55, 0x00, 0x00, 0x55, 0x5a,
  0x78, 0x55, 0x00, 0x00, 0x56, 0x5a, 0x78, 0x56, 0x00, 0x00, 0x56, 0x5a,
  0x78, 0x56, 0x00, 0x00, 0x51, 0x5a, 0x78, 0x51, 0x00, 0x00, 0x51, 0x5a,
  0x78, 0x51, 0x00, 0x00, 0x4d, 0x5a, 0x78, 0x4d, 0x00, 0x00, 0x4d, 0x5a,
  0x78, 0x4d, 0x00, 0x00, 0x4a, 0x5a, 0x78, 0x4a, 0x00, 0x00, 0x4a, 0x5a,
  0x78, 0x4a, 0x00, 0x00, 0x56, 0x5a, 0x78, 0x56, 0x00, 0x00, 0x56, 0x5a,
  0x78, 0x56, 0x00, 0x00, 0x51, 0x5a, 0x78, 0x51, 0x00, 0x00, 0x51, 0x5a,
  0x78, 0x51, 0x00, 0x00, 0x4d, 0x5a, 0x78, 0x4d, 0x00, 0x00, 0x4d, 0x5a,
  0x78, 0x4d, 0x00, 0x00, 0x4a, 0x5a, 0x78, 0x4a, 0x00, 0x00, 0x4a, 0x5a,
  0x78, 0x4a, 0x00, 0x00, 0x56, 0x5a, 0x78, 0x56, 0x00, 0x00, 0x56, 0x5a,
  0x78, 0x56, 0x00, 0x00, 0x52, 0x5a, 0x78, 0x52, 0x00, 0x00, 0x52, 0x5a,
  0x78, 0x52, 0x00, 0x00, 0x4d, 0x5a, 0x78, 0x4d, 0x00, 0x00, 0x4d, 0x5a,
  0x78, 0x4d, 0x00, 0x00, 0x4a, 0x5a, 0x78, 0x4a, 0x00, 0x00, 0x4a, 0x5a,
  0x78, 0x4a, 0x00, 0x00, 0x56, 0x5a, 0x78, 0x56, 0x00, 0x00, 0x56, 0x5a,
  0x78, 0x56, 0x00, 0x00, 0x52, 0x5a, 0x78, 0x52, 0x00, 0x00, 0x52, 0x5a,
  0x78, 0x52, 0x00, 0x00, 0x4d, 0x5a, 0x78, 0x4d, 0x00, 0x00, 0x4d, 0x5a,
  0x78, 0x4d, 0x00, 0x00, 0x4a, 0x5a, 0x78, 0x4a, 0x00, 0x00, 0x4a, 0x5a,
  0x78, 0x4a, 0x00, 0x00, 0x57, 0x5a, 0x78, 0x57, 0x00, 0x00, 0x57, 0x5a,
  0x78, 0x57, 0x00, 0x00, 0x52, 0x5a, 0x78, 0x52, 0x00, 0x00, 0x52, 0x5a,
  0x78, 0x52, 0x00, 0x00, 0x4f, 0x5a, 0x78, 0x4f, 0x00, 0x00, 0x4f, 0x5a,
  0x78, 0x4f, 0x00, 0x00, 0x4b, 0x5a, 0x78, 0x4b, 0x00, 0x00, 0x4b, 0x5a,
  0x78, 0x4b, 0x00, 0x00, 0x52, 0x5a, 0x78, 0x52, 0x00, 0x00, 0x52, 0x5a,
  0x78, 0x52, 0x00, 0x00, 0x4f, 0x5a, 0x78, 0x4f, 0x00, 0x00, 0x4f, 0x5a,
  0x78, 0x4f, 0x00, 0x00, 0x4b, 0x5a, 0x78, 0x4b, 0x00, 0x00, 0x4b, 0x5a,
  0x78, 0x4b, 0x00, 0x00, 0x4a, 0x5a, 0x78, 0x4a, 0x00, 0x00, 0x4a, 0x5a,
  0x78, 0x4a, 0x00, 0x00, 0x49, 0x5a, 0x78, 0x49, 0x00, 0x00, 0x49, 0x5a,
  0x78, 0x49, 0x00, 0x00, 0x4f, 0x5a, 0x78, 0x4f, 0x00, 0x00, 0x4f, 0x5a,
  0x78, 0x4f, 0x00, 0x00, 0x4d, 0x5a, 0x78, 0x4d, 0x00, 0x00, 0x4d, 0x5a,
  0x78, 0x4d, 0x00, 0x00, 0x56, 0x5a, 0x78, 0x56, 0x00, 0x00, 0x56, 0x5a,
  0x78, 0x56, 0x00, 0x00, 0x4c, 0x5a, 0x78, 0x4c, 0x00, 0x00, 0x4c, 0x5a,
  0x78, 0x4c, 0x00, 0x00, 0x56, 0x5a, 0x78, 0x56, 0x00, 0x00, 0x56, 0x5a,
  0x78, 0x56, 0x00, 0x00, 0x45, 0x5a, 0x78, 0x45, 0x00, 0x00, 0x45, 0x5a,
  0x78, 0x45, 0x00, 0x00, 0x55, 0x5a, 0x78, 0x55, 0x00, 0x00, 0x55, 0x5a,
  0x78, 0x55, 0x00, 0x00, 0x56, 0x5a, 0x81, 0x70, 0x56, 0x00, 0x00, 0x4d,
  0x5a, 0x78, 0x4d, 0x00, 0x00, 0x4d, 0x5a, 0x78, 0x4d, 0x00, 0x00, 0x4a,
  0x5a, 0x78, 0x4a, 0x00, 0x00, 0x4a, 0x5a, 0x78, 0x4a, 0x00, 0x00, 0x48,
  0x5a, 0x78, 0x48, 0x00, 0x00, 0x48, 0x5a, 0x78, 0x48, 0x00, 0x00, 0x46,
  0x5a, 0x78, 0x46, 0x00, 0x00, 0x46, 0x5a, 0x78, 0x46, 0x00, 0x00, 0x45,
  0x5a, 0x78, 0x45, 0x00, 0x00, 0x45, 0x5a, 0x78, 0x45, 0x00, 0x00, 0x44,
  0x5a, 0x78, 0x44, 0x00, 0x00, 0x44, 0x5a, 0x78, 0x44, 0x00, 0x00, 0x47,
  0x5a, 0x78, 0x47, 0x00, 0x00, 0x47, 0x5a, 0x78, 0x47, 0x00, 0x00, 0x45,
  0x5a, 0x78, 0x45, 0x00, 0x00, 0x45, 0x5a, 0x78, 0x45, 0x00, 0x00, 0x4f,
  0x5a, 0x78, 0x4f, 0x00, 0x00, 0x4f, 0x5a, 0x78, 0x4f, 0x00, 0x00, 0x4c,
  0x5a, 0x78, 0x4c, 0x00, 0x00, 0x4c, 0x5a, 0x78, 0x4c, 0x00, 0x00, 0x4a,
  0x5a, 0x78, 0x4a, 0x00, 0x00, 0x4a, 0x5a, 0x78, 0x4a, 0x00, 0x00, 0x49,
  0x5a, 0x78, 0x49, 0x00, 0x00, 0x49, 0x5a, 0x78, 0x49, 0x00, 0x00, 0x52,
  0x5a, 0x78, 0x52, 0x00, 0x00, 0x52, 0x5a, 0x78, 0x52, 0x00, 0x00, 0x51,
  0x5a, 0x78, 0x51, 0x00, 0x00, 0x51, 0x5a, 0x78, 0x51, 0x00, 0x00, 0x4f,
  0x5a, 0x78, 0x4f, 0x00, 0x00, 0x4f, 0x5a, 0x78, 0x4f, 0x00, 0x00, 0x4d,
  0x5a, 0x78, 0x4d, 0x00, 0x00, 0x4d, 0x5a, 0x78, 0x4d, 0x00, 0x00, 0x56,
  0x5a, 0x78, 0x56, 0x00, 0x00, 0x56, 0x5a, 0x78, 0x56, 0x00, 0x00, 0x52,
  0x5a, 0x78, 0x52, 0x00, 0x00, 0x52, 0x5a, 0x78, 0x52, 0x00, 0x00, 0x4f,
  0x5a, 0x78, 0x4f, 0x00, 0x00, 0x4f, 0x5a, 0x78, 0x4f, 0x00, 0x00, 0x4d,
  0x5a, 0x78, 0x4d, 0x00, 0x00, 0x4d, 0x5a, 0x78, 0x4d, 0x00, 0x00, 0x56,
  0x5a, 0x78, 0x56, 0x00, 0x00, 0x56, 0x5a, 0x78, 0x56, 0x00, 0x00, 0x4c,
  0x5a, 0x78, 0x4c, 0x00, 0x00, 0x4c, 0x5a, 0x78, 0x4c, 0x00, 0x00, 0x55,
  0x5a, 0x78, 0x55, 0x00, 0x00, 0x55, 0x5a, 0x78, 0x55, 0x00, 0x00, 0x56,
  0x5a, 0x83, 0x60, 0x56, 0x00, 0x00, 0x3e, 0x5a, 0x83, 0x60, 0x3e, 0x00,
  0x00, 0xff, 0x2f, 0x00, 0x4d, 0x54, 0x72, 0x6b, 0x00, 0x00, 0x14, 0x4d,
  0x00, 0xff, 0x21, 0x01, 0x00, 0x00, 0xff, 0x03, 0x07, 0x54, 0x72, 0x61,
  0x63, 0x6b, 0x20, 0x36, 0x00, 0xc5, 0x30, 0x00, 0xb5, 0x07, 0x70, 0x00,
  0xb5, 0x0a, 0x32, 0x14, 0xb5, 0x5b, 0x50, 0x14, 0x95, 0x41, 0x5a, 0x50,
  0x41, 0x5a, 0x28, 0x41, 0x00, 0x50, 0x41, 0x00, 0x00, 0x41, 0x5a, 0x78,
  0x41, 0x00, 0x00, 0x41, 0x5a, 0x78, 0x41, 0x00, 0x00, 0x41, 0x5a, 0x78,
  0x41, 0x00, 0x00, 0x41, 0x5a, 0x78, 0x41, 0x00, 0x00, 0x41, 0x5a, 0x78,
  0x41, 0x00, 0x00, 0x41, 0x5a, 0x78, 0x41, 0x00, 0x00, 0x41, 0x5a, 0x78,
  0x41, 0x00, 0x00, 0x41, 0x5a, 0x78, 0x41, 0x00, 0x00, 0x41, 0x5a, 0x78,
  0x41, 0x00, 0x00, 0x41, 0x5a, 0x78, 0x41, 0x00, 0x00, 0x41, 0x5a, 0x78,
  0x41, 0x00, 0x00, 0x41, 0x5a, 0x78, 0x41, 0x00, 0x00, 0x41, 0x5a, 0x78,
  0x41, 0x00, 0x00, 0x41, 0x5a, 0x78, 0x41, 0x00, 0x00, 0x43, 0x5a, 0x81,
  0x70, 0x43, 0x00, 0x00, 0x43, 0x5a, 0x83, 0x60, 0x43, 0x00, 0x00, 0x43,
  0x5a, 0x83, 0x60, 0x43, 0x00, 0x00, 0x43, 0x5a, 0x83, 0x60, 0x43, 0x00,
  0x00, 0x43, 0x5a, 0x81, 0x70, 0x43, 0x00, 0x00, 0x43, 0x5a, 0x78, 0x43,
  0x00, 0x00, 0x43, 0x5a, 0x78, 0x43, 0x00, 0x00, 0x43, 0x5a, 0x78, 0x43,
  0x00, 0x00, 0x43, 0x5a, 0x78, 0x43, 0x00, 0x00, 0x43, 0x5a, 0x78, 0x43,
  0x00, 0x00, 0x43, 0x5a, 0x78, 0x43, 0x00, 0x00, 0x43, 0x5a, 0x78, 0x43,
  0x00, 0x00, 0x43, 0x5a, 0x78, 0x43, 0x00, 0x00, 0x43, 0x5a, 0x78, 0x43,
  0x00, 0x00, 0x43, 0x5a, 0x78, 0x43, 0x00, 0x00, 0x43, 0x5a, 0x78, 0x43,
  0x00, 0x00, 0x43, 0x5a, 0x78, 0x43, 0x00, 0x00, 0x43, 0x5a, 0x78, 0x43,
  0x00, 0x00, 0x43, 0x5a, 0x78, 0x43, 0x00, 0x00, 0x43, 0x5a, 0x78, 0x43,
  0x00, 0x00, 0x43, 0x5a, 0x78, 0x43, 0x00, 0x00, 0x41, 0x5a, 0x81, 0x70,
  0x41, 0x00, 0x00, 0x41, 0x5a, 0x83, 0x60, 0x41, 0x00, 0x00, 0x41, 0x5a,
  0x83, 0x60, 0x41, 0x00, 0x00, 0x41, 0x5a, 0x83, 0x60, 0x41, 0x00, 0x00,
  0x41, 0x5a, 0x81, 0x70, 0x41, 0x00, 0x00, 0x43, 0x5a, 0x83, 0x60, 0x43,
  0x00, 0x00, 0x41, 0x5a, 0x81, 0x70, 0x41, 0x00, 0x00, 0x41, 0x5a, 0x81,
  0x70, 0x41, 0x00, 0x00, 0x41, 0x5a, 0x81, 0x70, 0x41, 0x00, 0x00, 0x41,
  0x5a, 0x83, 0x60, 0x41, 0x00, 0x00, 0x41, 0x5a, 0x81, 0x70, 0x41, 0x00,
  0x00, 0x45, 0x5a, 0x81, 0x70, 0x45, 0x00, 0x00, 0x45, 0x5a, 0x83, 0x60,
  0x45, 0x00, 0x00, 0x45, 0x5a, 0x83, 0x60, 0x45, 0x00, 0x00, 0x45, 0x5a,
  0x83, 0x60, 0x45, 0x00, 0x00, 0x45, 0x5a, 0x81, 0x70, 0x45, 0x00, 0x00,
  0x43, 0x5a, 0x78, 0x43, 0x00, 0x00, 0x43, 0x5a, 0x78, 0x43, 0x00, 0x00,
  0x43, 0x5a, 0x78, 0x43, 0x00, 0x00, 0x43, 0x5a, 0x78, 0x43, 0x00, 0x00,
  0x45, 0x5a, 0x78, 0x45, 0x00, 0x00, 0x45, 0x5a, 0x78, 0x45, 0x00, 0x00,
  0x45, 0x5a, 0x78, 0x45, 0x00, 0x00, 0x45, 0x5a, 0x78, 0x45, 0x00, 0x00,
  0x46, 0x5a, 0x78, 0x46, 0x00, 0x00, 0x46, 0x5a, 0x78, 0x46, 0x00, 0x00,
  0x46, 0x5a, 0x78, 0x46, 0x00, 0x00, 0x46, 0x5a, 0x78, 0x46, 0x00, 0x00,
  0x45, 0x5a, 0x78, 0x45, 0x00, 0x00, 0x45, 0x5a, 0x78, 0x45, 0x00, 0x00,
  0x4a, 0x5a, 0x78, 0x4a, 0x00, 0x00, 0x4a, 0x5a, 0x78, 0x4a, 0x00, 0x00,
  0x4a, 0x5a, 0x82, 0x68, 0x4a, 0x00, 0x00, 0x49, 0x5a, 0x3c, 0x49, 0x00,
  0x00, 0x4a, 0x5a, 0x3c, 0x4a, 0x00, 0x00, 0x49, 0x5a, 0x81, 0x70, 0x49,
  0x00, 0x00, 0x45, 0x5a, 0x81, 0x70, 0x45, 0x00, 0x00, 0x45, 0x5a, 0x81,
  0x70, 0x45, 0x00, 0x00, 0x45, 0x5a, 0x83, 0x60, 0x45, 0x00, 0x00, 0x45,
  0x5a, 0x83, 0x60, 0x45, 0x00, 0x00, 0x45, 0x5a, 0x78, 0x45, 0x00, 0x00,
  0x45, 0x5a, 0x78, 0x45, 0x00, 0x00, 0x46, 0x5a, 0x78, 0x46, 0x00, 0x00,
  0x46, 0x5a, 0x78, 0x46, 0x00, 0x00, 0x47, 0x5a, 0x78, 0x47, 0x00, 0x00,
  0x47, 0x5a, 0x78, 0x47, 0x00, 0x00, 0x48, 0x5a, 0x78, 0x48, 0x00, 0x00,
  0x48, 0x5a, 0x78, 0x48, 0x00, 0x00, 0x49, 0x5a, 0x78, 0x49, 0x00, 0x00,
  0x49, 0x5a, 0x78, 0x49, 0x00, 0x00, 0x4a, 0x5a, 0x78, 0x4a, 0x00, 0x00,
  0x4a, 0x5a, 0x78, 0x4a, 0x00, 0x00, 0x46, 0x5a, 0x78, 0x46, 0x00, 0x00,
  0x46, 0x5a, 0x78, 0x46, 0x00, 0x00, 0x45, 0x5a, 0x78, 0x45, 0x00, 0x00,
  0x45, 0x5a, 0x78, 0x45, 0x00, 0x00, 0x45, 0x5a, 0x78, 0x45, 0x00, 0x00,
  0x45, 0x5a, 0x78, 0x45, 0x00, 0x00, 0x45, 0x5a, 0x78, 0x45, 0x00, 0x00,
  0x45, 0x5a, 0x78, 0x45, 0x00, 0x00, 0x45, 0x5a, 0x78, 0x45, 0x00, 0x00,
  0x45, 0x5a, 0x78, 0x45, 0x00, 0x00, 0x45, 0x5a, 0x78, 0x45, 0x00, 0x00,
  0x45, 0x5a, 0x78, 0x45, 0x00, 0x00, 0x45, 0x5a, 0x78, 0x45, 0x00, 0x00,
  0x45, 0x5a, 0x78, 0x45, 0x00, 0x00, 0x45, 0x5a, 0x78, 0x45, 0x00, 0x00,
  0x45, 0x5a, 0x78, 0x45, 0x00, 0x00, 0x45, 0x5a, 0x78, 0x45, 0x00, 0x00,
  0x45, 0x5a, 0x78, 0x45, 0x00, 0x00, 0x45, 0x5a, 0x78, 0x45, 0x00, 0x00,
  0x45, 0x5a, 0x78, 0x45, 0x00, 0x00, 0x45, 0x5a, 0x78, 0x45, 0x00, 0x00,
  0x45, 0x5a, 0x78, 0x45, 0x00, 0x00, 0x3c, 0x5a, 0x78, 0x3c, 0x00, 0x00,
  0x3c, 0x5a, 0x78, 0x3c, 0x00, 0x00, 0x3c, 0x5a, 0x78, 0x3c, 0x00, 0x00,
  0x3c, 0x5a, 0x78, 0x3c, 0x00, 0x00, 0x41, 0x5a, 0x78, 0x41, 0x00, 0x00,
  0x41, 0x5a, 0x78, 0x41, 0x00, 0x00, 0x41, 0x5a, 0x78, 0x41, 0x00, 0x00,
  0x41, 0x5a, 0x78, 0x41, 0x00, 0x00, 0x45, 0x5a, 0x78, 0x45, 0x00, 0x00,
  0x45, 0x5a, 0x78, 0x45, 0x00, 0x00, 0x45, 0x5a, 0x78, 0x45, 0x00, 0x00,
  0x45, 0x5a, 0x78, 0x45, 0x00, 0x00, 0x48, 0x5a, 0x78, 0x48, 0x00, 0x00,
  0x3f, 0x5a, 0x78, 0x3f, 0x00, 0x00, 0x3f, 0x5a, 0x78, 0x3f, 0x00, 0x00,
  0x3f, 0x5a, 0x78, 0x3f, 0x00, 0x00, 0x3f, 0x5a, 0x78, 0x3f, 0x00, 0x00,
  0x3f, 0x5a, 0x78, 0x3f, 0x00, 0x00, 0x3f, 0x5a, 0x78, 0x3f, 0x00, 0x00,
  0x3f, 0x5a, 0x78, 0x3f, 0x00, 0x00, 0x48, 0x5a, 0x78, 0x48, 0x00, 0x00,
  0x3e, 0x5a, 0x78, 0x3e, 0x00, 0x00, 0x3e, 0x5a, 0x78, 0x3e, 0x00, 0x00,
  0x3e, 0x5a, 0x78, 0x3e, 0x00, 0x00, 0x3e, 0x5a, 0x78, 0x3e, 0x00, 0x00,
  0x3e, 0x5a, 0x78, 0x3e, 0x00, 0x00, 0x3e, 0x5a, 0x78, 0x3e, 0x00, 0x00,
  0x3e, 0x5a, 0x78, 0x3e, 0x00, 0x00, 0x3e, 0x5a, 0x78, 0x3e, 0x00, 0x00,
  0x43, 0x5a, 0x78, 0x43, 0x00, 0x00, 0x43, 0x5a, 0x78, 0x43, 0x00, 0x00,
  0x43, 0x5a, 0x78, 0x43, 0x00, 0x00, 0x43, 0x5a, 0x78, 0x43, 0x00, 0x00,
  0x43, 0x5a, 0x78, 0x43, 0x00, 0x00, 0x43, 0x5a, 0x78, 0x43, 0x00, 0x00,
  0x43, 0x5a, 0x78, 0x43, 0x00, 0x00, 0x3e, 0x5a, 0x78, 0x3e, 0x00, 0x00,
  0x43, 0x5a, 0x78, 0x43, 0x00, 0x00, 0x43, 0x5a, 0x78, 0x43, 0x00, 0x00,
  0x43, 0x5a, 0x78, 0x43, 0x00, 0x00, 0x43, 0x5a, 0x78, 0x43, 0x00, 0x00,
  0x43, 0x5a, 0x78, 0x43, 0x00, 0x00, 0x43, 0x5a, 0x78, 0x43, 0x00, 0x00,
  0x43, 0x5a, 0x78, 0x43, 0x00, 0x00, 0x3e, 0x5a, 0x78, 0x3e, 0x00, 0x00,
  0x3e, 0x5a, 0x78, 0x3e, 0x00, 0x00, 0x3e, 0x5a, 0x78, 0x3e, 0x00, 0x00,
  0x3e, 0x5a, 0x78, 0x3e, 0x00, 0x00, 0x3e, 0x5a, 0x78, 0x3e, 0x00, 0x00,
  0x3e, 0x5a, 0x78, 0x3e, 0x00, 0x00, 0x3e, 0x5a, 0x78, 0x3e, 0x00, 0x00,
  0x3e, 0x5a, 0x78, 0x3e, 0x00, 0x00, 0x43, 0x5a, 0x78, 0x43, 0x00, 0x00,
  0x43, 0x5a, 0x78, 0x43, 0x00, 0x00, 0x43, 0x5a, 0x78, 0x43, 0x00, 0x00,
  0x43, 0x5a, 0x78, 0x43, 0x00, 0x00, 0x47, 0x5a, 0x78, 0x47, 0x00, 0x00,
  0x47, 0x5a, 0x78, 0x47, 0x00, 0x00, 0x47, 0x5a, 0x78, 0x47, 0x00, 0x00,
  0x47, 0x5a, 0x78, 0x47, 0x00, 0x00, 0x4a, 0x5a, 0x78, 0x4a, 0x00, 0x00,
  0x47, 0x5a, 0x78, 0x47, 0x00, 0x00, 0x47, 0x5a, 0x78, 0x47, 0x00, 0x00,
  0x47, 0x5a, 0x78, 0x47, 0x00, 0x00, 0x47, 0x5a, 0x78, 0x47, 0x00, 0x00,
  0x47, 0x5a, 0x78, 0x47, 0x00, 0x00, 0x47, 0x5a, 0x78, 0x47, 0x00, 0x00,
  0x47, 0x5a, 0x78, 0x47, 0x00, 0x00, 0x4a, 0x5a, 0x78, 0x4a, 0x00, 0x00,
  0x47, 0x5a, 0x78, 0x47, 0x00, 0x00, 0x47, 0x5a, 0x78, 0x47, 0x00, 0x00,
  0x47, 0x5a, 0x78, 0x47, 0x00, 0x00, 0x47, 0x5a, 0x78, 0x47, 0x00, 0x00,
  0x47, 0x5a, 0x78, 0x47, 0x00, 0x00, 0x47, 0x5a, 0x78, 0x47, 0x00, 0x00,
  0x47, 0x5a, 0x78, 0x47, 0x00, 0x00, 0x48, 0x5a, 0x78, 0x48, 0x00, 0x00,
  0x48, 0x5a, 0x78, 0x48, 0x00, 0x00, 0x48, 0x5a, 0x78, 0x48, 0x00, 0x00,
  0x48, 0x5a, 0x78, 0x48, 0x00, 0x00, 0x48, 0x5a, 0x78, 0x48, 0x00, 0x00,
  0x48, 0x5a, 0x78, 0x48, 0x00, 0x00, 0x48, 0x5a, 0x78, 0x48, 0x00, 0x00,
  0x48, 0x5a, 0x78, 0x48, 0x00, 0x00, 0x4a, 0x5a, 0x78, 0x4a, 0x00, 0x00,
  0x4a, 0x5a, 0x78, 0x4a, 0x00, 0x00, 0x4a, 0x5a, 0x78, 0x4a, 0x00, 0x00,
  0x4a, 0x5a, 0x78, 0x4a, 0x00, 0x00, 0x4a, 0x5a, 0x78, 0x4a, 0x00, 0x00,
  0x4a, 0x5a, 0x78, 0x4a, 0x00, 0x00, 0x4a, 0x5a, 0x78, 0x4a, 0x00, 0x00,
  0x4a, 0x5a, 0x78, 0x4a, 0x00, 0x00, 0x48, 0x5a, 0x78, 0x48, 0x00, 0x00,
  0x48, 0x5a, 0x78, 0x48, 0x00, 0x00, 0x48, 0x5a, 0x78, 0x48, 0x00, 0x00,
  0x48, 0x5a, 0x78, 0x48, 0x00, 0x00, 0x48, 0x5a, 0x78, 0x48, 0x00, 0x00,
  0x48, 0x5a, 0x78, 0x48, 0x00, 0x00, 0x48, 0x5a, 0x78, 0x48, 0x00, 0x00,
  0x48, 0x5a, 0x78, 0x48, 0x00, 0x00, 0x48, 0x5a, 0x78, 0x48, 0x00, 0x00,
  0x48, 0x5a, 0x78, 0x48, 0x00, 0x00, 0x48, 0x5a, 0x78, 0x48, 0x00, 0x00,
  0x48, 0x5a, 0x78, 0x48, 0x00, 0x00, 0x47, 0x5a, 0x78, 0x47, 0x00, 0x00,
  0x47, 0x5a, 0x78, 0x47, 0x00, 0x00, 0x45, 0x5a, 0x78, 0x45, 0x00, 0x00,
  0x45, 0x5a, 0x78, 0x45, 0x00, 0x00, 0x44, 0x5a, 0x78, 0x44, 0x00, 0x00,
  0x44, 0x5a, 0x78, 0x44, 0x00, 0x00, 0x44, 0x5a, 0x78, 0x44, 0x00, 0x00,
  0x44, 0x5a, 0x78, 0x44, 0x00, 0x00, 0x45, 0x5a, 0x78, 0x45, 0x00, 0x00,
  0x45, 0x5a, 0x78, 0x45, 0x00, 0x00, 0x45, 0x5a, 0x78, 0x45, 0x00, 0x00,
  0x45, 0x5a, 0x78, 0x45, 0x00, 0x00, 0x45, 0x5a, 0x78, 0x45, 0x00, 0x00,
  0x45, 0x5a, 0x78, 0x45, 0x00, 0x00, 0x47, 0x5a, 0x78, 0x47, 0x00, 0x00,
  0x47, 0x5a, 0x78, 0x47, 0x00, 0x00, 0x44, 0x5a, 0x78, 0x44, 0x00, 0x00,
  0x44, 0x5a, 0x78, 0x44, 0x00, 0x00, 0x47, 0x5a, 0x78, 0x47, 0x00, 0x00,
  0x47, 0x5a, 0x78, 0x47, 0x00, 0x00, 0x45, 0x5a, 0x81, 0x70, 0x45, 0x00,
  0x81, 0x70, 0x48, 0x5a, 0x78, 0x48, 0x00, 0x00, 0x48, 0x5a, 0x78, 0x48,
  0x00, 0x00, 0x47, 0x5a, 0x78, 0x47, 0x00, 0x00, 0x47, 0x5a, 0x78, 0x47,
  0x00, 0x00, 0x45, 0x5a, 0x78, 0x45, 0x00, 0x00, 0x45, 0x5a, 0x78, 0x45,
  0x00, 0x00, 0x45, 0x5a, 0x78, 0x45, 0x00, 0x00, 0x45, 0x5a, 0x78, 0x45,
  0x00, 0x00, 0x45, 0x5a, 0x78, 0x45, 0x00, 0x00, 0x45, 0x5a, 0x78, 0x45,
  0x00, 0x00, 0x48, 0x5a, 0x78, 0x48, 0x00, 0x00, 0x48, 0x5a, 0x78, 0x48,
  0x00, 0x00, 0x47, 0x5a, 0x78, 0x47, 0x00, 0x00, 0x47, 0x5a, 0x78, 0x47,
  0x00, 0x00, 0x45, 0x5a, 0x78, 0x45, 0x00, 0x00, 0x45, 0x5a, 0x78, 0x45,
  0x00, 0x00, 0x4d, 0x5a, 0x78, 0x4d, 0x00, 0x00, 0x4d, 0x5a, 0x78, 0x4d,
  0x00, 0x00, 0x4c, 0x5a, 0x78, 0x4c, 0x00, 0x00, 0x4c, 0x5a, 0x78, 0x4c,
  0x00, 0x00, 0x4a, 0x5a, 0x78, 0x4a, 0x00, 0x00, 0x4a, 0x5a, 0x78, 0x4a,
  0x00, 0x00, 0x48, 0x5a, 0x78, 0x48, 0x00, 0x00, 0x48, 0x5a, 0x78, 0x48,
  0x00, 0x00, 0x47, 0x5a, 0x78, 0x47, 0x00, 0x00, 0x47, 0x5a, 0x78, 0x47,
  0x00, 0x00, 0x44, 0x5a, 0x78, 0x44, 0x00, 0x00, 0x44, 0x5a, 0x78, 0x44,
  0x00, 0x00, 0x45, 0x5a, 0x78, 0x45, 0x00, 0x00, 0x45, 0x5a, 0x78, 0x45,
  0x00, 0x00, 0x4c, 0x5a, 0x78, 0x4c, 0x00, 0x00, 0x4c, 0x5a, 0x78, 0x4c,
  0x00, 0x00, 0x45, 0x5a, 0x78, 0x45, 0x00, 0x00, 0x45, 0x5a, 0x78, 0x45,
  0x00, 0x00, 0x4a, 0x5a, 0x78, 0x4a, 0x00, 0x00, 0x4a, 0x5a, 0x78, 0x4a,
  0x00, 0x00, 0x45, 0x5a, 0x78, 0x45, 0x00, 0x00, 0x45, 0x5a, 0x78, 0x45,
  0x00, 0x00, 0x48, 0x5a, 0x78, 0x48, 0x00, 0x00, 0x48, 0x5a, 0x78, 0x48,
  0x00, 0x00, 0x44, 0x5a, 0x78, 0x44, 0x00, 0x00, 0x44, 0x5a, 0x78, 0x44,
  0x00, 0x00, 0x47, 0x5a, 0x78, 0x47, 0x00, 0x00, 0x47, 0x5a, 0x78, 0x47,
  0x00, 0x00, 0x45, 0x5a, 0x78, 0x45, 0x00, 0x00, 0x45, 0x5a, 0x78, 0x45,
  0x00, 0x00, 0x45, 0x5a, 0x78, 0x45, 0x00, 0x00, 0x45, 0x5a, 0x78, 0x45,
  0x00, 0x00, 0x45, 0x5a, 0x78, 0x45, 0x00, 0x00, 0x45, 0x5a, 0x78, 0x45,
  0x00, 0x00, 0x45, 0x5a, 0x78, 0x45, 0x00, 0x00, 0x45, 0x5a, 0x78, 0x45,
  0x00, 0x00, 0x45, 0x5a, 0x78, 0x45, 0x00, 0x00, 0x45, 0x5a, 0x78, 0x45,
  0x00, 0x00, 0x45, 0x5a, 0x78, 0x45, 0x00, 0x00, 0x45, 0x5a, 0x78, 0x45,
  0x00, 0x00, 0x45, 0x5a, 0x78, 0x45, 0x00, 0x00, 0x45, 0x5a, 0x78, 0x45,
  0x00, 0x00, 0x45, 0x5a, 0x78, 0x45, 0x00, 0x00, 0x45, 0x5a, 0x78, 0x45,
  0x00, 0x00, 0x40, 0x5a, 0x81, 0x70, 0x40, 0x00, 0x00, 0x40, 0x5a, 0x83,
  0x60, 0x40, 0x00, 0x00, 0x40, 0x5a, 0x83, 0x60, 0x40, 0x00, 0x00, 0x40,
  0x5a, 0x83, 0x60, 0x40, 0x00, 0x00, 0x40, 0x5a, 0x81, 0x70, 0x40, 0x00,
  0x00, 0x3e, 0x5a, 0x78, 0x3e, 0x00, 0x00, 0x3e, 0x5a, 0x78, 0x3e, 0x00,
  0x00, 0x3e, 0x5a, 0x78, 0x3e, 0x00, 0x00, 0x3e, 0x5a, 0x78, 0x3e, 0x00,
  0x00, 0x3e, 0x5a, 0x78, 0x3e, 0x00, 0x00, 0x3e, 0x5a, 0x78, 0x3e, 0x00,
  0x00, 0x3e, 0x5a, 0x78, 0x3e, 0x00, 0x00, 0x3e, 0x5a, 0x78, 0x3e, 0x00,
  0x00, 0x3e, 0x5a, 0x78, 0x3e, 0x00, 0x00, 0x3e, 0x5a, 0x78, 0x3e, 0x00,
  0x00, 0x3e, 0x5a, 0x78, 0x3e, 0x00, 0x00, 0x3e, 0x5a, 0x78, 0x3e, 0x00,
  0x00, 0x3e, 0x5a, 0x78, 0x3e, 0x00, 0x00, 0x3e, 0x5a, 0x78, 0x3e, 0x00,
  0x00, 0x3e, 0x5a, 0x78, 0x3e, 0x00, 0x00, 0x3e, 0x5a, 0x78, 0x3e, 0x00,
  0x00, 0x3c, 0x5a, 0x81, 0x70, 0x3c, 0x00, 0x00, 0x40, 0x5a, 0x83, 0x60,
  0x40, 0x00, 0x00, 0x40, 0x5a, 0x83, 0x60, 0x40, 0x00, 0x00, 0x40, 0x5a,
  0x81, 0x70, 0x40, 0x00, 0x00, 0x40, 0x5a, 0x81, 0x70, 0x40, 0x00, 0x00,
  0x40, 0x5a, 0x81, 0x70, 0x40, 0x00, 0x00, 0x3e, 0x5a, 0x83, 0x60, 0x3e,
  0x00, 0x00, 0x40, 0x5a, 0x81, 0x70, 0x40, 0x00, 0x00, 0x40, 0x5a, 0x81,
  0x70, 0x40, 0x00, 0x00, 0x40, 0x5a, 0x81, 0x70, 0x40, 0x00, 0x00, 0x40,
  0x5a, 0x83, 0x60, 0x40, 0x00, 0x00, 0x40, 0x5a, 0x81, 0x70, 0x40, 0x00,
  0x00, 0x44, 0x5a, 0x83, 0x60, 0x44, 0x00, 0x00, 0x45, 0x5a, 0x78, 0x45,
  0x00, 0x00, 0x40, 0x5a, 0x78, 0x40, 0x00, 0x00, 0x45, 0x5a, 0x78, 0x45,
  0x00, 0x00, 0x48, 0x5a, 0x78, 0x48, 0x00, 0x00, 0x4c, 0x5a, 0x81, 0x70,
  0x4c, 0x00, 0x00, 0x4c, 0x5a, 0x83, 0x60, 0x4c, 0x00, 0x00, 0x4c, 0x5a,
  0x81, 0x70, 0x4c, 0x00, 0x00, 0x4d, 0x5a, 0x78, 0x4d, 0x00, 0x00, 0x4d,
  0x5a, 0x78, 0x4d, 0x00, 0x00, 0x45, 0x5a, 0x78, 0x45, 0x00, 0x00, 0x45,
  0x5a, 0x78, 0x45, 0x00, 0x00, 0x43, 0x5a, 0x78, 0x43, 0x00, 0x00, 0x43,
  0x5a, 0x78, 0x43, 0x00, 0x00, 0x4f, 0x5a, 0x78, 0x4f, 0x00, 0x00, 0x4f,
  0x5a, 0x78, 0x4f, 0x00, 0x00, 0x4d, 0x5a, 0x78, 0x4d, 0x00, 0x00, 0x4d,
  0x5a, 0x78, 0x4d, 0x00, 0x00, 0x41, 0x5a, 0x78, 0x41, 0x00, 0x00, 0x41,
  0x5a, 0x78, 0x41, 0x00, 0x00, 0x48, 0x5a, 0x78, 0x48, 0x00, 0x00, 0x48,
  0x5a, 0x78, 0x48, 0x00, 0x00, 0x45, 0x5a, 0x78, 0x45, 0x00, 0x00, 0x45,
  0x5a, 0x78, 0x45, 0x00, 0x00, 0x48, 0x5a, 0x82, 0x68, 0x48, 0x00, 0x00,
  0x47, 0x5a, 0x3c, 0x47, 0x00, 0x00, 0x48, 0x5a, 0x3c, 0x48, 0x00, 0x00,
  0x47, 0x5a, 0x81, 0x70, 0x47, 0x00, 0x00, 0x44, 0x5a, 0x81, 0x70, 0x44,
  0x00, 0x00, 0x43, 0x5a, 0x81, 0x70, 0x43, 0x00, 0x00, 0x43, 0x5a, 0x83,
  0x60, 0x43, 0x00, 0x00, 0x43, 0x5a, 0x81, 0x70, 0x43, 0x00, 0x00, 0x44,
  0x5a, 0x81, 0x70, 0x44, 0x00, 0x00, 0x44, 0x5a, 0x81, 0x70, 0x44, 0x00,
  0x00, 0x44, 0x5a, 0x81, 0x70, 0x44, 0x00, 0x00, 0x44, 0x5a, 0x81, 0x70,
  0x44, 0x00, 0x00, 0x3e, 0x5a, 0x81, 0x70, 0x3e, 0x00, 0x00, 0x3b, 0x5a,
  0x81, 0x70, 0x3b, 0x00, 0x00, 0x3b, 0x5a, 0x81, 0x70, 0x3b, 0x00, 0x00,
  0x3b, 0x5a, 0x81, 0x70, 0x3b, 0x00, 0x00, 0x3c, 0x5a, 0x78, 0x3c, 0x00,
  0x00, 0x3f, 0x5a, 0x78, 0x3f, 0x00, 0x00, 0x3f, 0x5a, 0x78, 0x3f, 0x00,
  0x00, 0x3f, 0x5a, 0x78, 0x3f, 0x00, 0x00, 0x3f, 0x5a, 0x78, 0x3f, 0x00,
  0x00, 0x3f, 0x5a, 0x78, 0x3f, 0x00, 0x00, 0x3f, 0x5a, 0x78, 0x3f, 0x00,
  0x00, 0x3f, 0x5a, 0x78, 0x3f, 0x00, 0x00, 0x3f, 0x5a, 0x78, 0x3f, 0x00,
  0x00, 0x3f, 0x5a, 0x78, 0x3f, 0x00, 0x00, 0x3f, 0x5a, 0x78, 0x3f, 0x00,
  0x00, 0x3f, 0x5a, 0x78, 0x3f, 0x00, 0x00, 0x3f, 0x5a, 0x78, 0x3f, 0x00,
  0x00, 0x3f, 0x5a, 0x78, 0x3f, 0x00, 0x00, 0x3f, 0x5a, 0x78, 0x3f, 0x00,
  0x00, 0x3f, 0x5a, 0x78, 0x3f, 0x00, 0x00, 0x43, 0x5a, 0x78, 0x43, 0x00,
  0x00, 0x43, 0x5a, 0x78, 0x43, 0x00, 0x00, 0x43, 0x5a, 0x78, 0x43, 0x00,
  0x00, 0x43, 0x5a, 0x78, 0x43, 0x00, 0x00, 0x43, 0x5a, 0x78, 0x43, 0x00,
  0x00, 0x43, 0x5a, 0x78, 0x43, 0x00, 0x00, 0x43, 0x5a, 0x78, 0x43, 0x00,
  0x00, 0x43, 0x5a, 0x78, 0x43, 0x00, 0x00, 0x43, 0x5a, 0x78, 0x43, 0x00,
  0x00, 0x43, 0x5a, 0x78, 0x43, 0x00, 0x00, 0x43, 0x5a, 0x78, 0x43, 0x00,
  0x00, 0x43, 0x5a, 0x78, 0x43, 0x00, 0x00, 0x43, 0x5a, 0x78, 0x43, 0x00,
  0x00, 0x43, 0x5a, 0x78, 0x43, 0x00, 0x00, 0x43, 0x5a, 0x78, 0x43, 0x00,
  0x00, 0x43, 0x5a, 0x78, 0x43, 0x00, 0x00, 0x43, 0x5a, 0x81, 0x70, 0x43,
  0x00, 0x00, 0x43, 0x5a, 0x83, 0x60, 0x43, 0x00, 0x00, 0x43, 0x5a, 0x83,
  0x60, 0x43, 0x00, 0x00, 0x43, 0x5a, 0x83, 0x60, 0x43, 0x00, 0x00, 0x43,
  0x5a, 0x81, 0x70, 0x43, 0x00, 0x00, 0x40, 0x5a, 0x78, 0x40, 0x00, 0x00,
  0x40, 0x5a, 0x78, 0x40, 0x00, 0x00, 0x40, 0x5a, 0x78, 0x40, 0x00, 0x00,
  0x40, 0x5a, 0x78, 0x40, 0x00, 0x00, 0x40, 0x5a, 0x78, 0x40, 0x00, 0x00,
  0x40, 0x5a, 0x78, 0x40, 0x00, 0x00, 0x40, 0x5a, 0x78, 0x40, 0x00, 0x00,
  0x40, 0x5a, 0x78, 0x40, 0x00, 0x00, 0x40, 0x5a, 0x78, 0x40, 0x00, 0x00,
  0x40, 0x5a, 0x78, 0x40, 0x00, 0x00, 0x40, 0x5a, 0x78, 0x40, 0x00, 0x00,
  0x40, 0x5a, 0x78, 0x40, 0x00, 0x00, 0x40, 0x5a, 0x78, 0x40, 0x00, 0x00,
  0x40, 0x5a, 0x78, 0x40, 0x00, 0x00, 0x40, 0x5a, 0x78, 0x40, 0x00, 0x00,
  0x40, 0x5a, 0x78, 0x40, 0x00, 0x00, 0x40, 0x5a, 0x78, 0x40, 0x00, 0x00,
  0x40, 0x5a, 0x78, 0x40, 0x00, 0x00, 0x40, 0x5a, 0x78, 0x40, 0x00, 0x00,
  0x40, 0x5a, 0x78, 0x40, 0x00, 0x00, 0x40, 0x5a, 0x78, 0x40, 0x00, 0x00,
  0x40, 0x5a, 0x78, 0x40, 0x00, 0x00, 0x40, 0x5a, 0x78, 0x40, 0x00, 0x00,
  0x40, 0x5a, 0x78, 0x40, 0x00, 0x00, 0x40, 0x5a, 0x78, 0x40, 0x00, 0x00,
  0x40, 0x5a, 0x78, 0x40, 0x00, 0x00, 0x40, 0x5a, 0x78, 0x40, 0x00, 0x00,
  0x40, 0x5a, 0x78, 0x40, 0x00, 0x00, 0x40, 0x5a, 0x78, 0x40, 0x00, 0x00,
  0x40, 0x5a, 0x78, 0x40, 0x00, 0x00, 0x40, 0x5a, 0x78, 0x40, 0x00, 0x00,
  0x40, 0x5a, 0x78, 0x40, 0x00, 0x00, 0x45, 0x5a, 0x81, 0x70, 0x45, 0x00,
  0x00, 0x45, 0x5a, 0x83, 0x60, 0x45, 0x00, 0x00, 0x45, 0x5a, 0x83, 0x60,
  0x45, 0x00, 0x00, 0x45, 0x5a, 0x83, 0x60, 0x45, 0x00, 0x00, 0x45, 0x5a,
  0x81, 0x70, 0x45, 0x00, 0x00, 0x43, 0x5a, 0x78, 0x43, 0x00, 0x00, 0x43,
  0x5a, 0x78, 0x43, 0x00, 0x00, 0x43, 0x5a, 0x78, 0x43, 0x00, 0x00, 0x43,
  0x5a, 0x78, 0x43, 0x00, 0x00, 0x43, 0x5a, 0x78, 0x43, 0x00, 0x00, 0x43,
  0x5a, 0x78, 0x43, 0x00, 0x00, 0x43, 0x5a, 0x78, 0x43, 0x00, 0x00, 0x43,
  0x5a, 0x78, 0x43, 0x00, 0x00, 0x3f, 0x5a, 0x78, 0x3f, 0x00, 0x00, 0x3f,
  0x5a, 0x78, 0x3f, 0x00, 0x00, 0x3f, 0x5a, 0x78, 0x3f, 0x00, 0x00, 0x3f,
  0x5a, 0x78, 0x3f, 0x00, 0x00, 0x3f, 0x5a, 0x78, 0x3f, 0x00, 0x00, 0x3f,
  0x5a, 0x78, 0x3f, 0x00, 0x00, 0x3f, 0x5a, 0x78, 0x3f, 0x00, 0x00, 0x3f,
  0x5a, 0x78, 0x3f, 0x00, 0x00, 0x3e, 0x5a, 0x78, 0x3e, 0x00, 0x00, 0x3e,
  0x5a, 0x78, 0x3e, 0x00, 0x00, 0x3e, 0x5a, 0x78, 0x3e, 0x00, 0x00, 0x3e,
  0x5a, 0x78, 0x3e, 0x00, 0x00, 0x3e, 0x5a, 0x78, 0x3e, 0x00, 0x00, 0x3e,
  0x5a, 0x78, 0x3e, 0x00, 0x00, 0x3e, 0x5a, 0x78, 0x3e, 0x00, 0x00, 0x3e,
  0x5a, 0x78, 0x3e, 0x00, 0x00, 0x3c, 0x5a, 0x78, 0x3c, 0x00, 0x00, 0x3c,
  0x5a, 0x78, 0x3c, 0x00, 0x00, 0x3c, 0x5a, 0x78, 0x3c, 0x00, 0x00, 0x3c,
  0x5a, 0x78, 0x3c, 0x00, 0x00, 0x3c, 0x5a, 0x78, 0x3c, 0x00, 0x00, 0x3c,
  0x5a, 0x78, 0x3c, 0x00, 0x00, 0x3c, 0x5a, 0x78, 0x3c, 0x00, 0x00, 0x3c,
  0x5a, 0x78, 0x3c, 0x00, 0x00, 0x43, 0x5a, 0x78, 0x43, 0x00, 0x00, 0x43,
  0x5a, 0x78, 0x43, 0x00, 0x00, 0x43, 0x5a, 0x78, 0x43, 0x00, 0x00, 0x43,
  0x5a, 0x78, 0x43, 0x00, 0x00, 0x43, 0x5a, 0x78, 0x43, 0x00, 0x00, 0x43,
  0x5a, 0x78, 0x43, 0x00, 0x00, 0x43, 0x5a, 0x78, 0x43, 0x00, 0x00, 0x43,
  0x5a, 0x78, 0x43, 0x00, 0x00, 0x41, 0x5a, 0x78, 0x41, 0x00, 0x00, 0x41,
  0x5a, 0x78, 0x41, 0x00, 0x00, 0x41, 0x5a, 0x78, 0x41, 0x00, 0x00, 0x41,
  0x5a, 0x78, 0x41, 0x00, 0x00, 0x41, 0x5a, 0x78, 0x41, 0x00, 0x00, 0x41,
  0x5a, 0x78, 0x41, 0x00, 0x00, 0x41, 0x5a, 0x78, 0x41, 0x00, 0x00, 0x41,
  0x5a, 0x78, 0x41, 0x00, 0x00, 0x41, 0x5a, 0x78, 0x41, 0x00, 0x00, 0x41,
  0x5a, 0x78, 0x41, 0x00, 0x00, 0x41, 0x5a, 0x78, 0x41, 0x00, 0x00, 0x41,
  0x5a, 0x78, 0x41, 0x00, 0x00, 0x40, 0x5a, 0x78, 0x40, 0x00, 0x00, 0x40,
  0x5a, 0x78, 0x40, 0x00, 0x00, 0x40, 0x5a, 0x78, 0x40, 0x00, 0x00, 0x40,
  0x5a, 0x78, 0x40, 0x00, 0x00, 0x39, 0x5a, 0x85, 0x50, 0x39, 0x00, 0x00,
  0x39, 0x5a, 0x81, 0x70, 0x39, 0x00, 0x00, 0x38, 0x5a, 0x78, 0x38, 0x00,
  0x00, 0x38, 0x5a, 0x78, 0x38, 0x00, 0x00, 0x39, 0x5a, 0x78, 0x39, 0x00,
  0x00, 0x39, 0x5a, 0x78, 0x39, 0x00, 0x00, 0x38, 0x5a, 0x78, 0x38, 0x00,
  0x00, 0x38, 0x5a, 0x78, 0x38, 0x00, 0x00, 0x39, 0x5a, 0x78, 0x39, 0x00,
  0x00, 0x39, 0x5a, 0x78, 0x39, 0x00, 0x00, 0x38, 0x5a, 0x78, 0x38, 0x00,
  0x00, 0x38, 0x5a, 0x78, 0x38, 0x00, 0x00, 0x39, 0x5a, 0x78, 0x39, 0x00,
  0x00, 0x39, 0x5a, 0x78, 0x39, 0x00, 0x00, 0x38, 0x5a, 0x78, 0x38, 0x00,
  0x00, 0x38, 0x5a, 0x78, 0x38, 0x00, 0x00, 0x39, 0x5a, 0x78, 0x39, 0x00,
  0x00, 0x39, 0x5a, 0x78, 0x39, 0x00, 0x00, 0x3a, 0x5a, 0x83, 0x60, 0x3a,
  0x00, 0x00, 0x39, 0x5a, 0x83, 0x60, 0x39, 0x00, 0x00, 0x45, 0x5a, 0x85,
  0x50, 0x45, 0x00, 0x00, 0x45, 0x5a, 0x81, 0x70, 0x45, 0x00, 0x00, 0x44,
  0x5a, 0x83, 0x60, 0x44, 0x00, 0x00, 0x45, 0x5a, 0x83, 0x60, 0x45, 0x00,
  0x00, 0x45, 0x5a, 0x85, 0x50, 0x45, 0x00, 0x00, 0x45, 0x5a, 0x81, 0x70,
  0x45, 0x00, 0x00, 0x44, 0x5a, 0x83, 0x60, 0x44, 0x00, 0x00, 0x45, 0x5a,
  0x83, 0x60, 0x45, 0x00, 0x00, 0x39, 0x5a, 0x85, 0x50, 0x39, 0x00, 0x00,
  0x39, 0x5a, 0x81, 0x70, 0x39, 0x00, 0x00, 0x38, 0x5a, 0x78, 0x38, 0x00,
  0x00, 0x38, 0x5a, 0x78, 0x38, 0x00, 0x00, 0x39, 0x5a, 0x78, 0x39, 0x00,
  0x00, 0x39, 0x5a, 0x78, 0x39, 0x00, 0x00, 0x38, 0x5a, 0x78, 0x38, 0x00,
  0x00, 0x38, 0x5a, 0x78, 0x38, 0x00, 0x00, 0x39, 0x5a, 0x78, 0x39, 0x00,
  0x00, 0x39, 0x5a, 0x78, 0x39, 0x00, 0x00, 0x38, 0x5a, 0x78, 0x38, 0x00,
  0x00, 0x38, 0x5a, 0x78, 0x38, 0x00, 0x00, 0x39, 0x5a, 0x78, 0x39, 0x00,
  0x00, 0x39, 0x5a, 0x78, 0x39, 0x00, 0x00, 0x38, 0x5a, 0x78, 0x38, 0x00,
  0x00, 0x38, 0x5a, 0x78, 0x38, 0x00, 0x00, 0x39, 0x5a, 0x78, 0x39, 0x00,
  0x00, 0x39, 0x5a, 0x78, 0x39, 0x00, 0x00, 0x3a, 0x5a, 0x83, 0x60, 0x3a,
  0x00, 0x00, 0x39, 0x5a, 0x83, 0x60, 0x39, 0x00, 0x00, 0x40, 0x5a, 0x85,
  0x50, 0x40, 0x00, 0x00, 0x40, 0x5a, 0x81, 0x70, 0x40, 0x00, 0x00, 0x41,
  0x5a, 0x83, 0x60, 0x41, 0x00, 0x00, 0x40, 0x5a, 0x83, 0x60, 0x40, 0x00,
  0x00, 0x40, 0x5a, 0x85, 0x50, 0x40, 0x00, 0x00, 0x40, 0x5a, 0x81, 0x70,
  0x40, 0x00, 0x00, 0x41, 0x5a, 0x83, 0x60, 0x41, 0x00, 0x00, 0x40, 0x5a,
  0x83, 0x60, 0x40, 0x00, 0x00, 0x39, 0x5a, 0x85, 0x50, 0x39, 0x00, 0x00,
  0x39, 0x5a, 0x81, 0x70, 0x39, 0x00, 0x00, 0x38, 0x5a, 0x78, 0x38, 0x00,
  0x00, 0x38, 0x5a, 0x78, 0x38, 0x00, 0x00, 0x39, 0x5a, 0x78, 0x39, 0x00,
  0x00, 0x39, 0x5a, 0x78, 0x39, 0x00, 0x00, 0x38, 0x5a, 0x78, 0x38, 0x00,
  0x00, 0x38, 0x5a, 0x78, 0x38, 0x00, 0x00, 0x39, 0x5a, 0x78, 0x39, 0x00,
  0x00, 0x39, 0x5a, 0x78, 0x39, 0x00, 0x00, 0x38, 0x5a, 0x78, 0x38, 0x00,
  0x00, 0x38, 0x5a, 0x78, 0x38, 0x00, 0x00, 0x39, 0x5a, 0x78, 0x39, 0x00,
  0x00, 0x39, 0x5a, 0x78, 0x39, 0x00, 0x00, 0x38, 0x5a, 0x78, 0x38, 0x00,
  0x00, 0x38, 0x5a, 0x78, 0x38, 0x00, 0x00, 0x39, 0x5a, 0x78, 0x39, 0x00,
  0x00, 0x39, 0x5a, 0x78, 0x39, 0x00, 0x00, 0x3a, 0x5a, 0x81, 0x70, 0x3a,
  0x00, 0x00, 0x43, 0x5a, 0x78, 0x43, 0x00, 0x00, 0x43, 0x5a, 0x78, 0x43,
  0x00, 0x00, 0x46, 0x5a, 0x78, 0x46, 0x00, 0x00, 0x46, 0x5a, 0x78, 0x46,
  0x00, 0x00, 0x4a, 0x5a, 0x78, 0x4a, 0x00, 0x00, 0x4a, 0x5a, 0x78, 0x4a,
  0x00, 0x00, 0x4f, 0x5a, 0x81, 0x70, 0x4f, 0x00, 0x00, 0x43, 0x5a, 0x83,
  0x60, 0x43, 0x00, 0x00, 0x43, 0x5a, 0x81, 0x70, 0x43, 0x00, 0x00, 0x45,
  0x5a, 0x78, 0x45, 0x00, 0x00, 0x45, 0x5a, 0x78, 0x45, 0x00, 0x00, 0x46,
  0x5a, 0x78, 0x46, 0x00, 0x00, 0x46, 0x5a, 0x78, 0x46, 0x00, 0x00, 0x45,
  0x5a, 0x78, 0x45, 0x00, 0x00, 0x45, 0x5a, 0x78, 0x45, 0x00, 0x00, 0x46,
  0x5a, 0x78, 0x46, 0x00, 0x00, 0x46, 0x5a, 0x78, 0x46, 0x00, 0x00, 0x45,
  0x5a, 0x78, 0x45, 0x00, 0x00, 0x45, 0x5a, 0x78, 0x45, 0x00, 0x00, 0x46,
  0x5a, 0x78, 0x46, 0x00, 0x00, 0x46, 0x5a, 0x78, 0x46, 0x00, 0x00, 0x45,
  0x5a, 0x78, 0x45, 0x00, 0x00, 0x45, 0x5a, 0x78, 0x45, 0x00, 0x00, 0x46,
  0x5a, 0x78, 0x46, 0x00, 0x00, 0x46, 0x5a, 0x78, 0x46, 0x00, 0x00, 0x40,
  0x5a, 0x78, 0x40, 0x00, 0x00, 0x43, 0x5a, 0x78, 0x43, 0x00, 0x00, 0x40,
  0x5a, 0x78, 0x40, 0x00, 0x00, 0x43, 0x5a, 0x78, 0x43, 0x00, 0x00, 0x40,
  0x5a, 0x78, 0x40, 0x00, 0x00, 0x45, 0x5a, 0x78, 0x45, 0x00, 0x00, 0x49,
  0x5a, 0x78, 0x49, 0x00, 0x00, 0x4c, 0x5a, 0x78, 0x4c, 0x00, 0x00, 0x51,
  0x5a, 0x81, 0x70, 0x51, 0x00, 0x00, 0x49, 0x5a, 0x83, 0x60, 0x49, 0x00,
  0x00, 0x49, 0x5a, 0x81, 0x70, 0x49, 0x00, 0x00, 0x4a, 0x5a, 0x78, 0x4a,
  0x00, 0x00, 0x4a, 0x5a, 0x78, 0x4a, 0x00, 0x00, 0x4a, 0x5a, 0x78, 0x4a,
  0x00, 0x00, 0x4a, 0x5a, 0x78, 0x4a, 0x00, 0x00, 0x49, 0x5a, 0x78, 0x49,
  0x00, 0x00, 0x49, 0x5a, 0x78, 0x49, 0x00, 0x00, 0x49, 0x5a, 0x78, 0x49,
  0x00, 0x00, 0x49, 0x5a, 0x78, 0x49, 0x00, 0x00, 0x4a, 0x5a, 0x78, 0x4a,
  0x00, 0x00, 0x4a, 0x5a, 0x78, 0x4a, 0x00, 0x00, 0x4a, 0x5a, 0x78, 0x4a,
  0x00, 0x00, 0x4a, 0x5a, 0x78, 0x4a, 0x00, 0x00, 0x49, 0x5a, 0x78, 0x49,
  0x00, 0x00, 0x49, 0x5a, 0x78, 0x49, 0x00, 0x00, 0x49, 0x5a, 0x78, 0x49,
  0x00, 0x00, 0x49, 0x5a, 0x78, 0x49, 0x00, 0x00, 0x4a, 0x5a, 0x78, 0x4a,
  0x00, 0x00, 0x4a, 0x5a, 0x78, 0x4a, 0x00, 0x00, 0x4a, 0x5a, 0x78, 0x4a,
  0x00, 0x00, 0x4a, 0x5a, 0x78, 0x4a, 0x00, 0x00, 0x49, 0x5a, 0x78, 0x49,
  0x00, 0x00, 0x45, 0x5a, 0x78, 0x45, 0x00, 0x00, 0x49, 0x5a, 0x78, 0x49,
  0x00, 0x00, 0x4c, 0x5a, 0x78, 0x4c, 0x00, 0x00, 0x51, 0x5a, 0x81, 0x70,
  0x51, 0x00, 0x00, 0x4d, 0x5a, 0x83, 0x60, 0x4d, 0x00, 0x00, 0x4d, 0x5a,
  0x81, 0x70, 0x4d, 0x00, 0x00, 0x4f, 0x5a, 0x78, 0x4f, 0x00, 0x00, 0x4f,
  0x5a, 0x78, 0x4f, 0x00, 0x00, 0x4f, 0x5a, 0x78, 0x4f, 0x00, 0x00, 0x4f,
  0x5a, 0x78, 0x4f, 0x00, 0x00, 0x4d, 0x5a, 0x78, 0x4d, 0x00, 0x00, 0x4d,
  0x5a, 0x78, 0x4d, 0x00, 0x00, 0x4d, 0x5a, 0x78, 0x4d, 0x00, 0x00, 0x4d,
  0x5a, 0x78, 0x4d, 0x00, 0x00, 0x4f, 0x5a, 0x78, 0x4f, 0x00, 0x00, 0x4f,
  0x5a, 0x78, 0x4f, 0x00, 0x00, 0x4f, 0x5a, 0x78, 0x4f, 0x00, 0x00, 0x4f,
  0x5a, 0x78, 0x4f, 0x00, 0x00, 0x4d, 0x5a, 0x78, 0x4d, 0x00, 0x00, 0x4d,
  0x5a, 0x78, 0x4d, 0x00, 0x00, 0x4d, 0x5a, 0x78, 0x4d, 0x00, 0x00, 0x4d,
  0x5a, 0x78, 0x4d, 0x00, 0x00, 0x4f, 0x5a, 0x78, 0x4f, 0x00, 0x00, 0x4f,
  0x5a, 0x78, 0x4f, 0x00, 0x00, 0x4f, 0x5a, 0x78, 0x4f, 0x00, 0x00, 0x4f,
  0x5a, 0x78, 0x4f, 0x00, 0x00, 0x4d, 0x5a, 0x81, 0x70, 0x4d, 0x00, 0x00,
  0x51, 0x5a, 0x78, 0x51, 0x00, 0x00, 0x51, 0x5a, 0x78, 0x51, 0x00, 0x00,
  0x4d, 0x5a, 0x78, 0x4d, 0x00, 0x00, 0x4d, 0x5a, 0x78, 0x4d, 0x00, 0x00,
  0x4a, 0x5a, 0x78, 0x4a, 0x00, 0x00, 0x4a, 0x5a, 0x78, 0x4a, 0x00, 0x00,
  0x4d, 0x5a, 0x78, 0x4d, 0x00, 0x00, 0x4d, 0x5a, 0x78, 0x4d, 0x00, 0x00,
  0x51, 0x5a, 0x78, 0x51, 0x00, 0x00, 0x51, 0x5a, 0x78, 0x51, 0x00, 0x00,
  0x56, 0x5a, 0x78, 0x56, 0x00, 0x00, 0x56, 0x5a, 0x78, 0x56, 0x00, 0x00,
  0x51, 0x5a, 0x78, 0x51, 0x00, 0x00, 0x51, 0x5a, 0x78, 0x51, 0x00, 0x00,
  0x4d, 0x5a, 0x78, 0x4d, 0x00, 0x00, 0x4d, 0x5a, 0x78, 0x4d, 0x00, 0x00,
  0x4a, 0x5a, 0x78, 0x4a, 0x00, 0x00, 0x4a, 0x5a, 0x78, 0x4a, 0x00, 0x00,
  0x56, 0x5a, 0x78, 0x56, 0x00, 0x00, 0x56, 0x5a, 0x78, 0x56, 0x00, 0x00,
  0x51, 0x5a, 0x78, 0x51, 0x00, 0x00, 0x51, 0x5a, 0x78, 0x51, 0x00, 0x00,
  0x4d, 0x5a, 0x78, 0x4d, 0x00, 0x00, 0x4d, 0x5a, 0x78, 0x4d, 0x00, 0x00,
  0x4a, 0x5a, 0x78, 0x4a, 0x00, 0x00, 0x4a, 0x5a, 0x78, 0x4a, 0x00, 0x00,
  0x56, 0x5a, 0x78, 0x56, 0x00, 0x00, 0x56, 0x5a, 0x78, 0x56, 0x00, 0x00,
  0x51, 0x5a, 0x78, 0x51, 0x00, 0x00, 0x51, 0x5a, 0x78, 0x51, 0x00, 0x00,
  0x4d, 0x5a, 0x78, 0x4d, 0x00, 0x00, 0x4d, 0x5a, 0x78, 0x4d, 0x00, 0x00,
  0x4a, 0x5a, 0x78, 0x4a, 0x00, 0x00, 0x4a, 0x5a, 0x78, 0x4a, 0x00, 0x00,
  0x56, 0x5a, 0x78, 0x56, 0x00, 0x00, 0x56, 0x5a, 0x78, 0x56, 0x00, 0x00,
  0x51, 0x5a, 0x78, 0x51, 0x00, 0x00, 0x51, 0x5a, 0x78, 0x51, 0x00, 0x00,
  0x4d, 0x5a, 0x78, 0x4d, 0x00, 0x00, 0x4d, 0x5a, 0x78, 0x4d, 0x00, 0x00,
  0x4a, 0x5a, 0x78, 0x4a, 0x00, 0x00, 0x4a, 0x5a, 0x78, 0x4a, 0x00, 0x00,
  0x56, 0x5a, 0x78, 0x56, 0x00, 0x00, 0x56, 0x5a, 0x78, 0x56, 0x00, 0x00,
  0x51, 0x5a, 0x78, 0x51, 0x00, 0x00, 0x51, 0x5a, 0x78, 0x51, 0x00, 0x00,
  0x4d, 0x5a, 0x78, 0x4d, 0x00, 0x00, 0x4d, 0x5a, 0x78, 0x4d, 0x00, 0x00,
  0x4a, 0x5a, 0x78, 0x4a, 0x00, 0x00, 0x4a, 0x5a, 0x78, 0x4a, 0x00, 0x00,
  0x56, 0x5a, 0x78, 0x56, 0x00, 0x00, 0x56, 0x5a, 0x78, 0x56, 0x00, 0x00,
  0x51, 0x5a, 0x78, 0x51, 0x00, 0x00, 0x51, 0x5a, 0x78, 0x51, 0x00, 0x00,
  0x4d, 0x5a, 0x78, 0x4d, 0x00, 0x00, 0x4d, 0x5a, 0x78, 0x4d, 0x00, 0x00,
  0x4a, 0x5a, 0x78, 0x4a, 0x00, 0x00, 0x4a, 0x5a, 0x78, 0x4a, 0x00, 0x00,
  0x55, 0x5a, 0x78, 0x55, 0x00, 0x00, 0x55, 0x5a, 0x78, 0x55, 0x00, 0x00,
  0x4f, 0x5a, 0x78, 0x4f, 0x00, 0x00, 0x4f, 0x5a, 0x78, 0x4f, 0x00, 0x00,
  0x4d, 0x5a, 0x78, 0x4d, 0x00, 0x00, 0x4d, 0x5a, 0x78, 0x4d, 0x00, 0x00,
  0x56, 0x5a, 0x78, 0x56, 0x00, 0x00, 0x56, 0x5a, 0x78, 0x56, 0x00, 0x00,
  0x4c, 0x5a, 0x78, 0x4c, 0x00, 0x00, 0x4c, 0x5a, 0x78, 0x4c, 0x00, 0x00,
  0x56, 0x5a, 0x78, 0x56, 0x00, 0x00, 0x56, 0x5a, 0x78, 0x56, 0x00, 0x00,
  0x4c, 0x5a, 0x78, 0x4c, 0x00, 0x00, 0x4c, 0x5a, 0x78, 0x4c, 0x00, 0x00,
  0x55, 0x5a, 0x78, 0x55, 0x00, 0x00, 0x55, 0x5a, 0x78, 0x55, 0x00, 0x00,
  0x56, 0x5a, 0x78, 0x56, 0x00, 0x00, 0x56, 0x5a, 0x78, 0x56, 0x00, 0x00,
  0x51, 0x5a, 0x78, 0x51, 0x00, 0x00, 0x51, 0x5a, 0x78, 0x51, 0x00, 0x00,
  0x4d, 0x5a, 0x78, 0x4d, 0x00, 0x00, 0x4d, 0x5a, 0x78, 0x4d, 0x00, 0x00,
  0x4a, 0x5a, 0x78, 0x4a, 0x00, 0x00, 0x4a, 0x5a, 0x78, 0x4a, 0x00, 0x00,
  0x56, 0x5a, 0x78, 0x56, 0x00, 0x00, 0x56, 0x5a, 0x78, 0x56, 0x00, 0x00,
  0x51, 0x5a, 0x78, 0x51, 0x00, 0x00, 0x51, 0x5a, 0x78, 0x51, 0x00, 0x00,
  0x4d, 0x5a, 0x78, 0x4d, 0x00, 0x00, 0x4d, 0x5a, 0x78, 0x4d, 0x00, 0x00,
  0x4a, 0x5a, 0x78, 0x4a, 0x00, 0x00, 0x4a, 0x5a, 0x78, 0x4a, 0x00, 0x00,
  0x56, 0x5a, 0x78, 0x56, 0x00, 0x00, 0x56, 0x5a, 0x78, 0x56, 0x00, 0x00,
  0x52, 0x5a, 0x78, 0x52, 0x00, 0x00, 0x52, 0x5a, 0x78, 0x52, 0x00, 0x00,
  0x4d, 0x5a, 0x78, 0x4d, 0x00, 0x00, 0x4d, 0x5a, 0x78, 0x4d, 0x00, 0x00,
  0x4a, 0x5a, 0x78, 0x4a, 0x00, 0x00, 0x4a, 0x5a, 0x78, 0x4a, 0x00, 0x00,
  0x56, 0x5a, 0x78, 0x56, 0x00, 0x00, 0x56, 0x5a, 0x78, 0x56, 0x00, 0x00,
  0x52, 0x5a, 0x78, 0x52, 0x00, 0x00, 0x52, 0x5a, 0x78, 0x52, 0x00, 0x00,
  0x4d, 0x5a, 0x78, 0x4d, 0x00, 0x00, 0x4d, 0x5a, 0x78, 0x4d, 0x00, 0x00,
  0x4a, 0x5a, 0x78, 0x4a, 0x00, 0x00, 0x4a, 0x5a, 0x78, 0x4a, 0x00, 0x00,
  0x57, 0x5a, 0x78, 0x57, 0x00, 0x00, 0x57, 0x5a, 0x78, 0x57, 0x00, 0x00,
  0x52, 0x5a, 0x78, 0x52, 0x00, 0x00, 0x52, 0x5a, 0x78, 0x52, 0x00, 0x00,
  0x4f, 0x5a, 0x78, 0x4f, 0x00, 0x00, 0x4f, 0x5a, 0x78, 0x4f, 0x00, 0x00,
  0x4b, 0x5a, 0x78, 0x4b, 0x00, 0x00, 0x4b, 0x5a, 0x78, 0x4b, 0x00, 0x00,
  0x52, 0x5a, 0x78, 0x52, 0x00, 0x00, 0x52, 0x5a, 0x78, 0x52, 0x00, 0x00,
  0x4f, 0x5a, 0x78, 0x4f, 0x00, 0x00, 0x4f, 0x5a, 0x78, 0x4f, 0x00, 0x00,
  0x4b, 0x5a, 0x78, 0x4b, 0x00, 0x00, 0x4b, 0x5a, 0x78, 0x4b, 0x00, 0x00,
  0x4a, 0x5a, 0x78, 0x4a, 0x00, 0x00, 0x4a, 0x5a, 0x78, 0x4a, 0x00, 0x00,
  0x49, 0x5a, 0x78, 0x49, 0x00, 0x00, 0x49, 0x5a, 0x78, 0x49, 0x00, 0x00,
  0x4f, 0x5a, 0x78, 0x4f, 0x00, 0x00, 0x4f, 0x5a, 0x78, 0x4f, 0x00, 0x00,
  0x4d, 0x5a, 0x78, 0x4d, 0x00, 0x00, 0x4d, 0x5a, 0x78, 0x4d, 0x00, 0x00,
  0x56, 0x5a, 0x78, 0x56, 0x00, 0x00, 0x56, 0x5a, 0x78, 0x56, 0x00, 0x00,
  0x4c, 0x5a, 0x78, 0x4c, 0x00, 0x00, 0x4c, 0x5a, 0x78, 0x4c, 0x00, 0x00,
  0x56, 0x5a, 0x78, 0x56, 0x00, 0x00, 0x56, 0x5a, 0x78, 0x56, 0x00, 0x00,
  0x45, 0x5a, 0x78, 0x45, 0x00, 0x00, 0x45, 0x5a, 0x78, 0x45, 0x00, 0x00,
  0x55, 0x5a, 0x78, 0x55, 0x00, 0x00, 0x55, 0x5a, 0x78, 0x55, 0x00, 0x00,
  0x4a, 0x5a, 0x83, 0x60, 0x4a, 0x00, 0x81, 0x70, 0x41, 0x5a, 0x78, 0x41,
  0x00, 0x00, 0x41, 0x5a, 0x78, 0x41, 0x00, 0x00, 0x40, 0x5a, 0x78, 0x40,
  0x00, 0x00, 0x40, 0x5a, 0x78, 0x40, 0x00, 0x00, 0x3e, 0x5a, 0x78, 0x3e,
  0x00, 0x00, 0x3e, 0x5a, 0x78, 0x3e, 0x00, 0x00, 0x40, 0x5a, 0x78, 0x40,
  0x00, 0x00, 0x40, 0x5a, 0x78, 0x40, 0x00, 0x00, 0x41, 0x5a, 0x78, 0x41,
  0x00, 0x00, 0x41, 0x5a, 0x78, 0x41, 0x00, 0x00, 0x40, 0x5a, 0x78, 0x40,
  0x00, 0x00, 0x40, 0x5a, 0x78, 0x40, 0x00, 0x00, 0x3e, 0x5a, 0x78, 0x3e,
  0x00, 0x00, 0x3e, 0x5a, 0x78, 0x3e, 0x00, 0x00, 0x46, 0x5a, 0x78, 0x46,
  0x00, 0x00, 0x46, 0x5a, 0x78, 0x46, 0x00, 0x00, 0x45, 0x5a, 0x78, 0x45,
  0x00, 0x00, 0x45, 0x5a, 0x78, 0x45, 0x00, 0x00, 0x43, 0x5a, 0x78, 0x43,
  0x00, 0x00, 0x43, 0x5a, 0x78, 0x43, 0x00, 0x00, 0x41, 0x5a, 0x78, 0x41,
  0x00, 0x00, 0x41, 0x5a, 0x78, 0x41, 0x00, 0x00, 0x40, 0x5a, 0x78, 0x40,
  0x00, 0x00, 0x40, 0x5a, 0x78, 0x40, 0x00, 0x00, 0x49, 0x5a, 0x78, 0x49,
  0x00, 0x00, 0x49, 0x5a, 0x78, 0x49, 0x00, 0x00, 0x4a, 0x5a, 0x78, 0x4a,
  0x00, 0x00, 0x4a, 0x5a, 0x78, 0x4a, 0x00, 0x00, 0x4a, 0x5a, 0x78, 0x4a,
  0x00, 0x00, 0x4a, 0x5a, 0x78, 0x4a, 0x00, 0x00, 0x4a, 0x5a, 0x78, 0x4a,
  0x00, 0x00, 0x4a, 0x5a, 0x78, 0x4a, 0x00, 0x00, 0x4a, 0x5a, 0x78, 0x4a,
  0x00, 0x00, 0x4a, 0x5a, 0x78, 0x4a, 0x00, 0x00, 0x4a, 0x5a, 0x78, 0x4a,
  0x00, 0x00, 0x4a, 0x5a, 0x78, 0x4a, 0x00, 0x00, 0x4d, 0x5a, 0x78, 0x4d,
  0x00, 0x00, 0x4d, 0x5a, 0x78, 0x4d, 0x00, 0x00, 0x49, 0x5a, 0x78, 0x49,
  0x00, 0x00, 0x49, 0x5a, 0x78, 0x49, 0x00, 0x00, 0x4c, 0x5a, 0x78, 0x4c,
  0x00, 0x00, 0x4c, 0x5a, 0x78, 0x4c, 0x00, 0x00, 0x4a, 0x5a, 0x83, 0x60,
  0x4a, 0x00, 0x00, 0x3e, 0x5a, 0x83, 0x60, 0x3e, 0x00, 0x00, 0xff, 0x2f,
  0x00, 0x4d, 0x54, 0x72, 0x6b, 0x00, 0x00, 0x10, 0xd2, 0x00, 0xff, 0x21,
  0x01, 0x00, 0x00, 0xff, 0x03, 0x07, 0x54, 0x72, 0x61, 0x63, 0x6b, 0x20,
  0x37, 0x00, 0xc6, 0x30, 0x00, 0xb6, 0x07, 0x70, 0x00, 0xb6, 0x0a, 0x5a,
  0x17, 0xb6, 0x5b, 0x50, 0x11, 0x96, 0x39, 0x5a, 0x50, 0x3e, 0x5a, 0x28,
  0x39, 0x00, 0x50, 0x3e, 0x00, 0x00, 0x3e, 0x5a, 0x78, 0x3e, 0x00, 0x00,
  0x3e, 0x5a, 0x78, 0x3e, 0x00, 0x00, 0x3e, 0x5a, 0x78, 0x3e, 0x00, 0x00,
  0x3e, 0x5a, 0x78, 0x3e, 0x00, 0x00, 0x3e, 0x5a, 0x78, 0x3e, 0x00, 0x00,
  0x3e, 0x5a, 0x78, 0x3e, 0x00, 0x00, 0x39, 0x5a, 0x78, 0x39, 0x00, 0x00,
  0x3e, 0x5a, 0x78, 0x3e, 0x00, 0x00, 0x3e, 0x5a, 0x78, 0x3e, 0x00, 0x00,
  0x3e, 0x5a, 0x78, 0x3e, 0x00, 0x00, 0x3e, 0x5a, 0x78, 0x3e, 0x00, 0x00,
  0x3e, 0x5a, 0x78, 0x3e, 0x00, 0x00, 0x3e, 0x5a, 0x78, 0x3e, 0x00, 0x00,
  0x3e, 0x5a, 0x78, 0x3e, 0x00, 0x00, 0x39, 0x5a, 0x81, 0x70, 0x39, 0x00,
  0x00, 0x40, 0x5a, 0x83, 0x60, 0x40, 0x00, 0x00, 0x40, 0x5a, 0x83, 0x60,
  0x40, 0x00, 0x00, 0x40, 0x5a, 0x83, 0x60, 0x40, 0x00, 0x00, 0x40, 0x5a,
  0x81, 0x70, 0x40, 0x00, 0x00, 0x39, 0x5a, 0x78, 0x39, 0x00, 0x00, 0x39,
  0x5a, 0x78, 0x39, 0x00, 0x00, 0x39, 0x5a, 0x78, 0x39, 0x00, 0x00, 0x39,
  0x5a, 0x78, 0x39, 0x00, 0x00, 0x39, 0x5a, 0x78, 0x39, 0x00, 0x00, 0x39,
  0x5a, 0x78, 0x39, 0x00, 0x00, 0x39, 0x5a, 0x78, 0x39, 0x00, 0x00, 0x39,
  0x5a, 0x78, 0x39, 0x00, 0x00, 0x39, 0x5a, 0x78, 0x39, 0x00, 0x00, 0x39,
  0x5a, 0x78, 0x39, 0x00, 0x00, 0x39, 0x5a, 0x78, 0x39, 0x00, 0x00, 0x39,
  0x5a, 0x78, 0x39, 0x00, 0x00, 0x39, 0x5a, 0x78, 0x39, 0x00, 0x00, 0x39,
  0x5a, 0x78, 0x39, 0x00, 0x00, 0x39, 0x5a, 0x78, 0x39, 0x00, 0x00, 0x39,
  0x5a, 0x78, 0x39, 0x00, 0x00, 0x39, 0x5a, 0x81, 0x70, 0x39, 0x00, 0x00,
  0x3e, 0x5a, 0x83, 0x60, 0x3e, 0x00, 0x00, 0x3e, 0x5a, 0x83, 0x60, 0x3e,
  0x00, 0x00, 0x3e, 0x5a, 0x83, 0x60, 0x3e, 0x00, 0x00, 0x3e, 0x5a, 0x81,
  0x70, 0x3e, 0x00, 0x00, 0x3a, 0x5a, 0x83, 0x60, 0x3a, 0x00, 0x00, 0x39,
  0x5a, 0x81, 0x70, 0x39, 0x00, 0x00, 0x39, 0x5a, 0x81, 0x70, 0x39, 0x00,
  0x00, 0x3e, 0x5a, 0x81, 0x70, 0x3e, 0x00, 0x00, 0x3e, 0x5a, 0x83, 0x60,
  0x3e, 0x00, 0x00, 0x3e, 0x5a, 0x81, 0x70, 0x3e, 0x00, 0x00, 0x40, 0x5a,
  0x83, 0x60, 0x40, 0x00, 0x00, 0x41, 0x5a, 0x81, 0x70, 0x41, 0x00, 0x00,
  0x41, 0x5a, 0x81, 0x70, 0x41, 0x00, 0x00, 0x41, 0x5a, 0x81, 0x70, 0x41,
  0x00, 0x00, 0x41, 0x5a, 0x83, 0x60, 0x41, 0x00, 0x00, 0x41, 0x5a, 0x81,
  0x70, 0x41, 0x00, 0x00, 0x3e, 0x5a, 0x81, 0x70, 0x3e, 0x00, 0x00, 0x3e,
  0x5a, 0x81, 0x70, 0x3e, 0x00, 0x00, 0x3e, 0x5a, 0x81, 0x70, 0x3e, 0x00,
  0x00, 0x3e, 0x5a, 0x81, 0x70, 0x3e, 0x00, 0x00, 0x3d, 0x5a, 0x81, 0x70,
  0x3d, 0x00, 0x00, 0x40, 0x5a, 0x81, 0x70, 0x40, 0x00, 0x00, 0x41, 0x5a,
  0x81, 0x70, 0x41, 0x00, 0x00, 0x45, 0x5a, 0x81, 0x70, 0x45, 0x00, 0x00,
  0x45, 0x5a, 0x81, 0x70, 0x45, 0x00, 0x00, 0x39, 0x5a, 0x81, 0x70, 0x39,
  0x00, 0x00, 0x39, 0x5a, 0x81, 0x70, 0x39, 0x00, 0x00, 0x39, 0x5a, 0x81,
  0x70, 0x39, 0x00, 0x00, 0x39, 0x5a, 0x81, 0x70, 0x39, 0x00, 0x00, 0x39,
  0x5a, 0x81, 0x70, 0x39, 0x00, 0x00, 0x39, 0x5a, 0x81, 0x70, 0x39, 0x00,
  0x00, 0x39, 0x5a, 0x81, 0x70, 0x39, 0x00, 0x00, 0x39, 0x5a, 0x81, 0x70,
  0x39, 0x00, 0x00, 0x39, 0x5a, 0x81, 0x70, 0x39, 0x00, 0x00, 0x3a, 0x5a,
  0x81, 0x70, 0x3a, 0x00, 0x00, 0x3b, 0x5a, 0x81, 0x70, 0x3b, 0x00, 0x00,
  0x3c, 0x5a, 0x81, 0x70, 0x3c, 0x00, 0x00, 0x41, 0x5a, 0x81, 0x70, 0x41,
  0x00, 0x00, 0x41, 0x5a, 0x81, 0x70, 0x41, 0x00, 0x00, 0x43, 0x5a, 0x81,
  0x70, 0x43, 0x00, 0x00, 0x3c, 0x5a, 0x78, 0x3c, 0x00, 0x00, 0x41, 0x5a,
  0x78, 0x41, 0x00, 0x00, 0x41, 0x5a, 0x78, 0x41, 0x00, 0x00, 0x41, 0x5a,
  0x78, 0x41, 0x00, 0x00, 0x41, 0x5a, 0x78, 0x41, 0x00, 0x00, 0x41, 0x5a,
  0x78, 0x41, 0x00, 0x00, 0x41, 0x5a, 0x78, 0x41, 0x00, 0x00, 0x41, 0x5a,
  0x78, 0x41, 0x00, 0x00, 0x3c, 0x5a, 0x78, 0x3c, 0x00, 0x00, 0x41, 0x5a,
  0x78, 0x41, 0x00, 0x00, 0x41, 0x5a, 0x78, 0x41, 0x00, 0x00, 0x41, 0x5a,
  0x78, 0x41, 0x00, 0x00, 0x41, 0x5a, 0x78, 0x41, 0x00, 0x00, 0x41, 0x5a,
  0x78, 0x41, 0x00, 0x00, 0x41, 0x5a, 0x78, 0x41, 0x00, 0x00, 0x41, 0x5a,
  0x78, 0x41, 0x00, 0x00, 0x41, 0x5a, 0x78, 0x41, 0x00, 0x00, 0x41, 0x5a,
  0x78, 0x41, 0x00, 0x00, 0x41, 0x5a, 0x78, 0x41, 0x00, 0x00, 0x41, 0x5a,
  0x78, 0x41, 0x00, 0x00, 0x41, 0x5a, 0x78, 0x41, 0x00, 0x00, 0x41, 0x5a,
  0x78, 0x41, 0x00, 0x00, 0x41, 0x5a, 0x78, 0x41, 0x00, 0x00, 0x41, 0x5a,
  0x78, 0x41, 0x00, 0x00, 0x41, 0x5a, 0x78, 0x41, 0x00, 0x00, 0x41, 0x5a,
  0x78, 0x41, 0x00, 0x00, 0x41, 0x5a, 0x78, 0x41, 0x00, 0x00, 0x41, 0x5a,
  0x78, 0x41, 0x00, 0x00, 0x3c, 0x5a, 0x78, 0x3c, 0x00, 0x00, 0x3c, 0x5a,
  0x78, 0x3c, 0x00, 0x00, 0x3c, 0x5a, 0x78, 0x3c, 0x00, 0x00, 0x3c, 0x5a,
  0x78, 0x3c, 0x00, 0x00, 0x39, 0x5a, 0x78, 0x39, 0x00, 0x00, 0x39, 0x5a,
  0x78, 0x39, 0x00, 0x00, 0x39, 0x5a, 0x78, 0x39, 0x00, 0x00, 0x39, 0x5a,
  0x78, 0x39, 0x00, 0x00, 0x36, 0x5a, 0x78, 0x36, 0x00, 0x00, 0x36, 0x5a,
  0x78, 0x36, 0x00, 0x00, 0x36, 0x5a, 0x78, 0x36, 0x00, 0x00, 0x36, 0x5a,
  0x78, 0x36, 0x00, 0x00, 0x39, 0x5a, 0x78, 0x39, 0x00, 0x00, 0x39, 0x5a,
  0x78, 0x39, 0x00, 0x00, 0x39, 0x5a, 0x78, 0x39, 0x00, 0x00, 0x39, 0x5a,
  0x78, 0x39, 0x00, 0x00, 0x3c, 0x5a, 0x78, 0x3c, 0x00, 0x00, 0x3c, 0x5a,
  0x78, 0x3c, 0x00, 0x00, 0x3c, 0x5a, 0x78, 0x3c, 0x00, 0x00, 0x3c, 0x5a,
  0x78, 0x3c, 0x00, 0x00, 0x3c, 0x5a, 0x78, 0x3c, 0x00, 0x00, 0x3c, 0x5a,
  0x78, 0x3c, 0x00, 0x00, 0x3c, 0x5a, 0x78, 0x3c, 0x00, 0x00, 0x3c, 0x5a,
  0x78, 0x3c, 0x00, 0x00, 0x3c, 0x5a, 0x78, 0x3c, 0x00, 0x00, 0x3c, 0x5a,
  0x78, 0x3c, 0x00, 0x00, 0x3c, 0x5a, 0x78, 0x3c, 0x00, 0x00, 0x3c, 0x5a,
  0x78, 0x3c, 0x00, 0x00, 0x3b, 0x5a, 0x78, 0x3b, 0x00, 0x00, 0x3b, 0x5a,
  0x78, 0x3b, 0x00, 0x00, 0x3b, 0x5a, 0x78, 0x3b, 0x00, 0x00, 0x3b, 0x5a,
  0x78, 0x3b, 0x00, 0x00, 0x3b, 0x5a, 0x78, 0x3b, 0x00, 0x00, 0x3b, 0x5a,
  0x78, 0x3b, 0x00, 0x00, 0x3b, 0x5a, 0x78, 0x3b, 0x00, 0x00, 0x3b, 0x5a,
  0x78, 0x3b, 0x00, 0x00, 0x43, 0x5a, 0x78, 0x43, 0x00, 0x00, 0x43, 0x5a,
  0x78, 0x43, 0x00, 0x00, 0x43, 0x5a, 0x78, 0x43, 0x00, 0x00, 0x43, 0x5a,
  0x78, 0x43, 0x00, 0x00, 0x43, 0x5a, 0x78, 0x43, 0x00, 0x00, 0x43, 0x5a,
  0x78, 0x43, 0x00, 0x00, 0x43, 0x5a, 0x78, 0x43, 0x00, 0x00, 0x43, 0x5a,
  0x78, 0x43, 0x00, 0x00, 0x43, 0x5a, 0x78, 0x43, 0x00, 0x00, 0x43, 0x5a,
  0x78, 0x43, 0x00, 0x00, 0x43, 0x5a, 0x78, 0x43, 0x00, 0x00, 0x43, 0x5a,
  0x78, 0x43, 0x00, 0x00, 0x3e, 0x5a, 0x78, 0x3e, 0x00, 0x00, 0x3e, 0x5a,
  0x78, 0x3e, 0x00, 0x00, 0x3e, 0x5a, 0x78, 0x3e, 0x00, 0x00, 0x3e, 0x5a,
  0x78, 0x3e, 0x00, 0x00, 0x3b, 0x5a, 0x78, 0x3b, 0x00, 0x00, 0x3b, 0x5a,
  0x78, 0x3b, 0x00, 0x00, 0x3b, 0x5a, 0x78, 0x3b, 0x00, 0x00, 0x3b, 0x5a,
  0x78, 0x3b, 0x00, 0x00, 0x38, 0x5a, 0x78, 0x38, 0x00, 0x00, 0x38, 0x5a,
  0x78, 0x38, 0x00, 0x00, 0x38, 0x5a, 0x78, 0x38, 0x00, 0x00, 0x38, 0x5a,
  0x78, 0x38, 0x00, 0x00, 0x3b, 0x5a, 0x78, 0x3b, 0x00, 0x00, 0x3b, 0x5a,
  0x78, 0x3b, 0x00, 0x00, 0x3b, 0x5a, 0x78, 0x3b, 0x00, 0x00, 0x3b, 0x5a,
  0x78, 0x3b, 0x00, 0x00, 0x3e, 0x5a, 0x78, 0x3e, 0x00, 0x00, 0x3e, 0x5a,
  0x78, 0x3e, 0x00, 0x00, 0x3e, 0x5a, 0x78, 0x3e, 0x00, 0x00, 0x3e, 0x5a,
  0x78, 0x3e, 0x00, 0x00, 0x3c, 0x5a, 0x78, 0x3c, 0x00, 0x00, 0x45, 0x5a,
  0x78, 0x45, 0x00, 0x00, 0x45, 0x5a, 0x78, 0x45, 0x00, 0x00, 0x45, 0x5a,
  0x78, 0x45, 0x00, 0x00, 0x45, 0x5a, 0x78, 0x45, 0x00, 0x00, 0x45, 0x5a,
  0x78, 0x45, 0x00, 0x00, 0x45, 0x5a, 0x78, 0x45, 0x00, 0x00, 0x45, 0x5a,
  0x78, 0x45, 0x00, 0x00, 0x3e, 0x5a, 0x78, 0x3e, 0x00, 0x00, 0x44, 0x5a,
  0x78, 0x44, 0x00, 0x00, 0x44, 0x5a, 0x78, 0x44, 0x00, 0x00, 0x44, 0x5a,
  0x78, 0x44, 0x00, 0x00, 0x44, 0x5a, 0x78, 0x44, 0x00, 0x00, 0x44, 0x5a,
  0x78, 0x44, 0x00, 0x00, 0x44, 0x5a, 0x78, 0x44, 0x00, 0x00, 0x44, 0x5a,
  0x78, 0x44, 0x00, 0x00, 0x40, 0x5a, 0x78, 0x40, 0x00, 0x00, 0x45, 0x5a,
  0x78, 0x45, 0x00, 0x00, 0x45, 0x5a, 0x78, 0x45, 0x00, 0x00, 0x45, 0x5a,
  0x78, 0x45, 0x00, 0x00, 0x45, 0x5a, 0x78, 0x45, 0x00, 0x00, 0x45, 0x5a,
  0x78, 0x45, 0x00, 0x00, 0x45, 0x5a, 0x78, 0x45, 0x00, 0x00, 0x45, 0x5a,
  0x78, 0x45, 0x00, 0x00, 0x3e, 0x5a, 0x78, 0x3e, 0x00, 0x00, 0x41, 0x5a,
  0x78, 0x41, 0x00, 0x00, 0x41, 0x5a, 0x78, 0x41, 0x00, 0x00, 0x41, 0x5a,
  0x78, 0x41, 0x00, 0x00, 0x41, 0x5a, 0x78, 0x41, 0x00, 0x00, 0x41, 0x5a,
  0x78, 0x41, 0x00, 0x00, 0x41, 0x5a, 0x78, 0x41, 0x00, 0x00, 0x41, 0x5a,
  0x78, 0x41, 0x00, 0x00, 0x3b, 0x5a, 0x78, 0x3b, 0x00, 0x00, 0x3b, 0x5a,
  0x78, 0x3b, 0x00, 0x00, 0x3e, 0x5a, 0x78, 0x3e, 0x00, 0x00, 0x3e, 0x5a,
  0x78, 0x3e, 0x00, 0x00, 0x3c, 0x5a, 0x78, 0x3c, 0x00, 0x00, 0x3c, 0x5a,
  0x78, 0x3c, 0x00, 0x00, 0x40, 0x5a, 0x78, 0x40, 0x00, 0x00, 0x40, 0x5a,
  0x78, 0x40, 0x00, 0x00, 0x40, 0x5a, 0x78, 0x40, 0x00, 0x00, 0x40, 0x5a,
  0x78, 0x40, 0x00, 0x00, 0x40, 0x5a, 0x78, 0x40, 0x00, 0x00, 0x40, 0x5a,
  0x78, 0x40, 0x00, 0x00, 0x40, 0x5a, 0x78, 0x40, 0x00, 0x00, 0x40, 0x5a,
  0x78, 0x40, 0x00, 0x00, 0x40, 0x5a, 0x78, 0x40, 0x00, 0x00, 0x40, 0x5a,
  0x78, 0x40, 0x00, 0x00, 0x39, 0x5a, 0x83, 0x60, 0x39, 0x00, 0x85, 0x50,
  0x40, 0x5a, 0x81, 0x70, 0x40, 0x00, 0x00, 0x42, 0x5a, 0x81, 0x70, 0x42,
  0x00, 0x00, 0x3f, 0x5a, 0x81, 0x70, 0x3f, 0x00, 0x00, 0x40, 0x5a, 0x81,
  0x70, 0x40, 0x00, 0x00, 0x41, 0x5a, 0x81, 0x70, 0x41, 0x00, 0x00, 0x3e,
  0x5a, 0x81, 0x70, 0x3e, 0x00, 0x00, 0x45, 0x5a, 0x81, 0x70, 0x45, 0x00,
  0x00, 0x3b, 0x5a, 0x81, 0x70, 0x3b, 0x00, 0x00, 0x41, 0x5a, 0x81, 0x70,
  0x41, 0x00, 0x00, 0x38, 0x5a, 0x81, 0x70, 0x38, 0x00, 0x00, 0x40, 0x5a,
  0x81, 0x70, 0x40, 0x00, 0x00, 0x40, 0x5a, 0x81, 0x70, 0x40, 0x00, 0x00,
  0x40, 0x5a, 0x81, 0x70, 0x40, 0x00, 0x00, 0x41, 0x5a, 0x81, 0x70, 0x41,
  0x00, 0x00, 0x41, 0x5a, 0x81, 0x70, 0x41, 0x00, 0x00, 0x40, 0x5a, 0x81,
  0x70, 0x40, 0x00, 0x00, 0x3e, 0x5a, 0x81, 0x70, 0x3e, 0x00, 0x00, 0x40,
  0x5a, 0x81, 0x70, 0x40, 0x00, 0x00, 0x34, 0x5a, 0x81, 0x70, 0x34, 0x00,
  0x00, 0x3c, 0x5a, 0x78, 0x3c, 0x00, 0x00, 0x40, 0x5a, 0x78, 0x40, 0x00,
  0x00, 0x40, 0x5a, 0x78, 0x40, 0x00, 0x00, 0x40, 0x5a, 0x78, 0x40, 0x00,
  0x00, 0x40, 0x5a, 0x78, 0x40, 0x00, 0x00, 0x40, 0x5a, 0x78, 0x40, 0x00,
  0x00, 0x40, 0x5a, 0x78, 0x40, 0x00, 0x00, 0x40, 0x5a, 0x78, 0x40, 0x00,
  0x00, 0x3c, 0x5a, 0x78, 0x3c, 0x00, 0x00, 0x40, 0x5a, 0x78, 0x40, 0x00,
  0x00, 0x40, 0x5a, 0x78, 0x40, 0x00, 0x00, 0x40, 0x5a, 0x78, 0x40, 0x00,
  0x00, 0x40, 0x5a, 0x78, 0x40, 0x00, 0x00, 0x40, 0x5a, 0x78, 0x40, 0x00,
  0x00, 0x40, 0x5a, 0x78, 0x40, 0x00, 0x00, 0x40, 0x5a, 0x78, 0x40, 0x00,
  0x00, 0x3e, 0x5a, 0x81, 0x70, 0x3e, 0x00, 0x00, 0x3e, 0x5a, 0x83, 0x60,
  0x3e, 0x00, 0x00, 0x3e, 0x5a, 0x83, 0x60, 0x3e, 0x00, 0x00, 0x3e, 0x5a,
  0x83, 0x60, 0x3e, 0x00, 0x00, 0x3e, 0x5a, 0x81, 0x70, 0x3e, 0x00, 0x00,
  0x38, 0x5a, 0x78, 0x38, 0x00, 0x00, 0x40, 0x5a, 0x78, 0x40, 0x00, 0x00,
  0x40, 0x5a, 0x78, 0x40, 0x00, 0x00, 0x40, 0x5a, 0x78, 0x40, 0x00, 0x00,
  0x40, 0x5a, 0x78, 0x40, 0x00, 0x00, 0x40, 0x5a, 0x78, 0x40, 0x00, 0x00,
  0x40, 0x5a, 0x78, 0x40, 0x00, 0x00, 0x40, 0x5a, 0x78, 0x40, 0x00, 0x00,
  0x38, 0x5a, 0x78, 0x38, 0x00, 0x00, 0x40, 0x5a, 0x78, 0x40, 0x00, 0x00,
  0x40, 0x5a, 0x78, 0x40, 0x00, 0x00, 0x40, 0x5a, 0x78, 0x40, 0x00, 0x00,
  0x40, 0x5a, 0x78, 0x40, 0x00, 0x00, 0x40, 0x5a, 0x78, 0x40, 0x00, 0x00,
  0x40, 0x5a, 0x78, 0x40, 0x00, 0x00, 0x40, 0x5a, 0x78, 0x40, 0x00, 0x00,
  0x40, 0x5a, 0x81, 0x70, 0x40, 0x00, 0x00, 0x39, 0x5a, 0x83, 0x60, 0x39,
  0x00, 0x00, 0x39, 0x5a, 0x83, 0x60, 0x39, 0x00, 0x00, 0x3c, 0x5a, 0x81,
  0x70, 0x3c, 0x00, 0x00, 0x3c, 0x5a, 0x81, 0x70, 0x3c, 0x00, 0x00, 0x3c,
  0x5a, 0x81, 0x70, 0x3c, 0x00, 0x00, 0x3e, 0x5a, 0x83, 0x60, 0x3e, 0x00,
  0x00, 0x3c, 0x5a, 0x81, 0x70, 0x3c, 0x00, 0x00, 0x3c, 0x5a, 0x81, 0x70,
  0x3c, 0x00, 0x00, 0x3c, 0x5a, 0x81, 0x70, 0x3c, 0x00, 0x00, 0x3c, 0x5a,
  0x83, 0x60, 0x3c, 0x00, 0x00, 0x3c, 0x5a, 0x81, 0x70, 0x3c, 0x00, 0x00,
  0x3e, 0x5a, 0x83, 0x60, 0x3e, 0x00, 0x00, 0x3c, 0x5a, 0x83, 0x60, 0x3c,
  0x00, 0x81, 0x70, 0x3c, 0x5a, 0x81, 0x70, 0x3c, 0x00, 0x00, 0x3c, 0x5a,
  0x81, 0x70, 0x3c, 0x00, 0x00, 0x3b, 0x5a, 0x81, 0x70, 0x3b, 0x00, 0x00,
  0x39, 0x5a, 0x81, 0x70, 0x39, 0x00, 0x00, 0x41, 0x5a, 0x81, 0x70, 0x41,
  0x00, 0x00, 0x40, 0x5a, 0x81, 0x70, 0x40, 0x00, 0x00, 0x40, 0x5a, 0x81,
  0x70, 0x40, 0x00, 0x00, 0x3e, 0x5a, 0x81, 0x70, 0x3e, 0x00, 0x00, 0x3e,
  0x5a, 0x81, 0x70, 0x3e, 0x00, 0x00, 0x3c, 0x5a, 0x81, 0x70, 0x3c, 0x00,
  0x00, 0x3c, 0x5a, 0x81, 0x70, 0x3c, 0x00, 0x00, 0x40, 0x5a, 0x81, 0x70,
  0x40, 0x00, 0x00, 0x40, 0x5a, 0x81, 0x70, 0x40, 0x00, 0x00, 0x40, 0x5a,
  0x81, 0x70, 0x40, 0x00, 0x00, 0x40, 0x5a, 0x81, 0x70, 0x40, 0x00, 0x00,
  0x40, 0x5a, 0x81, 0x70, 0x40, 0x00, 0x00, 0x40, 0x5a, 0x81, 0x70, 0x40,
  0x00, 0x00, 0x40, 0x5a, 0x81, 0x70, 0x40, 0x00, 0x00, 0x40, 0x5a, 0x81,
  0x70, 0x40, 0x00, 0x00, 0x3b, 0x5a, 0x81, 0x70, 0x3b, 0x00, 0x00, 0x3b,
  0x5a, 0x81, 0x70, 0x3b, 0x00, 0x00, 0x3b, 0x5a, 0x81, 0x70, 0x3b, 0x00,
  0x00, 0x3b, 0x5a, 0x81, 0x70, 0x3b, 0x00, 0x00, 0x37, 0x5a, 0x81, 0x70,
  0x37, 0x00, 0x00, 0x37, 0x5a, 0x81, 0x70, 0x37, 0x00, 0x00, 0x37, 0x5a,
  0x81, 0x70, 0x37, 0x00, 0x00, 0x37, 0x5a, 0x81, 0x70, 0x37, 0x00, 0x00,
  0x37, 0x5a, 0x78, 0x37, 0x00, 0x00, 0x3c, 0x5a, 0x78, 0x3c, 0x00, 0x00,
  0x3c, 0x5a, 0x78, 0x3c, 0x00, 0x00, 0x3c, 0x5a, 0x78, 0x3c, 0x00, 0x00,
  0x3c, 0x5a, 0x78, 0x3c, 0x00, 0x00, 0x3c, 0x5a, 0x78, 0x3c, 0x00, 0x00,
  0x3c, 0x5a, 0x78, 0x3c, 0x00, 0x00, 0x3c, 0x5a, 0x78, 0x3c, 0x00, 0x00,
  0x37, 0x5a, 0x78, 0x37, 0x00, 0x00, 0x3c, 0x5a, 0x78, 0x3c, 0x00, 0x00,
  0x3c, 0x5a, 0x78, 0x3c, 0x00, 0x00, 0x3c, 0x5a, 0x78, 0x3c, 0x00, 0x00,
  0x3c, 0x5a, 0x78, 0x3c, 0x00, 0x00, 0x3c, 0x5a, 0x78, 0x3c, 0x00, 0x00,
  0x3c, 0x5a, 0x78, 0x3c, 0x00, 0x00, 0x3c, 0x5a, 0x78, 0x3c, 0x00, 0x00,
  0x3c, 0x5a, 0x78, 0x3c, 0x00, 0x00, 0x3f, 0x5a, 0x78, 0x3f, 0x00, 0x00,
  0x3f, 0x5a, 0x78, 0x3f, 0x00, 0x00, 0x3f, 0x5a, 0x78, 0x3f, 0x00, 0x00,
  0x3f, 0x5a, 0x78, 0x3f, 0x00, 0x00, 0x3f, 0x5a, 0x78, 0x3f, 0x00, 0x00,
  0x3f, 0x5a, 0x78, 0x3f, 0x00, 0x00, 0x3f, 0x5a, 0x78, 0x3f, 0x00, 0x00,
  0x3c, 0x5a, 0x78, 0x3c, 0x00, 0x00, 0x3f, 0x5a, 0x78, 0x3f, 0x00, 0x00,
  0x3f, 0x5a, 0x78, 0x3f, 0x00, 0x00, 0x3f, 0x5a, 0x78, 0x3f, 0x00, 0x00,
  0x3f, 0x5a, 0x78, 0x3f, 0x00, 0x00, 0x3f, 0x5a, 0x78, 0x3f, 0x00, 0x00,
  0x3f, 0x5a, 0x78, 0x3f, 0x00, 0x00, 0x3f, 0x5a, 0x78, 0x3f, 0x00, 0x00,
  0x3f, 0x5a, 0x81, 0x70, 0x3f, 0x00, 0x00, 0x3f, 0x5a, 0x81, 0x70, 0x3f,
  0x00, 0x00, 0x40, 0x5a, 0x81, 0x70, 0x40, 0x00, 0x00, 0x40, 0x5a, 0x83,
  0x60, 0x40, 0x00, 0x00, 0x40, 0x5a, 0x83, 0x60, 0x40, 0x00, 0x00, 0x40,
  0x5a, 0x81, 0x70, 0x40, 0x00, 0x00, 0x37, 0x5a, 0x78, 0x37, 0x00, 0x00,
  0x3d, 0x5a, 0x78, 0x3d, 0x00, 0x00, 0x3d, 0x5a, 0x78, 0x3d, 0x00, 0x00,
  0x3d, 0x5a, 0x78, 0x3d, 0x00, 0x00, 0x3d, 0x5a, 0x78, 0x3d, 0x00, 0x00,
  0x3d, 0x5a, 0x78, 0x3d, 0x00, 0x00, 0x3d, 0x5a, 0x78, 0x3d, 0x00, 0x00,
  0x3d, 0x5a, 0x78, 0x3d, 0x00, 0x00, 0x37, 0x5a, 0x78, 0x37, 0x00, 0x00,
  0x3d, 0x5a, 0x78, 0x3d, 0x00, 0x00, 0x3d, 0x5a, 0x78, 0x3d, 0x00, 0x00,
  0x3d, 0x5a, 0x78, 0x3d, 0x00, 0x00, 0x3d, 0x5a, 0x78, 0x3d, 0x00, 0x00,
  0x3d, 0x5a, 0x78, 0x3d, 0x00, 0x00, 0x3d, 0x5a, 0x78, 0x3d, 0x00, 0x00,
  0x3d, 0x5a, 0x78, 0x3d, 0x00, 0x00, 0x3d, 0x5a, 0x78, 0x3d, 0x00, 0x00,
  0x43, 0x5a, 0x78, 0x43, 0x00, 0x00, 0x43, 0x5a, 0x78, 0x43, 0x00, 0x00,
  0x43, 0x5a, 0x78, 0x43, 0x00, 0x00, 0x43, 0x5a, 0x78, 0x43, 0x00, 0x00,
  0x43, 0x5a, 0x78, 0x43, 0x00, 0x00, 0x43, 0x5a, 0x78, 0x43, 0x00, 0x00,
  0x43, 0x5a, 0x78, 0x43, 0x00, 0x00, 0x3d, 0x5a, 0x78, 0x3d, 0x00, 0x00,
  0x43, 0x5a, 0x78, 0x43, 0x00, 0x00, 0x43, 0x5a, 0x78, 0x43, 0x00, 0x00,
  0x43, 0x5a, 0x78, 0x43, 0x00, 0x00, 0x43, 0x5a, 0x78, 0x43, 0x00, 0x00,
  0x43, 0x5a, 0x78, 0x43, 0x00, 0x00, 0x43, 0x5a, 0x78, 0x43, 0x00, 0x00,
  0x43, 0x5a, 0x78, 0x43, 0x00, 0x00, 0x40, 0x5a, 0x81, 0x70, 0x40, 0x00,
  0x00, 0x40, 0x5a, 0x81, 0x70, 0x40, 0x00, 0x00, 0x41, 0x5a, 0x81, 0x70,
  0x41, 0x00, 0x00, 0x41, 0x5a, 0x83, 0x60, 0x41, 0x00, 0x00, 0x41, 0x5a,
  0x83, 0x60, 0x41, 0x00, 0x00, 0x41, 0x5a, 0x81, 0x70, 0x41, 0x00, 0x00,
  0x3a, 0x5a, 0x78, 0x3a, 0x00, 0x00, 0x3f, 0x5a, 0x78, 0x3f, 0x00, 0x00,
  0x3f, 0x5a, 0x78, 0x3f, 0x00, 0x00, 0x3f, 0x5a, 0x78, 0x3f, 0x00, 0x00,
  0x3f, 0x5a, 0x78, 0x3f, 0x00, 0x00, 0x3f, 0x5a, 0x78, 0x3f, 0x00, 0x00,
  0x3f, 0x5a, 0x78, 0x3f, 0x00, 0x00, 0x3f, 0x5a, 0x78, 0x3f, 0x00, 0x00,
  0x3c, 0x5a, 0x78, 0x3c, 0x00, 0x00, 0x42, 0x5a, 0x78, 0x42, 0x00, 0x00,
  0x42, 0x5a, 0x78, 0x42, 0x00, 0x00, 0x42, 0x5a, 0x78, 0x42, 0x00, 0x00,
  0x42, 0x5a, 0x78, 0x42, 0x00, 0x00, 0x42, 0x5a, 0x78, 0x42, 0x00, 0x00,
  0x42, 0x5a, 0x78, 0x42, 0x00, 0x00, 0x42, 0x5a, 0x78, 0x42, 0x00, 0x00,
  0x3e, 0x5a, 0x78, 0x3e, 0x00, 0x00, 0x43, 0x5a, 0x78, 0x43, 0x00, 0x00,
  0x43, 0x5a, 0x78, 0x43, 0x00, 0x00, 0x43, 0x5a, 0x78, 0x43, 0x00, 0x00,
  0x43, 0x5a, 0x78, 0x43, 0x00, 0x00, 0x43, 0x5a, 0x78, 0x43, 0x00, 0x00,
  0x43, 0x5a, 0x78, 0x43, 0x00, 0x00, 0x43, 0x5a, 0x78, 0x43, 0x00, 0x00,
  0x3c, 0x5a, 0x78, 0x3c, 0x00, 0x00, 0x41, 0x5a, 0x78, 0x41, 0x00, 0x00,
  0x41, 0x5a, 0x78, 0x41, 0x00, 0x00, 0x41, 0x5a, 0x78, 0x41, 0x00, 0x00,
  0x41, 0x5a, 0x78, 0x41, 0x00, 0x00, 0x41, 0x5a, 0x78, 0x41, 0x00, 0x00,
  0x41, 0x5a, 0x78, 0x41, 0x00, 0x00, 0x41, 0x5a, 0x78, 0x41, 0x00, 0x00,
  0x3a, 0x5a, 0x78, 0x3a, 0x00, 0x00, 0x3f, 0x5a, 0x78, 0x3f, 0x00, 0x00,
  0x3f, 0x5a, 0x78, 0x3f, 0x00, 0x00, 0x3f, 0x5a, 0x78, 0x3f, 0x00, 0x00,
  0x3f, 0x5a, 0x78, 0x3f, 0x00, 0x00, 0x3f, 0x5a, 0x78, 0x3f, 0x00, 0x00,
  0x3f, 0x5a, 0x78, 0x3f, 0x00, 0x00, 0x3f, 0x5a, 0x78, 0x3f, 0x00, 0x00,
  0x3b, 0x5a, 0x78, 0x3b, 0x00, 0x00, 0x3e, 0x5a, 0x78, 0x3e, 0x00, 0x00,
  0x3e, 0x5a, 0x78, 0x3e, 0x00, 0x00, 0x3e, 0x5a, 0x78, 0x3e, 0x00, 0x00,
  0x3e, 0x5a, 0x78, 0x3e, 0x00, 0x00, 0x3e, 0x5a, 0x78, 0x3e, 0x00, 0x00,
  0x3e, 0x5a, 0x78, 0x3e, 0x00, 0x00, 0x3e, 0x5a, 0x78, 0x3e, 0x00, 0x00,
  0x39, 0x5a, 0x78, 0x39, 0x00, 0x00, 0x3e, 0x5a, 0x78, 0x3e, 0x00, 0x00,
  0x3e, 0x5a, 0x78, 0x3e, 0x00, 0x00, 0x3e, 0x5a, 0x78, 0x3e, 0x00, 0x00,
  0x39, 0x5a, 0x78, 0x39, 0x00, 0x00, 0x3d, 0x5a, 0x78, 0x3d, 0x00, 0x00,
  0x3d, 0x5a, 0x78, 0x3d, 0x00, 0x00, 0x3d, 0x5a, 0x78, 0x3d, 0x00, 0x00,
  0x39, 0x5a, 0x85, 0x50, 0x39, 0x00, 0x00, 0x39, 0x5a, 0x81, 0x70, 0x39,
  0x00, 0x00, 0x38, 0x5a, 0x81, 0x70, 0x38, 0x00, 0x00, 0x39, 0x5a, 0x81,
  0x70, 0x39, 0x00, 0x00, 0x38, 0x5a, 0x81, 0x70, 0x38, 0x00, 0x00, 0x39,
  0x5a, 0x81, 0x70, 0x39, 0x00, 0x00, 0x38, 0x5a, 0x81, 0x70, 0x38, 0x00,
  0x00, 0x39, 0x5a, 0x81, 0x70, 0x39, 0x00, 0x00, 0x38, 0x5a, 0x81, 0x70,
  0x38, 0x00, 0x00, 0x39, 0x5a, 0x81, 0x70, 0x39, 0x00, 0x00, 0x3a, 0x5a,
  0x83, 0x60, 0x3a, 0x00, 0x00, 0x39, 0x5a, 0x83, 0x60, 0x39, 0x00, 0x00,
  0x40, 0x5a, 0x85, 0x50, 0x40, 0x00, 0x00, 0x40, 0x5a, 0x81, 0x70, 0x40,
  0x00, 0x00, 0x41, 0x5a, 0x83, 0x60, 0x41, 0x00, 0x00, 0x40, 0x5a, 0x83,
  0x60, 0x40, 0x00, 0x00, 0x40, 0x5a, 0x85, 0x50, 0x40, 0x00, 0x00, 0x40,
  0x5a, 0x81, 0x70, 0x40, 0x00, 0x00, 0x41, 0x5a, 0x83, 0x60, 0x41, 0x00,
  0x00, 0x40, 0x5a, 0x83, 0x60, 0x40, 0x00, 0x00, 0x39, 0x5a, 0x85, 0x50,
  0x39, 0x00, 0x00, 0x39, 0x5a, 0x81, 0x70, 0x39, 0x00, 0x00, 0x38, 0x5a,
  0x81, 0x70, 0x38, 0x00, 0x00, 0x39, 0x5a, 0x81, 0x70, 0x39, 0x00, 0x00,
  0x38, 0x5a, 0x81, 0x70, 0x38, 0x00, 0x00, 0x39, 0x5a, 0x81, 0x70, 0x39,
  0x00, 0x00, 0x38, 0x5a, 0x81, 0x70, 0x38, 0x00, 0x00, 0x39, 0x5a, 0x81,
  0x70, 0x39, 0x00, 0x00, 0x38, 0x5a, 0x81, 0x70, 0x38, 0x00, 0x00, 0x39,
  0x5a, 0x81, 0x70, 0x39, 0x00, 0x00, 0x3a, 0x5a, 0x83, 0x60, 0x3a, 0x00,
  0x00, 0x39, 0x5a, 0x83, 0x60, 0x39, 0x00, 0x00, 0x3d, 0x5a, 0x85, 0x50,
  0x3d, 0x00, 0x00, 0x3d, 0x5a, 0x81, 0x70, 0x3d, 0x00, 0x00, 0x3e, 0x5a,
  0x83, 0x60, 0x3e, 0x00, 0x00, 0x3d, 0x5a, 0x83, 0x60, 0x3d, 0x00, 0x00,
  0x3d, 0x5a, 0x85, 0x50, 0x3d, 0x00, 0x00, 0x3d, 0x5a, 0x81, 0x70, 0x3d,
  0x00, 0x00, 0x3e, 0x5a, 0x83, 0x60, 0x3e, 0x00, 0x00, 0x3d, 0x5a, 0x83,
  0x60, 0x3d, 0x00, 0x00, 0x39, 0x5a, 0x85, 0x50, 0x39, 0x00, 0x00, 0x39,
  0x5a, 0x81, 0x70, 0x39, 0x00, 0x00, 0x38, 0x5a, 0x81, 0x70, 0x38, 0x00,
  0x00, 0x39, 0x5a, 0x81, 0x70, 0x39, 0x00, 0x00, 0x38, 0x5a, 0x81, 0x70,
  0x38, 0x00, 0x00, 0x39, 0x5a, 0x81, 0x70, 0x39, 0x00, 0x00, 0x38, 0x5a,
  0x81, 0x70, 0x38, 0x00, 0x00, 0x39, 0x5a, 0x81, 0x70, 0x39, 0x00, 0x00,
  0x38, 0x5a, 0x81, 0x70, 0x38, 0x00, 0x00, 0x39, 0x5a, 0x81, 0x70, 0x39,
  0x00, 0x00, 0x3a, 0x5a, 0x81, 0x70, 0x3a, 0x00, 0x00, 0x3a, 0x5a, 0x81,
  0x70, 0x3a, 0x00, 0x00, 0x3a, 0x5a, 0x81, 0x70, 0x3a, 0x00, 0x00, 0x3a,
  0x5a, 0x81, 0x70, 0x3a, 0x00, 0x00, 0x3a, 0x5a, 0x81, 0x70, 0x3a, 0x00,
  0x00, 0x3a, 0x5a, 0x81, 0x70, 0x3a, 0x00, 0x00, 0x3a, 0x5a, 0x81, 0x70,
  0x3a, 0x00, 0x00, 0x3a, 0x5a, 0x81, 0x70, 0x3a, 0x00, 0x00, 0x3f, 0x5a,
  0x81, 0x70, 0x3f, 0x00, 0x00, 0x3e, 0x5a, 0x81, 0x70, 0x3e, 0x00, 0x00,
  0x3f, 0x5a, 0x81, 0x70, 0x3f, 0x00, 0x00, 0x3e, 0x5a, 0x81, 0x70, 0x3e,
  0x00, 0x00, 0x3f, 0x5a, 0x81, 0x70, 0x3f, 0x00, 0x00, 0x3e, 0x5a, 0x81,
  0x70, 0x3e, 0x00, 0x00, 0x3f, 0x5a, 0x81, 0x70, 0x3f, 0x00, 0x00, 0x3e,
  0x5a, 0x81, 0x70, 0x3e, 0x00, 0x00, 0x3d, 0x5a, 0x83, 0x60, 0x3d, 0x00,
  0x00, 0x40, 0x5a, 0x83, 0x60, 0x40, 0x00, 0x83, 0x60, 0x40, 0x5a, 0x81,
  0x70, 0x40, 0x00, 0x00, 0x40, 0x5a, 0x81, 0x70, 0x40, 0x00, 0x00, 0x41,
  0x5a, 0x78, 0x41, 0x00, 0x00, 0x41, 0x5a, 0x78, 0x41, 0x00, 0x00, 0x41,
  0x5a, 0x78, 0x41, 0x00, 0x00, 0x41, 0x5a, 0x78, 0x41, 0x00, 0x00, 0x40,
  0x5a, 0x78, 0x40, 0x00, 0x00, 0x40, 0x5a, 0x78, 0x40, 0x00, 0x00, 0x40,
  0x5a, 0x78, 0x40, 0x00, 0x00, 0x40, 0x5a, 0x78, 0x40, 0x00, 0x00, 0x41,
  0x5a, 0x78, 0x41, 0x00, 0x00, 0x41, 0x5a, 0x78, 0x41, 0x00, 0x00, 0x41,
  0x5a, 0x78, 0x41, 0x00, 0x00, 0x41, 0x5a, 0x78, 0x41, 0x00, 0x00, 0x40,
  0x5a, 0x78, 0x40, 0x00, 0x00, 0x40, 0x5a, 0x78, 0x40, 0x00, 0x00, 0x40,
  0x5a, 0x78, 0x40, 0x00, 0x00, 0x40, 0x5a, 0x78, 0x40, 0x00, 0x00, 0x41,
  0x5a, 0x78, 0x41, 0x00, 0x00, 0x41, 0x5a, 0x78, 0x41, 0x00, 0x00, 0x41,
  0x5a, 0x78, 0x41, 0x00, 0x00, 0x41, 0x5a, 0x78, 0x41, 0x00, 0x00, 0x40,
  0x5a, 0x83, 0x60, 0x40, 0x00, 0x83, 0x60, 0x3e, 0x5a, 0x81, 0x70, 0x3e,
  0x00, 0x00, 0x3e, 0x5a, 0x81, 0x70, 0x3e, 0x00, 0x00, 0x40, 0x5a, 0x78,
  0x40, 0x00, 0x00, 0x40, 0x5a, 0x78, 0x40, 0x00, 0x00, 0x40, 0x5a, 0x78,
  0x40, 0x00, 0x00, 0x40, 0x5a, 0x78, 0x40, 0x00, 0x00, 0x3e, 0x5a, 0x78,
  0x3e, 0x00, 0x00, 0x3e, 0x5a, 0x78, 0x3e, 0x00, 0x00, 0x3e, 0x5a, 0x78,
  0x3e, 0x00, 0x00, 0x3e, 0x5a, 0x78, 0x3e, 0x00, 0x00, 0x40, 0x5a, 0x78,
  0x40, 0x00, 0x00, 0x40, 0x5a, 0x78, 0x40, 0x00, 0x00, 0x40, 0x5a, 0x78,
  0x40, 0x00, 0x00, 0x40, 0x5a, 0x78, 0x40, 0x00, 0x00, 0x3e, 0x5a, 0x78,
  0x3e, 0x00, 0x00, 0x3e, 0x5a, 0x78, 0x3e, 0x00, 0x00, 0x3e, 0x5a, 0x78,
  0x3e, 0x00, 0x00, 0x3e, 0x5a, 0x78, 0x3e, 0x00, 0x00, 0x40, 0x5a, 0x78,
  0x40, 0x00, 0x00, 0x40, 0x5a, 0x78, 0x40, 0x00, 0x00, 0x40, 0x5a, 0x78,
  0x40, 0x00, 0x00, 0x40, 0x5a, 0x78, 0x40, 0x00, 0x00, 0x3e, 0x5a, 0x81,
  0x70, 0x3e, 0x00, 0x00, 0x45, 0x5a, 0x81, 0x70, 0x45, 0x00, 0x00, 0x41,
  0x5a, 0x81, 0x70, 0x41, 0x00, 0x00, 0x3e, 0x5a, 0x81, 0x70, 0x3e, 0x00,
  0x00, 0x41, 0x5a, 0x81, 0x70, 0x41, 0x00, 0x00, 0x45, 0x5a, 0x81, 0x70,
  0x45, 0x00, 0x00, 0x3e, 0x5a, 0x81, 0x70, 0x3e, 0x00, 0x00, 0x41, 0x5a,
  0x81, 0x70, 0x41, 0x00, 0x00, 0x45, 0x5a, 0x81, 0x70, 0x45, 0x00, 0x00,
  0x4a, 0x5a, 0x81, 0x70, 0x4a, 0x00, 0x00, 0x3e, 0x5a, 0x81, 0x70, 0x3e,
  0x00, 0x00, 0x41, 0x5a, 0x81, 0x70, 0x41, 0x00, 0x00, 0x45, 0x5a, 0x81,
  0x70, 0x45, 0x00, 0x00, 0x4a, 0x5a, 0x81, 0x70, 0x4a, 0x00, 0x00, 0x35,
  0x5a, 0x81, 0x70, 0x35, 0x00, 0x00, 0x39, 0x5a, 0x81, 0x70, 0x39, 0x00,
  0x00, 0x3e, 0x5a, 0x81, 0x70, 0x3e, 0x00, 0x00, 0x41, 0x5a, 0x81, 0x70,
  0x41, 0x00, 0x00, 0x35, 0x5a, 0x81, 0x70, 0x35, 0x00, 0x00, 0x39, 0x5a,
  0x81, 0x70, 0x39, 0x00, 0x00, 0x3e, 0x5a, 0x81, 0x70, 0x3e, 0x00, 0x00,
  0x41, 0x5a, 0x81, 0x70, 0x41, 0x00, 0x00, 0x3a, 0x5a, 0x81, 0x70, 0x3a,
  0x00, 0x00, 0x3e, 0x5a, 0x81, 0x70, 0x3e, 0x00, 0x00, 0x41, 0x5a, 0x81,
  0x70, 0x41, 0x00, 0x00, 0x46, 0x5a, 0x81, 0x70, 0x46, 0x00, 0x00, 0x34,
  0x5a, 0x81, 0x70, 0x34, 0x00, 0x00, 0x37, 0x5a, 0x81, 0x70, 0x37, 0x00,
  0x00, 0x3a, 0x5a, 0x81, 0x70, 0x3a, 0x00, 0x00, 0x40, 0x5a, 0x81, 0x70,
  0x40, 0x00, 0x00, 0x39, 0x5a, 0x81, 0x70, 0x39, 0x00, 0x00, 0x45, 0x5a,
  0x81, 0x70, 0x45, 0x00, 0x00, 0x3e, 0x5a, 0x81, 0x70, 0x3e, 0x00, 0x00,
  0x41, 0x5a, 0x81, 0x70, 0x41, 0x00, 0x00, 0x45, 0x5a, 0x81, 0x70, 0x45,
  0x00, 0x00, 0x43, 0x5a, 0x81, 0x70, 0x43, 0x00, 0x00, 0x45, 0x5a, 0x81,
  0x70, 0x45, 0x00, 0x00, 0x39, 0x5a, 0x81, 0x70, 0x39, 0x00, 0x00, 0x3e,
  0x5a, 0x81, 0x70, 0x3e, 0x00, 0x00, 0x41, 0x5a, 0x81, 0x70, 0x41, 0x00,
  0x00, 0x45, 0x5a, 0x81, 0x70, 0x45, 0x00, 0x00, 0x4a, 0x5a, 0x81, 0x70,
  0x4a, 0x00, 0x00, 0x3e, 0x5a, 0x81, 0x70, 0x3e, 0x00, 0x00, 0x41, 0x5a,
  0x81, 0x70, 0x41, 0x00, 0x00, 0x45, 0x5a, 0x81, 0x70, 0x45, 0x00, 0x00,
  0x4a, 0x5a, 0x81, 0x70, 0x4a, 0x00, 0x00, 0x3a, 0x5a, 0x81, 0x70, 0x3a,
  0x00, 0x00, 0x3e, 0x5a, 0x81, 0x70, 0x3e, 0x00, 0x00, 0x41, 0x5a, 0x81,
  0x70, 0x41, 0x00, 0x00, 0x46, 0x5a, 0x81, 0x70, 0x46, 0x00, 0x00, 0x3a,
  0x5a, 0x81, 0x70, 0x3a, 0x00, 0x00, 0x3e, 0x5a, 0x81, 0x70, 0x3e, 0x00,
  0x00, 0x41, 0x5a, 0x81, 0x70, 0x41, 0x00, 0x00, 0x46, 0x5a, 0x81, 0x70,
  0x46, 0x00, 0x00, 0x37, 0x5a, 0x81, 0x70, 0x37, 0x00, 0x00, 0x3a, 0x5a,
  0x81, 0x70, 0x3a, 0x00, 0x00, 0x3f, 0x5a, 0x81, 0x70, 0x3f, 0x00, 0x00,
  0x43, 0x5a, 0x81, 0x70, 0x43, 0x00, 0x00, 0x37, 0x5a, 0x81, 0x70, 0x37,
  0x00, 0x00, 0x3a, 0x5a, 0x81, 0x70, 0x3a, 0x00, 0x00, 0x3f, 0x5a, 0x81,
  0x70, 0x3f, 0x00, 0x00, 0x43, 0x5a, 0x81, 0x70, 0x43, 0x00, 0x00, 0x39,
  0x5a, 0x81, 0x70, 0x39, 0x00, 0x00, 0x45, 0x5a, 0x81, 0x70, 0x45, 0x00,
  0x00, 0x3e, 0x5a, 0x81, 0x70, 0x3e, 0x00, 0x00, 0x41, 0x5a, 0x81, 0x70,
  0x41, 0x00, 0x00, 0x45, 0x5a, 0x81, 0x70, 0x45, 0x00, 0x00, 0x43, 0x5a,
  0x81, 0x70, 0x43, 0x00, 0x00, 0x45, 0x5a, 0x81, 0x70, 0x45, 0x00, 0x00,
  0x39, 0x5a, 0x81, 0x70, 0x39, 0x00, 0x00, 0x3e, 0x5a, 0x83, 0x60, 0x3e,
  0x00, 0x81, 0x70, 0x39, 0x5a, 0x81, 0x70, 0x39, 0x00, 0x00, 0x3a, 0x5a,
  0x81, 0x70, 0x3a, 0x00, 0x00, 0x3e, 0x5a, 0x81, 0x70, 0x3e, 0x00, 0x00,
  0x3b, 0x5a, 0x81, 0x70, 0x3b, 0x00, 0x00, 0x38, 0x5a, 0x81, 0x70, 0x38,
  0x00, 0x00, 0x39, 0x5a, 0x81, 0x70, 0x39, 0x00, 0x00, 0x3a, 0x5a, 0x81,
  0x70, 0x3a, 0x00, 0x00, 0x43, 0x5a, 0x81, 0x70, 0x43, 0x00, 0x00, 0x41,
  0x5a, 0x81, 0x70, 0x41, 0x00, 0x00, 0x40, 0x5a, 0x81, 0x70, 0x40, 0x00,
  0x00, 0x3e, 0x5a, 0x81, 0x70, 0x3e, 0x00, 0x00, 0x3d, 0x5a, 0x81, 0x70,
  0x3d, 0x00, 0x00, 0x45, 0x5a, 0x81, 0x70, 0x45, 0x00, 0x00, 0x45, 0x5a,
  0x78, 0x45, 0x00, 0x00, 0x45, 0x5a, 0x78, 0x45, 0x00, 0x00, 0x45, 0x5a,
  0x78, 0x45, 0x00, 0x00, 0x45, 0x5a, 0x78, 0x45, 0x00, 0x00, 0x46, 0x5a,
  0x78, 0x46, 0x00, 0x00, 0x46, 0x5a, 0x78, 0x46, 0x00, 0x00, 0x46, 0x5a,
  0x78, 0x46, 0x00, 0x00, 0x46, 0x5a, 0x78, 0x46, 0x00, 0x00, 0x45, 0x5a,
  0x81, 0x70, 0x45, 0x00, 0x00, 0x43, 0x5a, 0x81, 0x70, 0x43, 0x00, 0x00,
  0x45, 0x5a, 0x81, 0x70, 0x45, 0x00, 0x00, 0x39, 0x5a, 0x81, 0x70, 0x39,
  0x00, 0x00, 0x3e, 0x5a, 0x83, 0x60, 0x3e, 0x00, 0x00, 0x32, 0x5a, 0x83,
  0x60, 0x32, 0x00, 0x00, 0xff, 0x2f, 0x00, 0x4d, 0x54, 0x72, 0x6b, 0x00,
  0x00, 0x04, 0xa3, 0x00, 0xff, 0x21, 0x01, 0x00, 0x00, 0xff, 0x03, 0x07,
  0x54, 0x72, 0x61, 0x63, 0x6b, 0x20, 0x38, 0x00, 0xc7, 0x34, 0x00, 0xb7,
  0x07, 0x7f, 0x00, 0xb7, 0x0a, 0x32, 0x1a, 0xb7, 0x5b, 0x5a, 0x0e, 0x97,
  0x4a, 0x64, 0x87, 0x18, 0x45, 0x64, 0x28, 0x4a, 0x00, 0x87, 0x18, 0x45,
  0x00, 0x00, 0x4c, 0x64, 0x83, 0x60, 0x4c, 0x00, 0x00, 0x45, 0x64, 0x83,
  0x60, 0x45, 0x00, 0x87, 0x40, 0x4c, 0x64, 0x87, 0x40, 0x4c, 0x00, 0x00,
  0x45, 0x64, 0x87, 0x40, 0x45, 0x00, 0x00, 0x4d, 0x64, 0x83, 0x60, 0x4d,
  0x00, 0x00, 0x4a, 0x64, 0x83, 0x60, 0x4a, 0x00, 0x83, 0x60, 0x4a, 0x64,
  0x81, 0x70, 0x4a, 0x00, 0x00, 0x4a, 0x64, 0x81, 0x70, 0x4a, 0x00, 0x00,
  0x49, 0x64, 0x83, 0x60, 0x49, 0x00, 0x00, 0x4a, 0x64, 0x83, 0x60, 0x4a,
  0x00, 0x83, 0x60, 0x4a, 0x64, 0x81, 0x70, 0x4a, 0x00, 0x00, 0x4a, 0x64,
  0x81, 0x70, 0x4a, 0x00, 0x00, 0x4c, 0x64, 0x83, 0x60, 0x4c, 0x00, 0x00,
  0x4d, 0x64, 0x83, 0x60, 0x4d, 0x00, 0x00, 0x4a, 0x64, 0x85, 0x50, 0x4a,
  0x00, 0x00, 0x4a, 0x64, 0x81, 0x70, 0x4a, 0x00, 0x00, 0x4f, 0x64, 0x83,
  0x60, 0x4f, 0x00, 0x00, 0x4d, 0x64, 0x83, 0x60, 0x4d, 0x00, 0x00, 0x4c,
  0x64, 0x83, 0x60, 0x4c, 0x00, 0x00, 0x4a, 0x64, 0x83, 0x60, 0x4a, 0x00,
  0x00, 0x4a, 0x64, 0x83, 0x60, 0x4a, 0x00, 0x00, 0x49, 0x64, 0x83, 0x60,
  0x49, 0x00, 0x96, 0x40, 0x4d, 0x64, 0x8b, 0x20, 0x4d, 0x00, 0x00, 0x48,
  0x64, 0x83, 0x60, 0x48, 0x00, 0x00, 0x45, 0x64, 0x83, 0x60, 0x45, 0x00,
  0x00, 0x41, 0x64, 0x83, 0x60, 0x41, 0x00, 0x00, 0x45, 0x64, 0x83, 0x60,
  0x45, 0x00, 0x00, 0x48, 0x64, 0x83, 0x60, 0x48, 0x00, 0x00, 0x4b, 0x64,
  0x87, 0x40, 0x4b, 0x00, 0x00, 0x4a, 0x64, 0x87, 0x40, 0x4a, 0x00, 0x00,
  0x4f, 0x64, 0x8b, 0x20, 0x4f, 0x00, 0x00, 0x4a, 0x64, 0x83, 0x60, 0x4a,
  0x00, 0x00, 0x47, 0x64, 0x83, 0x60, 0x47, 0x00, 0x00, 0x43, 0x64, 0x83,
  0x60, 0x43, 0x00, 0x00, 0x47, 0x64, 0x83, 0x60, 0x47, 0x00, 0x00, 0x4a,
  0x64, 0x83, 0x60, 0x4a, 0x00, 0x00, 0x4d, 0x64, 0x87, 0x40, 0x4d, 0x00,
  0x00, 0x4c, 0x64, 0x87, 0x40, 0x4c, 0x00, 0x00, 0x4c, 0x64, 0x87, 0x40,
  0x4c, 0x00, 0x00, 0x4c, 0x64, 0x87, 0x40, 0x4c, 0x00, 0x00, 0x4c, 0x64,
  0x87, 0x40, 0x4c, 0x00, 0x00, 0x4a, 0x64, 0x87, 0x40, 0x4a, 0x00, 0x00,
  0x4a, 0x64, 0x83, 0x60, 0x4a, 0x00, 0x00, 0x48, 0x64, 0x83, 0x60, 0x48,
  0x00, 0x00, 0x47, 0x64, 0x87, 0x40, 0x47, 0x00, 0x00, 0x45, 0x64, 0x83,
  0x60, 0x45, 0x00, 0xa9, 0x20, 0x4c, 0x64, 0x87, 0x40, 0x4c, 0x00, 0x00,
  0x4c, 0x64, 0x87, 0x40, 0x4c, 0x00, 0x00, 0x4c, 0x64, 0x83, 0x60, 0x4c,
  0x00, 0x00, 0x47, 0x64, 0x83, 0x60, 0x47, 0x00, 0x87, 0x40, 0x4c, 0x64,
  0x87, 0x40, 0x4c, 0x00, 0x00, 0x4c, 0x64, 0x87, 0x40, 0x4c, 0x00, 0x00,
  0x4c, 0x64, 0x83, 0x60, 0x4c, 0x00, 0x00, 0x48, 0x64, 0x83, 0x60, 0x48,
  0x00, 0x83, 0x60, 0x45, 0x64, 0x81, 0x70, 0x45, 0x00, 0x00, 0x45, 0x64,
  0x81, 0x70, 0x45, 0x00, 0x00, 0x4d, 0x64, 0x83, 0x60, 0x4d, 0x00, 0x00,
  0x4c, 0x64, 0x83, 0x60, 0x4c, 0x00, 0x83, 0x60, 0x45, 0x64, 0x81, 0x70,
  0x45, 0x00, 0x00, 0x45, 0x64, 0x81, 0x70, 0x45, 0x00, 0x00, 0x4a, 0x64,
  0x83, 0x60, 0x4a, 0x00, 0x00, 0x48, 0x64, 0x83, 0x60, 0x48, 0x00, 0x00,
  0x4c, 0x64, 0x85, 0x50, 0x4c, 0x00, 0x00, 0x4c, 0x64, 0x81, 0x70, 0x4c,
  0x00, 0x00, 0x4a, 0x64, 0x83, 0x60, 0x4a, 0x00, 0x00, 0x48, 0x64, 0x83,
  0x60, 0x48, 0x00, 0x00, 0x46, 0x64, 0x83, 0x60, 0x46, 0x00, 0x00, 0x45,
  0x64, 0x83, 0x60, 0x45, 0x00, 0x00, 0x45, 0x64, 0x83, 0x60, 0x45, 0x00,
  0x00, 0x44, 0x64, 0x83, 0x60, 0x44, 0x00, 0x96, 0x40, 0x48, 0x64, 0x8b,
  0x20, 0x48, 0x00, 0x00, 0x4f, 0x64, 0x83, 0x60, 0x4f, 0x00, 0x00, 0x4b,
  0x64, 0x83, 0x60, 0x4b, 0x00, 0x00, 0x48, 0x64, 0x83, 0x60, 0x48, 0x00,
  0x00, 0x43, 0x64, 0x83, 0x60, 0x43, 0x00, 0x00, 0x48, 0x64, 0x83, 0x60,
  0x48, 0x00, 0x00, 0x48, 0x64, 0x83, 0x60, 0x48, 0x00, 0x00, 0x49, 0x64,
  0x83, 0x60, 0x49, 0x00, 0x00, 0x49, 0x64, 0x87, 0x40, 0x49, 0x00, 0x00,
  0x49, 0x64, 0x8b, 0x20, 0x49, 0x00, 0x00, 0x4f, 0x64, 0x83, 0x60, 0x4f,
  0x00, 0x00, 0x4c, 0x64, 0x83, 0x60, 0x4c, 0x00, 0x00, 0x49, 0x64, 0x83,
  0x60, 0x49, 0x00, 0x00, 0x45, 0x64, 0x83, 0x60, 0x45, 0x00, 0x00, 0x49,
  0x64, 0x83, 0x60, 0x49, 0x00, 0x00, 0x49, 0x64, 0x83, 0x60, 0x49, 0x00,
  0x00, 0x4a, 0x64, 0x83, 0x60, 0x4a, 0x00, 0x00, 0x4a, 0x64, 0x87, 0x40,
  0x4a, 0x00, 0x00, 0x4b, 0x64, 0x87, 0x40, 0x4b, 0x00, 0x00, 0x4e, 0x64,
  0x87, 0x40, 0x4e, 0x00, 0x00, 0x4f, 0x64, 0x87, 0x40, 0x4f, 0x00, 0x00,
  0x4d, 0x64, 0x87, 0x40, 0x4d, 0x00, 0x00, 0x4b, 0x64, 0x87, 0x40, 0x4b,
  0x00, 0x00, 0x4a, 0x64, 0x87, 0x40, 0x4a, 0x00, 0x00, 0x4a, 0x64, 0x83,
  0x60, 0x4a, 0x00, 0x00, 0x49, 0x64, 0x83, 0x60, 0x49, 0x00, 0x9e, 0x00,
  0x45, 0x64, 0x85, 0x50, 0x45, 0x00, 0x00, 0x45, 0x64, 0x81, 0x70, 0x45,
  0x00, 0x00, 0x44, 0x64, 0x83, 0x60, 0x44, 0x00, 0x00, 0x45, 0x64, 0x83,
  0x60, 0x45, 0x00, 0x00, 0x45, 0x64, 0x85, 0x50, 0x45, 0x00, 0x00, 0x45,
  0x64, 0x81, 0x70, 0x45, 0x00, 0x00, 0x44, 0x64, 0x83, 0x60, 0x44, 0x00,
  0x00, 0x45, 0x64, 0x83, 0x60, 0x45, 0x00, 0x9e, 0x00, 0x4c, 0x64, 0x85,
  0x50, 0x4c, 0x00, 0x00, 0x4c, 0x64, 0x81, 0x70, 0x4c, 0x00, 0x00, 0x4d,
  0x64, 0x83, 0x60, 0x4d, 0x00, 0x00, 0x4c, 0x64, 0x83, 0x60, 0x4c, 0x00,
  0x00, 0x4c, 0x64, 0x85, 0x50, 0x4c, 0x00, 0x00, 0x4c, 0x64, 0x81, 0x70,
  0x4c, 0x00, 0x00, 0x4d, 0x64, 0x83, 0x60, 0x4d, 0x00, 0x00, 0x4c, 0x64,
  0x83, 0x60, 0x4c, 0x00, 0x9e, 0x00, 0x4f, 0x64, 0x85, 0x50, 0x4f, 0x00,
  0x00, 0x4f, 0x64, 0x81, 0x70, 0x4f, 0x00, 0x00, 0x4e, 0x64, 0x81, 0x70,
  0x4e, 0x00, 0x00, 0x4f, 0x64, 0x81, 0x70, 0x4f, 0x00, 0x00, 0x4e, 0x64,
  0x81, 0x70, 0x4e, 0x00, 0x00, 0x4f, 0x64, 0x81, 0x70, 0x4f, 0x00, 0x00,
  0x4e, 0x64, 0x81, 0x70, 0x4e, 0x00, 0x00, 0x4f, 0x64, 0x81, 0x70, 0x4f,
  0x00, 0x00, 0x4e, 0x64, 0x81, 0x70, 0x4e, 0x00, 0x00, 0x4f, 0x64, 0x81,
  0x70, 0x4f, 0x00, 0x00, 0x4f, 0x64, 0x83, 0x60, 0x4f, 0x00, 0x00, 0x49,
  0x64, 0x83, 0x60, 0x49, 0x00, 0x83, 0x60, 0x49, 0x64, 0x81, 0x70, 0x49,
  0x00, 0x00, 0x49, 0x64, 0x81, 0x70, 0x49, 0x00, 0x00, 0x4a, 0x64, 0x83,
  0x60, 0x4a, 0x00, 0x00, 0x49, 0x64, 0x83, 0x60, 0x49, 0x00, 0x00, 0x4a,
  0x64, 0x83, 0x60, 0x4a, 0x00, 0x00, 0x49, 0x64, 0x83, 0x60, 0x49, 0x00,
  0x00, 0x4a, 0x64, 0x83, 0x60, 0x4a, 0x00, 0x00, 0x49, 0x64, 0x83, 0x60,
  0x49, 0x00, 0x83, 0x60, 0x4a, 0x64, 0x81, 0x70, 0x4a, 0x00, 0x00, 0x4a,
  0x64, 0x81, 0x70, 0x4a, 0x00, 0x00, 0x4f, 0x64, 0x83, 0x60, 0x4f, 0x00,
  0x00, 0x4d, 0x64, 0x83, 0x60, 0x4d, 0x00, 0x00, 0x4f, 0x64, 0x83, 0x60,
  0x4f, 0x00, 0x00, 0x4d, 0x64, 0x83, 0x60, 0x4d, 0x00, 0x00, 0x4f, 0x64,
  0x83, 0x60, 0x4f, 0x00, 0x00, 0x4d, 0x64, 0x83, 0x60, 0x4d, 0x00, 0x8b,
  0x20, 0x4a, 0x64, 0x87, 0x40, 0x4a, 0x00, 0x00, 0x4a, 0x64, 0x83, 0x60,
  0x4a, 0x00, 0x00, 0x4d, 0x64, 0x83, 0x60, 0x4d, 0x00, 0x00, 0x4a, 0x64,
  0x83, 0x60, 0x4a, 0x00, 0x8f, 0x00, 0x4f, 0x64, 0x85, 0x50, 0x4f, 0x00,
  0x00, 0x4f, 0x64, 0x81, 0x70, 0x4f, 0x00, 0x00, 0x4f, 0x64, 0x83, 0x60,
  0x4f, 0x00, 0x00, 0x4d, 0x64, 0x83, 0x60, 0x4d, 0x00, 0x00, 0x4c, 0x64,
  0x87, 0x40, 0x4c, 0x00, 0x00, 0x4a, 0x64, 0x83, 0x60, 0x4a, 0x00, 0x00,
  0x4a, 0x64, 0x87, 0x40, 0x4a, 0x00, 0x00, 0x4a, 0x64, 0x83, 0x60, 0x4a,
  0x00, 0x00, 0x4d, 0x64, 0x83, 0x60, 0x4d, 0x00, 0x00, 0x4a, 0x64, 0x83,
  0x60, 0x4a, 0x00, 0x8f, 0x00, 0x4f, 0x64, 0x85, 0x50, 0x4f, 0x00, 0x00,
  0x4f, 0x64, 0x81, 0x70, 0x4f, 0x00, 0x00, 0x4f, 0x64, 0x83, 0x60, 0x4f,
  0x00, 0x00, 0x4d, 0x64, 0x83, 0x60, 0x4d, 0x00, 0x00, 0x4c, 0x64, 0x87,
  0x40, 0x4c, 0x00, 0x00, 0x4a, 0x64, 0x83, 0x60, 0x4a, 0x00, 0x00, 0xff,
  0x2f, 0x00, 0x4d, 0x54, 0x72, 0x6b, 0x00, 0x00, 0x04, 0xb3, 0x00, 0xff,
  0x21, 0x01, 0x00, 0x00, 0xff, 0x03, 0x07, 0x54, 0x72, 0x61, 0x63, 0x6b,
  0x20, 0x39, 0x00, 0xc8, 0x34, 0x00, 0xb8, 0x07, 0x7f, 0x00, 0xb8, 0x0a,
  0x3c, 0x1d, 0xb8, 0x5b, 0x5a, 0x0b, 0x98, 0x45, 0x64, 0x87, 0x18, 0x45,
  0x64, 0x28, 0x45, 0x00, 0x87, 0x18, 0x45, 0x00, 0x00, 0x45, 0x64, 0x83,
  0x60, 0x45, 0x00, 0x00, 0x45, 0x64, 0x83, 0x60, 0x45, 0x00, 0x87, 0x40,
  0x45, 0x64, 0x87, 0x40, 0x45, 0x00, 0x00, 0x45, 0x64, 0x87, 0x40, 0x45,
  0x00, 0x00, 0x45, 0x64, 0x83, 0x60, 0x45, 0x00, 0x00, 0x45, 0x64, 0x83,
  0x60, 0x45, 0x00, 0x83, 0x60, 0x45, 0x64, 0x81, 0x70, 0x45, 0x00, 0x00,
  0x45, 0x64, 0x81, 0x70, 0x45, 0x00, 0x00, 0x43, 0x64, 0x83, 0x60, 0x43,
  0x00, 0x00, 0x45, 0x64, 0x83, 0x60, 0x45, 0x00, 0x83, 0x60, 0x45, 0x64,
  0x81, 0x70, 0x45, 0x00, 0x00, 0x45, 0x64, 0x81, 0x70, 0x45, 0x00, 0x00,
  0x45, 0x64, 0x83, 0x60, 0x45, 0x00, 0x00, 0x45, 0x64, 0x83, 0x60, 0x45,
  0x00, 0x83, 0x60, 0x45, 0x64, 0x81, 0x70, 0x45, 0x00, 0x00, 0x45, 0x64,
  0x81, 0x70, 0x45, 0x00, 0x00, 0x43, 0x64, 0x83, 0x60, 0x43, 0x00, 0x00,
  0x45, 0x64, 0x83, 0x60, 0x45, 0x00, 0x00, 0x46, 0x64, 0x83, 0x60, 0x46,
  0x00, 0x00, 0x45, 0x64, 0x83, 0x60, 0x45, 0x00, 0x00, 0x45, 0x64, 0x83,
  0x60, 0x45, 0x00, 0x00, 0x45, 0x64, 0x83, 0x60, 0x45, 0x00, 0x96, 0x40,
  0x45, 0x64, 0x8b, 0x20, 0x45, 0x00, 0x00, 0x45, 0x64, 0x83, 0x60, 0x45,
  0x00, 0x00, 0x41, 0x64, 0x83, 0x60, 0x41, 0x00, 0x00, 0x3c, 0x64, 0x83,
  0x60, 0x3c, 0x00, 0x00, 0x41, 0x64, 0x83, 0x60, 0x41, 0x00, 0x00, 0x45,
  0x64, 0x83, 0x60, 0x45, 0x00, 0x00, 0x48, 0x64, 0x87, 0x40, 0x48, 0x00,
  0x00, 0x45, 0x64, 0x87, 0x40, 0x45, 0x00, 0x00, 0x3e, 0x64, 0x8b, 0x20,
  0x3e, 0x00, 0x00, 0x43, 0x64, 0x83, 0x60, 0x43, 0x00, 0x00, 0x3e, 0x64,
  0x83, 0x60, 0x3e, 0x00, 0x00, 0x3e, 0x64, 0x83, 0x60, 0x3e, 0x00, 0x00,
  0x43, 0x64, 0x83, 0x60, 0x43, 0x00, 0x00, 0x47, 0x64, 0x83, 0x60, 0x47,
  0x00, 0x00, 0x4a, 0x64, 0x87, 0x40, 0x4a, 0x00, 0x00, 0x47, 0x64, 0x87,
  0x40, 0x47, 0x00, 0x00, 0x45, 0x64, 0x87, 0x40, 0x45, 0x00, 0x00, 0x44,
  0x64, 0x87, 0x40, 0x44, 0x00, 0x00, 0x45, 0x64, 0x83, 0x60, 0x45, 0x00,
  0x00, 0x48, 0x64, 0x87, 0x40, 0x48, 0x00, 0x00, 0x47, 0x64, 0x81, 0x70,
  0x47, 0x00, 0x00, 0x45, 0x64, 0x81, 0x70, 0x45, 0x00, 0x00, 0x44, 0x64,
  0x83, 0x60, 0x44, 0x00, 0x00, 0x45, 0x64, 0x83, 0x60, 0x45, 0x00, 0x00,
  0x45, 0x64, 0x83, 0x60, 0x45, 0x00, 0x00, 0x44, 0x64, 0x83, 0x60, 0x44,
  0x00, 0x00, 0x45, 0x64, 0x83, 0x60, 0x45, 0x00, 0xa9, 0x20, 0x48, 0x64,
  0x87, 0x40, 0x48, 0x00, 0x00, 0x48, 0x64, 0x87, 0x40, 0x48, 0x00, 0x00,
  0x47, 0x64, 0x83, 0x60, 0x47, 0x00, 0x00, 0x47, 0x64, 0x83, 0x60, 0x47,
  0x00, 0x87, 0x40, 0x47, 0x64, 0x87, 0x40, 0x47, 0x00, 0x00, 0x47, 0x64,
  0x87, 0x40, 0x47, 0x00, 0x00, 0x45, 0x64, 0x83, 0x60, 0x45, 0x00, 0x00,
  0x45, 0x64, 0x83, 0x60, 0x45, 0x00, 0x83, 0x60, 0x45, 0x64, 0x81, 0x70,
  0x45, 0x00, 0x00, 0x45, 0x64, 0x81, 0x70, 0x45, 0x00, 0x00, 0x45, 0x64,
  0x83, 0x60, 0x45, 0x00, 0x00, 0x45, 0x64, 0x83, 0x60, 0x45, 0x00, 0x83,
  0x60, 0x45, 0x64, 0x81, 0x70, 0x45, 0x00, 0x00, 0x45, 0x64, 0x81, 0x70,
  0x45, 0x00, 0x00, 0x44, 0x64, 0x83, 0x60, 0x44, 0x00, 0x00, 0x45, 0x64,
  0x83, 0x60, 0x45, 0x00, 0x83, 0x60, 0x40, 0x64, 0x81, 0x70, 0x40, 0x00,
  0x00, 0x40, 0x64, 0x81, 0x70, 0x40, 0x00, 0x00, 0x45, 0x64, 0x83, 0x60,
  0x45, 0x00, 0x00, 0x43, 0x64, 0x83, 0x60, 0x43, 0x00, 0x00, 0x41, 0x64,
  0x83, 0x60, 0x41, 0x00, 0x00, 0x40, 0x64, 0x83, 0x60, 0x40, 0x00, 0x00,
  0x40, 0x64, 0x83, 0x60, 0x40, 0x00, 0x00, 0x40, 0x64, 0x83, 0x60, 0x40,
  0x00, 0x96, 0x40, 0x43, 0x64, 0x8b, 0x20, 0x43, 0x00, 0x00, 0x43, 0x64,
  0x83, 0x60, 0x43, 0x00, 0x00, 0x43, 0x64, 0x83, 0x60, 0x43, 0x00, 0x00,
  0x43, 0x64, 0x83, 0x60, 0x43, 0x00, 0x00, 0x43, 0x64, 0x83, 0x60, 0x43,
  0x00, 0x00, 0x43, 0x64, 0x83, 0x60, 0x43, 0x00, 0x00, 0x43, 0x64, 0x87,
  0x40, 0x43, 0x00, 0x00, 0x43, 0x64, 0x87, 0x40, 0x43, 0x00, 0x00, 0x43,
  0x64, 0x8b, 0x20, 0x43, 0x00, 0x00, 0x40, 0x64, 0x83, 0x60, 0x40, 0x00,
  0x00, 0x43, 0x64, 0x83, 0x60, 0x43, 0x00, 0x00, 0x43, 0x64, 0x83, 0x60,
  0x43, 0x00, 0x00, 0x40, 0x64, 0x83, 0x60, 0x40, 0x00, 0x00, 0x45, 0x64,
  0x83, 0x60, 0x45, 0x00, 0x00, 0x45, 0x64, 0x87, 0x40, 0x45, 0x00, 0x00,
  0x45, 0x64, 0x87, 0x40, 0x45, 0x00, 0x00, 0x46, 0x64, 0x87, 0x40, 0x46,
  0x00, 0x00, 0x48, 0x64, 0x85, 0x50, 0x48, 0x00, 0x00, 0x45, 0x64, 0x81,
  0x70, 0x45, 0x00, 0x00, 0x43, 0x64, 0x87, 0x40, 0x43, 0x00, 0x00, 0x45,
  0x64, 0x87, 0x40, 0x45, 0x00, 0x00, 0x46, 0x64, 0x87, 0x40, 0x46, 0x00,
  0x00, 0x47, 0x64, 0x87, 0x40, 0x47, 0x00, 0x00, 0x45, 0x64, 0x83, 0x60,
  0x45, 0x00, 0x00, 0x45, 0x64, 0x83, 0x60, 0x45, 0x00, 0x9e, 0x00, 0x40,
  0x64, 0x85, 0x50, 0x40, 0x00, 0x00, 0x40, 0x64, 0x81, 0x70, 0x40, 0x00,
  0x00, 0x41, 0x64, 0x83, 0x60, 0x41, 0x00, 0x00, 0x40, 0x64, 0x83, 0x60,
  0x40, 0x00, 0x00, 0x40, 0x64, 0x85, 0x50, 0x40, 0x00, 0x00, 0x40, 0x64,
  0x81, 0x70, 0x40, 0x00, 0x00, 0x41, 0x64, 0x83, 0x60, 0x41, 0x00, 0x00,
  0x40, 0x64, 0x83, 0x60, 0x40, 0x00, 0x9e, 0x00, 0x45, 0x64, 0x85, 0x50,
  0x45, 0x00, 0x00, 0x45, 0x64, 0x81, 0x70, 0x45, 0x00, 0x00, 0x44, 0x64,
  0x83, 0x60, 0x44, 0x00, 0x00, 0x45, 0x64, 0x83, 0x60, 0x45, 0x00, 0x00,
  0x45, 0x64, 0x85, 0x50, 0x45, 0x00, 0x00, 0x45, 0x64, 0x81, 0x70, 0x45,
  0x00, 0x00, 0x44, 0x64, 0x83, 0x60, 0x44, 0x00, 0x00, 0x45, 0x64, 0x83,
  0x60, 0x45, 0x00, 0x9e, 0x00, 0x43, 0x64, 0x85, 0x50, 0x43, 0x00, 0x00,
  0x43, 0x64, 0x81, 0x70, 0x43, 0x00, 0x00, 0x45, 0x64, 0x81, 0x70, 0x45,
  0x00, 0x00, 0x46, 0x64, 0x81, 0x70, 0x46, 0x00, 0x00, 0x45, 0x64, 0x81,
  0x70, 0x45, 0x00, 0x00, 0x46, 0x64, 0x81, 0x70, 0x46, 0x00, 0x00, 0x45,
  0x64, 0x81, 0x70, 0x45, 0x00, 0x00, 0x46, 0x64, 0x81, 0x70, 0x46, 0x00,
  0x00, 0x45, 0x64, 0x81, 0x70, 0x45, 0x00, 0x00, 0x46, 0x64, 0x81, 0x70,
  0x46, 0x00, 0x00, 0x40, 0x64, 0x83, 0x60, 0x40, 0x00, 0x00, 0x45, 0x64,
  0x83, 0x60, 0x45, 0x00, 0x83, 0x60, 0x45, 0x64, 0x81, 0x70, 0x45, 0x00,
  0x00, 0x45, 0x64, 0x81, 0x70, 0x45, 0x00, 0x00, 0x45, 0x64, 0x83, 0x60,
  0x45, 0x00, 0x00, 0x45, 0x64, 0x83, 0x60, 0x45, 0x00, 0x00, 0x45, 0x64,
  0x83, 0x60, 0x45, 0x00, 0x00, 0x45, 0x64, 0x83, 0x60, 0x45, 0x00, 0x00,
  0x45, 0x64, 0x83, 0x60, 0x45, 0x00, 0x00, 0x45, 0x64, 0x83, 0x60, 0x45,
  0x00, 0x83, 0x60, 0x45, 0x64, 0x81, 0x70, 0x45, 0x00, 0x00, 0x45, 0x64,
  0x81, 0x70, 0x45, 0x00, 0x00, 0x45, 0x64, 0x83, 0x60, 0x45, 0x00, 0x00,
  0x45, 0x64, 0x83, 0x60, 0x45, 0x00, 0x00, 0x45, 0x64, 0x83, 0x60, 0x45,
  0x00, 0x00, 0x45, 0x64, 0x83, 0x60, 0x45, 0x00, 0x00, 0x45, 0x64, 0x83,
  0x60, 0x45, 0x00, 0x00, 0x45, 0x64, 0x83, 0x60, 0x45, 0x00, 0x8b, 0x20,
  0x41, 0x64, 0x87, 0x40, 0x41, 0x00, 0x00, 0x41, 0x64, 0x83, 0x60, 0x41,
  0x00, 0x00, 0x45, 0x64, 0x83, 0x60, 0x45, 0x00, 0x00, 0x41, 0x64, 0x83,
  0x60, 0x41, 0x00, 0x8f, 0x00, 0x46, 0x64, 0x85, 0x50, 0x46, 0x00, 0x00,
  0x46, 0x64, 0x81, 0x70, 0x46, 0x00, 0x00, 0x45, 0x64, 0x83, 0x60, 0x45,
  0x00, 0x00, 0x45, 0x64, 0x83, 0x60, 0x45, 0x00, 0x00, 0x45, 0x64, 0x87,
  0x40, 0x45, 0x00, 0x00, 0x45, 0x64, 0x83, 0x60, 0x45, 0x00, 0x00, 0x41,
  0x64, 0x87, 0x40, 0x41, 0x00, 0x00, 0x41, 0x64, 0x83, 0x60, 0x41, 0x00,
  0x00, 0x4a, 0x64, 0x83, 0x60, 0x4a, 0x00, 0x00, 0x46, 0x64, 0x83, 0x60,
  0x46, 0x00, 0x8f, 0x00, 0x46, 0x64, 0x85, 0x50, 0x46, 0x00, 0x00, 0x46,
  0x64, 0x81, 0x70, 0x46, 0x00, 0x00, 0x45, 0x64, 0x83, 0x60, 0x45, 0x00,
  0x00, 0x45, 0x64, 0x83, 0x60, 0x45, 0x00, 0x00, 0x45, 0x64, 0x87, 0x40,
  0x45, 0x00, 0x00, 0x45, 0x64, 0x83, 0x60, 0x45, 0x00, 0x00, 0xff, 0x2f,
  0x00, 0x4d, 0x54, 0x72, 0x6b, 0x00, 0x00, 0x04, 0xd0, 0x00, 0xff, 0x21,
  0x01, 0x00, 0x00, 0xff, 0x03, 0x08, 0x54, 0x72, 0x61, 0x63, 0x6b, 0x20,
  0x31, 0x30, 0x00, 0xca, 0x34, 0x00, 0xba, 0x07, 0x7f, 0x00, 0xba, 0x0a,
  0x46, 0x20, 0xba, 0x5b, 0x5a, 0x08, 0x9a, 0x41, 0x64, 0x87, 0x18, 0x41,
  0x64, 0x28, 0x41, 0x00, 0x87, 0x18, 0x41, 0x00, 0x00, 0x43, 0x64, 0x83,
  0x60, 0x43, 0x00, 0x00, 0x43, 0x64, 0x83, 0x60, 0x43, 0x00, 0x87, 0x40,
  0x43, 0x64, 0x87, 0x40, 0x43, 0x00, 0x00, 0x43, 0x64, 0x87, 0x40, 0x43,
  0x00, 0x00, 0x41, 0x64, 0x83, 0x60, 0x41, 0x00, 0x00, 0x41, 0x64, 0x83,
  0x60, 0x41, 0x00, 0x83, 0x60, 0x41, 0x64, 0x81, 0x70, 0x41, 0x00, 0x00,
  0x41, 0x64, 0x81, 0x70, 0x41, 0x00, 0x00, 0x40, 0x64, 0x83, 0x60, 0x40,
  0x00, 0x00, 0x3e, 0x64, 0x83, 0x60, 0x3e, 0x00, 0x83, 0x60, 0x39, 0x64,
  0x81, 0x70, 0x39, 0x00, 0x00, 0x39, 0x64, 0x81, 0x70, 0x39, 0x00, 0x00,
  0x40, 0x64, 0x83, 0x60, 0x40, 0x00, 0x00, 0x3e, 0x64, 0x83, 0x60, 0x3e,
  0x00, 0x83, 0x60, 0x41, 0x64, 0x81, 0x70, 0x41, 0x00, 0x00, 0x41, 0x64,
  0x81, 0x70, 0x41, 0x00, 0x00, 0x3e, 0x64, 0x83, 0x60, 0x3e, 0x00, 0x00,
  0x3e, 0x64, 0x83, 0x60, 0x3e, 0x00, 0x00, 0x3d, 0x64, 0x83, 0x60, 0x3d,
  0x00, 0x00, 0x41, 0x64, 0x83, 0x60, 0x41, 0x00, 0x00, 0x41, 0x64, 0x83,
  0x60, 0x41, 0x00, 0x00, 0x40, 0x64, 0x83, 0x60, 0x40, 0x00, 0x96, 0x40,
  0x3c, 0x64, 0x8b, 0x20, 0x3c, 0x00, 0x00, 0x35, 0x64, 0x83, 0x60, 0x35,
  0x00, 0x00, 0x41, 0x64, 0x8b, 0x20, 0x41, 0x00, 0x00, 0x3c, 0x64, 0x83,
  0x60, 0x3c, 0x00, 0x00, 0x39, 0x64, 0x83, 0x60, 0x39, 0x00, 0x00, 0x36,
  0x64, 0x83, 0x60, 0x36, 0x00, 0x00, 0x39, 0x64, 0x83, 0x60, 0x39, 0x00,
  0x00, 0x3c, 0x64, 0x83, 0x60, 0x3c, 0x00, 0x00, 0x3c, 0x64, 0x87, 0x40,
  0x3c, 0x00, 0x00, 0x3b, 0x64, 0x87, 0x40, 0x3b, 0x00, 0x00, 0x43, 0x64,
  0x8b, 0x20, 0x43, 0x00, 0x00, 0x3e, 0x64, 0x83, 0x60, 0x3e, 0x00, 0x00,
  0x3b, 0x64, 0x83, 0x60, 0x3b, 0x00, 0x00, 0x38, 0x64, 0x83, 0x60, 0x38,
  0x00, 0x00, 0x3b, 0x64, 0x83, 0x60, 0x3b, 0x00, 0x00, 0x3e, 0x64, 0x83,
  0x60, 0x3e, 0x00, 0x00, 0x3c, 0x64, 0x85, 0x50, 0x3c, 0x00, 0x00, 0x39,
  0x64, 0x81, 0x70, 0x39, 0x00, 0x00, 0x3e, 0x64, 0x85, 0x50, 0x3e, 0x00,
  0x00, 0x3b, 0x64, 0x81, 0x70, 0x3b, 0x00, 0x00, 0x40, 0x64, 0x83, 0x60,
  0x40, 0x00, 0x00, 0x39, 0x64, 0x83, 0x60, 0x39, 0x00, 0x83, 0x60, 0x41,
  0x64, 0x81, 0x70, 0x41, 0x00, 0x00, 0x41, 0x64, 0x81, 0x70, 0x41, 0x00,
  0x00, 0x40, 0x64, 0x83, 0x60, 0x40, 0x00, 0x00, 0x40, 0x64, 0x83, 0x60,
  0x40, 0x00, 0x00, 0x40, 0x64, 0x87, 0x40, 0x40, 0x00, 0x00, 0x40, 0x64,
  0x83, 0x60, 0x40, 0x00, 0xa9, 0x20, 0x40, 0x64, 0x87, 0x40, 0x40, 0x00,
  0x00, 0x40, 0x64, 0x87, 0x40, 0x40, 0x00, 0x00, 0x3e, 0x64, 0x83, 0x60,
  0x3e, 0x00, 0x00, 0x3e, 0x64, 0x83, 0x60, 0x3e, 0x00, 0x87, 0x40, 0x3e,
  0x64, 0x87, 0x40, 0x3e, 0x00, 0x00, 0x3e, 0x64, 0x87, 0x40, 0x3e, 0x00,
  0x00, 0x3c, 0x64, 0x83, 0x60, 0x3c, 0x00, 0x00, 0x3c, 0x64, 0x83, 0x60,
  0x3c, 0x00, 0x83, 0x60, 0x3c, 0x64, 0x81, 0x70, 0x3c, 0x00, 0x00, 0x3c,
  0x64, 0x81, 0x70, 0x3c, 0x00, 0x00, 0x3e, 0x64, 0x83, 0x60, 0x3e, 0x00,
  0x00, 0x40, 0x64, 0x83, 0x60, 0x40, 0x00, 0x83, 0x60, 0x40, 0x64, 0x81,
  0x70, 0x40, 0x00, 0x00, 0x40, 0x64, 0x81, 0x70, 0x40, 0x00, 0x00, 0x40,
  0x64, 0x83, 0x60, 0x40, 0x00, 0x00, 0x40, 0x64, 0x83, 0x60, 0x40, 0x00,
  0x83, 0x60, 0x3c, 0x64, 0x81, 0x70, 0x3c, 0x00, 0x00, 0x3b, 0x64, 0x81,
  0x70, 0x3b, 0x00, 0x00, 0x39, 0x64, 0x83, 0x60, 0x39, 0x00, 0x00, 0x3c,
  0x64, 0x83, 0x60, 0x3c, 0x00, 0x00, 0x3e, 0x64, 0x83, 0x60, 0x3e, 0x00,
  0x00, 0x3c, 0x64, 0x83, 0x60, 0x3c, 0x00, 0x00, 0x3c, 0x64, 0x83, 0x60,
  0x3c, 0x00, 0x00, 0x3b, 0x64, 0x83, 0x60, 0x3b, 0x00, 0x96, 0x40, 0x3f,
  0x64, 0x8b, 0x20, 0x3f, 0x00, 0x00, 0x3f, 0x64, 0x83, 0x60, 0x3f, 0x00,
  0x00, 0x3f, 0x64, 0x83, 0x60, 0x3f, 0x00, 0x00, 0x3f, 0x64, 0x83, 0x60,
  0x3f, 0x00, 0x00, 0x3f, 0x64, 0x83, 0x60, 0x3f, 0x00, 0x00, 0x3f, 0x64,
  0x83, 0x60, 0x3f, 0x00, 0x00, 0x3f, 0x64, 0x83, 0x60, 0x3f, 0x00, 0x00,
  0x40, 0x64, 0x83, 0x60, 0x40, 0x00, 0x00, 0x40, 0x64, 0x87, 0x40, 0x40,
  0x00, 0x00, 0x40, 0x64, 0x8b, 0x20, 0x40, 0x00, 0x00, 0x3d, 0x64, 0x83,
  0x60, 0x3d, 0x00, 0x00, 0x3d, 0x64, 0x83, 0x60, 0x3d, 0x00, 0x00, 0x40,
  0x64, 0x83, 0x60, 0x40, 0x00, 0x00, 0x3d, 0x64, 0x83, 0x60, 0x3d, 0x00,
  0x00, 0x40, 0x64, 0x83, 0x60, 0x40, 0x00, 0x00, 0x40, 0x64, 0x83, 0x60,
  0x40, 0x00, 0x00, 0x41, 0x64, 0x83, 0x60, 0x41, 0x00, 0x00, 0x41, 0x64,
  0x87, 0x40, 0x41, 0x00, 0x00, 0x3f, 0x64, 0x87, 0x40, 0x3f, 0x00, 0x00,
  0x3f, 0x64, 0x87, 0x40, 0x3f, 0x00, 0x00, 0x3e, 0x64, 0x87, 0x40, 0x3e,
  0x00, 0x00, 0x3c, 0x64, 0x87, 0x40, 0x3c, 0x00, 0x00, 0x3a, 0x64, 0x87,
  0x40, 0x3a, 0x00, 0x00, 0x41, 0x64, 0x87, 0x40, 0x41, 0x00, 0x00, 0x41,
  0x64, 0x83, 0x60, 0x41, 0x00, 0x00, 0x40, 0x64, 0x83, 0x60, 0x40, 0x00,
  0x9e, 0x00, 0x3d, 0x64, 0x85, 0x50, 0x3d, 0x00, 0x00, 0x3d, 0x64, 0x81,
  0x70, 0x3d, 0x00, 0x00, 0x3e, 0x64, 0x83, 0x60, 0x3e, 0x00, 0x00, 0x3d,
  0x64, 0x83, 0x60, 0x3d, 0x00, 0x00, 0x3d, 0x64, 0x85, 0x50, 0x3d, 0x00,
  0x00, 0x3d, 0x64, 0x81, 0x70, 0x3d, 0x00, 0x00, 0x3e, 0x64, 0x83, 0x60,
  0x3e, 0x00, 0x00, 0x3d, 0x64, 0x83, 0x60, 0x3d, 0x00, 0x9e, 0x00, 0x3d,
  0x64, 0x85, 0x50, 0x3d, 0x00, 0x00, 0x3d, 0x64, 0x81, 0x70, 0x3d, 0x00,
  0x00, 0x3e, 0x64, 0x83, 0x60, 0x3e, 0x00, 0x00, 0x3d, 0x64, 0x83, 0x60,
  0x3d, 0x00, 0x00, 0x3d, 0x64, 0x85, 0x50, 0x3d, 0x00, 0x00, 0x3d, 0x64,
  0x81, 0x70, 0x3d, 0x00, 0x00, 0x3e, 0x64, 0x83, 0x60, 0x3e, 0x00, 0x00,
  0x3d, 0x64, 0x83, 0x60, 0x3d, 0x00, 0x9e, 0x00, 0x3e, 0x64, 0x85, 0x50,
  0x3e, 0x00, 0x00, 0x3e, 0x64, 0x81, 0x70, 0x3e, 0x00, 0x00, 0x3f, 0x64,
  0x81, 0x70, 0x3f, 0x00, 0x00, 0x3e, 0x64, 0x81, 0x70, 0x3e, 0x00, 0x00,
  0x3f, 0x64, 0x81, 0x70, 0x3f, 0x00, 0x00, 0x3e, 0x64, 0x81, 0x70, 0x3e,
  0x00, 0x00, 0x3f, 0x64, 0x81, 0x70, 0x3f, 0x00, 0x00, 0x3e, 0x64, 0x81,
  0x70, 0x3e, 0x00, 0x00, 0x3f, 0x64, 0x81, 0x70, 0x3f, 0x00, 0x00, 0x3e,
  0x64, 0x81, 0x70, 0x3e, 0x00, 0x00, 0x3d, 0x64, 0x83, 0x60, 0x3d, 0x00,
  0x00, 0x40, 0x64, 0x83, 0x60, 0x40, 0x00, 0x83, 0x60, 0x40, 0x64, 0x81,
  0x70, 0x40, 0x00, 0x00, 0x40, 0x64, 0x81, 0x70, 0x40, 0x00, 0x00, 0x41,
  0x64, 0x83, 0x60, 0x41, 0x00, 0x00, 0x40, 0x64, 0x83, 0x60, 0x40, 0x00,
  0x00, 0x41, 0x64, 0x83, 0x60, 0x41, 0x00, 0x00, 0x40, 0x64, 0x83, 0x60,
  0x40, 0x00, 0x00, 0x41, 0x64, 0x83, 0x60, 0x41, 0x00, 0x00, 0x40, 0x64,
  0x83, 0x60, 0x40, 0x00, 0x83, 0x60, 0x41, 0x64, 0x81, 0x70, 0x41, 0x00,
  0x00, 0x41, 0x64, 0x81, 0x70, 0x41, 0x00, 0x00, 0x40, 0x64, 0x83, 0x60,
  0x40, 0x00, 0x00, 0x3e, 0x64, 0x83, 0x60, 0x3e, 0x00, 0x00, 0x40, 0x64,
  0x83, 0x60, 0x40, 0x00, 0x00, 0x3e, 0x64, 0x83, 0x60, 0x3e, 0x00, 0x00,
  0x40, 0x64, 0x83, 0x60, 0x40, 0x00, 0x00, 0x3e, 0x64, 0x83, 0x60, 0x3e,
  0x00, 0x9a, 0x20, 0x3e, 0x64, 0x87, 0x40, 0x3e, 0x00, 0x00, 0x3e, 0x64,
  0x83, 0x60, 0x3e, 0x00, 0x00, 0x41, 0x64, 0x83, 0x60, 0x41, 0x00, 0x00,
  0x3e, 0x64, 0x83, 0x60, 0x3e, 0x00, 0x00, 0x3e, 0x64, 0x85, 0x50, 0x3e,
  0x00, 0x00, 0x3e, 0x64, 0x81, 0x70, 0x3e, 0x00, 0x00, 0x3d, 0x64, 0x83,
  0x60, 0x3d, 0x00, 0x00, 0x3e, 0x64, 0x83, 0x60, 0x3e, 0x00, 0x00, 0x3e,
  0x64, 0x83, 0x60, 0x3e, 0x00, 0x00, 0x3d, 0x64, 0x83, 0x60, 0x3d, 0x00,
  0x00, 0x3e, 0x64, 0x83, 0x60, 0x3e, 0x00, 0x8f, 0x00, 0x3e, 0x64, 0x87,
  0x40, 0x3e, 0x00, 0x00, 0x3e, 0x64, 0x83, 0x60, 0x3e, 0x00, 0x00, 0x43,
  0x64, 0x83, 0x60, 0x43, 0x00, 0x00, 0x3f, 0x64, 0x83, 0x60, 0x3f, 0x00,
  0x00, 0x3f, 0x64, 0x85, 0x50, 0x3f, 0x00, 0x00, 0x3e, 0x64, 0x81, 0x70,
  0x3e, 0x00, 0x00, 0x3d, 0x64, 0x83, 0x60, 0x3d, 0x00, 0x00, 0x3e, 0x64,
  0x83, 0x60, 0x3e, 0x00, 0x00, 0x3e, 0x64, 0x83, 0x60, 0x3e, 0x00, 0x00,
  0x3d, 0x64, 0x83, 0x60, 0x3d, 0x00, 0x00, 0x3e, 0x64, 0x83, 0x60, 0x3e,
  0x00, 0x00, 0xff, 0x2f, 0x00, 0x4d, 0x54, 0x72, 0x6b, 0x00, 0x00, 0x05,
  0x30, 0x00, 0xff, 0x21, 0x01, 0x00, 0x00, 0xff, 0x03, 0x08, 0x54, 0x72,
  0x61, 0x63, 0x6b, 0x20, 0x31, 0x31, 0x00, 0xcb, 0x34, 0x00, 0xbb, 0x07,
  0x7f, 0x00, 0xbb, 0x0a, 0x50, 0x23, 0xbb, 0x5b, 0x5a, 0x05, 0x9b, 0x3e,
  0x64, 0x87, 0x18, 0x3e, 0x64, 0x28, 0x3e, 0x00, 0x87, 0x18, 0x3e, 0x00,
  0x00, 0x3e, 0x64, 0x83, 0x60, 0x3e, 0x00, 0x00, 0x3e, 0x64, 0x83, 0x60,
  0x3e, 0x00, 0x87, 0x40, 0x3d, 0x64, 0x87, 0x40, 0x3d, 0x00, 0x00, 0x3d,
  0x64, 0x87, 0x40, 0x3d, 0x00, 0x00, 0x3e, 0x64, 0x83, 0x60, 0x3e, 0x00,
  0x00, 0x3e, 0x64, 0x83, 0x60, 0x3e, 0x00, 0x83, 0x60, 0x32, 0x64, 0x81,
  0x70, 0x32, 0x00, 0x00, 0x32, 0x64, 0x81, 0x70, 0x32, 0x00, 0x00, 0x34,
  0x64, 0x83, 0x60, 0x34, 0x00, 0x00, 0x35, 0x64, 0x83, 0x60, 0x35, 0x00,
  0x83, 0x60, 0x35, 0x64, 0x81, 0x70, 0x35, 0x00, 0x00, 0x35, 0x64, 0x81,
  0x70, 0x35, 0x00, 0x00, 0x31, 0x64, 0x83, 0x60, 0x31, 0x00, 0x00, 0x32,
  0x64, 0x83, 0x60, 0x32, 0x00, 0x83, 0x60, 0x3e, 0x64, 0x81, 0x70, 0x3e,
  0x00, 0x00, 0x3c, 0x64, 0x81, 0x70, 0x3c, 0x00, 0x00, 0x3a, 0x64, 0x83,
  0x60, 0x3a, 0x00, 0x00, 0x39, 0x64, 0x83, 0x60, 0x39, 0x00, 0x00, 0x37,
  0x64, 0x83, 0x60, 0x37, 0x00, 0x00, 0x32, 0x64, 0x83, 0x60, 0x32, 0x00,
  0x00, 0x39, 0x64, 0x83, 0x60, 0x39, 0x00, 0x00, 0x39, 0x64, 0x83, 0x60,
  0x39, 0x00, 0x96, 0x40, 0x35, 0x64, 0x8b, 0x20, 0x35, 0x00, 0x00, 0x35,
  0x64, 0x83, 0x60, 0x35, 0x00, 0x00, 0x35, 0x64, 0x83, 0x60, 0x35, 0x00,
  0x00, 0x35, 0x64, 0x83, 0x60, 0x35, 0x00, 0x00, 0x35, 0x64, 0x83, 0x60,
  0x35, 0x00, 0x00, 0x35, 0x64, 0x83, 0x60, 0x35, 0x00, 0x00, 0x36, 0x64,
  0x87, 0x40, 0x36, 0x00, 0x00, 0x36, 0x64, 0x87, 0x40, 0x36, 0x00, 0x00,
  0x37, 0x64, 0x8b, 0x20, 0x37, 0x00, 0x00, 0x37, 0x64, 0x83, 0x60, 0x37,
  0x00, 0x00, 0x37, 0x64, 0x83, 0x60, 0x37, 0x00, 0x00, 0x37, 0x64, 0x83,
  0x60, 0x37, 0x00, 0x00, 0x37, 0x64, 0x83, 0x60, 0x37, 0x00, 0x00, 0x37,
  0x64, 0x83, 0x60, 0x37, 0x00, 0x00, 0x38, 0x64, 0x87, 0x40, 0x38, 0x00,
  0x00, 0x38, 0x64, 0x87, 0x40, 0x38, 0x00, 0x00, 0x39, 0x64, 0x87, 0x40,
  0x39, 0x00, 0x00, 0x3b, 0x64, 0x87, 0x40, 0x3b, 0x00, 0x00, 0x3c, 0x64,
  0x87, 0x40, 0x3c, 0x00, 0x00, 0x3e, 0x64, 0x87, 0x40, 0x3e, 0x00, 0x00,
  0x40, 0x64, 0x83, 0x60, 0x40, 0x00, 0x00, 0x39, 0x64, 0x83, 0x60, 0x39,
  0x00, 0x00, 0x34, 0x64, 0x87, 0x40, 0x34, 0x00, 0x00, 0x39, 0x64, 0x83,
  0x60, 0x39, 0x00, 0xa9, 0x20, 0x39, 0x64, 0x87, 0x40, 0x39, 0x00, 0x00,
  0x39, 0x64, 0x87, 0x40, 0x39, 0x00, 0x00, 0x39, 0x64, 0x83, 0x60, 0x39,
  0x00, 0x00, 0x39, 0x64, 0x83, 0x60, 0x39, 0x00, 0x87, 0x40, 0x38, 0x64,
  0x87, 0x40, 0x38, 0x00, 0x00, 0x38, 0x64, 0x87, 0x40, 0x38, 0x00, 0x00,
  0x39, 0x64, 0x83, 0x60, 0x39, 0x00, 0x00, 0x39, 0x64, 0x83, 0x60, 0x39,
  0x00, 0x83, 0x60, 0x39, 0x64, 0x81, 0x70, 0x39, 0x00, 0x00, 0x39, 0x64,
  0x81, 0x70, 0x39, 0x00, 0x00, 0x3e, 0x64, 0x83, 0x60, 0x3e, 0x00, 0x00,
  0x3c, 0x64, 0x83, 0x60, 0x3c, 0x00, 0x83, 0x60, 0x3c, 0x64, 0x81, 0x70,
  0x3c, 0x00, 0x00, 0x3c, 0x64, 0x81, 0x70, 0x3c, 0x00, 0x00, 0x3b, 0x64,
  0x83, 0x60, 0x3b, 0x00, 0x00, 0x39, 0x64, 0x83, 0x60, 0x39, 0x00, 0x83,
  0x60, 0x39, 0x64, 0x81, 0x70, 0x39, 0x00, 0x00, 0x37, 0x64, 0x81, 0x70,
  0x37, 0x00, 0x00, 0x35, 0x64, 0x83, 0x60, 0x35, 0x00, 0x00, 0x34, 0x64,
  0x83, 0x60, 0x34, 0x00, 0x00, 0x32, 0x64, 0x83, 0x60, 0x32, 0x00, 0x00,
  0x39, 0x64, 0x83, 0x60, 0x39, 0x00, 0x00, 0x34, 0x64, 0x83, 0x60, 0x34,
  0x00, 0x00, 0x34, 0x64, 0x83, 0x60, 0x34, 0x00, 0x96, 0x40, 0x3c, 0x64,
  0x8b, 0x20, 0x3c, 0x00, 0x00, 0x3c, 0x64, 0x83, 0x60, 0x3c, 0x00, 0x00,
  0x3c, 0x64, 0x83, 0x60, 0x3c, 0x00, 0x00, 0x3c, 0x64, 0x83, 0x60, 0x3c,
  0x00, 0x00, 0x3c, 0x64, 0x83, 0x60, 0x3c, 0x00, 0x00, 0x3c, 0x64, 0x83,
  0x60, 0x3c, 0x00, 0x00, 0x3c, 0x64, 0x83, 0x60, 0x3c, 0x00, 0x00, 0x3a,
  0x64, 0x83, 0x60, 0x3a, 0x00, 0x00, 0x3a, 0x64, 0x87, 0x40, 0x3a, 0x00,
  0x00, 0x3a, 0x64, 0x8b, 0x20, 0x3a, 0x00, 0x00, 0x3a, 0x64, 0x83, 0x60,
  0x3a, 0x00, 0x00, 0x3a, 0x64, 0x83, 0x60, 0x3a, 0x00, 0x00, 0x39, 0x64,
  0x83, 0x60, 0x39, 0x00, 0x00, 0x39, 0x64, 0x83, 0x60, 0x39, 0x00, 0x00,
  0x37, 0x64, 0x83, 0x60, 0x37, 0x00, 0x00, 0x37, 0x64, 0x83, 0x60, 0x37,
  0x00, 0x00, 0x35, 0x64, 0x83, 0x60, 0x35, 0x00, 0x00, 0x35, 0x64, 0x87,
  0x40, 0x35, 0x00, 0x00, 0x37, 0x64, 0x87, 0x40, 0x37, 0x00, 0x00, 0x39,
  0x64, 0x87, 0x40, 0x39, 0x00, 0x00, 0x3a, 0x64, 0x87, 0x40, 0x3a, 0x00,
  0x00, 0x39, 0x64, 0x87, 0x40, 0x39, 0x00, 0x00, 0x37, 0x64, 0x87, 0x40,
  0x37, 0x00, 0x00, 0x38, 0x64, 0x87, 0x40, 0x38, 0x00, 0x00, 0x39, 0x64,
  0x83, 0x60, 0x39, 0x00, 0x00, 0x39, 0x64, 0x83, 0x60, 0x39, 0x00, 0x00,
  0x39, 0x64, 0x85, 0x50, 0x39, 0x00, 0x00, 0x39, 0x64, 0x81, 0x70, 0x39,
  0x00, 0x00, 0x38, 0x64, 0x81, 0x70, 0x38, 0x00, 0x00, 0x39, 0x64, 0x81,
  0x70, 0x39, 0x00, 0x00, 0x38, 0x64, 0x81, 0x70, 0x38, 0x00, 0x00, 0x39,
  0x64, 0x81, 0x70, 0x39, 0x00, 0x00, 0x38, 0x64, 0x81, 0x70, 0x38, 0x00,
  0x00, 0x39, 0x64, 0x81, 0x70, 0x39, 0x00, 0x00, 0x38, 0x64, 0x81, 0x70,
  0x38, 0x00, 0x00, 0x39, 0x64, 0x81, 0x70, 0x39, 0x00, 0x00, 0x3a, 0x64,
  0x83, 0x60, 0x3a, 0x00, 0x00, 0x39, 0x64, 0x83, 0x60, 0x39, 0x00, 0x9e,
  0x00, 0x39, 0x64, 0x85, 0x50, 0x39, 0x00, 0x00, 0x39, 0x64, 0x81, 0x70,
  0x39, 0x00, 0x00, 0x38, 0x64, 0x81, 0x70, 0x38, 0x00, 0x00, 0x39, 0x64,
  0x81, 0x70, 0x39, 0x00, 0x00, 0x38, 0x64, 0x81, 0x70, 0x38, 0x00, 0x00,
  0x39, 0x64, 0x81, 0x70, 0x39, 0x00, 0x00, 0x38, 0x64, 0x81, 0x70, 0x38,
  0x00, 0x00, 0x39, 0x64, 0x81, 0x70, 0x39, 0x00, 0x00, 0x38, 0x64, 0x81,
  0x70, 0x38, 0x00, 0x00, 0x39, 0x64, 0x81, 0x70, 0x39, 0x00, 0x00, 0x3a,
  0x64, 0x83, 0x60, 0x3a, 0x00, 0x00, 0x39, 0x64, 0x83, 0x60, 0x39, 0x00,
  0x9e, 0x00, 0x39, 0x64, 0x85, 0x50, 0x39, 0x00, 0x00, 0x39, 0x64, 0x81,
  0x70, 0x39, 0x00, 0x00, 0x38, 0x64, 0x81, 0x70, 0x38, 0x00, 0x00, 0x39,
  0x64, 0x81, 0x70, 0x39, 0x00, 0x00, 0x38, 0x64, 0x81, 0x70, 0x38, 0x00,
  0x00, 0x39, 0x64, 0x81, 0x70, 0x39, 0x00, 0x00, 0x38, 0x64, 0x81, 0x70,
  0x38, 0x00, 0x00, 0x39, 0x64, 0x81, 0x70, 0x39, 0x00, 0x00, 0x38, 0x64,
  0x81, 0x70, 0x38, 0x00, 0x00, 0x39, 0x64, 0x81, 0x70, 0x39, 0x00, 0x00,
  0x3a, 0x64, 0x83, 0x60, 0x3a, 0x00, 0x00, 0x2e, 0x64, 0x83, 0x60, 0x2e,
  0x00, 0x00, 0x3a, 0x64, 0x85, 0x50, 0x3a, 0x00, 0x00, 0x3a, 0x64, 0x81,
  0x70, 0x3a, 0x00, 0x00, 0x3c, 0x64, 0x81, 0x70, 0x3c, 0x00, 0x00, 0x3a,
  0x64, 0x81, 0x70, 0x3a, 0x00, 0x00, 0x3c, 0x64, 0x81, 0x70, 0x3c, 0x00,
  0x00, 0x3a, 0x64, 0x81, 0x70, 0x3a, 0x00, 0x00, 0x3c, 0x64, 0x81, 0x70,
  0x3c, 0x00, 0x00, 0x3a, 0x64, 0x81, 0x70, 0x3a, 0x00, 0x00, 0x3c, 0x64,
  0x81, 0x70, 0x3c, 0x00, 0x00, 0x3a, 0x64, 0x81, 0x70, 0x3a, 0x00, 0x00,
  0x39, 0x64, 0x83, 0x60, 0x39, 0x00, 0x00, 0x39, 0x64, 0x83, 0x60, 0x39,
  0x00, 0x83, 0x60, 0x39, 0x64, 0x81, 0x70, 0x39, 0x00, 0x00, 0x39, 0x64,
  0x81, 0x70, 0x39, 0x00, 0x00, 0x3e, 0x64, 0x83, 0x60, 0x3e, 0x00, 0x00,
  0x39, 0x64, 0x83, 0x60, 0x39, 0x00, 0x00, 0x3e, 0x64, 0x83, 0x60, 0x3e,
  0x00, 0x00, 0x39, 0x64, 0x83, 0x60, 0x39, 0x00, 0x00, 0x3e, 0x64, 0x83,
  0x60, 0x3e, 0x00, 0x00, 0x39, 0x64, 0x83, 0x60, 0x39, 0x00, 0x83, 0x60,
  0x3e, 0x64, 0x81, 0x70, 0x3e, 0x00, 0x00, 0x3e, 0x64, 0x81, 0x70, 0x3e,
  0x00, 0x00, 0x3d, 0x64, 0x83, 0x60, 0x3d, 0x00, 0x00, 0x3e, 0x64, 0x83,
  0x60, 0x3e, 0x00, 0x00, 0x3d, 0x64, 0x83, 0x60, 0x3d, 0x00, 0x00, 0x3e,
  0x64, 0x83, 0x60, 0x3e, 0x00, 0x00, 0x3d, 0x64, 0x83, 0x60, 0x3d, 0x00,
  0x00, 0x3e, 0x64, 0x83, 0x60, 0x3e, 0x00, 0x9a, 0x20, 0x35, 0x64, 0x87,
  0x40, 0x35, 0x00, 0x00, 0x35, 0x64, 0x83, 0x60, 0x35, 0x00, 0x00, 0x3e,
  0x64, 0x83, 0x60, 0x3e, 0x00, 0x00, 0x3a, 0x64, 0x83, 0x60, 0x3a, 0x00,
  0x00, 0x37, 0x64, 0x83, 0x60, 0x37, 0x00, 0x00, 0x34, 0x64, 0x83, 0x60,
  0x34, 0x00, 0x00, 0x39, 0x64, 0x83, 0x60, 0x39, 0x00, 0x00, 0x32, 0x64,
  0x83, 0x60, 0x32, 0x00, 0x00, 0x39, 0x64, 0x87, 0x40, 0x39, 0x00, 0x00,
  0x32, 0x64, 0x83, 0x60, 0x32, 0x00, 0x8f, 0x00, 0x3a, 0x64, 0x87, 0x40,
  0x3a, 0x00, 0x00, 0x3a, 0x64, 0x83, 0x60, 0x3a, 0x00, 0x00, 0x3a, 0x64,
  0x83, 0x60, 0x3a, 0x00, 0x00, 0x37, 0x64, 0x83, 0x60, 0x37, 0x00, 0x00,
  0x37, 0x64, 0x83, 0x60, 0x37, 0x00, 0x00, 0x37, 0x64, 0x83, 0x60, 0x37,
  0x00, 0x00, 0x39, 0x64, 0x83, 0x60, 0x39, 0x00, 0x00, 0x3e, 0x64, 0x83,
  0x60, 0x3e, 0x00, 0x00, 0x39, 0x64, 0x87, 0x40, 0x39, 0x00, 0x00, 0x32,
  0x64, 0x83, 0x60, 0x32, 0x00, 0x00, 0xff, 0x2f, 0x00, 0x4d, 0x54, 0x72,
  0x6b, 0x00, 0x00, 0x0c, 0xf9, 0x00, 0xff, 0x21, 0x01, 0x00, 0x00, 0xff,
  0x03, 0x08, 0x54, 0x72, 0x61, 0x63, 0x6b, 0x20, 0x31, 0x32, 0x00, 0xcc,
  0x30, 0x00, 0xbc, 0x07, 0x78, 0x00, 0xbc, 0x0a, 0x6e, 0x26, 0xbc, 0x5b,
  0x50, 0x02, 0x9c, 0x32, 0x5a, 0x81, 0x48, 0x35, 0x5a, 0x28, 0x32, 0x00,
  0x81, 0x48, 0x35, 0x00, 0x00, 0x39, 0x5a, 0x81, 0x70, 0x39, 0x00, 0x00,
  0x3e, 0x5a, 0x81, 0x70, 0x3e, 0x00, 0x00, 0x32, 0x5a, 0x81, 0x70, 0x32,
  0x00, 0x00, 0x35, 0x5a, 0x81, 0x70, 0x35, 0x00, 0x00, 0x39, 0x5a, 0x81,
  0x70, 0x39, 0x00, 0x00, 0x3e, 0x5a, 0x81, 0x70, 0x3e, 0x00, 0x00, 0x32,
  0x5a, 0x81, 0x70, 0x32, 0x00, 0x00, 0x3e, 0x5a, 0x83, 0x60, 0x3e, 0x00,
  0x00, 0x3e, 0x5a, 0x83, 0x60, 0x3e, 0x00, 0x00, 0x3e, 0x5a, 0x83, 0x60,
  0x3e, 0x00, 0x00, 0x3e, 0x5a, 0x81, 0x70, 0x3e, 0x00, 0x00, 0x31, 0x5a,
  0x81, 0x70, 0x31, 0x00, 0x00, 0x34, 0x5a, 0x81, 0x70, 0x34, 0x00, 0x00,
  0x39, 0x5a, 0x81, 0x70, 0x39, 0x00, 0x00, 0x3d, 0x5a, 0x81, 0x70, 0x3d,
  0x00, 0x00, 0x31, 0x5a, 0x81, 0x70, 0x31, 0x00, 0x00, 0x34, 0x5a, 0x81,
  0x70, 0x34, 0x00, 0x00, 0x39, 0x5a, 0x81, 0x70, 0x39, 0x00, 0x00, 0x3d,
  0x5a, 0x81, 0x70, 0x3d, 0x00, 0x00, 0x32, 0x5a, 0x81, 0x70, 0x32, 0x00,
  0x00, 0x3e, 0x5a, 0x83, 0x60, 0x3e, 0x00, 0x00, 0x3e, 0x5a, 0x83, 0x60,
  0x3e, 0x00, 0x00, 0x3e, 0x5a, 0x83, 0x60, 0x3e, 0x00, 0x00, 0x32, 0x5a,
  0x81, 0x70, 0x32, 0x00, 0x00, 0x34, 0x5a, 0x83, 0x60, 0x34, 0x00, 0x00,
  0x35, 0x5a, 0x83, 0x60, 0x35, 0x00, 0x83, 0x60, 0x35, 0x5a, 0x83, 0x60,
  0x35, 0x00, 0x00, 0x31, 0x5a, 0x83, 0x60, 0x31, 0x00, 0x00, 0x32, 0x5a,
  0x83, 0x60, 0x32, 0x00, 0x81, 0x70, 0x32, 0x5a, 0x81, 0x70, 0x32, 0x00,
  0x00, 0x3e, 0x5a, 0x81, 0x70, 0x3e, 0x00, 0x00, 0x3c, 0x5a, 0x81, 0x70,
  0x3c, 0x00, 0x00, 0x3a, 0x5a, 0x81, 0x70, 0x3a, 0x00, 0x00, 0x2e, 0x5a,
  0x81, 0x70, 0x2e, 0x00, 0x00, 0x2d, 0x5a, 0x81, 0x70, 0x2d, 0x00, 0x00,
  0x39, 0x5a, 0x81, 0x70, 0x39, 0x00, 0x00, 0x37, 0x5a, 0x81, 0x70, 0x37,
  0x00, 0x00, 0x2b, 0x5a, 0x81, 0x70, 0x2b, 0x00, 0x00, 0x32, 0x5a, 0x81,
  0x70, 0x32, 0x00, 0x00, 0x3e, 0x5a, 0x81, 0x70, 0x3e, 0x00, 0x00, 0x39,
  0x5a, 0x81, 0x70, 0x39, 0x00, 0x00, 0x2d, 0x5a, 0x81, 0x70, 0x2d, 0x00,
  0x00, 0x39, 0x5a, 0x81, 0x70, 0x39, 0x00, 0x00, 0x39, 0x5a, 0x81, 0x70,
  0x39, 0x00, 0x00, 0x39, 0x5a, 0x81, 0x70, 0x39, 0x00, 0x00, 0x39, 0x5a,
  0x81, 0x70, 0x39, 0x00, 0x00, 0x39, 0x5a, 0x81, 0x70, 0x39, 0x00, 0x00,
  0x39, 0x5a, 0x81, 0x70, 0x39, 0x00, 0x00, 0x39, 0x5a, 0x81, 0x70, 0x39,
  0x00, 0x00, 0x39, 0x5a, 0x81, 0x70, 0x39, 0x00, 0x00, 0x3a, 0x5a, 0x81,
  0x70, 0x3a, 0x00, 0x00, 0x3b, 0x5a, 0x81, 0x70, 0x3b, 0x00, 0x00, 0x3c,
  0x5a, 0x81, 0x70, 0x3c, 0x00, 0x00, 0x39, 0x5a, 0x81, 0x70, 0x39, 0x00,
  0x00, 0x3a, 0x5a, 0x81, 0x70, 0x3a, 0x00, 0x00, 0x37, 0x5a, 0x81, 0x70,
  0x37, 0x00, 0x00, 0x35, 0x5a, 0x81, 0x70, 0x35, 0x00, 0x00, 0x35, 0x5a,
  0x81, 0x70, 0x35, 0x00, 0x00, 0x35, 0x5a, 0x81, 0x70, 0x35, 0x00, 0x00,
  0x35, 0x5a, 0x81, 0x70, 0x35, 0x00, 0x00, 0x35, 0x5a, 0x81, 0x70, 0x35,
  0x00, 0x00, 0x35, 0x5a, 0x81, 0x70, 0x35, 0x00, 0x00, 0x35, 0x5a, 0x81,
  0x70, 0x35, 0x00, 0x00, 0x35, 0x5a, 0x81, 0x70, 0x35, 0x00, 0x00, 0x35,
  0x5a, 0x81, 0x70, 0x35, 0x00, 0x00, 0x35, 0x5a, 0x81, 0x70, 0x35, 0x00,
  0x00, 0x35, 0x5a, 0x81, 0x70, 0x35, 0x00, 0x00, 0x35, 0x5a, 0x81, 0x70,
  0x35, 0x00, 0x00, 0x35, 0x5a, 0x81, 0x70, 0x35, 0x00, 0x00, 0x35, 0x5a,
  0x81, 0x70, 0x35, 0x00, 0x00, 0x35, 0x5a, 0x81, 0x70, 0x35, 0x00, 0x00,
  0x35, 0x5a, 0x81, 0x70, 0x35, 0x00, 0x00, 0x36, 0x5a, 0x81, 0x70, 0x36,
  0x00, 0x00, 0x2a, 0x5a, 0x81, 0x70, 0x2a, 0x00, 0x00, 0x2d, 0x5a, 0x81,
  0x70, 0x2d, 0x00, 0x00, 0x30, 0x5a, 0x81, 0x70, 0x30, 0x00, 0x00, 0x36,
  0x5a, 0x81, 0x70, 0x36, 0x00, 0x00, 0x3c, 0x5a, 0x81, 0x70, 0x3c, 0x00,
  0x00, 0x39, 0x5a, 0x81, 0x70, 0x39, 0x00, 0x00, 0x36, 0x5a, 0x81, 0x70,
  0x36, 0x00, 0x00, 0x37, 0x5a, 0x81, 0x70, 0x37, 0x00, 0x00, 0x37, 0x5a,
  0x81, 0x70, 0x37, 0x00, 0x00, 0x37, 0x5a, 0x81, 0x70, 0x37, 0x00, 0x00,
  0x37, 0x5a, 0x81, 0x70, 0x37, 0x00, 0x00, 0x37, 0x5a, 0x81, 0x70, 0x37,
  0x00, 0x00, 0x37, 0x5a, 0x81, 0x70, 0x37, 0x00, 0x00, 0x37, 0x5a, 0x81,
  0x70, 0x37, 0x00, 0x00, 0x37, 0x5a, 0x81, 0x70, 0x37, 0x00, 0x00, 0x37,
  0x5a, 0x81, 0x70, 0x37, 0x00, 0x00, 0x37, 0x5a, 0x81, 0x70, 0x37, 0x00,
  0x00, 0x37, 0x5a, 0x81, 0x70, 0x37, 0x00, 0x00, 0x37, 0x5a, 0x81, 0x70,
  0x37, 0x00, 0x00, 0x37, 0x5a, 0x81, 0x70, 0x37, 0x00, 0x00, 0x37, 0x5a,
  0x81, 0x70, 0x37, 0x00, 0x00, 0x37, 0x5a, 0x81, 0x70, 0x37, 0x00, 0x00,
  0x37, 0x5a, 0x81, 0x70, 0x37, 0x00, 0x00, 0x38, 0x5a, 0x81, 0x70, 0x38,
  0x00, 0x00, 0x2c, 0x5a, 0x81, 0x70, 0x2c, 0x00, 0x00, 0x2f, 0x5a, 0x81,
  0x70, 0x2f, 0x00, 0x00, 0x32, 0x5a, 0x81, 0x70, 0x32, 0x00, 0x00, 0x38,
  0x5a, 0x81, 0x70, 0x38, 0x00, 0x00, 0x3e, 0x5a, 0x81, 0x70, 0x3e, 0x00,
  0x00, 0x3b, 0x5a, 0x81, 0x70, 0x3b, 0x00, 0x00, 0x38, 0x5a, 0x81, 0x70,
  0x38, 0x00, 0x00, 0x2d, 0x5a, 0x81, 0x70, 0x2d, 0x00, 0x00, 0x30, 0x5a,
  0x81, 0x70, 0x30, 0x00, 0x00, 0x34, 0x5a, 0x81, 0x70, 0x34, 0x00, 0x00,
  0x39, 0x5a, 0x81, 0x70, 0x39, 0x00, 0x00, 0x2f, 0x5a, 0x81, 0x70, 0x2f,
  0x00, 0x00, 0x32, 0x5a, 0x81, 0x70, 0x32, 0x00, 0x00, 0x38, 0x5a, 0x81,
  0x70, 0x38, 0x00, 0x00, 0x3b, 0x5a, 0x81, 0x70, 0x3b, 0x00, 0x00, 0x30,
  0x5a, 0x81, 0x70, 0x30, 0x00, 0x00, 0x34, 0x5a, 0x81, 0x70, 0x34, 0x00,
  0x00, 0x39, 0x5a, 0x81, 0x70, 0x39, 0x00, 0x00, 0x3c, 0x5a, 0x81, 0x70,
  0x3c, 0x00, 0x00, 0x32, 0x5a, 0x81, 0x70, 0x32, 0x00, 0x00, 0x35, 0x5a,
  0x81, 0x70, 0x35, 0x00, 0x00, 0x3b, 0x5a, 0x81, 0x70, 0x3b, 0x00, 0x00,
  0x3e, 0x5a, 0x81, 0x70, 0x3e, 0x00, 0x00, 0x40, 0x5a, 0x81, 0x70, 0x40,
  0x00, 0x00, 0x34, 0x5a, 0x81, 0x70, 0x34, 0x00, 0x00, 0x39, 0x5a, 0x81,
  0x70, 0x39, 0x00, 0x00, 0x3c, 0x5a, 0x81, 0x70, 0x3c, 0x00, 0x00, 0x40,
  0x5a, 0x81, 0x70, 0x40, 0x00, 0x00, 0x40, 0x5a, 0x81, 0x70, 0x40, 0x00,
  0x00, 0x34, 0x5a, 0x81, 0x70, 0x34, 0x00, 0x00, 0x34, 0x5a, 0x81, 0x70,
  0x34, 0x00, 0x00, 0x39, 0x5a, 0x83, 0x60, 0x39, 0x00, 0x85, 0x50, 0x3c,
  0x5a, 0x81, 0x70, 0x3c, 0x00, 0x00, 0x3b, 0x5a, 0x81, 0x70, 0x3b, 0x00,
  0x00, 0x39, 0x5a, 0x81, 0x70, 0x39, 0x00, 0x00, 0x38, 0x5a, 0x81, 0x70,
  0x38, 0x00, 0x00, 0x41, 0x5a, 0x81, 0x70, 0x41, 0x00, 0x00, 0x3e, 0x5a,
  0x81, 0x70, 0x3e, 0x00, 0x00, 0x3c, 0x5a, 0x81, 0x70, 0x3c, 0x00, 0x00,
  0x3b, 0x5a, 0x81, 0x70, 0x3b, 0x00, 0x00, 0x39, 0x5a, 0x81, 0x70, 0x39,
  0x00, 0x00, 0x38, 0x5a, 0x81, 0x70, 0x38, 0x00, 0x00, 0x3b, 0x5a, 0x81,
  0x70, 0x3b, 0x00, 0x00, 0x39, 0x5a, 0x81, 0x70, 0x39, 0x00, 0x00, 0x30,
  0x5a, 0x81, 0x70, 0x30, 0x00, 0x00, 0x32, 0x5a, 0x81, 0x70, 0x32, 0x00,
  0x00, 0x35, 0x5a, 0x81, 0x70, 0x35, 0x00, 0x00, 0x34, 0x5a, 0x81, 0x70,
  0x34, 0x00, 0x00, 0x32, 0x5a, 0x81, 0x70, 0x32, 0x00, 0x00, 0x34, 0x5a,
  0x81, 0x70, 0x34, 0x00, 0x00, 0x28, 0x5a, 0x81, 0x70, 0x28, 0x00, 0x00,
  0x2d, 0x5a, 0x81, 0x70, 0x2d, 0x00, 0x00, 0x30, 0x5a, 0x81, 0x70, 0x30,
  0x00, 0x00, 0x34, 0x5a, 0x81, 0x70, 0x34, 0x00, 0x00, 0x39, 0x5a, 0x81,
  0x70, 0x39, 0x00, 0x00, 0x2d, 0x5a, 0x81, 0x70, 0x2d, 0x00, 0x00, 0x30,
  0x5a, 0x81, 0x70, 0x30, 0x00, 0x00, 0x34, 0x5a, 0x81, 0x70, 0x34, 0x00,
  0x00, 0x39, 0x5a, 0x81, 0x70, 0x39, 0x00, 0x00, 0x2d, 0x5a, 0x81, 0x70,
  0x2d, 0x00, 0x00, 0x39, 0x5a, 0x83, 0x60, 0x39, 0x00, 0x00, 0x39, 0x5a,
  0x83, 0x60, 0x39, 0x00, 0x00, 0x39, 0x5a, 0x83, 0x60, 0x39, 0x00, 0x00,
  0x39, 0x5a, 0x81, 0x70, 0x39, 0x00, 0x00, 0x2c, 0x5a, 0x81, 0x70, 0x2c,
  0x00, 0x00, 0x2f, 0x5a, 0x81, 0x70, 0x2f, 0x00, 0x00, 0x34, 0x5a, 0x81,
  0x70, 0x34, 0x00, 0x00, 0x38, 0x5a, 0x81, 0x70, 0x38, 0x00, 0x00, 0x2c,
  0x5a, 0x81, 0x70, 0x2c, 0x00, 0x00, 0x2f, 0x5a, 0x81, 0x70, 0x2f, 0x00,
  0x00, 0x34, 0x5a, 0x81, 0x70, 0x34, 0x00, 0x00, 0x38, 0x5a, 0x81, 0x70,
  0x38, 0x00, 0x00, 0x2d, 0x5a, 0x81, 0x70, 0x2d, 0x00, 0x00, 0x39, 0x5a,
  0x83, 0x60, 0x39, 0x00, 0x00, 0x39, 0x5a, 0x83, 0x60, 0x39, 0x00, 0x00,
  0x39, 0x5a, 0x83, 0x60, 0x39, 0x00, 0x00, 0x39, 0x5a, 0x81, 0x70, 0x39,
  0x00, 0x00, 0x3e, 0x5a, 0x83, 0x60, 0x3e, 0x00, 0x00, 0x3c, 0x5a, 0x83,
  0x60, 0x3c, 0x00, 0x83, 0x60, 0x3c, 0x5a, 0x83, 0x60, 0x3c, 0x00, 0x00,
  0x3b, 0x5a, 0x83, 0x60, 0x3b, 0x00, 0x00, 0x39, 0x5a, 0x83, 0x60, 0x39,
  0x00, 0x81, 0x70, 0x2d, 0x5a, 0x81, 0x70, 0x2d, 0x00, 0x00, 0x39, 0x5a,
  0x81, 0x70, 0x39, 0x00, 0x00, 0x37, 0x5a, 0x81, 0x70, 0x37, 0x00, 0x00,
  0x35, 0x5a, 0x81, 0x70, 0x35, 0x00, 0x00, 0x41, 0x5a, 0x81, 0x70, 0x41,
  0x00, 0x00, 0x40, 0x5a, 0x81, 0x70, 0x40, 0x00, 0x00, 0x34, 0x5a, 0x81,
  0x70, 0x34, 0x00, 0x00, 0x32, 0x5a, 0x81, 0x70, 0x32, 0x00, 0x00, 0x3e,
  0x5a, 0x81, 0x70, 0x3e, 0x00, 0x00, 0x39, 0x5a, 0x81, 0x70, 0x39, 0x00,
  0x00, 0x2d, 0x5a, 0x81, 0x70, 0x2d, 0x00, 0x00, 0x34, 0x5a, 0x81, 0x70,
  0x34, 0x00, 0x00, 0x40, 0x5a, 0x81, 0x70, 0x40, 0x00, 0x00, 0x34, 0x5a,
  0x81, 0x70, 0x34, 0x00, 0x00, 0x34, 0x5a, 0x81, 0x70, 0x34, 0x00, 0x00,
  0x34, 0x5a, 0x81, 0x70, 0x34, 0x00, 0x00, 0x34, 0x5a, 0x81, 0x70, 0x34,
  0x00, 0x00, 0x34, 0x5a, 0x81, 0x70, 0x34, 0x00, 0x00, 0x34, 0x5a, 0x81,
  0x70, 0x34, 0x00, 0x00, 0x32, 0x5a, 0x81, 0x70, 0x32, 0x00, 0x00, 0x32,
  0x5a, 0x81, 0x70, 0x32, 0x00, 0x00, 0x32, 0x5a, 0x81, 0x70, 0x32, 0x00,
  0x00, 0x32, 0x5a, 0x81, 0x70, 0x32, 0x00, 0x00, 0x37, 0x5a, 0x81, 0x70,
  0x37, 0x00, 0x00, 0x37, 0x5a, 0x81, 0x70, 0x37, 0x00, 0x00, 0x37, 0x5a,
  0x81, 0x70, 0x37, 0x00, 0x00, 0x37, 0x5a, 0x81, 0x70, 0x37, 0x00, 0x00,
  0x30, 0x5a, 0x81, 0x70, 0x30, 0x00, 0x00, 0x33, 0x5a, 0x81, 0x70, 0x33,
  0x00, 0x00, 0x37, 0x5a, 0x81, 0x70, 0x37, 0x00, 0x00, 0x3c, 0x5a, 0x81,
  0x70, 0x3c, 0x00, 0x00, 0x30, 0x5a, 0x81, 0x70, 0x30, 0x00, 0x00, 0x33,
  0x5a, 0x81, 0x70, 0x33, 0x00, 0x00, 0x37, 0x5a, 0x81, 0x70, 0x37, 0x00,
  0x00, 0x3c, 0x5a, 0x81, 0x70, 0x3c, 0x00, 0x00, 0x30, 0x5a, 0x81, 0x70,
  0x30, 0x00, 0x00, 0x3c, 0x5a, 0x81, 0x70, 0x3c, 0x00, 0x00, 0x3c, 0x5a,
  0x81, 0x70, 0x3c, 0x00, 0x00, 0x3c, 0x5a, 0x81, 0x70, 0x3c, 0x00, 0x00,
  0x3c, 0x5a, 0x81, 0x70, 0x3c, 0x00, 0x00, 0x3c, 0x5a, 0x81, 0x70, 0x3c,
  0x00, 0x00, 0x3c, 0x5a, 0x81, 0x70, 0x3c, 0x00, 0x00, 0x3c, 0x5a, 0x81,
  0x70, 0x3c, 0x00, 0x00, 0x3c, 0x5a, 0x81, 0x70, 0x3c, 0x00, 0x00, 0x3c,
  0x5a, 0x81, 0x70, 0x3c, 0x00, 0x00, 0x3a, 0x5a, 0x81, 0x70, 0x3a, 0x00,
  0x00, 0x3a, 0x5a, 0x81, 0x70, 0x3a, 0x00, 0x00, 0x3a, 0x5a, 0x81, 0x70,
  0x3a, 0x00, 0x00, 0x3a, 0x5a, 0x81, 0x70, 0x3a, 0x00, 0x00, 0x37, 0x5a,
  0x81, 0x70, 0x37, 0x00, 0x00, 0x34, 0x5a, 0x81, 0x70, 0x34, 0x00, 0x00,
  0x2e, 0x5a, 0x81, 0x70, 0x2e, 0x00, 0x00, 0x34, 0x5a, 0x81, 0x70, 0x34,
  0x00, 0x00, 0x37, 0x5a, 0x81, 0x70, 0x37, 0x00, 0x00, 0x3a, 0x5a, 0x81,
  0x70, 0x3a, 0x00, 0x00, 0x2e, 0x5a, 0x81, 0x70, 0x2e, 0x00, 0x00, 0x34,
  0x5a, 0x81, 0x70, 0x34, 0x00, 0x00, 0x37, 0x5a, 0x81, 0x70, 0x37, 0x00,
  0x00, 0x3a, 0x5a, 0x81, 0x70, 0x3a, 0x00, 0x00, 0x3a, 0x5a, 0x81, 0x70,
  0x3a, 0x00, 0x00, 0x3a, 0x5a, 0x81, 0x70, 0x3a, 0x00, 0x00, 0x39, 0x5a,
  0x81, 0x70, 0x39, 0x00, 0x00, 0x39, 0x5a, 0x81, 0x70, 0x39, 0x00, 0x00,
  0x39, 0x5a, 0x81, 0x70, 0x39, 0x00, 0x00, 0x39, 0x5a, 0x81, 0x70, 0x39,
  0x00, 0x00, 0x37, 0x5a, 0x81, 0x70, 0x37, 0x00, 0x00, 0x37, 0x5a, 0x81,
  0x70, 0x37, 0x00, 0x00, 0x37, 0x5a, 0x81, 0x70, 0x37, 0x00, 0x00, 0x37,
  0x5a, 0x81, 0x70, 0x37, 0x00, 0x00, 0x35, 0x5a, 0x81, 0x70, 0x35, 0x00,
  0x00, 0x35, 0x5a, 0x81, 0x70, 0x35, 0x00, 0x00, 0x35, 0x5a, 0x81, 0x70,
  0x35, 0x00, 0x00, 0x32, 0x5a, 0x81, 0x70, 0x32, 0x00, 0x00, 0x2d, 0x5a,
  0x81, 0x70, 0x2d, 0x00, 0x00, 0x29, 0x5a, 0x81, 0x70, 0x29, 0x00, 0x00,
  0x2b, 0x5a, 0x81, 0x70, 0x2b, 0x00, 0x00, 0x2e, 0x5a, 0x81, 0x70, 0x2e,
  0x00, 0x00, 0x33, 0x5a, 0x81, 0x70, 0x33, 0x00, 0x00, 0x37, 0x5a, 0x81,
  0x70, 0x37, 0x00, 0x00, 0x2d, 0x5a, 0x81, 0x70, 0x2d, 0x00, 0x00, 0x30,
  0x5a, 0x81, 0x70, 0x30, 0x00, 0x00, 0x36, 0x5a, 0x81, 0x70, 0x36, 0x00,
  0x00, 0x39, 0x5a, 0x81, 0x70, 0x39, 0x00, 0x00, 0x2e, 0x5a, 0x81, 0x70,
  0x2e, 0x00, 0x00, 0x32, 0x5a, 0x81, 0x70, 0x32, 0x00, 0x00, 0x37, 0x5a,
  0x81, 0x70, 0x37, 0x00, 0x00, 0x3a, 0x5a, 0x81, 0x70, 0x3a, 0x00, 0x00,
  0x2d, 0x5a, 0x81, 0x70, 0x2d, 0x00, 0x00, 0x30, 0x5a, 0x81, 0x70, 0x30,
  0x00, 0x00, 0x35, 0x5a, 0x81, 0x70, 0x35, 0x00, 0x00, 0x39, 0x5a, 0x81,
  0x70, 0x39, 0x00, 0x00, 0x2b, 0x5a, 0x81, 0x70, 0x2b, 0x00, 0x00, 0x2e,
  0x5a, 0x81, 0x70, 0x2e, 0x00, 0x00, 0x33, 0x5a, 0x81, 0x70, 0x33, 0x00,
  0x00, 0x37, 0x5a, 0x81, 0x70, 0x37, 0x00, 0x00, 0x2c, 0x5a, 0x81, 0x70,
  0x2c, 0x00, 0x00, 0x2f, 0x5a, 0x81, 0x70, 0x2f, 0x00, 0x00, 0x32, 0x5a,
  0x81, 0x70, 0x32, 0x00, 0x00, 0x38, 0x5a, 0x81, 0x70, 0x38, 0x00, 0x00,
  0x39, 0x5a, 0x83, 0x60, 0x39, 0x00, 0x00, 0x2d, 0x5a, 0x83, 0x60, 0x2d,
  0x00, 0x00, 0x2d, 0x5a, 0x85, 0x50, 0x2d, 0x00, 0x00, 0x2d, 0x5a, 0x81,
  0x70, 0x2d, 0x00, 0x00, 0x2c, 0x5a, 0x81, 0x70, 0x2c, 0x00, 0x00, 0x2d,
  0x5a, 0x81, 0x70, 0x2d, 0x00, 0x00, 0x2c, 0x5a, 0x81, 0x70, 0x2c, 0x00,
  0x00, 0x2d, 0x5a, 0x81, 0x70, 0x2d, 0x00, 0x00, 0x2c, 0x5a, 0x81, 0x70,
  0x2c, 0x00, 0x00, 0x2d, 0x5a, 0x81, 0x70, 0x2d, 0x00, 0x00, 0x2c, 0x5a,
  0x81, 0x70, 0x2c, 0x00, 0x00, 0x2d, 0x5a, 0x81, 0x70, 0x2d, 0x00, 0x00,
  0x2e, 0x5a, 0x83, 0x60, 0x2e, 0x00, 0x00, 0x2d, 0x5a, 0x83, 0x60, 0x2d,
  0x00, 0x00, 0x40, 0x5a, 0x85, 0x50, 0x40, 0x00, 0x00, 0x40, 0x5a, 0x81,
  0x70, 0x40, 0x00, 0x00, 0x41, 0x5a, 0x83, 0x60, 0x41, 0x00, 0x00, 0x40,
  0x5a, 0x83, 0x60, 0x40, 0x00, 0x00, 0x40, 0x5a, 0x85, 0x50, 0x40, 0x00,
  0x00, 0x40, 0x5a, 0x81, 0x70, 0x40, 0x00, 0x00, 0x41, 0x5a, 0x83, 0x60,
  0x41, 0x00, 0x00, 0x40, 0x5a, 0x83, 0x60, 0x40, 0x00, 0x00, 0x2d, 0x5a,
  0x85, 0x50, 0x2d, 0x00, 0x00, 0x2d, 0x5a, 0x81, 0x70, 0x2d, 0x00, 0x00,
  0x2c, 0x5a, 0x81, 0x70, 0x2c, 0x00, 0x00, 0x2d, 0x5a, 0x81, 0x70, 0x2d,
  0x00, 0x00, 0x2c, 0x5a, 0x81, 0x70, 0x2c, 0x00, 0x00, 0x2d, 0x5a, 0x81,
  0x70, 0x2d, 0x00, 0x00, 0x2c, 0x5a, 0x81, 0x70, 0x2c, 0x00, 0x00, 0x2d,
  0x5a, 0x81, 0x70, 0x2d, 0x00, 0x00, 0x2c, 0x5a, 0x81, 0x70, 0x2c, 0x00,
  0x00, 0x2d, 0x5a, 0x81, 0x70, 0x2d, 0x00, 0x00, 0x2e, 0x5a, 0x83, 0x60,
  0x2e, 0x00, 0x00, 0x2d, 0x5a, 0x83, 0x60, 0x2d, 0x00, 0x00, 0x40, 0x5a,
  0x85, 0x50, 0x40, 0x00, 0x00, 0x40, 0x5a, 0x81, 0x70, 0x40, 0x00, 0x00,
  0x41, 0x5a, 0x83, 0x60, 0x41, 0x00, 0x00, 0x40, 0x5a, 0x83, 0x60, 0x40,
  0x00, 0x00, 0x40, 0x5a, 0x85, 0x50, 0x40, 0x00, 0x00, 0x40, 0x5a, 0x81,
  0x70, 0x40, 0x00, 0x00, 0x41, 0x5a, 0x83, 0x60, 0x41, 0x00, 0x00, 0x40,
  0x5a, 0x83, 0x60, 0x40, 0x00, 0x00, 0x2d, 0x5a, 0x85, 0x50, 0x2d, 0x00,
  0x00, 0x2d, 0x5a, 0x81, 0x70, 0x2d, 0x00, 0x00, 0x2c, 0x5a, 0x81, 0x70,
  0x2c, 0x00, 0x00, 0x2d, 0x5a, 0x81, 0x70, 0x2d, 0x00, 0x00, 0x2c, 0x5a,
  0x81, 0x70, 0x2c, 0x00, 0x00, 0x2d, 0x5a, 0x81, 0x70, 0x2d, 0x00, 0x00,
  0x2c, 0x5a, 0x81, 0x70, 0x2c, 0x00, 0x00, 0x2d, 0x5a, 0x81, 0x70, 0x2d,
  0x00, 0x00, 0x2c, 0x5a, 0x81, 0x70, 0x2c, 0x00, 0x00, 0x2d, 0x5a, 0x81,
  0x70, 0x2d, 0x00, 0x00, 0x3a, 0x5a, 0x81, 0x70, 0x3a, 0x00, 0x00, 0x2e,
  0x5a, 0x81, 0x70, 0x2e, 0x00, 0x00, 0x3a, 0x5a, 0x81, 0x70, 0x3a, 0x00,
  0x00, 0x3a, 0x5a, 0x81, 0x70, 0x3a, 0x00, 0x00, 0x3a, 0x5a, 0x81, 0x70,
  0x3a, 0x00, 0x00, 0x3a, 0x5a, 0x81, 0x70, 0x3a, 0x00, 0x00, 0x3a, 0x5a,
  0x81, 0x70, 0x3a, 0x00, 0x00, 0x3a, 0x5a, 0x81, 0x70, 0x3a, 0x00, 0x00,
  0x3c, 0x5a, 0x81, 0x70, 0x3c, 0x00, 0x00, 0x3a, 0x5a, 0x81, 0x70, 0x3a,
  0x00, 0x00, 0x3c, 0x5a, 0x81, 0x70, 0x3c, 0x00, 0x00, 0x3a, 0x5a, 0x81,
  0x70, 0x3a, 0x00, 0x00, 0x3c, 0x5a, 0x81, 0x70, 0x3c, 0x00, 0x00, 0x3a,
  0x5a, 0x81, 0x70, 0x3a, 0x00, 0x00, 0x3c, 0x5a, 0x81, 0x70, 0x3c, 0x00,
  0x00, 0x3a, 0x5a, 0x81, 0x70, 0x3a, 0x00, 0x00, 0x39, 0x5a, 0x83, 0x60,
  0x39, 0x00, 0x00, 0x2d, 0x5a, 0x83, 0x60, 0x2d, 0x00, 0x83, 0x60, 0x39,
  0x5a, 0x81, 0x70, 0x39, 0x00, 0x00, 0x39, 0x5a, 0x81, 0x70, 0x39, 0x00,
  0x00, 0x3e, 0x5a, 0x81, 0x70, 0x3e, 0x00, 0x00, 0x32, 0x5a, 0x81, 0x70,
  0x32, 0x00, 0x00, 0x2d, 0x5a, 0x81, 0x70, 0x2d, 0x00, 0x00, 0x39, 0x5a,
  0x81, 0x70, 0x39, 0x00, 0x00, 0x3e, 0x5a, 0x81, 0x70, 0x3e, 0x00, 0x00,
  0x32, 0x5a, 0x81, 0x70, 0x32, 0x00, 0x00, 0x2d, 0x5a, 0x81, 0x70, 0x2d,
  0x00, 0x00, 0x39, 0x5a, 0x81, 0x70, 0x39, 0x00, 0x00, 0x3e, 0x5a, 0x81,
  0x70, 0x3e, 0x00, 0x00, 0x32, 0x5a, 0x81, 0x70, 0x32, 0x00, 0x00, 0x39,
  0x5a, 0x83, 0x60, 0x39, 0x00, 0x83, 0x60, 0x3e, 0x5a, 0x81, 0x70, 0x3e,
  0x00, 0x00, 0x32, 0x5a, 0x81, 0x70, 0x32, 0x00, 0x00, 0x31, 0x5a, 0x81,
  0x70, 0x31, 0x00, 0x00, 0x3d, 0x5a, 0x81, 0x70, 0x3d, 0x00, 0x00, 0x3e,
  0x5a, 0x81, 0x70, 0x3e, 0x00, 0x00, 0x32, 0x5a, 0x81, 0x70, 0x32, 0x00,
  0x00, 0x31, 0x5a, 0x81, 0x70, 0x31, 0x00, 0x00, 0x3d, 0x5a, 0x81, 0x70,
  0x3d, 0x00, 0x00, 0x3e, 0x5a, 0x81, 0x70, 0x3e, 0x00, 0x00, 0x32, 0x5a,
  0x81, 0x70, 0x32, 0x00, 0x00, 0x31, 0x5a, 0x81, 0x70, 0x31, 0x00, 0x00,
  0x3d, 0x5a, 0x81, 0x70, 0x3d, 0x00, 0x00, 0x3e, 0x5a, 0x81, 0x70, 0x3e,
  0x00, 0x00, 0x39, 0x5a, 0x81, 0x70, 0x39, 0x00, 0x00, 0x35, 0x5a, 0x81,
  0x70, 0x35, 0x00, 0x00, 0x32, 0x5a, 0x81, 0x70, 0x32, 0x00, 0x00, 0x35,
  0x5a, 0x81, 0x70, 0x35, 0x00, 0x00, 0x39, 0x5a, 0x81, 0x70, 0x39, 0x00,
  0x00, 0x32, 0x5a, 0x81, 0x70, 0x32, 0x00, 0x00, 0x35, 0x5a, 0x81, 0x70,
  0x35, 0x00, 0x00, 0x39, 0x5a, 0x81, 0x70, 0x39, 0x00, 0x00, 0x3e, 0x5a,
  0x81, 0x70, 0x3e, 0x00, 0x00, 0x32, 0x5a, 0x81, 0x70, 0x32, 0x00, 0x00,
  0x35, 0x5a, 0x81, 0x70, 0x35, 0x00, 0x00, 0x39, 0x5a, 0x81, 0x70, 0x39,
  0x00, 0x00, 0x3e, 0x5a, 0x81, 0x70, 0x3e, 0x00, 0x00, 0x29, 0x5a, 0x81,
  0x70, 0x29, 0x00, 0x00, 0x2d, 0x5a, 0x81, 0x70, 0x2d, 0x00, 0x00, 0x32,
  0x5a, 0x81, 0x70, 0x32, 0x00, 0x00, 0x35, 0x5a, 0x81, 0x70, 0x35, 0x00,
  0x00, 0x29, 0x5a, 0x81, 0x70, 0x29, 0x00, 0x00, 0x2d, 0x5a, 0x81, 0x70,
  0x2d, 0x00, 0x00, 0x32, 0x5a, 0x81, 0x70, 0x32, 0x00, 0x00, 0x35, 0x5a,
  0x81, 0x70, 0x35, 0x00, 0x00, 0x2e, 0x5a, 0x81, 0x70, 0x2e, 0x00, 0x00,
  0x32, 0x5a, 0x81, 0x70, 0x32, 0x00, 0x00, 0x35, 0x5a, 0x81, 0x70, 0x35,
  0x00, 0x00, 0x3a, 0x5a, 0x81, 0x70, 0x3a, 0x00, 0x00, 0x28, 0x5a, 0x81,
  0x70, 0x28, 0x00, 0x00, 0x2b, 0x5a, 0x81, 0x70, 0x2b, 0x00, 0x00, 0x2e,
  0x5a, 0x81, 0x70, 0x2e, 0x00, 0x00, 0x34, 0x5a, 0x81, 0x70, 0x34, 0x00,
  0x00, 0x2d, 0x5a, 0x81, 0x70, 0x2d, 0x00, 0x00, 0x39, 0x5a, 0x81, 0x70,
  0x39, 0x00, 0x00, 0x32, 0x5a, 0x81, 0x70, 0x32, 0x00, 0x00, 0x35, 0x5a,
  0x81, 0x70, 0x35, 0x00, 0x00, 0x39, 0x5a, 0x81, 0x70, 0x39, 0x00, 0x00,
  0x37, 0x5a, 0x81, 0x70, 0x37, 0x00, 0x00, 0x39, 0x5a, 0x81, 0x70, 0x39,
  0x00, 0x00, 0x2d, 0x5a, 0x81, 0x70, 0x2d, 0x00, 0x00, 0x32, 0x5a, 0x81,
  0x70, 0x32, 0x00, 0x00, 0x35, 0x5a, 0x81, 0x70, 0x35, 0x00, 0x00, 0x39,
  0x5a, 0x81, 0x70, 0x39, 0x00, 0x00, 0x3e, 0x5a, 0x81, 0x70, 0x3e, 0x00,
  0x00, 0x32, 0x5a, 0x81, 0x70, 0x32, 0x00, 0x00, 0x35, 0x5a, 0x81, 0x70,
  0x35, 0x00, 0x00, 0x39, 0x5a, 0x81, 0x70, 0x39, 0x00, 0x00, 0x3e, 0x5a,
  0x81, 0x70, 0x3e, 0x00, 0x00, 0x2e, 0x5a, 0x81, 0x70, 0x2e, 0x00, 0x00,
  0x32, 0x5a, 0x81, 0x70, 0x32, 0x00, 0x00, 0x35, 0x5a, 0x81, 0x70, 0x35,
  0x00, 0x00, 0x3a, 0x5a, 0x81, 0x70, 0x3a, 0x00, 0x00, 0x2e, 0x5a, 0x81,
  0x70, 0x2e, 0x00, 0x00, 0x32, 0x5a, 0x81, 0x70, 0x32, 0x00, 0x00, 0x35,
  0x5a, 0x81, 0x70, 0x35, 0x00, 0x00, 0x3a, 0x5a, 0x81, 0x70, 0x3a, 0x00,
  0x00, 0x2b, 0x5a, 0x81, 0x70, 0x2b, 0x00, 0x00, 0x2e, 0x5a, 0x81, 0x70,
  0x2e, 0x00, 0x00, 0x33, 0x5a, 0x81, 0x70, 0x33, 0x00, 0x00, 0x37, 0x5a,
  0x81, 0x70, 0x37, 0x00, 0x00, 0x2b, 0x5a, 0x81, 0x70, 0x2b, 0x00, 0x00,
  0x2e, 0x5a, 0x81, 0x70, 0x2e, 0x00, 0x00, 0x33, 0x5a, 0x81, 0x70, 0x33,
  0x00, 0x00, 0x37, 0x5a, 0x81, 0x70, 0x37, 0x00, 0x00, 0x2d, 0x5a, 0x81,
  0x70, 0x2d, 0x00, 0x00, 0x39, 0x5a, 0x81, 0x70, 0x39, 0x00, 0x00, 0x32,
  0x5a, 0x81, 0x70, 0x32, 0x00, 0x00, 0x35, 0x5a, 0x81, 0x70, 0x35, 0x00,
  0x00, 0x39, 0x5a, 0x81, 0x70, 0x39, 0x00, 0x00, 0x37, 0x5a, 0x81, 0x70,
  0x37, 0x00, 0x00, 0x39, 0x5a, 0x81, 0x70, 0x39, 0x00, 0x00, 0x2d, 0x5a,
  0x81, 0x70, 0x2d, 0x00, 0x00, 0x32, 0x5a, 0x83, 0x60, 0x32, 0x00, 0x81,
  0x70, 0x39, 0x5a, 0x81, 0x70, 0x39, 0x00, 0x00, 0x3e, 0x5a, 0x81, 0x70,
  0x3e, 0x00, 0x00, 0x41, 0x5a, 0x81, 0x70, 0x41, 0x00, 0x00, 0x40, 0x5a,
  0x81, 0x70, 0x40, 0x00, 0x00, 0x3e, 0x5a, 0x81, 0x70, 0x3e, 0x00, 0x00,
  0x3d, 0x5a, 0x81, 0x70, 0x3d, 0x00, 0x00, 0x3a, 0x5a, 0x81, 0x70, 0x3a,
  0x00, 0x00, 0x37, 0x5a, 0x81, 0x70, 0x37, 0x00, 0x00, 0x35, 0x5a, 0x81,
  0x70, 0x35, 0x00, 0x00, 0x34, 0x5a, 0x81, 0x70, 0x34, 0x00, 0x00, 0x32,
  0x5a, 0x81, 0x70, 0x32, 0x00, 0x00, 0x31, 0x5a, 0x81, 0x70, 0x31, 0x00,
  0x00, 0x34, 0x5a, 0x81, 0x70, 0x34, 0x00, 0x00, 0x32, 0x5a, 0x81, 0x70,
  0x32, 0x00, 0x00, 0x35, 0x5a, 0x81, 0x70, 0x35, 0x00, 0x00, 0x37, 0x5a,
  0x81, 0x70, 0x37, 0x00, 0x00, 0x3a, 0x5a, 0x81, 0x70, 0x3a, 0x00, 0x00,
  0x39, 0x5a, 0x81, 0x70, 0x39, 0x00, 0x00, 0x37, 0x5a, 0x81, 0x70, 0x37,
  0x00, 0x00, 0x39, 0x5a, 0x81, 0x70, 0x39, 0x00, 0x00, 0x2d, 0x5a, 0x81,
  0x70, 0x2d, 0x00, 0x00, 0x32, 0x5a, 0x83, 0x60, 0x32, 0x00, 0x00, 0xff,
  0x2f, 0x00
};
