const unsigned char _mid[] PROGMEM = {
  0x4d, 0x54, 0x68, 0x64, 0x00, 0x00, 0x00, 0x06, 0x00, 0x01, 0x00, 0x09,
  0x01, 0xe0, 0x4d, 0x54, 0x72, 0x6b, 0x00, 0x00, 0x01, 0x21, 0x00, 0xff,
  0x58, 0x04, 0x04, 0x02, 0x18, 0x08, 0x00, 0xff, 0x59, 0x02, 0x02, 0x00,
  0x00, 0xff, 0x59, 0x02, 0x00, 0x00, 0x00, 0xff, 0x59, 0x02, 0x00, 0x00,
  0x00, 0xff, 0x59, 0x02, 0x00, 0x00, 0x00, 0xff, 0x59, 0x02, 0x00, 0x00,
  0x00, 0xff, 0x51, 0x03, 0x07, 0xa1, 0x20, 0x00, 0xb0, 0x79, 0x00, 0x00,
  0xc0, 0x34, 0x00, 0xb0, 0x07, 0x64, 0x00, 0x0a, 0x40, 0x00, 0x5b, 0x00,
  0x00, 0x5d, 0x00, 0x00, 0xff, 0x21, 0x01, 0x00, 0xbc, 0x00, 0xff, 0x58,
  0x04, 0x04, 0x02, 0x18, 0x08, 0x00, 0xff, 0x59, 0x02, 0x02, 0x00, 0x00,
  0xff, 0x51, 0x03, 0x07, 0xa1, 0x20, 0x81, 0xb4, 0x00, 0x90, 0x3b, 0x60,
  0x87, 0x3f, 0x3b, 0x00, 0x01, 0x42, 0x60, 0x00, 0x4e, 0x60, 0x83, 0x5f,
  0x42, 0x00, 0x00, 0x4e, 0x00, 0x01, 0x40, 0x60, 0x00, 0x4c, 0x60, 0x83,
  0x5f, 0x40, 0x00, 0x00, 0x4c, 0x00, 0x01, 0x3e, 0x60, 0x00, 0x4f, 0x60,
  0x87, 0x3f, 0x3e, 0x00, 0x00, 0x4f, 0x00, 0x01, 0x40, 0x60, 0x00, 0x4e,
  0x60, 0x87, 0x3f, 0x40, 0x00, 0x00, 0x4e, 0x00, 0x01, 0x3e, 0x60, 0x87,
  0x3f, 0x3e, 0x00, 0x01, 0x42, 0x60, 0x00, 0x4e, 0x60, 0x83, 0x5f, 0x42,
  0x00, 0x00, 0x4e, 0x00, 0x01, 0x3e, 0x60, 0x00, 0x51, 0x60, 0x83, 0x5f,
  0x3e, 0x00, 0x00, 0x51, 0x00, 0x01, 0x40, 0x60, 0x00, 0x4c, 0x60, 0x8e,
  0x7f, 0x40, 0x00, 0x00, 0x4c, 0x00, 0x01, 0x3b, 0x60, 0x87, 0x3f, 0x3b,
  0x00, 0x01, 0x42, 0x60, 0x00, 0x4e, 0x60, 0x83, 0x5f, 0x42, 0x00, 0x00,
  0x4e, 0x00, 0x01, 0x40, 0x60, 0x00, 0x4c, 0x60, 0x83, 0x5f, 0x40, 0x00,
  0x00, 0x4c, 0x00, 0x01, 0x3e, 0x60, 0x00, 0x4f, 0x60, 0x87, 0x3f, 0x3e,
  0x00, 0x00, 0x4f, 0x00, 0x01, 0x40, 0x60, 0x00, 0x4e, 0x60, 0x87, 0x3f,
  0x40, 0x00, 0x00, 0x4e, 0x00, 0x01, 0x3e, 0x60, 0x00, 0x4a, 0x60, 0x8e,
  0x7f, 0x3e, 0x00, 0x00, 0x4a, 0x00, 0x01, 0x40, 0x60, 0x00, 0x4c, 0x60,
  0x8e, 0x7f, 0x40, 0x00, 0x00, 0x4c, 0x00, 0x01, 0xff, 0x2f, 0x00, 0x4d,
  0x54, 0x72, 0x6b, 0x00, 0x00, 0x04, 0xbd, 0x00, 0xff, 0x59, 0x02, 0x02,
  0x00, 0x00, 0xff, 0x59, 0x02, 0x00, 0x00, 0x00, 0xff, 0x59, 0x02, 0x00,
  0x00, 0x00, 0xff, 0x59, 0x02, 0x00, 0x00, 0x00, 0xff, 0x59, 0x02, 0x00,
  0x00, 0x00, 0xb1, 0x79, 0x00, 0x00, 0xc1, 0x28, 0x00, 0xb1, 0x07, 0x64,
  0x00, 0x0a, 0x40, 0x00, 0x5b, 0x00, 0x00, 0x5d, 0x00, 0x00, 0xff, 0x21,
  0x01, 0x00, 0x00, 0xb2, 0x79, 0x00, 0x00, 0xc2, 0x2d, 0x00, 0xb2, 0x07,
  0x64, 0x00, 0x0a, 0x40, 0x00, 0x5b, 0x00, 0x00, 0x5d, 0x00, 0x00, 0xff,
  0x21, 0x01, 0x00, 0x00, 0xb3, 0x79, 0x00, 0x00, 0xc3, 0x2c, 0x00, 0xb3,
  0x07, 0x64, 0x00, 0x0a, 0x40, 0x00, 0x5b, 0x00, 0x00, 0x5d, 0x00, 0x00,
  0xff, 0x21, 0x01, 0x00, 0x85, 0x50, 0x91, 0x47, 0x50, 0x3d, 0x47, 0x00,
  0x01, 0x49, 0x50, 0x3d, 0x49, 0x00, 0x01, 0x4e, 0x50, 0x82, 0x62, 0x4e,
  0x00, 0x02, 0x51, 0x50, 0x77, 0x51, 0x00, 0x01, 0x4c, 0x50, 0x77, 0x4c,
  0x00, 0x01, 0x4a, 0x50, 0x81, 0x6f, 0x4a, 0x00, 0x01, 0x4c, 0x50, 0x77,
  0x4c, 0x00, 0x01, 0x49, 0x50, 0x77, 0x49, 0x00, 0x01, 0x47, 0x50, 0x87,
  0x3f, 0x47, 0x00, 0x01, 0x42, 0x50, 0x77, 0x42, 0x00, 0x01, 0x47, 0x50,
  0x77, 0x47, 0x00, 0x01, 0x49, 0x50, 0x77, 0x49, 0x00, 0x79, 0x42, 0x50,
  0x3d, 0x42, 0x00, 0x01, 0x4a, 0x50, 0x57, 0x4a, 0x00, 0x5b, 0x4c, 0x50,
  0x77, 0x4c, 0x00, 0x79, 0x4e, 0x50, 0x83, 0x5f, 0x4e, 0x00, 0x01, 0x4c,
  0x50, 0x77, 0x4c, 0x00, 0x01, 0x51, 0x50, 0x77, 0x51, 0x00, 0x01, 0x4e,
  0x50, 0x83, 0x5f, 0x4e, 0x00, 0x01, 0x4c, 0x50, 0x77, 0x4c, 0x00, 0x01,
  0x51, 0x50, 0x3b, 0x51, 0x00, 0x3d, 0x4c, 0x50, 0x77, 0x4c, 0x00, 0x79,
  0x4a, 0x50, 0x77, 0x4a, 0x00, 0x79, 0x4c, 0x50, 0x87, 0x3f, 0x4c, 0x00,
  0x01, 0x47, 0x50, 0x77, 0x47, 0x00, 0x01, 0x4c, 0x50, 0x77, 0x4c, 0x00,
  0x01, 0x4a, 0x50, 0x81, 0x6f, 0x4a, 0x00, 0x01, 0x47, 0x50, 0x77, 0x47,
  0x00, 0x01, 0x49, 0x50, 0x77, 0x49, 0x00, 0x01, 0x45, 0x50, 0x81, 0x6f,
  0x45, 0x00, 0x01, 0xff, 0x59, 0x02, 0x02, 0x00, 0x85, 0x50, 0x91, 0x47,
  0x50, 0x3d, 0x47, 0x00, 0x01, 0x49, 0x50, 0x3d, 0x49, 0x00, 0x01, 0x4e,
  0x50, 0x82, 0x62, 0x4e, 0x00, 0x02, 0x51, 0x50, 0x77, 0x51, 0x00, 0x01,
  0x4c, 0x50, 0x77, 0x4c, 0x00, 0x01, 0x4a, 0x50, 0x81, 0x6f, 0x4a, 0x00,
  0x01, 0x4c, 0x50, 0x77, 0x4c, 0x00, 0x01, 0x49, 0x50, 0x77, 0x49, 0x00,
  0x01, 0x47, 0x50, 0x87, 0x3f, 0x47, 0x00, 0x01, 0x42, 0x50, 0x77, 0x42,
  0x00, 0x01, 0x47, 0x50, 0x77, 0x47, 0x00, 0x01, 0x49, 0x50, 0x77, 0x49,
  0x00, 0x79, 0x42, 0x50, 0x3d, 0x42, 0x00, 0x01, 0x4a, 0x50, 0x57, 0x4a,
  0x00, 0x5b, 0x4c, 0x50, 0x77, 0x4c, 0x00, 0x79, 0x4e, 0x50, 0x83, 0x5f,
  0x4e, 0x00, 0x01, 0x4c, 0x50, 0x77, 0x4c, 0x00, 0x01, 0x51, 0x50, 0x77,
  0x51, 0x00, 0x01, 0x4e, 0x50, 0x83, 0x5f, 0x4e, 0x00, 0x01, 0x4c, 0x50,
  0x77, 0x4c, 0x00, 0x01, 0x51, 0x50, 0x3b, 0x51, 0x00, 0x3d, 0x4c, 0x50,
  0x77, 0x4c, 0x00, 0x79, 0x4a, 0x50, 0x77, 0x4a, 0x00, 0x79, 0x4c, 0x50,
  0x87, 0x3f, 0x4c, 0x00, 0x8d, 0x11, 0x47, 0x60, 0x3d, 0x47, 0x00, 0x01,
  0x49, 0x60, 0x3d, 0x49, 0x00, 0x01, 0x4e, 0x60, 0x82, 0x62, 0x4e, 0x00,
  0x02, 0x51, 0x60, 0x77, 0x51, 0x00, 0x01, 0x4c, 0x60, 0x77, 0x4c, 0x00,
  0x01, 0x4a, 0x60, 0x81, 0x6f, 0x4a, 0x00, 0x01, 0x4c, 0x60, 0x77, 0x4c,
  0x00, 0x01, 0x49, 0x60, 0x77, 0x49, 0x00, 0x01, 0x47, 0x60, 0x87, 0x3f,
  0x47, 0x00, 0x01, 0x42, 0x60, 0x77, 0x42, 0x00, 0x01, 0x47, 0x60, 0x77,
  0x47, 0x00, 0x01, 0x49, 0x60, 0x77, 0x49, 0x00, 0x79, 0x42, 0x60, 0x3d,
  0x42, 0x00, 0x01, 0x4a, 0x60, 0x57, 0x4a, 0x00, 0x5b, 0x4c, 0x60, 0x77,
  0x4c, 0x00, 0x79, 0x4e, 0x60, 0x83, 0x5f, 0x4e, 0x00, 0x01, 0x4c, 0x60,
  0x77, 0x4c, 0x00, 0x01, 0x51, 0x60, 0x77, 0x51, 0x00, 0x01, 0x4e, 0x60,
  0x83, 0x5f, 0x4e, 0x00, 0x01, 0x4c, 0x60, 0x77, 0x4c, 0x00, 0x01, 0x51,
  0x60, 0x3b, 0x51, 0x00, 0x3d, 0x4c, 0x60, 0x77, 0x4c, 0x00, 0x79, 0x4a,
  0x60, 0x77, 0x4a, 0x00, 0x79, 0x4c, 0x60, 0x87, 0x3f, 0x4c, 0x00, 0x01,
  0x47, 0x60, 0x77, 0x47, 0x00, 0x01, 0x4c, 0x60, 0x77, 0x4c, 0x00, 0x01,
  0x4a, 0x60, 0x81, 0x6f, 0x4a, 0x00, 0x01, 0x47, 0x60, 0x77, 0x47, 0x00,
  0x01, 0x49, 0x60, 0x77, 0x49, 0x00, 0x01, 0x45, 0x60, 0x81, 0x6f, 0x45,
  0x00, 0x85, 0x51, 0x47, 0x60, 0x3d, 0x47, 0x00, 0x01, 0x49, 0x60, 0x3d,
  0x49, 0x00, 0x01, 0x4e, 0x60, 0x82, 0x62, 0x4e, 0x00, 0x02, 0x51, 0x60,
  0x77, 0x51, 0x00, 0x01, 0x4c, 0x60, 0x77, 0x4c, 0x00, 0x01, 0x4a, 0x60,
  0x81, 0x6f, 0x4a, 0x00, 0x01, 0x4c, 0x60, 0x77, 0x4c, 0x00, 0x01, 0x49,
  0x60, 0x77, 0x49, 0x00, 0x01, 0x47, 0x60, 0x87, 0x3f, 0x47, 0x00, 0x01,
  0x42, 0x60, 0x77, 0x42, 0x00, 0x01, 0x47, 0x60, 0x77, 0x47, 0x00, 0x01,
  0x49, 0x60, 0x77, 0x49, 0x00, 0x79, 0x42, 0x60, 0x3d, 0x42, 0x00, 0x01,
  0x4a, 0x60, 0x57, 0x4a, 0x00, 0x5b, 0x4c, 0x60, 0x77, 0x4c, 0x00, 0x79,
  0x4e, 0x60, 0x83, 0x5f, 0x4e, 0x00, 0x01, 0x4c, 0x60, 0x77, 0x4c, 0x00,
  0x01, 0x51, 0x60, 0x77, 0x51, 0x00, 0x01, 0x4e, 0x60, 0x83, 0x5f, 0x4e,
  0x00, 0x01, 0x4c, 0x60, 0x77, 0x4c, 0x00, 0x01, 0x51, 0x60, 0x3b, 0x51,
  0x00, 0x3d, 0x4c, 0x60, 0x77, 0x4c, 0x00, 0x79, 0x4a, 0x60, 0x77, 0x4a,
  0x00, 0x79, 0x4c, 0x60, 0x87, 0x3f, 0x4c, 0x00, 0x01, 0x47, 0x60, 0x77,
  0x47, 0x00, 0x01, 0x4c, 0x60, 0x77, 0x4c, 0x00, 0x01, 0x4a, 0x60, 0x81,
  0x6f, 0x4a, 0x00, 0x01, 0x47, 0x60, 0x77, 0x47, 0x00, 0x01, 0x49, 0x60,
  0x77, 0x49, 0x00, 0x01, 0x45, 0x60, 0x81, 0x6f, 0x45, 0x00, 0x85, 0x51,
  0x47, 0x50, 0x3d, 0x47, 0x00, 0x01, 0x49, 0x50, 0x3d, 0x49, 0x00, 0x01,
  0x4e, 0x50, 0x82, 0x62, 0x4e, 0x00, 0x02, 0x51, 0x50, 0x77, 0x51, 0x00,
  0x01, 0x4c, 0x50, 0x77, 0x4c, 0x00, 0x01, 0x4a, 0x50, 0x81, 0x6f, 0x4a,
  0x00, 0x01, 0x4c, 0x50, 0x77, 0x4c, 0x00, 0x01, 0x49, 0x50, 0x77, 0x49,
  0x00, 0x01, 0x47, 0x50, 0x87, 0x3f, 0x47, 0x00, 0x01, 0x42, 0x50, 0x77,
  0x42, 0x00, 0x01, 0x47, 0x50, 0x77, 0x47, 0x00, 0x01, 0x49, 0x50, 0x77,
  0x49, 0x00, 0x79, 0x42, 0x50, 0x3d, 0x42, 0x00, 0x01, 0x4a, 0x50, 0x57,
  0x4a, 0x00, 0x5b, 0x4c, 0x50, 0x77, 0x4c, 0x00, 0x79, 0x4e, 0x50, 0x83,
  0x5f, 0x4e, 0x00, 0x01, 0x4c, 0x50, 0x77, 0x4c, 0x00, 0x01, 0x51, 0x50,
  0x77, 0x51, 0x00, 0x01, 0x4e, 0x50, 0x83, 0x5f, 0x4e, 0x00, 0x01, 0x4c,
  0x50, 0x77, 0x4c, 0x00, 0x01, 0x51, 0x50, 0x3b, 0x51, 0x00, 0x3d, 0x4c,
  0x50, 0x77, 0x4c, 0x00, 0x79, 0x4a, 0x50, 0x77, 0x4a, 0x00, 0x79, 0x4c,
  0x50, 0x87, 0x3f, 0x4c, 0x00, 0x01, 0x47, 0x50, 0x77, 0x47, 0x00, 0x01,
  0x4c, 0x50, 0x77, 0x4c, 0x00, 0x01, 0x4a, 0x50, 0x81, 0x6f, 0x4a, 0x00,
  0x01, 0x47, 0x50, 0x77, 0x47, 0x00, 0x01, 0x49, 0x50, 0x77, 0x49, 0x00,
  0x01, 0x45, 0x50, 0x81, 0x6f, 0x45, 0x00, 0x85, 0x51, 0x47, 0x50, 0x3d,
  0x47, 0x00, 0x01, 0x49, 0x50, 0x3d, 0x49, 0x00, 0x01, 0x4e, 0x50, 0x82,
  0x62, 0x4e, 0x00, 0x02, 0x51, 0x50, 0x77, 0x51, 0x00, 0x01, 0x4c, 0x50,
  0x77, 0x4c, 0x00, 0x01, 0x4a, 0x50, 0x81, 0x6f, 0x4a, 0x00, 0x01, 0x4c,
  0x50, 0x77, 0x4c, 0x00, 0x01, 0x49, 0x50, 0x77, 0x49, 0x00, 0x01, 0x47,
  0x50, 0x87, 0x3f, 0x47, 0x00, 0x01, 0x42, 0x50, 0x77, 0x42, 0x00, 0x01,
  0x47, 0x50, 0x77, 0x47, 0x00, 0x01, 0x49, 0x50, 0x77, 0x49, 0x00, 0x79,
  0x42, 0x50, 0x3d, 0x42, 0x00, 0x01, 0x4a, 0x50, 0x57, 0x4a, 0x00, 0x5b,
  0x4c, 0x50, 0x77, 0x4c, 0x00, 0x79, 0x4e, 0x50, 0x83, 0x5f, 0x4e, 0x00,
  0x01, 0x4c, 0x50, 0x77, 0x4c, 0x00, 0x01, 0x51, 0x50, 0x77, 0x51, 0x00,
  0x01, 0x4e, 0x50, 0x83, 0x5f, 0x4e, 0x00, 0x01, 0x4c, 0x50, 0x77, 0x4c,
  0x00, 0x01, 0x51, 0x50, 0x3b, 0x51, 0x00, 0x3d, 0x4c, 0x50, 0x77, 0x4c,
  0x00, 0x79, 0x4a, 0x50, 0x77, 0x4a, 0x00, 0x79, 0x4c, 0x50, 0x87, 0x3f,
  0x4c, 0x00, 0x01, 0x47, 0x50, 0x77, 0x47, 0x00, 0x01, 0x4c, 0x50, 0x77,
  0x4c, 0x00, 0x01, 0x4a, 0x50, 0x81, 0x6f, 0x4a, 0x00, 0x01, 0x47, 0x50,
  0x77, 0x47, 0x00, 0x01, 0x49, 0x50, 0x77, 0x49, 0x00, 0x01, 0x45, 0x50,
  0x81, 0x6f, 0x45, 0x00, 0x01, 0xff, 0x2f, 0x00, 0x4d, 0x54, 0x72, 0x6b,
  0x00, 0x00, 0x03, 0xc4, 0x00, 0xff, 0x59, 0x02, 0x02, 0x00, 0x00, 0xff,
  0x59, 0x02, 0x00, 0x00, 0x00, 0xff, 0x59, 0x02, 0x00, 0x00, 0x00, 0xff,
  0x59, 0x02, 0x00, 0x00, 0x00, 0xff, 0x59, 0x02, 0x00, 0x00, 0x00, 0xb4,
  0x79, 0x00, 0x00, 0xc4, 0x00, 0x00, 0xb4, 0x07, 0x64, 0x00, 0x0a, 0x40,
  0x00, 0x5b, 0x00, 0x00, 0x5d, 0x00, 0x00, 0xff, 0x21, 0x01, 0x00, 0xbc,
  0x00, 0xff, 0x59, 0x02, 0x02, 0x00, 0xbc, 0x00, 0x94, 0x3e, 0x50, 0x81,
  0x63, 0x3e, 0x00, 0x0d, 0x42, 0x50, 0x81, 0x63, 0x42, 0x00, 0x0d, 0x3e,
  0x50, 0x81, 0x63, 0x3e, 0x00, 0x0d, 0x42, 0x50, 0x81, 0x63, 0x42, 0x00,
  0x0d, 0x3e, 0x50, 0x81, 0x63, 0x3e, 0x00, 0x0d, 0x42, 0x50, 0x81, 0x63,
  0x42, 0x00, 0x0d, 0x3e, 0x50, 0x81, 0x63, 0x3e, 0x00, 0x0d, 0x42, 0x50,
  0x81, 0x63, 0x42, 0x00, 0x0d, 0x3b, 0x50, 0x81, 0x63, 0x3b, 0x00, 0x0d,
  0x3e, 0x50, 0x81, 0x63, 0x3e, 0x00, 0x0d, 0x3b, 0x50, 0x81, 0x63, 0x3b,
  0x00, 0x0d, 0x3e, 0x50, 0x81, 0x63, 0x3e, 0x00, 0x0d, 0x3b, 0x50, 0x81,
  0x63, 0x3b, 0x00, 0x0d, 0x3e, 0x50, 0x81, 0x63, 0x3e, 0x00, 0x0d, 0x3b,
  0x50, 0x81, 0x63, 0x3b, 0x00, 0x0d, 0x3e, 0x50, 0x81, 0x63, 0x3e, 0x00,
  0x0d, 0x39, 0x50, 0x81, 0x63, 0x39, 0x00, 0x0d, 0x3e, 0x50, 0x81, 0x63,
  0x3e, 0x00, 0x0d, 0x39, 0x50, 0x81, 0x63, 0x39, 0x00, 0x0d, 0x3e, 0x50,
  0x81, 0x63, 0x3e, 0x00, 0x0d, 0x39, 0x50, 0x81, 0x63, 0x39, 0x00, 0x0d,
  0x3e, 0x50, 0x81, 0x63, 0x3e, 0x00, 0x0d, 0x39, 0x50, 0x81, 0x63, 0x39,
  0x00, 0x0d, 0x3e, 0x50, 0x81, 0x63, 0x3e, 0x00, 0x0d, 0x3d, 0x50, 0x81,
  0x63, 0x3d, 0x00, 0x0d, 0x40, 0x50, 0x81, 0x63, 0x40, 0x00, 0x0d, 0x3d,
  0x50, 0x81, 0x63, 0x3d, 0x00, 0x0d, 0x40, 0x50, 0x81, 0x63, 0x40, 0x00,
  0x0d, 0x3d, 0x50, 0x81, 0x63, 0x3d, 0x00, 0x0d, 0x40, 0x50, 0x81, 0x63,
  0x40, 0x00, 0x0d, 0x3d, 0x50, 0x81, 0x63, 0x3d, 0x00, 0x0d, 0x40, 0x50,
  0x81, 0x63, 0x40, 0x00, 0x0d, 0x3e, 0x50, 0x81, 0x63, 0x3e, 0x00, 0x0d,
  0x42, 0x50, 0x81, 0x63, 0x42, 0x00, 0x0d, 0x3e, 0x50, 0x81, 0x63, 0x3e,
  0x00, 0x0d, 0x42, 0x50, 0x81, 0x63, 0x42, 0x00, 0x0d, 0x3e, 0x50, 0x81,
  0x63, 0x3e, 0x00, 0x0d, 0x42, 0x50, 0x81, 0x63, 0x42, 0x00, 0x0d, 0x3e,
  0x50, 0x81, 0x63, 0x3e, 0x00, 0x0d, 0x42, 0x50, 0x81, 0x63, 0x42, 0x00,
  0x0d, 0x3b, 0x50, 0x81, 0x63, 0x3b, 0x00, 0x0d, 0x3e, 0x50, 0x81, 0x63,
  0x3e, 0x00, 0x0d, 0x3b, 0x50, 0x81, 0x63, 0x3b, 0x00, 0x0d, 0x3e, 0x50,
  0x81, 0x63, 0x3e, 0x00, 0x0d, 0x3b, 0x50, 0x81, 0x63, 0x3b, 0x00, 0x0d,
  0x3e, 0x50, 0x81, 0x63, 0x3e, 0x00, 0x0d, 0x3b, 0x50, 0x81, 0x63, 0x3b,
  0x00, 0x0d, 0x3e, 0x50, 0x81, 0x63, 0x3e, 0x00, 0x0d, 0x39, 0x50, 0x81,
  0x63, 0x39, 0x00, 0x0d, 0x3e, 0x50, 0x81, 0x63, 0x3e, 0x00, 0x0d, 0x39,
  0x50, 0x81, 0x63, 0x39, 0x00, 0x0d, 0x3e, 0x50, 0x81, 0x63, 0x3e, 0x00,
  0x0d, 0x39, 0x50, 0x81, 0x63, 0x39, 0x00, 0x0d, 0x3e, 0x50, 0x81, 0x63,
  0x3e, 0x00, 0x0d, 0x39, 0x50, 0x81, 0x63, 0x39, 0x00, 0x0d, 0x3e, 0x50,
  0x81, 0x63, 0x3e, 0x00, 0x0d, 0x3d, 0x50, 0x81, 0x63, 0x3d, 0x00, 0x0d,
  0x40, 0x50, 0x81, 0x63, 0x40, 0x00, 0x0d, 0x3d, 0x50, 0x81, 0x63, 0x3d,
  0x00, 0x0d, 0x40, 0x50, 0x81, 0x63, 0x40, 0x00, 0x0d, 0x3d, 0x50, 0x81,
  0x63, 0x3d, 0x00, 0x0d, 0x40, 0x50, 0x81, 0x63, 0x40, 0x00, 0x0d, 0x3d,
  0x50, 0x81, 0x63, 0x3d, 0x00, 0x0d, 0x40, 0x50, 0x81, 0x63, 0x40, 0x00,
  0x0d, 0x3e, 0x50, 0x81, 0x63, 0x3e, 0x00, 0x0d, 0x42, 0x50, 0x81, 0x63,
  0x42, 0x00, 0x0d, 0x3e, 0x50, 0x81, 0x63, 0x3e, 0x00, 0x0d, 0x42, 0x50,
  0x81, 0x63, 0x42, 0x00, 0x0d, 0x3e, 0x50, 0x81, 0x63, 0x3e, 0x00, 0x0d,
  0x42, 0x50, 0x81, 0x63, 0x42, 0x00, 0x0d, 0x3e, 0x50, 0x81, 0x63, 0x3e,
  0x00, 0x0d, 0x42, 0x50, 0x81, 0x63, 0x42, 0x00, 0x0d, 0x3b, 0x50, 0x81,
  0x63, 0x3b, 0x00, 0x0d, 0x3e, 0x50, 0x81, 0x63, 0x3e, 0x00, 0x0d, 0x3b,
  0x50, 0x81, 0x63, 0x3b, 0x00, 0x0d, 0x3e, 0x50, 0x81, 0x63, 0x3e, 0x00,
  0x0d, 0x3b, 0x50, 0x81, 0x63, 0x3b, 0x00, 0x0d, 0x3e, 0x50, 0x81, 0x63,
  0x3e, 0x00, 0x0d, 0x3b, 0x50, 0x81, 0x63, 0x3b, 0x00, 0x0d, 0x3e, 0x50,
  0x81, 0x63, 0x3e, 0x00, 0x0d, 0x39, 0x50, 0x81, 0x63, 0x39, 0x00, 0x0d,
  0x3e, 0x50, 0x81, 0x63, 0x3e, 0x00, 0x0d, 0x39, 0x50, 0x81, 0x63, 0x39,
  0x00, 0x0d, 0x3e, 0x50, 0x81, 0x63, 0x3e, 0x00, 0x0d, 0x39, 0x50, 0x81,
  0x63, 0x39, 0x00, 0x0d, 0x3e, 0x50, 0x81, 0x63, 0x3e, 0x00, 0x0d, 0x39,
  0x50, 0x81, 0x63, 0x39, 0x00, 0x0d, 0x3e, 0x50, 0x81, 0x63, 0x3e, 0x00,
  0x0d, 0x3d, 0x50, 0x81, 0x63, 0x3d, 0x00, 0x0d, 0x40, 0x50, 0x81, 0x63,
  0x40, 0x00, 0x0d, 0x3d, 0x50, 0x81, 0x63, 0x3d, 0x00, 0x0d, 0x40, 0x50,
  0x81, 0x63, 0x40, 0x00, 0x0d, 0x3d, 0x50, 0x81, 0x63, 0x3d, 0x00, 0x0d,
  0x40, 0x50, 0x81, 0x63, 0x40, 0x00, 0x0d, 0x3d, 0x50, 0x81, 0x63, 0x3d,
  0x00, 0x0d, 0x40, 0x50, 0x81, 0x63, 0x40, 0x00, 0x0d, 0x3e, 0x50, 0x81,
  0x63, 0x3e, 0x00, 0x0d, 0x42, 0x50, 0x81, 0x63, 0x42, 0x00, 0x0d, 0x3e,
  0x50, 0x81, 0x63, 0x3e, 0x00, 0x0d, 0x42, 0x50, 0x81, 0x63, 0x42, 0x00,
  0x0d, 0x3e, 0x50, 0x81, 0x63, 0x3e, 0x00, 0x0d, 0x42, 0x50, 0x81, 0x63,
  0x42, 0x00, 0x0d, 0x3e, 0x50, 0x81, 0x63, 0x3e, 0x00, 0x0d, 0x42, 0x50,
  0x81, 0x63, 0x42, 0x00, 0x0d, 0x3b, 0x50, 0x81, 0x63, 0x3b, 0x00, 0x0d,
  0x3e, 0x50, 0x81, 0x63, 0x3e, 0x00, 0x0d, 0x3b, 0x50, 0x81, 0x63, 0x3b,
  0x00, 0x0d, 0x3e, 0x50, 0x81, 0x63, 0x3e, 0x00, 0x0d, 0x3b, 0x50, 0x81,
  0x63, 0x3b, 0x00, 0x0d, 0x3e, 0x50, 0x81, 0x63, 0x3e, 0x00, 0x0d, 0x3b,
  0x50, 0x81, 0x63, 0x3b, 0x00, 0x0d, 0x3e, 0x50, 0x81, 0x63, 0x3e, 0x00,
  0x0d, 0x39, 0x50, 0x81, 0x63, 0x39, 0x00, 0x0d, 0x3e, 0x50, 0x81, 0x63,
  0x3e, 0x00, 0x0d, 0x39, 0x50, 0x81, 0x63, 0x39, 0x00, 0x0d, 0x3e, 0x50,
  0x81, 0x63, 0x3e, 0x00, 0x0d, 0x39, 0x50, 0x81, 0x63, 0x39, 0x00, 0x0d,
  0x3e, 0x50, 0x81, 0x63, 0x3e, 0x00, 0x0d, 0x39, 0x50, 0x81, 0x63, 0x39,
  0x00, 0x0d, 0x3e, 0x50, 0x81, 0x63, 0x3e, 0x00, 0x0d, 0x3d, 0x50, 0x81,
  0x63, 0x3d, 0x00, 0x0d, 0x40, 0x50, 0x81, 0x63, 0x40, 0x00, 0x0d, 0x3d,
  0x50, 0x81, 0x63, 0x3d, 0x00, 0x0d, 0x40, 0x50, 0x81, 0x63, 0x40, 0x00,
  0x0d, 0x3d, 0x50, 0x81, 0x63, 0x3d, 0x00, 0x0d, 0x40, 0x50, 0x81, 0x63,
  0x40, 0x00, 0x0d, 0x3d, 0x50, 0x81, 0x63, 0x3d, 0x00, 0x0d, 0x40, 0x50,
  0x81, 0x63, 0x40, 0x00, 0x01, 0xff, 0x2f, 0x00, 0x4d, 0x54, 0x72, 0x6b,
  0x00, 0x00, 0x07, 0x88, 0x00, 0xff, 0x59, 0x02, 0x02, 0x00, 0x00, 0xff,
  0x59, 0x02, 0x00, 0x00, 0x00, 0xff, 0x59, 0x02, 0x00, 0x00, 0x00, 0xff,
  0x59, 0x02, 0x00, 0x00, 0x00, 0xff, 0x59, 0x02, 0x00, 0x00, 0x00, 0xff,
  0x21, 0x01, 0x00, 0x00, 0x94, 0x23, 0x50, 0x81, 0x63, 0x23, 0x00, 0x0d,
  0x2f, 0x50, 0x00, 0x36, 0x50, 0x81, 0x63, 0x2f, 0x00, 0x00, 0x36, 0x00,
  0x0d, 0x23, 0x50, 0x81, 0x63, 0x23, 0x00, 0x0d, 0x2f, 0x50, 0x00, 0x36,
  0x50, 0x81, 0x63, 0x2f, 0x00, 0x00, 0x36, 0x00, 0x0d, 0x23, 0x50, 0x81,
  0x63, 0x23, 0x00, 0x0d, 0x2f, 0x50, 0x00, 0x36, 0x50, 0x81, 0x63, 0x2f,
  0x00, 0x00, 0x36, 0x00, 0x0d, 0x23, 0x50, 0x81, 0x63, 0x23, 0x00, 0x0d,
  0x2f, 0x50, 0x00, 0x36, 0x50, 0x81, 0x63, 0x2f, 0x00, 0x00, 0x36, 0x00,
  0x0d, 0x2b, 0x50, 0x81, 0x63, 0x2b, 0x00, 0x0d, 0x37, 0x50, 0x00, 0x3e,
  0x50, 0x81, 0x63, 0x37, 0x00, 0x00, 0x3e, 0x00, 0x0d, 0x2b, 0x50, 0x81,
  0x63, 0x2b, 0x00, 0x0d, 0x37, 0x50, 0x00, 0x3e, 0x50, 0x81, 0x63, 0x37,
  0x00, 0x00, 0x3e, 0x00, 0x0d, 0x2b, 0x50, 0x81, 0x63, 0x2b, 0x00, 0x0d,
  0x37, 0x50, 0x00, 0x3e, 0x50, 0x81, 0x63, 0x37, 0x00, 0x00, 0x3e, 0x00,
  0x0d, 0x2b, 0x50, 0x81, 0x63, 0x2b, 0x00, 0x0d, 0x37, 0x50, 0x00, 0x3e,
  0x50, 0x81, 0x63, 0x37, 0x00, 0x00, 0x3e, 0x00, 0x0d, 0x26, 0x50, 0x81,
  0x63, 0x26, 0x00, 0x0d, 0x32, 0x50, 0x00, 0x39, 0x50, 0x81, 0x63, 0x32,
  0x00, 0x00, 0x39, 0x00, 0x0d, 0x26, 0x50, 0x81, 0x63, 0x26, 0x00, 0x0d,
  0x32, 0x50, 0x00, 0x39, 0x50, 0x81, 0x63, 0x32, 0x00, 0x00, 0x39, 0x00,
  0x0d, 0x26, 0x50, 0x81, 0x63, 0x26, 0x00, 0x0d, 0x32, 0x50, 0x00, 0x39,
  0x50, 0x81, 0x63, 0x32, 0x00, 0x00, 0x39, 0x00, 0x0d, 0x26, 0x50, 0x81,
  0x63, 0x26, 0x00, 0x0d, 0x32, 0x50, 0x00, 0x39, 0x50, 0x81, 0x63, 0x32,
  0x00, 0x00, 0x39, 0x00, 0x0d, 0x2d, 0x50, 0x81, 0x63, 0x2d, 0x00, 0x0d,
  0x39, 0x50, 0x00, 0x40, 0x50, 0x81, 0x63, 0x39, 0x00, 0x00, 0x40, 0x00,
  0x0d, 0x2d, 0x50, 0x81, 0x63, 0x2d, 0x00, 0x0d, 0x39, 0x50, 0x00, 0x40,
  0x50, 0x81, 0x63, 0x39, 0x00, 0x00, 0x40, 0x00, 0x0d, 0x2d, 0x50, 0x81,
  0x63, 0x2d, 0x00, 0x0d, 0x39, 0x50, 0x00, 0x3e, 0x50, 0x81, 0x63, 0x39,
  0x00, 0x00, 0x3e, 0x00, 0x0d, 0x2d, 0x50, 0x81, 0x63, 0x2d, 0x00, 0x0d,
  0x39, 0x50, 0x00, 0x3e, 0x50, 0x81, 0x63, 0x39, 0x00, 0x00, 0x3e, 0x00,
  0x0d, 0xff, 0x59, 0x02, 0x02, 0x00, 0x00, 0x94, 0x23, 0x50, 0x81, 0x63,
  0x23, 0x00, 0x0d, 0x2f, 0x50, 0x00, 0x36, 0x50, 0x81, 0x63, 0x2f, 0x00,
  0x00, 0x36, 0x00, 0x0d, 0x23, 0x50, 0x81, 0x63, 0x23, 0x00, 0x0d, 0x2f,
  0x50, 0x00, 0x36, 0x50, 0x81, 0x63, 0x2f, 0x00, 0x00, 0x36, 0x00, 0x0d,
  0x23, 0x50, 0x81, 0x63, 0x23, 0x00, 0x0d, 0x2f, 0x50, 0x00, 0x36, 0x50,
  0x81, 0x63, 0x2f, 0x00, 0x00, 0x36, 0x00, 0x0d, 0x23, 0x50, 0x81, 0x63,
  0x23, 0x00, 0x0d, 0x2f, 0x50, 0x00, 0x36, 0x50, 0x81, 0x63, 0x2f, 0x00,
  0x00, 0x36, 0x00, 0x0d, 0x2b, 0x50, 0x81, 0x63, 0x2b, 0x00, 0x0d, 0x37,
  0x50, 0x00, 0x3e, 0x50, 0x81, 0x63, 0x37, 0x00, 0x00, 0x3e, 0x00, 0x0d,
  0x2b, 0x50, 0x81, 0x63, 0x2b, 0x00, 0x0d, 0x37, 0x50, 0x00, 0x3e, 0x50,
  0x81, 0x63, 0x37, 0x00, 0x00, 0x3e, 0x00, 0x0d, 0x2b, 0x50, 0x81, 0x63,
  0x2b, 0x00, 0x0d, 0x37, 0x50, 0x00, 0x3e, 0x50, 0x81, 0x63, 0x37, 0x00,
  0x00, 0x3e, 0x00, 0x0d, 0x2b, 0x50, 0x81, 0x63, 0x2b, 0x00, 0x0d, 0x37,
  0x50, 0x00, 0x3e, 0x50, 0x81, 0x63, 0x37, 0x00, 0x00, 0x3e, 0x00, 0x0d,
  0x26, 0x50, 0x81, 0x63, 0x26, 0x00, 0x0d, 0x32, 0x50, 0x00, 0x39, 0x50,
  0x81, 0x63, 0x32, 0x00, 0x00, 0x39, 0x00, 0x0d, 0x26, 0x50, 0x81, 0x63,
  0x26, 0x00, 0x0d, 0x32, 0x50, 0x00, 0x39, 0x50, 0x81, 0x63, 0x32, 0x00,
  0x00, 0x39, 0x00, 0x0d, 0x26, 0x50, 0x81, 0x63, 0x26, 0x00, 0x0d, 0x32,
  0x50, 0x00, 0x39, 0x50, 0x81, 0x63, 0x32, 0x00, 0x00, 0x39, 0x00, 0x0d,
  0x26, 0x50, 0x81, 0x63, 0x26, 0x00, 0x0d, 0x32, 0x50, 0x00, 0x39, 0x50,
  0x81, 0x63, 0x32, 0x00, 0x00, 0x39, 0x00, 0x0d, 0x2d, 0x50, 0x81, 0x63,
  0x2d, 0x00, 0x0d, 0x39, 0x50, 0x00, 0x40, 0x50, 0x81, 0x63, 0x39, 0x00,
  0x00, 0x40, 0x00, 0x0d, 0x2d, 0x50, 0x81, 0x63, 0x2d, 0x00, 0x0d, 0x39,
  0x50, 0x00, 0x40, 0x50, 0x81, 0x63, 0x39, 0x00, 0x00, 0x40, 0x00, 0x87,
  0x4d, 0x23, 0x50, 0x81, 0x63, 0x23, 0x00, 0x0d, 0x2f, 0x50, 0x00, 0x36,
  0x50, 0x81, 0x63, 0x2f, 0x00, 0x00, 0x36, 0x00, 0x0d, 0x23, 0x50, 0x81,
  0x63, 0x23, 0x00, 0x0d, 0x2f, 0x50, 0x00, 0x36, 0x50, 0x81, 0x63, 0x2f,
  0x00, 0x00, 0x36, 0x00, 0x0d, 0x23, 0x50, 0x81, 0x63, 0x23, 0x00, 0x0d,
  0x2f, 0x50, 0x00, 0x36, 0x50, 0x81, 0x63, 0x2f, 0x00, 0x00, 0x36, 0x00,
  0x0d, 0x23, 0x50, 0x81, 0x63, 0x23, 0x00, 0x0d, 0x2f, 0x50, 0x00, 0x36,
  0x50, 0x81, 0x63, 0x2f, 0x00, 0x00, 0x36, 0x00, 0x0d, 0x2b, 0x50, 0x81,
  0x63, 0x2b, 0x00, 0x0d, 0x37, 0x50, 0x00, 0x3e, 0x50, 0x81, 0x63, 0x37,
  0x00, 0x00, 0x3e, 0x00, 0x0d, 0x2b, 0x50, 0x81, 0x63, 0x2b, 0x00, 0x0d,
  0x37, 0x50, 0x00, 0x3e, 0x50, 0x81, 0x63, 0x37, 0x00, 0x00, 0x3e, 0x00,
  0x0d, 0x2b, 0x50, 0x81, 0x63, 0x2b, 0x00, 0x0d, 0x37, 0x50, 0x00, 0x3e,
  0x50, 0x81, 0x63, 0x37, 0x00, 0x00, 0x3e, 0x00, 0x0d, 0x2b, 0x50, 0x81,
  0x63, 0x2b, 0x00, 0x0d, 0x37, 0x50, 0x00, 0x3e, 0x50, 0x81, 0x63, 0x37,
  0x00, 0x00, 0x3e, 0x00, 0x0d, 0x26, 0x50, 0x81, 0x63, 0x26, 0x00, 0x0d,
  0x32, 0x50, 0x00, 0x39, 0x50, 0x81, 0x63, 0x32, 0x00, 0x00, 0x39, 0x00,
  0x0d, 0x26, 0x50, 0x81, 0x63, 0x26, 0x00, 0x0d, 0x32, 0x50, 0x00, 0x39,
  0x50, 0x81, 0x63, 0x32, 0x00, 0x00, 0x39, 0x00, 0x0d, 0x26, 0x50, 0x81,
  0x63, 0x26, 0x00, 0x0d, 0x32, 0x50, 0x00, 0x39, 0x50, 0x81, 0x63, 0x32,
  0x00, 0x00, 0x39, 0x00, 0x0d, 0x26, 0x50, 0x81, 0x63, 0x26, 0x00, 0x0d,
  0x32, 0x50, 0x00, 0x39, 0x50, 0x81, 0x63, 0x32, 0x00, 0x00, 0x39, 0x00,
  0x0d, 0x2d, 0x50, 0x81, 0x63, 0x2d, 0x00, 0x0d, 0x39, 0x50, 0x00, 0x40,
  0x50, 0x81, 0x63, 0x39, 0x00, 0x00, 0x40, 0x00, 0x0d, 0x2d, 0x50, 0x81,
  0x63, 0x2d, 0x00, 0x0d, 0x39, 0x50, 0x00, 0x40, 0x50, 0x81, 0x63, 0x39,
  0x00, 0x00, 0x40, 0x00, 0x0d, 0x2d, 0x50, 0x81, 0x63, 0x2d, 0x00, 0x0d,
  0x39, 0x50, 0x00, 0x3e, 0x50, 0x81, 0x63, 0x39, 0x00, 0x00, 0x3e, 0x00,
  0x0d, 0x2d, 0x50, 0x81, 0x63, 0x2d, 0x00, 0x0d, 0x39, 0x50, 0x00, 0x3e,
  0x50, 0x81, 0x63, 0x39, 0x00, 0x00, 0x3e, 0x00, 0x0d, 0x23, 0x50, 0x81,
  0x63, 0x23, 0x00, 0x0d, 0x2f, 0x50, 0x00, 0x36, 0x50, 0x81, 0x63, 0x2f,
  0x00, 0x00, 0x36, 0x00, 0x0d, 0x23, 0x50, 0x81, 0x63, 0x23, 0x00, 0x0d,
  0x2f, 0x50, 0x00, 0x36, 0x50, 0x81, 0x63, 0x2f, 0x00, 0x00, 0x36, 0x00,
  0x0d, 0x23, 0x50, 0x81, 0x63, 0x23, 0x00, 0x0d, 0x2f, 0x50, 0x00, 0x36,
  0x50, 0x81, 0x63, 0x2f, 0x00, 0x00, 0x36, 0x00, 0x0d, 0x23, 0x50, 0x81,
  0x63, 0x23, 0x00, 0x0d, 0x2f, 0x50, 0x00, 0x36, 0x50, 0x81, 0x63, 0x2f,
  0x00, 0x00, 0x36, 0x00, 0x0d, 0x2b, 0x50, 0x81, 0x63, 0x2b, 0x00, 0x0d,
  0x37, 0x50, 0x00, 0x3e, 0x50, 0x81, 0x63, 0x37, 0x00, 0x00, 0x3e, 0x00,
  0x0d, 0x2b, 0x50, 0x81, 0x63, 0x2b, 0x00, 0x0d, 0x37, 0x50, 0x00, 0x3e,
  0x50, 0x81, 0x63, 0x37, 0x00, 0x00, 0x3e, 0x00, 0x0d, 0x2b, 0x50, 0x81,
  0x63, 0x2b, 0x00, 0x0d, 0x37, 0x50, 0x00, 0x3e, 0x50, 0x81, 0x63, 0x37,
  0x00, 0x00, 0x3e, 0x00, 0x0d, 0x2b, 0x50, 0x81, 0x63, 0x2b, 0x00, 0x0d,
  0x37, 0x50, 0x00, 0x3e, 0x50, 0x81, 0x63, 0x37, 0x00, 0x00, 0x3e, 0x00,
  0x0d, 0x26, 0x50, 0x81, 0x63, 0x26, 0x00, 0x0d, 0x32, 0x50, 0x00, 0x39,
  0x50, 0x81, 0x63, 0x32, 0x00, 0x00, 0x39, 0x00, 0x0d, 0x26, 0x50, 0x81,
  0x63, 0x26, 0x00, 0x0d, 0x32, 0x50, 0x00, 0x39, 0x50, 0x81, 0x63, 0x32,
  0x00, 0x00, 0x39, 0x00, 0x0d, 0x26, 0x50, 0x81, 0x63, 0x26, 0x00, 0x0d,
  0x32, 0x50, 0x00, 0x39, 0x50, 0x81, 0x63, 0x32, 0x00, 0x00, 0x39, 0x00,
  0x0d, 0x26, 0x50, 0x81, 0x63, 0x26, 0x00, 0x0d, 0x32, 0x50, 0x00, 0x39,
  0x50, 0x81, 0x63, 0x32, 0x00, 0x00, 0x39, 0x00, 0x0d, 0x2d, 0x50, 0x81,
  0x63, 0x2d, 0x00, 0x0d, 0x39, 0x50, 0x00, 0x40, 0x50, 0x81, 0x63, 0x39,
  0x00, 0x00, 0x40, 0x00, 0x0d, 0x2d, 0x50, 0x81, 0x63, 0x2d, 0x00, 0x0d,
  0x39, 0x50, 0x00, 0x40, 0x50, 0x81, 0x63, 0x39, 0x00, 0x00, 0x40, 0x00,
  0x0d, 0x2d, 0x50, 0x81, 0x63, 0x2d, 0x00, 0x0d, 0x39, 0x50, 0x00, 0x3e,
  0x50, 0x81, 0x63, 0x39, 0x00, 0x00, 0x3e, 0x00, 0x0d, 0x2d, 0x50, 0x81,
  0x63, 0x2d, 0x00, 0x0d, 0x39, 0x50, 0x00, 0x3e, 0x50, 0x81, 0x63, 0x39,
  0x00, 0x00, 0x3e, 0x00, 0x0d, 0x23, 0x50, 0x81, 0x63, 0x23, 0x00, 0x0d,
  0x2f, 0x50, 0x00, 0x36, 0x50, 0x81, 0x63, 0x2f, 0x00, 0x00, 0x36, 0x00,
  0x0d, 0x23, 0x50, 0x81, 0x63, 0x23, 0x00, 0x0d, 0x2f, 0x50, 0x00, 0x36,
  0x50, 0x81, 0x63, 0x2f, 0x00, 0x00, 0x36, 0x00, 0x0d, 0x23, 0x50, 0x81,
  0x63, 0x23, 0x00, 0x0d, 0x2f, 0x50, 0x00, 0x36, 0x50, 0x81, 0x63, 0x2f,
  0x00, 0x00, 0x36, 0x00, 0x0d, 0x23, 0x50, 0x81, 0x63, 0x23, 0x00, 0x0d,
  0x2f, 0x50, 0x00, 0x36, 0x50, 0x81, 0x63, 0x2f, 0x00, 0x00, 0x36, 0x00,
  0x0d, 0x2b, 0x50, 0x81, 0x63, 0x2b, 0x00, 0x0d, 0x37, 0x50, 0x00, 0x3e,
  0x50, 0x81, 0x63, 0x37, 0x00, 0x00, 0x3e, 0x00, 0x0d, 0x2b, 0x50, 0x81,
  0x63, 0x2b, 0x00, 0x0d, 0x37, 0x50, 0x00, 0x3e, 0x50, 0x81, 0x63, 0x37,
  0x00, 0x00, 0x3e, 0x00, 0x0d, 0x2b, 0x50, 0x81, 0x63, 0x2b, 0x00, 0x0d,
  0x37, 0x50, 0x00, 0x3e, 0x50, 0x81, 0x63, 0x37, 0x00, 0x00, 0x3e, 0x00,
  0x0d, 0x2b, 0x50, 0x81, 0x63, 0x2b, 0x00, 0x0d, 0x37, 0x50, 0x00, 0x3e,
  0x50, 0x81, 0x63, 0x37, 0x00, 0x00, 0x3e, 0x00, 0x0d, 0x26, 0x50, 0x81,
  0x63, 0x26, 0x00, 0x0d, 0x32, 0x50, 0x00, 0x39, 0x50, 0x81, 0x63, 0x32,
  0x00, 0x00, 0x39, 0x00, 0x0d, 0x26, 0x50, 0x81, 0x63, 0x26, 0x00, 0x0d,
  0x32, 0x50, 0x00, 0x39, 0x50, 0x81, 0x63, 0x32, 0x00, 0x00, 0x39, 0x00,
  0x0d, 0x26, 0x50, 0x81, 0x63, 0x26, 0x00, 0x0d, 0x32, 0x50, 0x00, 0x39,
  0x50, 0x81, 0x63, 0x32, 0x00, 0x00, 0x39, 0x00, 0x0d, 0x26, 0x50, 0x81,
  0x63, 0x26, 0x00, 0x0d, 0x32, 0x50, 0x00, 0x39, 0x50, 0x81, 0x63, 0x32,
  0x00, 0x00, 0x39, 0x00, 0x0d, 0x2d, 0x50, 0x81, 0x63, 0x2d, 0x00, 0x0d,
  0x39, 0x50, 0x00, 0x40, 0x50, 0x81, 0x63, 0x39, 0x00, 0x00, 0x40, 0x00,
  0x0d, 0x2d, 0x50, 0x81, 0x63, 0x2d, 0x00, 0x0d, 0x39, 0x50, 0x00, 0x40,
  0x50, 0x81, 0x63, 0x39, 0x00, 0x00, 0x40, 0x00, 0x0d, 0x2d, 0x50, 0x81,
  0x63, 0x2d, 0x00, 0x0d, 0x39, 0x50, 0x00, 0x3e, 0x50, 0x81, 0x63, 0x39,
  0x00, 0x00, 0x3e, 0x00, 0x0d, 0x2d, 0x50, 0x81, 0x63, 0x2d, 0x00, 0x0d,
  0x39, 0x50, 0x00, 0x3e, 0x50, 0x81, 0x63, 0x39, 0x00, 0x00, 0x3e, 0x00,
  0x0d, 0x23, 0x50, 0x81, 0x63, 0x23, 0x00, 0x0d, 0x2f, 0x50, 0x00, 0x36,
  0x50, 0x81, 0x63, 0x2f, 0x00, 0x00, 0x36, 0x00, 0x0d, 0x23, 0x50, 0x81,
  0x63, 0x23, 0x00, 0x0d, 0x2f, 0x50, 0x00, 0x36, 0x50, 0x81, 0x63, 0x2f,
  0x00, 0x00, 0x36, 0x00, 0x0d, 0x23, 0x50, 0x81, 0x63, 0x23, 0x00, 0x0d,
  0x2f, 0x50, 0x00, 0x36, 0x50, 0x81, 0x63, 0x2f, 0x00, 0x00, 0x36, 0x00,
  0x0d, 0x23, 0x50, 0x81, 0x63, 0x23, 0x00, 0x0d, 0x2f, 0x50, 0x00, 0x36,
  0x50, 0x81, 0x63, 0x2f, 0x00, 0x00, 0x36, 0x00, 0x0d, 0x2b, 0x50, 0x81,
  0x63, 0x2b, 0x00, 0x0d, 0x37, 0x50, 0x00, 0x3e, 0x50, 0x81, 0x63, 0x37,
  0x00, 0x00, 0x3e, 0x00, 0x0d, 0x2b, 0x50, 0x81, 0x63, 0x2b, 0x00, 0x0d,
  0x37, 0x50, 0x00, 0x3e, 0x50, 0x81, 0x63, 0x37, 0x00, 0x00, 0x3e, 0x00,
  0x0d, 0x2b, 0x50, 0x81, 0x63, 0x2b, 0x00, 0x0d, 0x37, 0x50, 0x00, 0x3e,
  0x50, 0x81, 0x63, 0x37, 0x00, 0x00, 0x3e, 0x00, 0x0d, 0x2b, 0x50, 0x81,
  0x63, 0x2b, 0x00, 0x0d, 0x37, 0x50, 0x00, 0x3e, 0x50, 0x81, 0x63, 0x37,
  0x00, 0x00, 0x3e, 0x00, 0x0d, 0x26, 0x50, 0x81, 0x63, 0x26, 0x00, 0x0d,
  0x32, 0x50, 0x00, 0x39, 0x50, 0x81, 0x63, 0x32, 0x00, 0x00, 0x39, 0x00,
  0x0d, 0x26, 0x50, 0x81, 0x63, 0x26, 0x00, 0x0d, 0x32, 0x50, 0x00, 0x39,
  0x50, 0x81, 0x63, 0x32, 0x00, 0x00, 0x39, 0x00, 0x0d, 0x26, 0x50, 0x81,
  0x63, 0x26, 0x00, 0x0d, 0x32, 0x50, 0x00, 0x39, 0x50, 0x81, 0x63, 0x32,
  0x00, 0x00, 0x39, 0x00, 0x0d, 0x26, 0x50, 0x81, 0x63, 0x26, 0x00, 0x0d,
  0x32, 0x50, 0x00, 0x39, 0x50, 0x81, 0x63, 0x32, 0x00, 0x00, 0x39, 0x00,
  0x0d, 0x2d, 0x50, 0x81, 0x63, 0x2d, 0x00, 0x0d, 0x39, 0x50, 0x00, 0x40,
  0x50, 0x81, 0x63, 0x39, 0x00, 0x00, 0x40, 0x00, 0x0d, 0x2d, 0x50, 0x81,
  0x63, 0x2d, 0x00, 0x0d, 0x39, 0x50, 0x00, 0x40, 0x50, 0x81, 0x63, 0x39,
  0x00, 0x00, 0x40, 0x00, 0x0d, 0x2d, 0x50, 0x81, 0x63, 0x2d, 0x00, 0x0d,
  0x39, 0x50, 0x00, 0x3e, 0x50, 0x81, 0x63, 0x39, 0x00, 0x00, 0x3e, 0x00,
  0x0d, 0x2d, 0x50, 0x81, 0x63, 0x2d, 0x00, 0x0d, 0x39, 0x50, 0x00, 0x3e,
  0x50, 0x81, 0x63, 0x39, 0x00, 0x00, 0x3e, 0x00, 0x01, 0xff, 0x2f, 0x00,
  0x4d, 0x54, 0x72, 0x6b, 0x00, 0x00, 0x03, 0x84, 0x00, 0xff, 0x59, 0x02,
  0x02, 0x00, 0x00, 0xff, 0x59, 0x02, 0x00, 0x00, 0x00, 0xff, 0x59, 0x02,
  0x00, 0x00, 0x00, 0xff, 0x59, 0x02, 0x00, 0x00, 0x00, 0xff, 0x59, 0x02,
  0x00, 0x00, 0x00, 0xb5, 0x79, 0x00, 0x00, 0xc5, 0x19, 0x00, 0xb5, 0x07,
  0x64, 0x00, 0x0a, 0x40, 0x00, 0x5b, 0x00, 0x00, 0x5d, 0x00, 0x00, 0xff,
  0x21, 0x01, 0x00, 0x98, 0x30, 0x95, 0x49, 0x50, 0x77, 0x49, 0x00, 0x79,
  0x4a, 0x50, 0x77, 0x4a, 0x00, 0x79, 0x4c, 0x50, 0x77, 0x4c, 0x00, 0x8a,
  0x29, 0x51, 0x50, 0x77, 0x51, 0x00, 0x79, 0x4c, 0x50, 0x77, 0x4c, 0x00,
  0x79, 0x4a, 0x50, 0x77, 0x4a, 0x00, 0x8f, 0x79, 0xff, 0x59, 0x02, 0x02,
  0x00, 0x98, 0x30, 0x95, 0x49, 0x50, 0x77, 0x49, 0x00, 0x79, 0x4a, 0x50,
  0x77, 0x4a, 0x00, 0x79, 0x4c, 0x50, 0x77, 0x4c, 0x00, 0x8a, 0x29, 0x51,
  0x50, 0x77, 0x51, 0x00, 0x79, 0x4c, 0x50, 0x77, 0x4c, 0x00, 0x79, 0x4a,
  0x50, 0x77, 0x4a, 0x00, 0x95, 0x49, 0x47, 0x50, 0x3d, 0x47, 0x00, 0x01,
  0x49, 0x50, 0x3d, 0x49, 0x00, 0x01, 0x4e, 0x50, 0x82, 0x62, 0x4e, 0x00,
  0x02, 0x51, 0x50, 0x77, 0x51, 0x00, 0x01, 0x4c, 0x50, 0x77, 0x4c, 0x00,
  0x01, 0x4a, 0x50, 0x81, 0x6f, 0x4a, 0x00, 0x01, 0x4c, 0x50, 0x77, 0x4c,
  0x00, 0x01, 0x49, 0x50, 0x77, 0x49, 0x00, 0x01, 0x47, 0x50, 0x87, 0x3f,
  0x47, 0x00, 0x01, 0x42, 0x50, 0x77, 0x42, 0x00, 0x01, 0x47, 0x50, 0x77,
  0x47, 0x00, 0x01, 0x49, 0x50, 0x77, 0x49, 0x00, 0x79, 0x42, 0x50, 0x3d,
  0x42, 0x00, 0x01, 0x4a, 0x50, 0x57, 0x4a, 0x00, 0x5b, 0x4c, 0x50, 0x77,
  0x4c, 0x00, 0x79, 0x4e, 0x50, 0x83, 0x5f, 0x4e, 0x00, 0x01, 0x4c, 0x50,
  0x77, 0x4c, 0x00, 0x01, 0x51, 0x50, 0x77, 0x51, 0x00, 0x01, 0x4e, 0x50,
  0x83, 0x5f, 0x4e, 0x00, 0x01, 0x4c, 0x50, 0x77, 0x4c, 0x00, 0x01, 0x51,
  0x50, 0x3b, 0x51, 0x00, 0x3d, 0x4c, 0x50, 0x77, 0x4c, 0x00, 0x79, 0x4a,
  0x50, 0x77, 0x4a, 0x00, 0x79, 0x4c, 0x50, 0x87, 0x3f, 0x4c, 0x00, 0x01,
  0x47, 0x50, 0x77, 0x47, 0x00, 0x01, 0x4c, 0x50, 0x77, 0x4c, 0x00, 0x01,
  0x4a, 0x50, 0x81, 0x6f, 0x4a, 0x00, 0x01, 0x47, 0x50, 0x77, 0x47, 0x00,
  0x01, 0x49, 0x50, 0x77, 0x49, 0x00, 0x01, 0x45, 0x50, 0x81, 0x6f, 0x45,
  0x00, 0x85, 0x51, 0x47, 0x50, 0x3d, 0x47, 0x00, 0x01, 0x49, 0x50, 0x3d,
  0x49, 0x00, 0x01, 0x4e, 0x50, 0x82, 0x62, 0x4e, 0x00, 0x02, 0x51, 0x50,
  0x77, 0x51, 0x00, 0x01, 0x4c, 0x50, 0x77, 0x4c, 0x00, 0x01, 0x4a, 0x50,
  0x81, 0x6f, 0x4a, 0x00, 0x01, 0x4c, 0x50, 0x77, 0x4c, 0x00, 0x01, 0x49,
  0x50, 0x77, 0x49, 0x00, 0x01, 0x47, 0x50, 0x87, 0x3f, 0x47, 0x00, 0x01,
  0x42, 0x50, 0x77, 0x42, 0x00, 0x01, 0x47, 0x50, 0x77, 0x47, 0x00, 0x01,
  0x49, 0x50, 0x77, 0x49, 0x00, 0x79, 0x42, 0x50, 0x3d, 0x42, 0x00, 0x01,
  0x4a, 0x50, 0x57, 0x4a, 0x00, 0x5b, 0x4c, 0x50, 0x77, 0x4c, 0x00, 0x79,
  0x4e, 0x50, 0x83, 0x5f, 0x4e, 0x00, 0x01, 0x4c, 0x50, 0x77, 0x4c, 0x00,
  0x01, 0x51, 0x50, 0x77, 0x51, 0x00, 0x01, 0x4e, 0x50, 0x83, 0x5f, 0x4e,
  0x00, 0x01, 0x4c, 0x50, 0x77, 0x4c, 0x00, 0x01, 0x51, 0x50, 0x3b, 0x51,
  0x00, 0x3d, 0x4c, 0x50, 0x77, 0x4c, 0x00, 0x79, 0x4a, 0x50, 0x77, 0x4a,
  0x00, 0x79, 0x4c, 0x50, 0x87, 0x3f, 0x4c, 0x00, 0x01, 0x47, 0x50, 0x77,
  0x47, 0x00, 0x01, 0x4c, 0x50, 0x77, 0x4c, 0x00, 0x01, 0x4a, 0x50, 0x81,
  0x6f, 0x4a, 0x00, 0x01, 0x47, 0x50, 0x77, 0x47, 0x00, 0x01, 0x49, 0x50,
  0x77, 0x49, 0x00, 0x01, 0x45, 0x50, 0x81, 0x6f, 0x45, 0x00, 0x85, 0x51,
  0x47, 0x50, 0x3d, 0x47, 0x00, 0x01, 0x49, 0x50, 0x3d, 0x49, 0x00, 0x01,
  0x4e, 0x50, 0x82, 0x62, 0x4e, 0x00, 0x02, 0x51, 0x50, 0x77, 0x51, 0x00,
  0x01, 0x4c, 0x50, 0x77, 0x4c, 0x00, 0x01, 0x4a, 0x50, 0x81, 0x6f, 0x4a,
  0x00, 0x01, 0x4c, 0x50, 0x77, 0x4c, 0x00, 0x01, 0x49, 0x50, 0x77, 0x49,
  0x00, 0x01, 0x47, 0x50, 0x87, 0x3f, 0x47, 0x00, 0x01, 0x42, 0x50, 0x77,
  0x42, 0x00, 0x01, 0x47, 0x50, 0x77, 0x47, 0x00, 0x01, 0x49, 0x50, 0x77,
  0x49, 0x00, 0x79, 0x42, 0x50, 0x3d, 0x42, 0x00, 0x01, 0x4a, 0x50, 0x57,
  0x4a, 0x00, 0x5b, 0x4c, 0x50, 0x77, 0x4c, 0x00, 0x79, 0x4e, 0x50, 0x83,
  0x5f, 0x4e, 0x00, 0x01, 0x4c, 0x50, 0x77, 0x4c, 0x00, 0x01, 0x51, 0x50,
  0x77, 0x51, 0x00, 0x01, 0x4e, 0x50, 0x83, 0x5f, 0x4e, 0x00, 0x01, 0x4c,
  0x50, 0x77, 0x4c, 0x00, 0x01, 0x51, 0x50, 0x3b, 0x51, 0x00, 0x3d, 0x4c,
  0x50, 0x77, 0x4c, 0x00, 0x79, 0x4a, 0x50, 0x77, 0x4a, 0x00, 0x79, 0x4c,
  0x50, 0x87, 0x3f, 0x4c, 0x00, 0x01, 0x47, 0x50, 0x77, 0x47, 0x00, 0x01,
  0x4c, 0x50, 0x77, 0x4c, 0x00, 0x01, 0x4a, 0x50, 0x81, 0x6f, 0x4a, 0x00,
  0x01, 0x47, 0x50, 0x77, 0x47, 0x00, 0x01, 0x49, 0x50, 0x77, 0x49, 0x00,
  0x01, 0x45, 0x50, 0x81, 0x6f, 0x45, 0x00, 0x85, 0x51, 0x47, 0x50, 0x3d,
  0x47, 0x00, 0x01, 0x49, 0x50, 0x3d, 0x49, 0x00, 0x01, 0x4e, 0x50, 0x82,
  0x62, 0x4e, 0x00, 0x02, 0x51, 0x50, 0x77, 0x51, 0x00, 0x01, 0x4c, 0x50,
  0x77, 0x4c, 0x00, 0x01, 0x4a, 0x50, 0x81, 0x6f, 0x4a, 0x00, 0x01, 0x4c,
  0x50, 0x77, 0x4c, 0x00, 0x01, 0x49, 0x50, 0x77, 0x49, 0x00, 0x01, 0x47,
  0x50, 0x87, 0x3f, 0x47, 0x00, 0x01, 0x42, 0x50, 0x77, 0x42, 0x00, 0x01,
  0x47, 0x50, 0x77, 0x47, 0x00, 0x01, 0x49, 0x50, 0x77, 0x49, 0x00, 0x79,
  0x42, 0x50, 0x3d, 0x42, 0x00, 0x01, 0x4a, 0x50, 0x57, 0x4a, 0x00, 0x5b,
  0x4c, 0x50, 0x77, 0x4c, 0x00, 0x79, 0x4e, 0x50, 0x83, 0x5f, 0x4e, 0x00,
  0x01, 0x4c, 0x50, 0x77, 0x4c, 0x00, 0x01, 0x51, 0x50, 0x77, 0x51, 0x00,
  0x01, 0x4e, 0x50, 0x83, 0x5f, 0x4e, 0x00, 0x01, 0x4c, 0x50, 0x77, 0x4c,
  0x00, 0x01, 0x51, 0x50, 0x3b, 0x51, 0x00, 0x3d, 0x4c, 0x50, 0x77, 0x4c,
  0x00, 0x79, 0x4a, 0x50, 0x77, 0x4a, 0x00, 0x79, 0x4c, 0x50, 0x87, 0x3f,
  0x4c, 0x00, 0x01, 0x47, 0x50, 0x77, 0x47, 0x00, 0x01, 0x4c, 0x50, 0x77,
  0x4c, 0x00, 0x01, 0x4a, 0x50, 0x81, 0x6f, 0x4a, 0x00, 0x01, 0x47, 0x50,
  0x77, 0x47, 0x00, 0x01, 0x49, 0x50, 0x77, 0x49, 0x00, 0x01, 0x45, 0x50,
  0x81, 0x6f, 0x45, 0x00, 0x01, 0xff, 0x2f, 0x00, 0x4d, 0x54, 0x72, 0x6b,
  0x00, 0x00, 0x00, 0xc2, 0x00, 0xff, 0x59, 0x02, 0x00, 0x00, 0x00, 0xff,
  0x59, 0x02, 0x00, 0x00, 0x00, 0xff, 0x59, 0x02, 0x00, 0x00, 0x00, 0xff,
  0x59, 0x02, 0x00, 0x00, 0x00, 0xff, 0x59, 0x02, 0x00, 0x00, 0x00, 0xff,
  0x59, 0x02, 0x00, 0x00, 0x00, 0xb9, 0x79, 0x00, 0x00, 0xc9, 0x00, 0x00,
  0xb9, 0x07, 0x64, 0x00, 0x0a, 0x40, 0x00, 0x5b, 0x00, 0x00, 0x5d, 0x00,
  0x00, 0xff, 0x21, 0x01, 0x00, 0xff, 0x40, 0x99, 0x26, 0x50, 0x87, 0x3f,
  0x26, 0x00, 0x87, 0x41, 0x26, 0x50, 0x87, 0x3f, 0x26, 0x00, 0x87, 0x41,
  0x26, 0x50, 0x87, 0x3f, 0x26, 0x00, 0x87, 0x41, 0x26, 0x50, 0x87, 0x3f,
  0x26, 0x00, 0x87, 0x41, 0x26, 0x50, 0x87, 0x3f, 0x26, 0x00, 0x87, 0x41,
  0x26, 0x50, 0x87, 0x3f, 0x26, 0x00, 0x87, 0x41, 0x26, 0x50, 0x87, 0x3f,
  0x26, 0x00, 0x87, 0x41, 0x26, 0x50, 0x87, 0x3f, 0x26, 0x00, 0x87, 0x41,
  0x26, 0x50, 0x87, 0x3f, 0x26, 0x00, 0x87, 0x41, 0x26, 0x50, 0x87, 0x3f,
  0x26, 0x00, 0x87, 0x41, 0x26, 0x50, 0x87, 0x3f, 0x26, 0x00, 0x87, 0x41,
  0x26, 0x50, 0x87, 0x3f, 0x26, 0x00, 0x87, 0x41, 0x26, 0x50, 0x87, 0x3f,
  0x26, 0x00, 0x87, 0x41, 0x26, 0x50, 0x87, 0x3f, 0x26, 0x00, 0x87, 0x41,
  0x26, 0x50, 0x87, 0x3f, 0x26, 0x00, 0x87, 0x41, 0x26, 0x50, 0x87, 0x3f,
  0x26, 0x00, 0x01, 0xff, 0x2f, 0x00, 0x4d, 0x54, 0x72, 0x6b, 0x00, 0x00,
  0x01, 0x72, 0x00, 0xff, 0x59, 0x02, 0x00, 0x00, 0x00, 0xff, 0x59, 0x02,
  0x00, 0x00, 0x00, 0xff, 0x59, 0x02, 0x00, 0x00, 0x00, 0xff, 0x59, 0x02,
  0x00, 0x00, 0x00, 0xff, 0x59, 0x02, 0x00, 0x00, 0x00, 0xff, 0x59, 0x02,
  0x00, 0x00, 0x00, 0xb9, 0x79, 0x00, 0x00, 0xc9, 0x00, 0x00, 0xb9, 0x07,
  0x64, 0x00, 0x0a, 0x40, 0x00, 0x5b, 0x00, 0x00, 0x5d, 0x00, 0x00, 0xff,
  0x21, 0x01, 0x00, 0xf8, 0x00, 0x99, 0x23, 0x50, 0x85, 0x4f, 0x23, 0x00,
  0x01, 0x23, 0x50, 0x81, 0x6f, 0x23, 0x00, 0x83, 0x61, 0x23, 0x50, 0x81,
  0x6f, 0x23, 0x00, 0x81, 0x71, 0x23, 0x50, 0x85, 0x4f, 0x23, 0x00, 0x01,
  0x23, 0x50, 0x81, 0x6f, 0x23, 0x00, 0x87, 0x41, 0x23, 0x50, 0x85, 0x4f,
  0x23, 0x00, 0x01, 0x23, 0x50, 0x81, 0x6f, 0x23, 0x00, 0x83, 0x61, 0x23,
  0x50, 0x81, 0x6f, 0x23, 0x00, 0x81, 0x71, 0x23, 0x50, 0x85, 0x4f, 0x23,
  0x00, 0x01, 0x23, 0x50, 0x81, 0x6f, 0x23, 0x00, 0x87, 0x41, 0x23, 0x50,
  0x85, 0x4f, 0x23, 0x00, 0x01, 0x23, 0x50, 0x81, 0x6f, 0x23, 0x00, 0x83,
  0x61, 0x23, 0x50, 0x81, 0x6f, 0x23, 0x00, 0x81, 0x71, 0x23, 0x50, 0x85,
  0x4f, 0x23, 0x00, 0x01, 0x23, 0x50, 0x81, 0x6f, 0x23, 0x00, 0x87, 0x41,
  0x23, 0x50, 0x85, 0x4f, 0x23, 0x00, 0x01, 0x23, 0x50, 0x81, 0x6f, 0x23,
  0x00, 0x83, 0x61, 0x23, 0x50, 0x81, 0x6f, 0x23, 0x00, 0x81, 0x71, 0x23,
  0x50, 0x85, 0x4f, 0x23, 0x00, 0x01, 0x23, 0x50, 0x81, 0x6f, 0x23, 0x00,
  0x87, 0x41, 0x23, 0x50, 0x85, 0x4f, 0x23, 0x00, 0x01, 0x23, 0x50, 0x81,
  0x6f, 0x23, 0x00, 0x83, 0x61, 0x23, 0x50, 0x81, 0x6f, 0x23, 0x00, 0x81,
  0x71, 0x23, 0x50, 0x85, 0x4f, 0x23, 0x00, 0x01, 0x23, 0x50, 0x81, 0x6f,
  0x23, 0x00, 0x87, 0x41, 0x23, 0x50, 0x85, 0x4f, 0x23, 0x00, 0x01, 0x23,
  0x50, 0x81, 0x6f, 0x23, 0x00, 0x83, 0x61, 0x23, 0x50, 0x81, 0x6f, 0x23,
  0x00, 0x81, 0x71, 0x23, 0x50, 0x85, 0x4f, 0x23, 0x00, 0x01, 0x23, 0x50,
  0x81, 0x6f, 0x23, 0x00, 0x87, 0x41, 0x23, 0x50, 0x85, 0x4f, 0x23, 0x00,
  0x01, 0x23, 0x50, 0x81, 0x6f, 0x23, 0x00, 0x83, 0x61, 0x23, 0x50, 0x81,
  0x6f, 0x23, 0x00, 0x81, 0x71, 0x23, 0x50, 0x85, 0x4f, 0x23, 0x00, 0x01,
  0x23, 0x50, 0x81, 0x6f, 0x23, 0x00, 0x87, 0x41, 0x23, 0x50, 0x85, 0x4f,
  0x23, 0x00, 0x01, 0x23, 0x50, 0x81, 0x6f, 0x23, 0x00, 0x83, 0x61, 0x23,
  0x50, 0x81, 0x6f, 0x23, 0x00, 0x81, 0x71, 0x23, 0x50, 0x85, 0x4f, 0x23,
  0x00, 0x01, 0x23, 0x50, 0x81, 0x6f, 0x23, 0x00, 0x01, 0xff, 0x2f, 0x00,
  0x4d, 0x54, 0x72, 0x6b, 0x00, 0x00, 0x01, 0x42, 0x00, 0xff, 0x59, 0x02,
  0x00, 0x00, 0x00, 0xff, 0x59, 0x02, 0x00, 0x00, 0x00, 0xff, 0x59, 0x02,
  0x00, 0x00, 0x00, 0xff, 0x59, 0x02, 0x00, 0x00, 0x00, 0xff, 0x59, 0x02,
  0x00, 0x00, 0x00, 0xff, 0x59, 0x02, 0x00, 0x00, 0x00, 0xb9, 0x79, 0x00,
  0x00, 0xc9, 0x00, 0x00, 0xb9, 0x07, 0x64, 0x00, 0x0a, 0x40, 0x00, 0x5b,
  0x00, 0x00, 0x5d, 0x00, 0x00, 0xff, 0x21, 0x01, 0x00, 0xf8, 0x00, 0x99,
  0x4c, 0x50, 0x77, 0x4c, 0x00, 0x01, 0x4c, 0x50, 0x77, 0x4c, 0x00, 0x01,
  0x4c, 0x50, 0x77, 0x4c, 0x00, 0x01, 0x4c, 0x50, 0x77, 0x4c, 0x00, 0x01,
  0x4c, 0x50, 0x83, 0x5f, 0x4c, 0x00, 0x96, 0x41, 0x4c, 0x50, 0x77, 0x4c,
  0x00, 0x01, 0x4c, 0x50, 0x77, 0x4c, 0x00, 0x01, 0x4c, 0x50, 0x77, 0x4c,
  0x00, 0x01, 0x4c, 0x50, 0x77, 0x4c, 0x00, 0x01, 0x4c, 0x50, 0x83, 0x5f,
  0x4c, 0x00, 0x96, 0x41, 0x4c, 0x50, 0x77, 0x4c, 0x00, 0x01, 0x4c, 0x50,
  0x77, 0x4c, 0x00, 0x01, 0x4c, 0x50, 0x77, 0x4c, 0x00, 0x01, 0x4c, 0x50,
  0x77, 0x4c, 0x00, 0x01, 0x4c, 0x50, 0x83, 0x5f, 0x4c, 0x00, 0x96, 0x41,
  0x4c, 0x50, 0x77, 0x4c, 0x00, 0x01, 0x4c, 0x50, 0x77, 0x4c, 0x00, 0x01,
  0x4c, 0x50, 0x77, 0x4c, 0x00, 0x01, 0x4c, 0x50, 0x77, 0x4c, 0x00, 0x01,
  0x4c, 0x50, 0x83, 0x5f, 0x4c, 0x00, 0x96, 0x41, 0x4c, 0x50, 0x77, 0x4c,
  0x00, 0x01, 0x4c, 0x50, 0x77, 0x4c, 0x00, 0x01, 0x4c, 0x50, 0x77, 0x4c,
  0x00, 0x01, 0x4c, 0x50, 0x77, 0x4c, 0x00, 0x01, 0x4c, 0x50, 0x83, 0x5f,
  0x4c, 0x00, 0x96, 0x41, 0x4c, 0x50, 0x77, 0x4c, 0x00, 0x01, 0x4c, 0x50,
  0x77, 0x4c, 0x00, 0x01, 0x4c, 0x50, 0x77, 0x4c, 0x00, 0x01, 0x4c, 0x50,
  0x77, 0x4c, 0x00, 0x01, 0x4c, 0x50, 0x83, 0x5f, 0x4c, 0x00, 0x96, 0x41,
  0x4c, 0x50, 0x77, 0x4c, 0x00, 0x01, 0x4c, 0x50, 0x77, 0x4c, 0x00, 0x01,
  0x4c, 0x50, 0x77, 0x4c, 0x00, 0x01, 0x4c, 0x50, 0x77, 0x4c, 0x00, 0x01,
  0x4c, 0x50, 0x83, 0x5f, 0x4c, 0x00, 0x96, 0x41, 0x4c, 0x50, 0x77, 0x4c,
  0x00, 0x01, 0x4c, 0x50, 0x77, 0x4c, 0x00, 0x01, 0x4c, 0x50, 0x77, 0x4c,
  0x00, 0x01, 0x4c, 0x50, 0x77, 0x4c, 0x00, 0x01, 0x4c, 0x50, 0x83, 0x5f,
  0x4c, 0x00, 0x01, 0xff, 0x2f, 0x00, 0x4d, 0x54, 0x72, 0x6b, 0x00, 0x00,
  0x05, 0x5b, 0x00, 0xff, 0x59, 0x02, 0x00, 0x00, 0x00, 0xff, 0x59, 0x02,
  0x00, 0x00, 0x00, 0xff, 0x59, 0x02, 0x00, 0x00, 0x00, 0xff, 0x59, 0x02,
  0x00, 0x00, 0x00, 0xff, 0x59, 0x02, 0x00, 0x00, 0x00, 0xff, 0x59, 0x02,
  0x00, 0x00, 0x00, 0xb9, 0x79, 0x00, 0x00, 0xc9, 0x00, 0x00, 0xb9, 0x07,
  0x64, 0x00, 0x0a, 0x40, 0x00, 0x5b, 0x00, 0x00, 0x5d, 0x00, 0x00, 0xff,
  0x21, 0x01, 0x00, 0xf8, 0x00, 0x99, 0x36, 0x31, 0x81, 0x6f, 0x36, 0x00,
  0x01, 0x36, 0x31, 0x77, 0x36, 0x00, 0x01, 0x36, 0x31, 0x77, 0x36, 0x00,
  0x01, 0x36, 0x31, 0x81, 0x6f, 0x36, 0x00, 0x01, 0x36, 0x31, 0x77, 0x36,
  0x00, 0x01, 0x36, 0x31, 0x77, 0x36, 0x00, 0x01, 0x36, 0x31, 0x81, 0x6f,
  0x36, 0x00, 0x01, 0x36, 0x31, 0x77, 0x36, 0x00, 0x01, 0x36, 0x31, 0x77,
  0x36, 0x00, 0x01, 0x36, 0x31, 0x81, 0x6f, 0x36, 0x00, 0x01, 0x36, 0x31,
  0x77, 0x36, 0x00, 0x01, 0x36, 0x31, 0x77, 0x36, 0x00, 0x01, 0x36, 0x31,
  0x81, 0x6f, 0x36, 0x00, 0x01, 0x36, 0x31, 0x77, 0x36, 0x00, 0x01, 0x36,
  0x31, 0x77, 0x36, 0x00, 0x01, 0x36, 0x31, 0x81, 0x6f, 0x36, 0x00, 0x01,
  0x36, 0x31, 0x77, 0x36, 0x00, 0x01, 0x36, 0x31, 0x77, 0x36, 0x00, 0x01,
  0x36, 0x31, 0x81, 0x6f, 0x36, 0x00, 0x01, 0x36, 0x31, 0x77, 0x36, 0x00,
  0x01, 0x36, 0x31, 0x77, 0x36, 0x00, 0x01, 0x36, 0x31, 0x3b, 0x36, 0x00,
  0x01, 0x36, 0x31, 0x3b, 0x36, 0x00, 0x01, 0x36, 0x31, 0x3b, 0x36, 0x00,
  0x01, 0x36, 0x31, 0x3b, 0x36, 0x00, 0x01, 0x36, 0x31, 0x77, 0x36, 0x00,
  0x79, 0x36, 0x31, 0x81, 0x6f, 0x36, 0x00, 0x01, 0x36, 0x31, 0x77, 0x36,
  0x00, 0x01, 0x36, 0x31, 0x77, 0x36, 0x00, 0x01, 0x36, 0x31, 0x81, 0x6f,
  0x36, 0x00, 0x01, 0x36, 0x31, 0x77, 0x36, 0x00, 0x01, 0x36, 0x31, 0x77,
  0x36, 0x00, 0x01, 0x36, 0x31, 0x81, 0x6f, 0x36, 0x00, 0x01, 0x36, 0x31,
  0x77, 0x36, 0x00, 0x01, 0x36, 0x31, 0x77, 0x36, 0x00, 0x01, 0x36, 0x31,
  0x81, 0x6f, 0x36, 0x00, 0x01, 0x36, 0x31, 0x77, 0x36, 0x00, 0x01, 0x36,
  0x31, 0x77, 0x36, 0x00, 0x01, 0x36, 0x31, 0x81, 0x6f, 0x36, 0x00, 0x01,
  0x36, 0x31, 0x77, 0x36, 0x00, 0x01, 0x36, 0x31, 0x77, 0x36, 0x00, 0x01,
  0x36, 0x31, 0x81, 0x6f, 0x36, 0x00, 0x01, 0x36, 0x31, 0x77, 0x36, 0x00,
  0x01, 0x36, 0x31, 0x77, 0x36, 0x00, 0x01, 0x36, 0x31, 0x81, 0x6f, 0x36,
  0x00, 0x01, 0x36, 0x31, 0x77, 0x36, 0x00, 0x01, 0x36, 0x31, 0x77, 0x36,
  0x00, 0x01, 0x36, 0x31, 0x3b, 0x36, 0x00, 0x01, 0x36, 0x31, 0x3b, 0x36,
  0x00, 0x01, 0x36, 0x31, 0x3b, 0x36, 0x00, 0x01, 0x36, 0x31, 0x3b, 0x36,
  0x00, 0x01, 0x36, 0x31, 0x77, 0x36, 0x00, 0x79, 0x36, 0x31, 0x81, 0x6f,
  0x36, 0x00, 0x01, 0x36, 0x31, 0x77, 0x36, 0x00, 0x01, 0x36, 0x31, 0x77,
  0x36, 0x00, 0x01, 0x36, 0x31, 0x81, 0x6f, 0x36, 0x00, 0x01, 0x36, 0x31,
  0x77, 0x36, 0x00, 0x01, 0x36, 0x31, 0x77, 0x36, 0x00, 0x01, 0x36, 0x31,
  0x81, 0x6f, 0x36, 0x00, 0x01, 0x36, 0x31, 0x77, 0x36, 0x00, 0x01, 0x36,
  0x31, 0x77, 0x36, 0x00, 0x01, 0x36, 0x31, 0x81, 0x6f, 0x36, 0x00, 0x01,
  0x36, 0x31, 0x77, 0x36, 0x00, 0x01, 0x36, 0x31, 0x77, 0x36, 0x00, 0x01,
  0x36, 0x31, 0x81, 0x6f, 0x36, 0x00, 0x01, 0x36, 0x31, 0x77, 0x36, 0x00,
  0x01, 0x36, 0x31, 0x77, 0x36, 0x00, 0x01, 0x36, 0x31, 0x81, 0x6f, 0x36,
  0x00, 0x01, 0x36, 0x31, 0x77, 0x36, 0x00, 0x01, 0x36, 0x31, 0x77, 0x36,
  0x00, 0x01, 0x36, 0x31, 0x81, 0x6f, 0x36, 0x00, 0x01, 0x36, 0x31, 0x77,
  0x36, 0x00, 0x01, 0x36, 0x31, 0x77, 0x36, 0x00, 0x01, 0x36, 0x31, 0x3b,
  0x36, 0x00, 0x01, 0x36, 0x31, 0x3b, 0x36, 0x00, 0x01, 0x36, 0x31, 0x3b,
  0x36, 0x00, 0x01, 0x36, 0x31, 0x3b, 0x36, 0x00, 0x01, 0x36, 0x31, 0x77,
  0x36, 0x00, 0x79, 0x36, 0x31, 0x81, 0x6f, 0x36, 0x00, 0x01, 0x36, 0x31,
  0x77, 0x36, 0x00, 0x01, 0x36, 0x31, 0x77, 0x36, 0x00, 0x01, 0x36, 0x31,
  0x81, 0x6f, 0x36, 0x00, 0x01, 0x36, 0x31, 0x77, 0x36, 0x00, 0x01, 0x36,
  0x31, 0x77, 0x36, 0x00, 0x01, 0x36, 0x31, 0x81, 0x6f, 0x36, 0x00, 0x01,
  0x36, 0x31, 0x77, 0x36, 0x00, 0x01, 0x36, 0x31, 0x77, 0x36, 0x00, 0x01,
  0x36, 0x31, 0x81, 0x6f, 0x36, 0x00, 0x01, 0x36, 0x31, 0x77, 0x36, 0x00,
  0x01, 0x36, 0x31, 0x77, 0x36, 0x00, 0x01, 0x36, 0x31, 0x81, 0x6f, 0x36,
  0x00, 0x01, 0x36, 0x31, 0x77, 0x36, 0x00, 0x01, 0x36, 0x31, 0x77, 0x36,
  0x00, 0x01, 0x36, 0x31, 0x81, 0x6f, 0x36, 0x00, 0x01, 0x36, 0x31, 0x77,
  0x36, 0x00, 0x01, 0x36, 0x31, 0x77, 0x36, 0x00, 0x01, 0x36, 0x31, 0x81,
  0x6f, 0x36, 0x00, 0x01, 0x36, 0x31, 0x77, 0x36, 0x00, 0x01, 0x36, 0x31,
  0x77, 0x36, 0x00, 0x01, 0x36, 0x31, 0x3b, 0x36, 0x00, 0x01, 0x36, 0x31,
  0x3b, 0x36, 0x00, 0x01, 0x36, 0x31, 0x3b, 0x36, 0x00, 0x01, 0x36, 0x31,
  0x3b, 0x36, 0x00, 0x01, 0x36, 0x31, 0x77, 0x36, 0x00, 0x79, 0x36, 0x31,
  0x81, 0x6f, 0x36, 0x00, 0x01, 0x36, 0x31, 0x77, 0x36, 0x00, 0x01, 0x36,
  0x31, 0x77, 0x36, 0x00, 0x01, 0x36, 0x31, 0x81, 0x6f, 0x36, 0x00, 0x01,
  0x36, 0x31, 0x77, 0x36, 0x00, 0x01, 0x36, 0x31, 0x77, 0x36, 0x00, 0x01,
  0x36, 0x31, 0x81, 0x6f, 0x36, 0x00, 0x01, 0x36, 0x31, 0x77, 0x36, 0x00,
  0x01, 0x36, 0x31, 0x77, 0x36, 0x00, 0x01, 0x36, 0x31, 0x81, 0x6f, 0x36,
  0x00, 0x01, 0x36, 0x31, 0x77, 0x36, 0x00, 0x01, 0x36, 0x31, 0x77, 0x36,
  0x00, 0x01, 0x36, 0x31, 0x81, 0x6f, 0x36, 0x00, 0x01, 0x36, 0x31, 0x77,
  0x36, 0x00, 0x01, 0x36, 0x31, 0x77, 0x36, 0x00, 0x01, 0x36, 0x31, 0x81,
  0x6f, 0x36, 0x00, 0x01, 0x36, 0x31, 0x77, 0x36, 0x00, 0x01, 0x36, 0x31,
  0x77, 0x36, 0x00, 0x01, 0x36, 0x31, 0x81, 0x6f, 0x36, 0x00, 0x01, 0x36,
  0x31, 0x77, 0x36, 0x00, 0x01, 0x36, 0x31, 0x77, 0x36, 0x00, 0x01, 0x36,
  0x31, 0x3b, 0x36, 0x00, 0x01, 0x36, 0x31, 0x3b, 0x36, 0x00, 0x01, 0x36,
  0x31, 0x3b, 0x36, 0x00, 0x01, 0x36, 0x31, 0x3b, 0x36, 0x00, 0x01, 0x36,
  0x31, 0x77, 0x36, 0x00, 0x79, 0x36, 0x31, 0x81, 0x6f, 0x36, 0x00, 0x01,
  0x36, 0x31, 0x77, 0x36, 0x00, 0x01, 0x36, 0x31, 0x77, 0x36, 0x00, 0x01,
  0x36, 0x31, 0x81, 0x6f, 0x36, 0x00, 0x01, 0x36, 0x31, 0x77, 0x36, 0x00,
  0x01, 0x36, 0x31, 0x77, 0x36, 0x00, 0x01, 0x36, 0x31, 0x81, 0x6f, 0x36,
  0x00, 0x01, 0x36, 0x31, 0x77, 0x36, 0x00, 0x01, 0x36, 0x31, 0x77, 0x36,
  0x00, 0x01, 0x36, 0x31, 0x81, 0x6f, 0x36, 0x00, 0x01, 0x36, 0x31, 0x77,
  0x36, 0x00, 0x01, 0x36, 0x31, 0x77, 0x36, 0x00, 0x01, 0x36, 0x31, 0x81,
  0x6f, 0x36, 0x00, 0x01, 0x36, 0x31, 0x77, 0x36, 0x00, 0x01, 0x36, 0x31,
  0x77, 0x36, 0x00, 0x01, 0x36, 0x31, 0x81, 0x6f, 0x36, 0x00, 0x01, 0x36,
  0x31, 0x77, 0x36, 0x00, 0x01, 0x36, 0x31, 0x77, 0x36, 0x00, 0x01, 0x36,
  0x31, 0x81, 0x6f, 0x36, 0x00, 0x01, 0x36, 0x31, 0x77, 0x36, 0x00, 0x01,
  0x36, 0x31, 0x77, 0x36, 0x00, 0x01, 0x36, 0x31, 0x3b, 0x36, 0x00, 0x01,
  0x36, 0x31, 0x3b, 0x36, 0x00, 0x01, 0x36, 0x31, 0x3b, 0x36, 0x00, 0x01,
  0x36, 0x31, 0x3b, 0x36, 0x00, 0x01, 0x36, 0x31, 0x77, 0x36, 0x00, 0x79,
  0x36, 0x31, 0x81, 0x6f, 0x36, 0x00, 0x01, 0x36, 0x31, 0x77, 0x36, 0x00,
  0x01, 0x36, 0x31, 0x77, 0x36, 0x00, 0x01, 0x36, 0x31, 0x81, 0x6f, 0x36,
  0x00, 0x01, 0x36, 0x31, 0x77, 0x36, 0x00, 0x01, 0x36, 0x31, 0x77, 0x36,
  0x00, 0x01, 0x36, 0x31, 0x81, 0x6f, 0x36, 0x00, 0x01, 0x36, 0x31, 0x77,
  0x36, 0x00, 0x01, 0x36, 0x31, 0x77, 0x36, 0x00, 0x01, 0x36, 0x31, 0x81,
  0x6f, 0x36, 0x00, 0x01, 0x36, 0x31, 0x77, 0x36, 0x00, 0x01, 0x36, 0x31,
  0x77, 0x36, 0x00, 0x01, 0x36, 0x31, 0x81, 0x6f, 0x36, 0x00, 0x01, 0x36,
  0x31, 0x77, 0x36, 0x00, 0x01, 0x36, 0x31, 0x77, 0x36, 0x00, 0x01, 0x36,
  0x31, 0x81, 0x6f, 0x36, 0x00, 0x01, 0x36, 0x31, 0x77, 0x36, 0x00, 0x01,
  0x36, 0x31, 0x77, 0x36, 0x00, 0x01, 0x36, 0x31, 0x81, 0x6f, 0x36, 0x00,
  0x01, 0x36, 0x31, 0x77, 0x36, 0x00, 0x01, 0x36, 0x31, 0x77, 0x36, 0x00,
  0x01, 0x36, 0x31, 0x3b, 0x36, 0x00, 0x01, 0x36, 0x31, 0x3b, 0x36, 0x00,
  0x01, 0x36, 0x31, 0x3b, 0x36, 0x00, 0x01, 0x36, 0x31, 0x3b, 0x36, 0x00,
  0x01, 0x36, 0x31, 0x77, 0x36, 0x00, 0x79, 0x36, 0x31, 0x81, 0x6f, 0x36,
  0x00, 0x01, 0x36, 0x31, 0x77, 0x36, 0x00, 0x01, 0x36, 0x31, 0x77, 0x36,
  0x00, 0x01, 0x36, 0x31, 0x81, 0x6f, 0x36, 0x00, 0x01, 0x36, 0x31, 0x77,
  0x36, 0x00, 0x01, 0x36, 0x31, 0x77, 0x36, 0x00, 0x01, 0x36, 0x31, 0x81,
  0x6f, 0x36, 0x00, 0x01, 0x36, 0x31, 0x77, 0x36, 0x00, 0x01, 0x36, 0x31,
  0x77, 0x36, 0x00, 0x01, 0x36, 0x31, 0x81, 0x6f, 0x36, 0x00, 0x01, 0x36,
  0x31, 0x77, 0x36, 0x00, 0x01, 0x36, 0x31, 0x77, 0x36, 0x00, 0x01, 0x36,
  0x31, 0x81, 0x6f, 0x36, 0x00, 0x01, 0x36, 0x31, 0x77, 0x36, 0x00, 0x01,
  0x36, 0x31, 0x77, 0x36, 0x00, 0x01, 0x36, 0x31, 0x81, 0x6f, 0x36, 0x00,
  0x01, 0x36, 0x31, 0x77, 0x36, 0x00, 0x01, 0x36, 0x31, 0x77, 0x36, 0x00,
  0x01, 0x36, 0x31, 0x81, 0x6f, 0x36, 0x00, 0x01, 0x36, 0x31, 0x77, 0x36,
  0x00, 0x01, 0x36, 0x31, 0x77, 0x36, 0x00, 0x01, 0x36, 0x31, 0x3b, 0x36,
  0x00, 0x01, 0x36, 0x31, 0x3b, 0x36, 0x00, 0x01, 0x36, 0x31, 0x3b, 0x36,
  0x00, 0x01, 0x36, 0x31, 0x3b, 0x36, 0x00, 0x01, 0x36, 0x31, 0x77, 0x36,
  0x00, 0x01, 0xff, 0x2f, 0x00
};
